<svg width="167" height="32px" viewBox="0 0 41 8" fill="none" xmlns="http://www.w3.org/2000/svg">
                                                <path d="M3.50371 3.91561C3.50371 3.2317 2.98867 2.75043 2.35543 2.75043C1.72218 2.75043 1.20714 3.24014 1.20714 3.91561C1.20714 4.58262 1.72218 5.08078 2.35543 5.08078C2.98867 5.08078 3.50371 4.59951 3.50371 3.91561ZM3.51216 5.95044V5.41851C3.19975 5.78157 2.73537 6.00954 2.17812 6.00954C1.02139 6.00954 0.151733 5.11455 0.151733 3.91561C0.151733 2.71666 1.06361 1.81323 2.20345 1.81323C2.74382 1.81323 3.19975 2.0412 3.51216 2.39582V1.88078H4.54223V5.95044H3.51216V5.95044Z" fill="black"></path>
                                                <path d="M9.5744 5.04692C9.21134 5.04692 9.11002 4.92027 9.11002 4.57409V2.77568H9.77704V1.88913H9.11002V0.901271H8.04617V1.88913H6.67836V1.64428C6.67836 1.30655 6.81345 1.17146 7.18496 1.17146H7.42137V0.38623H6.91477C6.03667 0.38623 5.62295 0.664859 5.62295 1.50919V1.89758H5.03192V2.77568H5.62295V5.95879H6.6868V2.77568H8.05461V4.76829C8.05461 5.59573 8.3839 5.95879 9.24511 5.95879H9.79393V5.05536H9.5744V5.04692Z" fill="black"></path>
                                                <path d="M13.3823 3.5524C13.3063 3.02048 12.8589 2.70808 12.3354 2.70808C11.8119 2.70808 11.3813 3.02048 11.2715 3.5524H13.3823ZM11.2631 4.18565C11.3391 4.78512 11.7866 5.1313 12.3523 5.1313C12.7997 5.1313 13.1459 4.92866 13.3486 4.59937H14.4377C14.1844 5.46058 13.3823 6.01784 12.3354 6.01784C11.0604 6.01784 10.1739 5.15663 10.1739 3.93235C10.1739 2.70808 11.1195 1.82153 12.3607 1.82153C13.6187 1.82153 14.5222 2.71652 14.5222 3.93235C14.5222 4.02523 14.5137 4.10966 14.4968 4.19409H11.2631V4.18565Z" fill="black"></path>
                                                <path d="M21.2599 3.91546C21.2599 3.25689 20.7449 2.75029 20.1116 2.75029C19.4784 2.75029 18.9633 3.24 18.9633 3.91546C18.9633 4.58248 19.4784 5.08064 20.1116 5.08064C20.7533 5.08064 21.2599 4.57404 21.2599 3.91546ZM17.9248 1.88908H18.9633V2.42101C19.2757 2.0495 19.7401 1.82153 20.2974 1.82153C21.4372 1.82153 22.3237 2.72496 22.3237 3.91546C22.3237 5.11441 21.4119 6.01784 20.272 6.01784C19.7401 6.01784 19.3011 5.8152 18.9971 5.46903V7.62206H17.9248V1.88908Z" fill="black"></path>
                                                <path d="M26.0557 3.91561C26.0557 3.2317 25.5407 2.75043 24.9074 2.75043C24.2742 2.75043 23.7591 3.24014 23.7591 3.91561C23.7591 4.58262 24.2742 5.08078 24.9074 5.08078C25.5407 5.08078 26.0557 4.59951 26.0557 3.91561ZM26.0642 5.95044V5.41851C25.7518 5.78157 25.2874 6.00954 24.7301 6.00954C23.5734 6.00954 22.7037 5.11455 22.7037 3.91561C22.7037 2.71666 23.6156 1.81323 24.7554 1.81323C25.2958 1.81323 25.7518 2.0412 26.0642 2.39582V1.88078H27.1027V5.95044H26.0642V5.95044Z" fill="black"></path>
                                                <path d="M16.0588 2.28605C16.0588 2.28605 16.3206 1.81323 16.9707 1.81323C17.2493 1.81323 17.4266 1.90611 17.4266 1.90611V2.94463C17.4266 2.94463 17.0382 2.70822 16.6836 2.75888C16.329 2.80954 16.101 3.12194 16.101 3.5441V5.95044H15.0287V1.88078H16.0673V2.28605H16.0588Z" fill="black"></path>
                                                <path d="M31.9322 1.88916L29.3148 7.6137H28.2087L29.2388 5.40156L27.5079 1.88916H28.7575L29.7707 4.23639L30.8093 1.88916H31.9322Z" fill="black"></path>
                                                <path d="M40.2741 1.79635L37.682 0.352553C36.9221 -0.0696107 35.968 0.462316 35.968 1.30664V1.45862C35.968 1.59371 36.044 1.72036 36.1622 1.77947L36.6519 2.04965C36.7955 2.13408 36.9728 2.03276 36.9728 1.87234V1.50084C36.9728 1.31509 37.1754 1.20532 37.3443 1.28976L39.5902 2.53936C39.7591 2.63224 39.7591 2.8602 39.5902 2.95308L37.3527 4.21113C37.1839 4.304 36.9812 4.1858 36.9812 4.00005V3.80585C36.9812 2.95308 36.0271 2.4296 35.2672 2.85176L32.6751 4.29556C31.9153 4.71772 31.9153 5.78158 32.6751 6.20374L35.2672 7.64754C36.0271 8.0697 36.9812 7.53778 36.9812 6.69345V6.54147C36.9812 6.40638 36.9052 6.28817 36.787 6.22063L36.2973 5.95044C36.1538 5.86601 35.9765 5.96733 35.9765 6.12775V6.49925C35.9765 6.68501 35.7738 6.79477 35.605 6.71034L33.359 5.46073C33.1902 5.36786 33.1902 5.13989 33.359 5.04701L35.605 3.79741C35.7738 3.70453 35.9765 3.82274 35.9765 4.00849V4.20268C35.9765 5.05545 36.9306 5.57894 37.6904 5.15677L40.2825 3.71298C41.0424 3.28237 41.0424 2.21852 40.2741 1.79635Z" fill="black"></path>
                                            </svg>