<svg width="159" height="30px" viewBox="0 0 150 28" fill="none" xmlns="http://www.w3.org/2000/svg">
                                                <g clip-path="url(#clip0_80_149)">
                                                    <path fill-rule="evenodd" clip-rule="evenodd" d="M9.92701 28C8.72701 28.006 7.53901 27.826 6.40001 27.46C5.33276 27.1202 4.32028 26.6277 3.39401 25.998C2.51514 25.3935 1.7378 24.6533 1.09101 23.805C0.680566 23.2704 0.33858 22.6865 0.0730097 22.067C0.0241943 21.9404 -0.000562708 21.8058 9.70364e-06 21.67C-0.000399285 21.5332 0.0303804 21.3981 0.0900097 21.275C0.144806 21.1478 0.225522 21.0333 0.32701 20.939C0.429203 20.8449 0.548763 20.7715 0.67901 20.723L6.69101 18.44C6.92101 18.35 7.17601 18.338 7.40601 18.416C7.64201 18.488 7.84201 18.644 7.97001 18.847C8.04201 18.961 8.12101 19.075 8.20601 19.177C8.33901 19.333 8.50901 19.459 8.70301 19.543C8.89101 19.627 9.10301 19.663 9.31501 19.656C9.90901 19.656 10.309 19.459 10.515 19.063C10.721 18.668 10.825 18.158 10.825 17.541V1.03103C10.8245 0.895152 10.8509 0.760517 10.9028 0.634928C10.9547 0.509339 11.0309 0.395293 11.1272 0.299397C11.2235 0.203501 11.3378 0.127662 11.4636 0.0762742C11.5894 0.0248866 11.7241 -0.00102829 11.86 3.12235e-05H19.03C19.169 -0.000968777 19.302 0.0230312 19.43 0.0770312C19.557 0.131031 19.672 0.203031 19.769 0.299031C19.866 0.395031 19.939 0.509031 19.993 0.634031C20.0465 0.759116 20.0735 0.893978 20.072 1.03003V17.157C20.0671 18.4243 19.9311 19.6877 19.666 20.927C19.4048 22.1862 18.8822 23.3765 18.132 24.421C17.381 25.476 16.351 26.333 15.029 26.998C13.727 27.664 12.018 28 9.92701 28ZM35.946 27.233C35.673 27.233 35.406 27.125 35.206 26.933C35.1098 26.8374 35.0336 26.7236 34.9815 26.5983C34.9295 26.473 34.9029 26.3387 34.903 26.203V25.003H34.83C34.315 25.747 33.545 26.393 32.527 26.945C31.503 27.497 30.339 27.772 29.018 27.772C27.576 27.772 26.388 27.52 25.455 27.023C24.5645 26.5564 23.7996 25.882 23.225 25.057C22.6625 24.2332 22.2671 23.3071 22.061 22.331C21.8425 21.3389 21.7326 20.3259 21.733 19.31V8.03003C21.732 7.89424 21.7593 7.75973 21.813 7.63503C21.864 7.50955 21.9396 7.39558 22.0355 7.2999C22.1313 7.20421 22.2454 7.12876 22.371 7.07803C22.497 7.02403 22.636 7.00003 22.77 7.00003H29.667C29.807 7.00003 29.939 7.02403 30.067 7.07803C30.187 7.13203 30.303 7.20403 30.4 7.30003C30.497 7.39603 30.57 7.51003 30.624 7.63503C30.6779 7.76004 30.7051 7.89491 30.704 8.03103V17.691C30.704 18.717 30.867 19.436 31.188 19.849C31.509 20.257 31.994 20.467 32.636 20.467C32.921 20.473 33.2 20.413 33.449 20.287C33.703 20.161 33.921 19.981 34.085 19.753C34.461 19.28 34.648 18.597 34.648 17.698V8.03003C34.648 7.89203 34.673 7.76003 34.728 7.63403C34.782 7.50803 34.861 7.39403 34.952 7.29903C35.0482 7.20213 35.1637 7.1265 35.291 7.07703C35.418 7.02303 35.551 6.99903 35.691 6.99903H42.551C42.6874 6.99717 42.8227 7.02246 42.9492 7.07341C43.0757 7.12437 43.1907 7.19998 43.2877 7.29583C43.3847 7.39169 43.4616 7.50588 43.514 7.63176C43.5664 7.75763 43.5933 7.89268 43.593 8.02903V26.213C43.593 26.3481 43.5663 26.4818 43.5145 26.6064C43.4627 26.7311 43.3867 26.8443 43.291 26.9396C43.1953 27.0348 43.0817 27.1102 42.9568 27.1614C42.8319 27.2127 42.698 27.2387 42.563 27.238L35.946 27.232V27.233ZM62.588 20.808C62.588 22.168 62.297 23.307 61.715 24.23C61.156 25.1261 60.3993 25.8824 59.503 26.441C58.6028 26.999 57.6155 27.4022 56.582 27.634C55.588 27.868 54.576 27.994 53.557 28C51.806 28 50.067 27.748 48.387 27.25C47.2003 26.909 46.0621 26.4177 45 25.788C44.8735 25.7087 44.7643 25.6046 44.679 25.482C44.594 25.359 44.5399 25.2174 44.521 25.069C44.4954 24.9211 44.5036 24.7693 44.545 24.625C44.588 24.482 44.66 24.35 44.757 24.235L47.715 20.832C47.885 20.64 48.115 20.514 48.382 20.484C48.636 20.454 48.897 20.52 49.109 20.664C49.563 20.976 50.049 21.234 50.563 21.443C51.327 21.773 52.145 21.953 52.982 21.964C53.285 21.964 53.582 21.911 53.854 21.791C53.9809 21.7425 54.0888 21.6545 54.1619 21.54C54.235 21.4255 54.2694 21.2905 54.26 21.155C54.26 20.82 54.024 20.556 53.545 20.365C53.066 20.173 52.236 19.933 51.048 19.651C50.3706 19.4871 49.7092 19.2625 49.072 18.98C48.4008 18.6863 47.7793 18.2899 47.23 17.805C46.6611 17.3011 46.194 16.6928 45.854 16.013C45.491 15.306 45.309 14.467 45.309 13.496C45.309 12.19 45.599 11.069 46.182 10.152C46.7449 9.24929 47.5002 8.48202 48.394 7.90503C49.2869 7.32777 50.2672 6.89857 51.297 6.63403C52.267 6.37603 53.26 6.23803 54.26 6.23203C55.848 6.23203 57.43 6.46603 58.951 6.92803C60.097 7.26903 60.867 7.71803 61.691 8.26403C61.806 8.34203 61.909 8.44403 61.981 8.55803C62.0606 8.67287 62.1145 8.8035 62.139 8.94103C62.163 9.07903 62.163 9.21703 62.133 9.35503C62.103 9.49303 62.043 9.61903 61.963 9.73203L59.515 13.059C59.3696 13.2604 59.1566 13.4027 58.915 13.46C58.673 13.52 58.418 13.484 58.188 13.37C57.8 13.1639 57.3969 12.9877 56.982 12.843C56.3469 12.6195 55.6793 12.5019 55.006 12.495C54.6366 12.4838 54.2684 12.5429 53.921 12.669C53.636 12.783 53.497 13.011 53.497 13.34C53.497 13.598 53.654 13.796 53.982 13.934C54.302 14.078 55.048 14.264 56.212 14.491C57.018 14.647 57.8 14.887 58.557 15.204C59.297 15.51 59.994 15.929 60.612 16.433C61.2175 16.9341 61.7109 17.5569 62.06 18.261C62.406 18.98 62.588 19.831 62.588 20.808V20.808ZM73.897 27.766C71.157 27.766 69.133 27.185 67.812 26.016C66.497 24.847 65.837 23.037 65.837 20.574V14.377C65.837 14.102 65.727 13.844 65.533 13.647C65.339 13.454 65.073 13.347 64.794 13.347H64.018C63.739 13.347 63.478 13.239 63.285 13.041C63.1882 12.9469 63.1114 12.8341 63.0593 12.7095C63.0072 12.5849 62.9809 12.4511 62.982 12.316V8.03003C62.982 7.75403 63.091 7.49603 63.285 7.29803C63.479 7.10703 63.745 6.99803 64.025 6.99803H64.77C64.9063 6.99989 65.0417 6.9746 65.1682 6.92365C65.2946 6.87269 65.4097 6.79709 65.5067 6.70123C65.6037 6.60537 65.6806 6.49118 65.733 6.36531C65.7854 6.23943 65.8123 6.10438 65.812 5.96803V3.49403C65.812 3.35603 65.837 3.22403 65.891 3.09803C65.946 2.97203 66.018 2.85803 66.115 2.76303C66.2115 2.66601 66.3274 2.59038 66.455 2.54103C66.5815 2.4876 66.7177 2.46104 66.855 2.46303H73.449C73.721 2.46303 73.988 2.57103 74.188 2.76303C74.382 2.95403 74.491 3.21803 74.491 3.49303V5.97003C74.491 6.10803 74.515 6.24003 74.57 6.36503C74.618 6.49103 74.697 6.60503 74.794 6.70103C74.8897 6.79775 75.004 6.87417 75.1299 6.92572C75.2559 6.97726 75.3909 7.00288 75.527 7.00103H77.849C77.9853 6.99917 78.1207 7.02446 78.2472 7.07541C78.3736 7.12637 78.4887 7.20198 78.5857 7.29783C78.6827 7.39369 78.7596 7.50788 78.812 7.63376C78.8644 7.75963 78.8913 7.89468 78.891 8.03103V12.317C78.8923 12.4527 78.8654 12.5873 78.812 12.712C78.758 12.838 78.685 12.952 78.588 13.048C78.4914 13.1447 78.3756 13.22 78.248 13.269C78.1216 13.3228 77.9854 13.3497 77.848 13.348H75.515C75.3792 13.347 75.2445 13.3729 75.1187 13.4242C74.9929 13.4755 74.8785 13.5512 74.7822 13.647C74.6859 13.7428 74.6095 13.8567 74.5574 13.9822C74.5054 14.1076 74.4787 14.2422 74.479 14.378V18.735C74.479 19.712 74.691 20.371 75.115 20.719C75.545 21.067 76.127 21.24 76.879 21.24C77.212 21.252 77.558 21.246 77.897 21.222C78.473 21.127 78.976 21.522 79.085 22.092C79.2982 23.1926 79.6651 24.2577 80.175 25.256C80.442 25.813 80.358 26.436 79.812 26.73C77.491 27.965 74.709 27.773 73.897 27.767V27.766Z" fill="#4D4647"></path>
                                                    <mask id="mask0_80_149" style="mask-type:alpha" maskUnits="userSpaceOnUse" x="80" y="6" width="70" height="22">
                                                        <path fill-rule="evenodd" clip-rule="evenodd" d="M149.683 14.5509C149.339 13.2258 148.712 11.9909 147.845 10.9309C146.971 9.87109 145.897 8.99344 144.685 8.34794C143.415 7.66313 142.042 7.19152 140.619 6.95194C139.207 6.70231 137.763 6.6861 136.345 6.90394C134.984 7.10244 133.674 7.56657 132.492 8.26994C131.318 8.98146 130.306 9.93081 129.521 11.0569C128.693 12.2199 128.139 13.6099 127.853 15.2279C127.561 16.8709 127.597 18.3809 127.962 19.7649C128.306 21.0979 128.926 22.3436 129.783 23.4209C130.646 24.4893 131.712 25.3772 132.918 26.0339C135.465 27.4205 138.399 27.9284 141.264 27.4789C142.64 27.2689 143.955 26.7889 145.142 26.0819C146.33 25.3645 147.351 24.4021 148.137 23.2589C148.971 22.0849 149.525 20.6759 149.823 19.0339C150.097 17.4159 150.055 15.9239 149.683 14.5509V14.5509ZM143.486 17.0509C143.559 17.0739 143.626 17.1039 143.675 17.1519C143.731 17.2018 143.778 17.2606 143.815 17.3259C143.846 17.3917 143.862 17.4633 143.863 17.5359C143.869 17.6098 143.856 17.6839 143.827 17.7519C143.023 19.7289 140.594 21.3119 138.007 20.5499C135.207 19.7229 133.788 17.6019 134.233 14.9589C134.247 14.8847 134.275 14.8139 134.317 14.751C134.359 14.6881 134.413 14.6343 134.476 14.5929C134.541 14.553 134.613 14.5265 134.689 14.5149C134.765 14.503 134.842 14.5092 134.915 14.5329L143.486 17.0499V17.0509ZM112.049 6.99394C112.326 6.99496 112.592 7.10236 112.792 7.29394C112.883 7.38994 112.962 7.50394 113.017 7.62894C113.066 7.75494 113.09 7.88694 113.09 8.02494V9.22994H113.169C113.687 8.48594 114.46 7.83994 115.483 7.28794C116.511 6.73594 117.68 6.46094 119.001 6.46094C120.426 6.46094 121.619 6.71794 122.563 7.22794C123.461 7.70014 124.233 8.38042 124.815 9.21194C125.379 10.0309 125.777 10.9532 125.984 11.9259C126.203 12.9159 126.313 13.9159 126.313 14.9289V26.2139C126.313 26.4839 126.203 26.7479 126.008 26.9389C125.813 27.1309 125.552 27.2389 125.272 27.2389H118.338C118.061 27.24 117.794 27.1323 117.595 26.9389C117.499 26.8442 117.423 26.7313 117.37 26.6069C117.318 26.4824 117.291 26.3489 117.291 26.2139V16.4569C117.291 15.4319 117.132 14.7129 116.804 14.2999C116.481 13.8919 115.988 13.6819 115.343 13.6819C115.061 13.6754 114.782 13.7367 114.528 13.8608C114.275 13.9849 114.056 14.1681 113.888 14.3949C113.51 14.8689 113.322 15.5579 113.322 16.4569V26.2019C113.322 26.4779 113.212 26.7349 113.017 26.9269C112.822 27.1189 112.554 27.2269 112.281 27.2269H105.383C105.103 27.2269 104.841 27.1189 104.641 26.9269C104.545 26.8322 104.468 26.7194 104.416 26.595C104.364 26.4705 104.336 26.3369 104.336 26.2019V8.01994C104.336 7.74994 104.446 7.48694 104.641 7.29494C104.835 7.10294 105.103 6.99494 105.377 6.99494H112.049V6.99394ZM94.906 27.2329C94.633 27.2329 94.365 27.1249 94.17 26.9329C94.0739 26.8381 93.9976 26.7253 93.9455 26.6008C93.8933 26.4764 93.8663 26.3429 93.866 26.2079V25.0029H93.793C93.275 25.7469 92.502 26.3929 91.479 26.9449C90.45 27.4969 89.282 27.7719 87.954 27.7719C86.506 27.7719 85.312 27.5209 84.374 27.0229C83.4824 26.5566 82.7164 25.8822 82.141 25.0569C81.5759 24.2316 81.1784 23.3034 80.971 22.3249C80.7534 21.3325 80.6414 20.3199 80.637 19.3039V8.01894C80.637 7.74294 80.747 7.48494 80.942 7.29394C81.142 7.10194 81.404 6.99394 81.684 6.99394H88.618C88.898 6.99394 89.166 7.10194 89.361 7.29394C89.555 7.48494 89.665 7.74894 89.665 8.01894V17.6859C89.665 18.7109 89.823 19.4299 90.152 19.8369C90.475 20.2449 90.962 20.4549 91.607 20.4549C91.8895 20.4602 92.1693 20.3984 92.4233 20.2744C92.6773 20.1505 92.8983 19.968 93.068 19.7419C93.439 19.2679 93.634 18.5789 93.634 17.6859V8.01894C93.634 7.88094 93.659 7.74894 93.714 7.62294C93.7645 7.49665 93.8412 7.38248 93.939 7.28794C94.0323 7.18989 94.1464 7.11403 94.273 7.06594C94.4001 7.01249 94.537 6.98593 94.675 6.98794H101.579C101.859 6.98794 102.12 7.09594 102.321 7.28794C102.516 7.47894 102.626 7.74294 102.626 8.01294V26.2029C102.629 26.3372 102.604 26.4705 102.552 26.5945C102.501 26.7185 102.424 26.8304 102.327 26.9229C102.231 27.0195 102.116 27.0958 101.989 27.1473C101.863 27.1989 101.727 27.2246 101.591 27.2229L94.907 27.2329H94.906Z" fill="#00AA45"></path>
                                                    </mask>
                                                    <g mask="url(#mask0_80_149)">
                                                        <path d="M155.692 -2H80.3571V36H155.692V-2Z" fill="#4ECD5F"></path>
                                                        <path d="M155.692 17H80.3571V36H155.692V17Z" fill="#4ECD5F"></path>
                                                    </g>
                                                </g>
                                                <defs>
                                                    <clipPath id="clip0_80_149">
                                                        <rect width="150" height="28" fill="white"></rect>
                                                    </clipPath>
                                                </defs>
                                            </svg>