<svg width="135" height="30px" viewBox="0 0 81 20" fill="none" xmlns="http://www.w3.org/2000/svg">
                                                <path d="M78.335 14.33C77.7263 14.33 77.1426 14.5718 76.7122 15.0022C76.2818 15.4326 76.04 16.0163 76.04 16.625C76.04 17.2337 76.2818 17.8174 76.7122 18.2478C77.1426 18.6782 77.7263 18.92 78.335 18.92C78.9437 18.92 79.5274 18.6782 79.9578 18.2478C80.3882 17.8174 80.63 17.2337 80.63 16.625C80.63 16.0163 80.3882 15.4326 79.9578 15.0022C79.5274 14.5718 78.9437 14.33 78.335 14.33V14.33ZM70.796 7.228V6.447H74.453V18.662H70.796V17.882C69.8274 18.5419 68.6972 18.9251 67.527 18.9905C66.3568 19.0558 65.1909 18.8009 64.1548 18.253C63.1187 17.7052 62.2516 16.8852 61.6468 15.8813C61.042 14.8774 60.7224 13.7275 60.7224 12.5555C60.7224 11.3835 61.042 10.2336 61.6468 9.22972C62.2516 8.2258 63.1187 7.4058 64.1548 6.85795C65.1909 6.31011 66.3568 6.05516 67.527 6.12054C68.6972 6.18591 69.8274 6.56915 70.796 7.229V7.228ZM67.47 15.698C69.3 15.698 70.784 14.29 70.784 12.555C70.784 10.819 69.3 9.412 67.47 9.412C65.64 9.412 64.156 10.819 64.156 12.555C64.156 14.29 65.64 15.697 67.47 15.697V15.698ZM54.226 6.118C52.766 6.118 51.383 6.572 50.458 7.823V6.447H46.817V18.662H50.503V12.242C50.503 10.385 51.749 9.476 53.249 9.476C54.856 9.476 55.779 10.436 55.779 12.217V18.662H59.433V10.894C59.433 8.051 57.173 6.118 54.226 6.118V6.118ZM41.528 8.038V6.447H37.783V18.662H41.536V12.959C41.536 11.035 43.622 10 45.069 10L45.112 10.002V6.448C43.627 6.448 42.261 7.084 41.528 8.038ZM32.213 7.228V6.447H35.87V18.662H32.213V17.882C31.2444 18.5419 30.1142 18.9251 28.944 18.9905C27.7738 19.0558 26.6079 18.8009 25.5718 18.253C24.5357 17.7052 23.6686 16.8852 23.0638 15.8813C22.459 14.8774 22.1394 13.7275 22.1394 12.5555C22.1394 11.3835 22.459 10.2336 23.0638 9.22972C23.6686 8.2258 24.5357 7.4058 25.5718 6.85795C26.6079 6.31011 27.7738 6.05516 28.944 6.12054C30.1142 6.18591 31.2444 6.56915 32.213 7.229V7.228ZM28.887 15.698C30.717 15.698 32.201 14.29 32.201 12.555C32.201 10.819 30.717 9.412 28.887 9.412C27.057 9.412 25.573 10.819 25.573 12.555C25.573 14.29 27.057 15.697 28.887 15.697V15.698ZM16.815 18.662H20.643V1.003H16.815V18.662ZM14.177 1H10.21C10.21 4.251 8.716 7.235 6.11 9.187L4.538 10.364L10.628 18.667H15.634L10.031 11.027C12.687 8.383 14.177 4.825 14.177 1ZM0 18.667H4.053V1H0V18.667Z" fill="#17120F"></path>
                                            </svg>