<svg width="190" height="44px" viewBox="0 0 600 139" fill="none" xmlns="http://www.w3.org/2000/svg">
                                                <path d="M4.18323 62.525L95.9832 1.725C99.9832 -0.575 104.883 -0.575 108.883 1.725L200.683 62.525C204.283 64.325 205.883 68.625 204.083 72.325C203.383 73.825 202.183 75.025 200.683 75.725L188.383 83.825C158.283 36.325 95.4832 22.225 47.9832 52.225C35.2832 60.325 24.4832 71.025 16.3832 83.825L3.98323 75.725C0.383232 73.825 -1.01677 69.425 0.783233 65.825C1.58323 64.425 2.78323 63.225 4.18323 62.525ZM102.283 61.825C75.9832 61.925 51.4832 75.425 37.4832 97.725L58.5832 111.725C73.0832 87.625 104.383 79.925 128.383 94.425C135.483 98.725 141.383 104.625 145.683 111.725L166.783 97.725C152.983 75.325 128.583 61.725 102.283 61.825ZM102.283 112.625C92.9832 112.725 84.4832 117.725 79.8832 125.825L94.0832 135.125C96.3832 137.125 99.2832 138.125 102.283 138.125C105.283 138.125 108.283 137.025 110.483 135.125L124.683 125.825C120.183 117.625 111.583 112.625 102.283 112.625Z" fill="url(#paint0_linear_0_1)"></path>
                                                <path d="M261.683 68.725L284.683 101.725H268.483L251.083 76.125V101.725H237.883V36.325H251.083V62.425L267.583 36.325H282.783L261.683 68.725ZM307.383 36.525H294.183V101.925H327.883V88.725H307.083L307.383 36.525ZM366.883 34.125L394.383 101.825H379.583L376.983 94.725H355.283L352.683 101.825H337.783L365.283 34.125H366.883ZM372.183 82.525L366.283 65.625L360.183 82.525H372.183ZM412.883 72.825L399.383 36.525H384.583L412.083 104.225H413.383L440.883 36.525H425.983L412.883 72.825ZM450.983 101.925H464.183V36.525H450.983V101.925ZM516.383 36.525L503.083 59.125L489.783 36.525H473.883L496.583 72.425V101.925H509.583V72.425L532.483 36.525H516.383ZM599.983 68.025C599.983 86.725 584.783 101.925 566.083 101.925C547.383 101.925 532.183 86.725 532.183 68.025C532.183 49.325 547.383 34.125 566.083 34.125C584.883 34.225 599.983 49.325 599.983 68.025ZM587.283 68.025C587.283 56.325 577.783 46.925 566.183 46.925C554.483 46.925 545.083 56.425 545.083 68.025C545.083 79.625 554.583 89.125 566.183 89.125C577.783 89.125 587.283 79.725 587.283 68.125C587.283 68.125 587.283 68.125 587.283 68.025Z" fill="#171A1D"></path>
                                                <defs>
                                                    <linearGradient id="paint0_linear_0_1" x1="102.367" y1="138.089" x2="102.367" y2="0.0165419" gradientUnits="userSpaceOnUse">
                                                        <stop stop-color="#EFC119"></stop>
                                                        <stop offset="0.3314" stop-color="#92C84E"></stop>
                                                        <stop offset="0.4859" stop-color="#71BF5B"></stop>
                                                        <stop offset="0.7506" stop-color="#15B158"></stop>
                                                        <stop offset="0.903" stop-color="#23AC69"></stop>
                                                        <stop offset="1" stop-color="#23AC69"></stop>
                                                    </linearGradient>
                                                </defs>
                                            </svg>