<svg width="179" height="46px" viewBox="0 0 307 79" fill="none" xmlns="http://www.w3.org/2000/svg">
                                                <path fill-rule="evenodd" clip-rule="evenodd" d="M301.162 44.1553V13.0815H307V44.1553H301.162ZM285.671 44.1553L281.66 28.4104L277.678 44.1553H271.4L264.285 20.7961H270.229L274.496 38.548L278.765 20.7961H284.961L289.147 38.5059L293.414 20.7961H299.065L291.95 44.1553H285.671V44.1553ZM261.041 41.0549C258.725 43.2792 255.855 44.3905 252.431 44.3889C249.007 44.3874 246.158 43.276 243.883 41.0549C241.609 38.833 240.472 35.9202 240.472 32.3168C240.472 28.7164 241.623 25.8178 243.925 23.6208C246.226 21.427 249.083 20.3296 252.494 20.3288C255.906 20.328 258.761 21.4254 261.061 23.6208C263.363 25.817 264.514 28.7156 264.514 32.3168C264.514 35.9179 263.356 38.8307 261.041 41.0549V41.0549ZM256.724 27.1674C256.177 26.5842 255.515 26.1216 254.779 25.809C254.044 25.4964 253.251 25.3408 252.452 25.352C251.659 25.338 250.871 25.4927 250.142 25.8056C249.412 26.1185 248.757 26.5826 248.22 27.1674C247.069 28.3776 246.493 30.1082 246.493 32.3589C246.492 34.6096 247.068 36.3401 248.22 37.5504C248.754 38.1341 249.405 38.5977 250.131 38.9107C250.857 39.2236 251.641 39.3787 252.431 39.3657C253.232 39.3735 254.025 39.2142 254.761 38.898C255.496 38.5818 256.158 38.1156 256.703 37.5292C257.896 36.3073 258.493 34.5769 258.494 32.3379C258.494 30.102 257.904 28.3784 256.724 27.1674V27.1674ZM232.299 31.3075C232.299 29.4875 231.795 28.0926 230.873 27.1277C229.951 26.1628 228.688 25.6792 227.091 25.6792C225.495 25.6792 224.227 26.1628 223.291 27.1277C222.355 28.0926 221.795 29.4875 221.795 31.3075V44.1576L215.961 44.1553V13.0815L221.795 13.0837V24.2984C223.279 21.7517 225.775 20.5555 229.108 20.5555C231.767 20.5555 233.937 21.4301 235.619 23.1792C237.301 24.9284 238.14 27.3574 238.138 30.4664V44.1553L232.299 44.1576V31.3075V31.3075ZM204.277 30.4173C205.592 30.672 206.901 30.9889 208.204 31.3682C209.478 31.7308 210.632 32.4306 211.542 33.3939C212.467 34.3635 212.928 35.6508 212.926 37.2559C212.926 39.3657 212.038 41.0821 210.261 42.4053C208.483 43.7285 206.216 44.3897 203.458 44.3889C200.701 44.3889 198.441 43.7347 196.677 42.4263C194.912 41.1179 193.95 39.1297 193.782 36.6812H199.852C200.031 38.6437 201.296 39.7465 203.563 39.7465C204.656 39.7465 205.537 39.5004 206.208 39.0082C206.524 38.794 206.782 38.5044 206.958 38.1654C207.134 37.8264 207.223 37.4487 207.217 37.0666C207.217 36.2629 206.754 35.6298 205.83 35.1672C204.765 34.6554 203.635 34.293 202.471 34.0902C201.154 33.8378 199.845 33.5286 198.544 33.1626C197.277 32.8158 196.125 32.1376 195.206 31.1976C194.282 30.2561 193.82 29.0249 193.822 27.5039C193.822 25.4783 194.675 23.7758 196.383 22.3965C198.09 21.0173 200.357 20.328 203.185 20.3288C206.012 20.3288 208.279 21.0111 209.987 22.3755C211.696 23.7423 212.579 25.7002 212.691 28.0366H206.621C206.495 26.0506 205.298 24.9736 203.059 24.9736C201.938 24.9736 201.071 25.1986 200.456 25.6487C200.16 25.8561 199.92 26.1346 199.758 26.4586C199.597 26.7826 199.519 27.1421 199.532 27.5039C199.532 28.2936 199.994 28.9127 200.918 29.3613C201.987 29.8593 203.116 30.2143 204.277 30.4173V30.4173ZM185.061 40.5643C183.576 43.1156 181.154 44.3912 177.794 44.3912C175.161 44.3912 173.005 43.5151 171.325 41.7628C169.646 40.0105 168.806 37.5783 168.804 34.4663V20.7961L174.64 20.7938V33.6439C174.64 35.4663 175.147 36.8494 176.071 37.8306C176.995 38.8119 178.256 39.3026 179.853 39.3026C181.45 39.3026 182.715 38.8119 183.653 37.8306C184.592 36.8494 185.145 35.4663 185.145 33.6439V20.7938L190.983 20.7961V44.0969H185.061V40.5643ZM155.491 44.3491C152.33 44.3491 150.003 43.0244 148.262 40.1857V55.1386H142.194L142.192 20.5601H148.262V24.2984C149.919 21.6582 152.225 20.3288 155.428 20.3288C158.631 20.3288 161.271 21.4457 163.351 23.6792C165.431 25.9128 166.467 28.7936 166.467 32.3192C166.467 35.8448 165.429 38.7302 163.351 40.9778C161.273 43.2254 158.652 44.3491 155.491 44.3491V44.3491ZM158.61 27.2819C158.046 26.7068 157.373 26.2504 156.631 25.9394C155.888 25.6285 155.091 25.4693 154.286 25.4712C153.481 25.4732 152.684 25.6363 151.943 25.9508C151.202 26.2654 150.531 26.7251 149.97 27.3029C148.747 28.5248 148.262 30.1066 148.262 32.242C148.262 34.3775 148.747 36.1532 149.97 37.3751C150.53 37.9569 151.202 38.4192 151.945 38.7344C152.688 39.0496 153.487 39.2111 154.295 39.2091C155.102 39.2071 155.9 39.0418 156.642 38.723C157.383 38.4042 158.053 37.9385 158.61 37.354C159.831 36.1181 160.442 34.4328 160.442 32.2982C160.443 30.1635 159.832 28.4914 158.61 27.2819ZM116.47 19.0602C116.474 19.0742 116.481 19.0905 116.488 19.1069C118.001 22.7907 118.776 26.7359 118.771 30.7187C118.771 47.6808 104.998 61.4352 88.018 61.4352C71.0283 61.4352 57.2648 47.6808 57.2648 30.7187C57.2648 13.7566 71.0283 1.05118e-05 88.0156 1.05118e-05H118.823C116.342 3.36759 115.009 7.44426 115.02 11.6282C115.018 14.176 115.511 16.7 116.47 19.0602ZM88.018 7.74041C83.4791 7.74918 79.0446 9.10435 75.2749 11.6346C71.5052 14.1648 68.5695 17.7565 66.8386 21.956C65.1077 26.1555 64.6594 30.7743 65.5502 35.2287C66.4411 39.6831 68.6312 43.7733 71.8438 46.9825C75.0564 50.1916 79.1473 52.3757 83.5996 53.2587C88.052 54.1418 92.6659 53.6841 96.8585 51.9436C101.051 50.2031 104.634 47.258 107.155 43.4802C109.676 39.7024 111.021 35.2615 111.021 30.7187C111.014 24.6189 108.587 18.7714 104.274 14.4623C99.9598 10.1532 94.1126 7.73532 88.018 7.74041V7.74041ZM88.0156 30.5879C87.1328 30.5873 86.2859 30.9378 85.6612 31.5621C85.0365 32.1865 84.6851 33.0336 84.6845 33.9172H79.815C79.815 31.7404 80.679 29.6527 82.2169 28.1135C83.7548 26.5742 85.8407 25.7095 88.0156 25.7095C90.1906 25.7095 92.2765 26.5742 93.8145 28.1135C95.3524 29.6527 96.2164 31.7404 96.2164 33.9172H91.3468C91.3461 33.0336 90.9948 32.1865 90.3701 31.5621C89.7454 30.9378 88.8985 30.5873 88.0156 30.5879V30.5879ZM30.8068 30.5879C30.3696 30.5874 29.9366 30.6731 29.5326 30.8402C29.1285 31.0073 28.7612 31.2525 28.4519 31.5617C28.1425 31.8709 27.8971 32.2381 27.7296 32.6422C27.5621 33.0464 27.4758 33.4796 27.4757 33.9172H22.6061C22.6061 31.7404 23.4701 29.6527 25.008 28.1135C26.546 26.5742 28.6319 25.7095 30.8068 25.7095C32.9818 25.7095 35.0677 26.5742 36.6056 28.1135C38.1435 29.6527 39.0075 31.7404 39.0075 33.9172H34.138C34.1373 33.0336 33.786 32.1865 33.1613 31.5621C32.5366 30.9378 31.6897 30.5873 30.8068 30.5879V30.5879ZM56.5365 47.5547C56.5358 47.5575 56.5341 47.5599 56.5318 47.5616C60.4092 54.7758 66.6394 60.4425 74.1844 63.6173C70.3537 69.311 65.3207 74.5001 59.3517 79C51.926 73.4067 45.957 66.7434 41.9115 59.3721C41.9488 59.3558 41.9862 59.3371 42.0235 59.3231C38.4499 60.7216 34.6463 61.438 30.8092 61.4352C13.8195 61.4352 0.0489479 47.6808 0.0489479 30.7187C0.0442353 26.6701 0.844067 22.661 2.40197 18.9247C3.32659 16.6033 3.8019 14.1272 3.8026 11.6282C3.81383 7.44426 2.48065 3.36759 -0.00012207 1.05118e-05H30.8092C35.9114 -0.00420972 40.9346 1.26237 45.4258 3.68551C49.9171 6.10865 53.7354 9.61222 56.5365 13.8805C54.7832 17.1341 53.5519 20.6433 52.8878 24.2796C51.3395 18.97 47.9297 14.3974 43.2842 11.4013C38.6387 8.40517 33.0693 7.18669 27.5985 7.96937C22.1276 8.75205 17.1224 11.4834 13.5017 15.6621C9.88088 19.8408 7.8875 25.1864 7.8875 30.7176C7.8875 36.2488 9.88088 41.5943 13.5017 45.773C17.1224 49.9517 22.1276 52.6831 27.5985 53.4658C33.0693 54.2485 38.6387 53.0299 43.2842 50.0338C47.9297 47.0377 51.3395 42.4651 52.8878 37.1554C53.5515 40.7919 54.7828 44.3013 56.5365 47.5547V47.5547Z" fill="#3D4250"></path>
                                            </svg>