<svg xmlns="http://www.w3.org/2000/svg" width="460" height="428" viewBox="0 0 460 428" fill="none"><g clip-path="url(#clip0_421_1756)"><path d="M21.1201 350C17.5333 347.753 13.4798 346.358 9.27008 345.92C7.33008 345.72 5.21008 345.78 3.66008 346.92C3.48508 347.022 3.33962 347.168 3.23795 347.343C3.13627 347.519 3.08187 347.717 3.08008 347.92C3.17295 348.212 3.36829 348.461 3.63008 348.62C6.1444 350.419 9.10153 351.497 12.1833 351.741C15.2651 351.984 18.3548 351.382 21.1201 350Z" fill="#E0E0E0"></path><path d="M20.8101 349.67C18.0665 347.657 15.5066 345.405 13.1601 342.94C10.8053 340.455 9.14938 337.391 8.36008 334.06C8.19933 333.563 8.15005 333.036 8.21572 332.518C8.28139 331.999 8.46042 331.502 8.74008 331.06C14.8401 335.83 19.6301 341.99 20.8101 349.64" fill="#E0E0E0"></path><path d="M21.05 350C20.4904 346.685 20.5413 343.296 21.2 340C21.8791 336.663 23.789 333.703 26.55 331.71C27.6 334.17 27.15 337.01 26.41 339.59C25.2577 343.577 23.4643 347.349 21.1 350.76" fill="#E0E0E0"></path><path d="M26.9998 360.68C23.4058 361.252 20.0807 362.934 17.4898 365.49C14.7642 367.97 12.8654 371.226 12.0498 374.82C15.6198 374.6 18.6398 372.09 20.8298 369.27C23.0198 366.45 24.5398 363.37 26.9498 360.73" fill="#E0E0E0"></path><path d="M28.33 362.39C26.8969 358.764 26.3905 354.838 26.8567 350.967C27.3229 347.096 28.747 343.402 31 340.22C33.07 347.58 32.31 355.89 28.29 362.39" fill="#E0E0E0"></path><path d="M36.2396 371.8C32.9165 371.594 29.6059 372.368 26.7189 374.027C23.8319 375.685 21.4955 378.155 19.9996 381.13C19.7996 381.54 19.6196 382.05 19.8896 382.4C20.0287 382.539 20.2004 382.641 20.389 382.697C20.5776 382.753 20.7772 382.761 20.9696 382.72C24.1596 382.51 26.9696 380.59 29.3296 378.4C31.6896 376.21 33.6996 373.69 36.3296 371.79" fill="#E0E0E0"></path><path d="M35.9996 371.29C34.2986 365.813 34.1911 359.966 35.6896 354.43C36.2896 352.26 37.2896 349.97 39.2896 348.96C39.3689 348.905 39.459 348.868 39.5538 348.851C39.6486 348.834 39.746 348.837 39.8396 348.86C40.0024 348.945 40.1273 349.087 40.1896 349.26C40.8518 350.783 41.1299 352.445 40.9996 354.1C40.8808 355.751 40.6266 357.39 40.2396 359C39.6096 362 39.2396 365.21 37.6296 367.79C37.2554 368.411 36.9214 369.056 36.6296 369.72C36.3196 370.38 36.3196 370.61 36.0296 371.13" fill="#E0E0E0"></path><path d="M56.9101 374.41C56.2082 371.332 56.1854 368.138 56.8434 365.05C57.5013 361.962 58.8243 359.054 60.7201 356.53C60.9901 356.18 61.3501 355.8 61.8001 355.84C62.4801 355.9 62.6601 356.84 62.6301 357.5C62.3456 363.561 60.3636 369.42 56.9101 374.41Z" fill="#E0E0E0"></path><path d="M58.79 375.7C62.4493 376.562 66.2522 376.621 69.9363 375.872C73.6205 375.123 77.0983 373.583 80.13 371.36C76.56 369.565 72.4784 369.064 68.58 369.94C64.72 370.82 61.19 372.55 58.79 375.7Z" fill="#E0E0E0"></path><path d="M60.3799 371.77C62.4968 368.508 65.3551 365.793 68.7215 363.846C72.0879 361.9 75.8668 360.777 79.7499 360.57C79.2215 362.105 78.3872 363.517 77.2975 364.72C76.2077 365.923 74.8852 366.893 73.4099 367.57C70.4526 368.898 67.3266 369.813 64.1199 370.29C62.8799 370.53 61.1799 370.79 60.3799 371.76" fill="#E0E0E0"></path><path d="M57.3003 352.72C58.5176 349.036 59.3487 345.236 59.7803 341.38C60.2074 337.496 59.4177 333.576 57.5203 330.16C55.6154 333.674 54.5903 337.597 54.5328 341.594C54.4754 345.591 55.3872 349.542 57.1903 353.11" fill="#E0E0E0"></path><path d="M69.9199 346.35C74.2999 338.35 83.2399 332.02 92.2899 331.13C88.7999 339.82 79.2899 346.53 69.9199 346.35Z" fill="#E0E0E0"></path><path d="M67.1602 347.91C73.7002 348.91 79.2702 353.08 85.3702 355.61C86.6523 356.224 88.0717 356.497 89.4902 356.4C90.1482 356.389 90.787 356.177 91.3208 355.792C91.8545 355.407 92.2574 354.868 92.4753 354.247C92.6932 353.626 92.7156 352.953 92.5394 352.319C92.3633 351.685 91.9971 351.12 91.4902 350.7C90.6223 349.898 89.6021 349.279 88.4902 348.88C81.8402 346.11 74.7001 346.04 67.7001 347.72" fill="#E0E0E0"></path><path d="M63.3799 352.49C64.8599 352.92 65.3799 353.68 66.5399 354.68C70.5349 358.077 75.2614 360.503 80.3499 361.77C80.8699 361.9 81.5699 361.96 81.8299 361.48C82.0899 361 81.7699 360.56 81.4699 360.19C79.2501 357.587 76.3687 355.631 73.1299 354.53C69.9499 353.34 67.1899 351.91 63.3799 352.22" fill="#E0E0E0"></path><path d="M59.1103 324.81C61.7861 327.276 64.9469 329.156 68.3908 330.33C71.8346 331.504 75.4856 331.947 79.1103 331.63C79.4428 331.629 79.7646 331.512 80.0203 331.3C80.5303 330.75 79.9203 329.9 79.3303 329.44C73.4403 324.85 66.3303 322.95 59.0703 324.81" fill="#E0E0E0"></path><path d="M64.1699 323C67.7167 320.39 71.8302 318.656 76.1748 317.938C80.5194 317.22 84.9722 317.54 89.1699 318.87C85.8957 321.901 81.6974 323.743 77.2499 324.1C72.8591 324.499 68.4324 324.127 64.1699 323Z" fill="#E0E0E0"></path><path d="M62.16 310.24C61.58 304.36 61.96 299.71 61.55 293.81C61.55 293.33 61.42 292.81 60.98 292.6C60.36 292.36 59.85 293.12 59.65 293.74C58.7931 296.479 58.5728 299.377 59.0061 302.214C59.4393 305.051 60.5146 307.752 62.15 310.11" fill="#E0E0E0"></path><path d="M61.7402 310.88C65.5787 308.399 68.8888 305.184 71.4802 301.42C73.4002 298.79 75.0202 295.63 74.5902 292.42C73.2408 292.462 71.9165 292.796 70.7082 293.399C69.4999 294.001 68.4363 294.858 67.5902 295.91C65.912 298.034 64.6899 300.482 64.0002 303.1C63.2202 305.68 62.6702 308.34 61.7602 310.88" fill="#E0E0E0"></path><path d="M71.3097 308.23C80.0861 304.98 88.2131 300.192 95.3097 294.09C92.4397 292.94 89.1697 293.63 86.3097 294.79C79.8134 297.25 74.4446 302.007 71.2197 308.16" fill="#E0E0E0"></path><path d="M64.4297 314.1C68.8422 314.733 73.3208 314.757 77.7397 314.17C82.0497 313.45 86.1297 311.73 90.1597 310.04C90.513 309.94 90.8162 309.712 91.0097 309.4C91.0711 309.212 91.0754 309.01 91.022 308.819C90.9686 308.629 90.8599 308.459 90.7097 308.33C90.3984 308.088 90.0358 307.92 89.6497 307.84C85.1937 306.758 80.5157 307.036 76.2197 308.64C72.1096 310.043 68.158 311.873 64.4297 314.1Z" fill="#E0E0E0"></path><path d="M39.1601 325C37.7472 321.952 37.002 318.637 36.9744 315.277C36.9468 311.918 37.6375 308.591 39.0001 305.52C40.8401 308.32 41.0601 311.88 40.7201 315.21C40.3801 318.54 39.3801 321.97 39.3101 325.31" fill="#E0E0E0"></path><path d="M27.1102 318.93C23.3299 318.877 19.5803 319.615 16.1017 321.096C12.6232 322.577 9.49246 324.769 6.91016 327.53C10.7144 328.001 14.5718 327.303 17.9702 325.53C21.3324 323.741 24.5052 321.617 27.4402 319.19" fill="#E0E0E0"></path><path d="M19 316.22C15.31 315.92 11.76 315.46 8.22 316.55C6.42551 317.054 4.76147 317.94 3.34245 319.149C1.92342 320.357 0.783106 321.859 0 323.55C3.48048 323.835 6.97333 323.175 10.11 321.64C13.2287 320.101 16.2039 318.288 19 316.22Z" fill="#E0E0E0"></path><path d="M30.9999 316.34C27.6799 314.17 24.2799 311.95 20.4199 311.05C16.5599 310.15 12.0799 310.82 9.41992 313.73C12.5399 315.56 16.3299 315.73 19.9599 315.73C23.5899 315.73 28.0299 315.73 31.4499 316.89" fill="#E0E0E0"></path><path d="M30.9997 316.51C25.3297 310.95 23.1797 300.94 25.4597 293.33C29.9401 300.18 31.8986 308.374 30.9997 316.51Z" fill="#E0E0E0"></path><path d="M46.6104 300.74C47.6804 298.25 48.4404 295.64 49.4004 293.11C50.2911 290.55 51.6472 288.177 53.4004 286.11C55.1664 284.026 57.6801 282.719 60.4004 282.47C59.5287 286.307 57.8663 289.919 55.5194 293.077C53.1725 296.235 50.1927 298.869 46.7704 300.81" fill="#E0E0E0"></path><path d="M43.7901 304C42.0201 301.57 39.9801 298.26 37.5801 296.44C36.4158 295.478 35.0558 294.781 33.5948 294.397C32.1338 294.014 30.6069 293.953 29.1201 294.22C30.6365 296.878 32.752 299.147 35.2986 300.845C37.8453 302.542 40.7528 303.623 43.7901 304Z" fill="#E0E0E0"></path><path d="M44.3601 300.94C43.0894 298.035 42.1502 294.995 41.5601 291.88C40.9845 288.735 41.4921 285.489 43.0001 282.67C46.1101 288.55 47.1101 294.87 44.5401 301.01" fill="#E0E0E0"></path><path d="M46.6396 282.67C48.4096 276.83 53.7496 272.54 59.5096 270.57C60.2243 270.275 60.9999 270.158 61.7696 270.23C62.1506 270.278 62.5096 270.434 62.804 270.681C63.0984 270.927 63.3156 271.253 63.4296 271.62C63.6396 272.62 62.8196 273.5 62.0496 274.16C57.5415 278.01 52.2991 280.905 46.6396 282.67Z" fill="#E0E0E0"></path><path d="M46.7096 277.9C46.7634 274.128 47.3285 270.38 48.3896 266.76C49.6096 263.19 51.9696 259.85 55.3896 258.29C55.9696 262.09 54.2996 265.87 52.2796 269.14C50.2596 272.41 47.8196 275.49 46.5996 279.14" fill="#E0E0E0"></path><path d="M46.6099 280.49C45.1599 276.24 45.0099 270.84 42.4599 267.13C40.6799 264.54 37.8299 262.78 36.2999 260.04C35.3851 262.654 35.5141 265.519 36.6599 268.04C37.814 270.55 39.4093 272.833 41.3699 274.78C43.2499 276.78 44.8599 278.31 46.6099 280.44" fill="#E0E0E0"></path><path d="M46.6397 405.68C46.5297 405.68 46.4297 377.32 46.4197 342.35C46.4097 307.38 46.4997 279 46.6097 279C46.7197 279 46.8297 307.35 46.8297 342.34C46.8297 377.33 46.7597 405.68 46.6397 405.68Z" fill="#E0E0E0"></path><path d="M71.4304 320.73C71.0867 320.896 70.7285 321.03 70.3604 321.13L67.4304 322.13C64.9504 322.97 61.5504 324.19 57.8604 325.71C54.1704 327.23 50.7704 328.54 48.8004 330.24C48.027 330.894 47.4116 331.714 47.0004 332.64C46.7204 333.31 46.6704 333.72 46.6304 333.71C46.6193 333.61 46.6193 333.51 46.6304 333.41C46.6716 333.127 46.7419 332.849 46.8404 332.58C47.2033 331.584 47.8122 330.697 48.6104 330C49.7941 328.999 51.1182 328.177 52.5404 327.56C54.1104 326.82 55.8604 326.06 57.7104 325.3C61.4104 323.78 64.8304 322.6 67.3404 321.82C68.5904 321.43 69.6104 321.15 70.3404 320.96C70.695 320.846 71.0602 320.769 71.4304 320.73Z" fill="#E0E0E0"></path><path d="M79.5496 300.78C79.4647 300.9 79.3638 301.008 79.2496 301.1L78.3396 301.95L74.9396 305L63.6396 315.1C59.2196 319.03 55.4096 322.79 52.7596 325.61C51.4396 327.03 50.3996 328.2 49.6896 329.01L48.8696 329.95C48.7764 330.063 48.6726 330.167 48.5596 330.26C48.6241 330.13 48.7047 330.009 48.7996 329.9C48.9696 329.67 49.2196 329.33 49.5596 328.9C50.2396 328.05 51.2496 326.85 52.5596 325.41C55.971 321.686 59.576 318.145 63.3596 314.8C67.7896 310.88 71.8196 307.36 74.7496 304.8L78.2296 301.8L79.2296 301C79.3259 300.913 79.4335 300.839 79.5496 300.78Z" fill="#E0E0E0"></path><path d="M58.8703 319.1C58.7603 319.05 59.6803 316.92 60.6003 314.23C61.5203 311.54 61.9603 309.23 62.0803 309.23C61.9762 310.97 61.6052 312.683 60.9803 314.31C60.587 315.471 60.1297 316.61 59.6103 317.72C59.4341 318.214 59.1847 318.68 58.8703 319.1Z" fill="#E0E0E0"></path><path d="M46.6705 336.26C46.4169 336.021 46.189 335.756 45.9905 335.47L44.2505 333.24C42.7805 331.35 40.7605 328.74 38.4905 325.88C36.2205 323.02 34.1405 320.46 32.6305 318.6L30.8505 316.4C30.6175 316.14 30.4099 315.859 30.2305 315.56C30.5055 315.777 30.7539 316.025 30.9705 316.3C31.4205 316.79 32.0705 317.51 32.8505 318.42C34.4205 320.22 36.5405 322.76 38.8505 325.62C41.1605 328.48 43.1105 331.13 44.5205 333.07C45.2205 334.07 45.7805 334.83 46.1605 335.38C46.3542 335.659 46.5248 335.953 46.6705 336.26Z" fill="#E0E0E0"></path><path d="M41.2397 329.29C40.153 328.065 39.3838 326.592 38.9997 325C38.571 323.609 38.3949 322.153 38.4797 320.7H38.6597C38.5797 321.03 38.5197 321.21 38.4897 321.2C38.4597 321.19 38.4897 321.01 38.4897 320.68H38.6697C38.7661 322.095 39.0108 323.496 39.3997 324.86C39.9034 326.38 40.5184 327.86 41.2397 329.29Z" fill="#E0E0E0"></path><path d="M34.2202 320.46C33.7304 320.088 33.1963 319.779 32.6302 319.54C31.201 319.116 29.6985 318.996 28.2202 319.19C26.7194 319.305 25.2309 319.546 23.7702 319.91C23.1718 320.089 22.5642 320.236 21.9502 320.35C22.4918 320.019 23.0824 319.776 23.7002 319.63C25.1598 319.177 26.6662 318.892 28.1902 318.78C29.7242 318.576 31.2848 318.744 32.7402 319.27C33.3571 319.482 33.8806 319.903 34.2202 320.46Z" fill="#E0E0E0"></path><path d="M32.5596 318.33C32.5596 318.39 31.6296 317.95 30.1196 317.44C28.1559 316.773 26.1169 316.353 24.0496 316.19C21.978 316.039 19.8958 316.144 17.8496 316.5C16.2796 316.78 15.3296 317.08 15.3096 317.01C15.5103 316.886 15.7298 316.795 15.9596 316.74C16.558 316.528 17.1692 316.354 17.7896 316.22C21.9363 315.309 26.2594 315.64 30.2196 317.17C30.8316 317.405 31.4264 317.682 31.9996 318C32.3596 318.17 32.5696 318.3 32.5596 318.33Z" fill="#E0E0E0"></path><path d="M46.61 309.28C45.8948 307.261 45.3037 305.201 44.84 303.11C44.2473 301.051 43.7864 298.957 43.46 296.84C44.1831 298.853 44.7776 300.911 45.24 303C45.8318 305.061 46.2894 307.159 46.61 309.28Z" fill="#E0E0E0"></path><path d="M46.7301 309.28C46.1483 308.006 45.48 306.773 44.7301 305.59C43.8995 304.467 42.9244 303.458 41.8301 302.59C42.2445 302.691 42.6286 302.89 42.9501 303.17C43.7727 303.77 44.4892 304.503 45.0701 305.34C45.9604 306.484 46.533 307.843 46.7301 309.28Z" fill="#E0E0E0"></path><path d="M46.6397 390.56C46.6397 390.56 46.5197 389.88 46.1997 388.68C45.7312 386.984 45.0947 385.339 44.2997 383.77C41.5855 378.639 38.2248 373.877 34.2997 369.6C32.0497 367.04 29.8697 364.6 28.0297 362.3C26.3658 360.264 24.8645 358.101 23.5397 355.83C22.6511 354.297 21.895 352.691 21.2797 351.03C21.0697 350.44 20.9197 350.03 20.8297 349.66C20.769 349.503 20.7319 349.338 20.7197 349.17C20.7197 349.17 20.9597 349.82 21.4297 350.97C22.0929 352.602 22.882 354.18 23.7897 355.69C25.1478 357.917 26.6615 360.046 28.3197 362.06C30.1697 364.35 32.3197 366.76 34.5997 369.33C38.5684 373.623 41.9328 378.437 44.5997 383.64C45.377 385.236 45.9772 386.913 46.3897 388.64C46.4982 389.108 46.5816 389.582 46.6397 390.06C46.6619 390.226 46.6619 390.394 46.6397 390.56Z" fill="#E0E0E0"></path><path d="M68.9996 365.27C68.6178 365.51 68.224 365.73 67.8196 365.93C66.7726 366.523 65.77 367.192 64.8196 367.93C63.3988 369.043 62.0619 370.26 60.8196 371.57C59.4196 373.06 57.9696 374.78 56.4996 376.62C53.4996 380.32 50.7896 383.62 49.1396 386.21C48.2996 387.51 47.6896 388.6 47.2896 389.37C47.1001 389.777 46.8829 390.172 46.6396 390.55C46.6644 390.436 46.7012 390.326 46.7496 390.22C46.8396 390.01 46.9597 389.69 47.1497 389.3C47.6596 388.184 48.2408 387.101 48.8896 386.06C51.1305 382.692 53.5646 379.456 56.1796 376.37C57.6596 374.52 59.1196 372.79 60.5496 371.31C61.8116 369.993 63.1832 368.785 64.6497 367.7C65.6411 366.971 66.6913 366.325 67.7896 365.77C68.1796 365.58 68.4996 365.46 68.7096 365.37C68.9196 365.28 68.9996 365.25 68.9996 365.27Z" fill="#E0E0E0"></path><path d="M69.48 373.47C68.6637 373.653 67.8346 373.773 67 373.83C65.0056 374.043 63.0344 374.435 61.11 375C59.2118 375.624 57.4307 376.561 55.84 377.77C54.63 378.7 54.06 379.48 54 379.44C54.086 379.225 54.2115 379.029 54.37 378.86C54.7562 378.379 55.1882 377.937 55.66 377.54C57.2336 376.225 59.0469 375.226 61 374.6C62.9534 374.021 64.9663 373.665 67 373.54C67.823 373.444 68.6529 373.421 69.48 373.47Z" fill="#E0E0E0"></path><path d="M54.7198 378.52C54.5998 378.45 55.7198 376.74 56.5798 374.45C57.4398 372.16 57.5798 370.1 57.7298 370.12C57.8029 370.56 57.8029 371.01 57.7298 371.45C57.6072 372.52 57.3657 373.573 57.0098 374.59C56.6283 375.593 56.1459 376.555 55.5698 377.46C55.0798 378.15 54.7698 378.55 54.7198 378.52Z" fill="#E0E0E0"></path><path d="M76.2904 343.24C76.1649 343.324 76.0308 343.394 75.8904 343.45L74.7304 343.98C74.2204 344.2 73.6004 344.47 72.9004 344.84C72.2004 345.21 71.3804 345.58 70.5304 346.09L69.1804 346.86C68.7104 347.13 68.2404 347.45 67.7504 347.76C66.7504 348.36 65.7504 349.11 64.6804 349.87C62.4158 351.585 60.2801 353.463 58.2904 355.49C56.3312 357.554 54.5232 359.756 52.8804 362.08C52.1604 363.17 51.4504 364.2 50.8804 365.21C50.5904 365.72 50.2804 366.21 50.0304 366.67C49.7804 367.13 49.5404 367.61 49.3004 368.05C48.8204 368.92 48.4804 369.75 48.1404 370.46C47.8004 371.17 47.5404 371.8 47.3404 372.32L46.8504 373.5C46.8004 373.644 46.7333 373.782 46.6504 373.91C46.6745 373.759 46.7148 373.612 46.7704 373.47L47.1904 372.26C47.3704 371.73 47.6104 371.09 47.9304 370.37C48.2504 369.65 48.5804 368.8 49.0504 367.92L49.7504 366.52C50.0004 366.04 50.3004 365.52 50.5804 365.04C51.1504 364.04 51.8504 362.97 52.5804 361.86C54.2137 359.507 56.0257 357.284 58.0004 355.21C60.0046 353.162 62.168 351.276 64.4704 349.57C65.5504 348.81 66.5604 348.07 67.5804 347.47C68.0804 347.16 68.5804 346.85 69.0204 346.58L70.4004 345.83C71.2704 345.34 72.1004 344.98 72.8104 344.64C73.5204 344.3 74.1504 344.03 74.6704 343.83L75.8704 343.37C76.0032 343.306 76.1447 343.262 76.2904 343.24Z" fill="#E0E0E0"></path><path d="M58.5703 355.11C58.7422 354.533 59.0922 354.026 59.5703 353.66C60.6605 352.708 62.053 352.173 63.5003 352.15C64.9167 352.147 66.3199 352.422 67.6303 352.96C68.1863 353.131 68.7126 353.388 69.1903 353.72C68.6243 353.608 68.0689 353.447 67.5303 353.24C66.2431 352.796 64.8918 352.567 63.5303 352.56C62.1714 352.588 60.8571 353.051 59.7803 353.88C59.344 354.256 58.9393 354.668 58.5703 355.11Z" fill="#E0E0E0"></path><path d="M55.9199 357.85C56.4313 356.69 56.7942 355.471 56.9999 354.22C57.081 352.951 56.9969 351.677 56.7499 350.43C56.7499 350.43 57.0199 350.8 57.2099 351.49C57.4573 352.395 57.5252 353.339 57.4099 354.27C57.3049 355.198 57.0231 356.098 56.5799 356.92C56.4318 357.275 56.2063 357.593 55.9199 357.85Z" fill="#E0E0E0"></path><path d="M27.0596 394.62C27.6696 405.46 30.9296 416.48 35.9596 427.62H57.7996C62.5896 416.62 65.6296 405.62 66.1696 394.62H27.0596Z" fill="#E0E0E0"></path><path d="M62.6298 412.16C62.6298 412.28 55.4398 412.37 46.5698 412.37C37.6998 412.37 30.5098 412.28 30.5098 412.16C30.5098 412.04 37.6998 411.96 46.5698 411.96C55.4398 411.96 62.6298 412.05 62.6298 412.16Z" fill="#FAFAFA"></path><path d="M62.14 416.09C62.14 416.2 55.4 416.29 47.14 416.29C38.88 416.29 32 416.2 32 416.09C32 415.98 38.74 415.88 47.06 415.88C55.38 415.88 62.14 416 62.14 416.09Z" fill="#FAFAFA"></path><path d="M36.3096 401.74C36.5763 405.088 36.5763 408.452 36.3096 411.8C36.0296 408.452 36.0296 405.087 36.3096 401.74Z" fill="#FAFAFA"></path><path d="M47.9997 401.74C48.2797 405.208 48.2797 408.692 47.9997 412.16C47.7332 408.692 47.7332 405.208 47.9997 401.74Z" fill="#FAFAFA"></path><path d="M58.9998 401.65C59.2798 405.188 59.2798 408.742 58.9998 412.28C58.7331 408.742 58.7331 405.188 58.9998 401.65Z" fill="#FAFAFA"></path><path d="M65.4798 401.74C65.4798 401.85 57.0398 401.95 46.6398 401.95C36.2398 401.95 27.7998 401.85 27.7998 401.74C27.7998 401.63 36.2298 401.54 46.6398 401.54C57.0498 401.54 65.4798 401.63 65.4798 401.74Z" fill="#FAFAFA"></path><path d="M429.6 343.58C429.55 343.58 429.49 342.83 429.23 341.48C428.88 339.586 428.317 337.737 427.55 335.97C426.455 333.335 424.832 330.953 422.78 328.97C420.297 326.498 416.939 325.105 413.435 325.092C409.931 325.079 406.563 326.447 404.06 328.9C402.003 330.884 400.37 333.266 399.26 335.9C398.498 337.67 397.931 339.517 397.57 341.41C397.3 342.75 397.24 343.51 397.19 343.51C397.162 343.328 397.162 343.142 397.19 342.96C397.218 342.431 397.275 341.903 397.36 341.38C397.645 339.449 398.169 337.561 398.92 335.76C400.003 333.056 401.642 330.61 403.73 328.58C405.005 327.31 406.518 326.304 408.182 325.62C409.846 324.935 411.629 324.586 413.428 324.591C415.227 324.597 417.008 324.957 418.667 325.652C420.327 326.347 421.834 327.362 423.1 328.64C425.18 330.679 426.808 333.132 427.88 335.84C428.618 337.648 429.135 339.538 429.42 341.47C429.503 341.993 429.557 342.521 429.58 343.05C429.614 343.225 429.62 343.403 429.6 343.58Z" fill="#E0E0E0"></path><path d="M435.2 343.58C435.14 343.58 435.09 342.83 434.83 341.48C434.47 339.588 433.907 337.741 433.15 335.97C432.055 333.335 430.432 330.953 428.38 328.97C425.896 326.498 422.539 325.105 419.035 325.092C415.531 325.079 412.162 326.447 409.66 328.9C407.6 330.882 405.967 333.264 404.86 335.9C404.095 337.67 403.525 339.517 403.16 341.41C402.9 342.75 402.84 343.51 402.79 343.51C402.764 343.328 402.764 343.142 402.79 342.96C402.79 342.59 402.86 342.06 402.96 341.38C403.255 339.451 403.779 337.565 404.52 335.76C405.607 333.056 407.249 330.61 409.34 328.58C410.615 327.31 412.128 326.304 413.792 325.62C415.456 324.935 417.238 324.586 419.038 324.591C420.837 324.597 422.617 324.957 424.277 325.652C425.937 326.347 427.443 327.362 428.71 328.64C430.785 330.683 432.413 333.135 433.49 335.84C434.227 337.648 434.744 339.538 435.03 341.47C435.13 342.15 435.17 342.68 435.19 343.05C435.214 343.226 435.217 343.403 435.2 343.58Z" fill="#E0E0E0"></path><path d="M381.17 341.58L444.38 341.1L445.76 427.26H374.83L381.17 341.58Z" fill="#EBEBEB"></path><path d="M444.38 341.1H452.31L459.14 427.26H445.76L444.38 341.1Z" fill="#E0E0E0"></path><path d="M430.98 375.02H389.6V381.95H430.98V375.02Z" fill="white"></path><path d="M78.41 13.4299H6.29004V132.81H78.41V13.4299Z" fill="#E0E0E0"></path><path d="M76.0097 13.4299H3.88965V132.81H76.0097V13.4299Z" fill="#EBEBEB"></path><path d="M72.94 15.8599H6.95996V130.4H72.94V15.8599Z" fill="white"></path><path d="M60.0895 30.74H19.5195V115.51H60.0895V30.74Z" fill="#EBEBEB"></path><path d="M19.5196 85.51C19.4196 77.59 26.5196 69.86 34.3896 68.76C38.1296 68.23 42.0996 68.97 45.5896 67.54C51.8296 64.98 53.8096 56.7 60.0896 54.24L60.3796 115.51H19.5196V85.51Z" fill="#E0E0E0"></path><path d="M452.56 85.6699H392.58V148.2H452.56V85.6699Z" fill="#E0E0E0"></path><path d="M448.5 85.6699H388.52V148.2H448.5V85.6699Z" fill="#F5F5F5"></path><path d="M448.52 148.21H388.52V85.6499H448.52V148.21ZM388.52 148.21H448.52V85.6799H388.52V148.21Z" fill="#E0E0E0"></path><path d="M440.44 94.0698H396.58V139.79H440.44V94.0698Z" fill="white"></path><path d="M396.58 140.09C396.268 140.549 395.906 140.972 395.5 141.35C394.8 142.09 393.81 143.09 392.71 144.18C391.61 145.27 390.59 146.18 389.84 146.92C389.465 147.32 389.042 147.673 388.58 147.97C388.887 147.513 389.246 147.093 389.65 146.72C390.35 145.98 391.34 144.98 392.45 143.89C393.56 142.8 394.57 141.83 395.32 141.14C395.695 140.739 396.118 140.387 396.58 140.09Z" fill="#E0E0E0"></path><path d="M440.44 140C440.9 140.307 441.32 140.669 441.69 141.08C442.43 141.78 443.43 142.77 444.52 143.87C445.61 144.97 446.58 145.99 447.26 146.73C447.664 147.109 448.02 147.535 448.32 148C447.859 147.699 447.439 147.34 447.07 146.93C446.33 146.23 445.32 145.24 444.23 144.13C443.14 143.02 442.17 142.01 441.49 141.26C441.089 140.886 440.736 140.462 440.44 140Z" fill="#E0E0E0"></path><path d="M440.32 94.1898C440.628 93.7277 440.991 93.3046 441.4 92.9298C442.1 92.1998 443.08 91.1898 444.19 90.1098C445.3 89.0298 446.3 88.0498 447.05 87.3698C447.429 86.9665 447.856 86.6105 448.32 86.3098C448.011 86.7676 447.648 87.1872 447.24 87.5598C446.54 88.2998 445.56 89.2998 444.45 90.3898C443.34 91.4798 442.33 92.4498 441.58 93.1398C441.203 93.5376 440.78 93.89 440.32 94.1898Z" fill="#E0E0E0"></path><path d="M396.46 94.3C395.998 93.9924 395.575 93.6297 395.2 93.22C394.46 92.52 393.46 91.54 392.37 90.43C391.28 89.32 390.32 88.32 389.63 87.57C389.228 87.193 388.875 86.7662 388.58 86.3C389.035 86.6129 389.455 86.9751 389.83 87.38C390.57 88.08 391.57 89.07 392.66 90.17C393.75 91.27 394.72 92.3 395.41 93.04C395.808 93.4178 396.16 93.8406 396.46 94.3Z" fill="#E0E0E0"></path><path d="M440.32 139.79C440.31 139.717 440.31 139.643 440.32 139.57C440.32 139.41 440.32 139.2 440.32 138.93C440.32 138.35 440.32 137.53 440.32 136.46C440.32 134.29 440.32 131.14 440.32 127.14C440.32 119.14 440.27 107.73 440.24 94.07L440.41 94.24H396.67L396.86 94.05C396.86 110.83 396.86 126.53 396.86 139.77L396.69 139.6L428.36 139.69H437.25H439.61H437.29H428.43L396.66 139.77H396.49V139.61C396.49 126.37 396.49 110.67 396.49 93.89V93.7H396.69H440.43H440.6V93.87C440.6 107.57 440.53 119.02 440.51 127.05C440.51 131.05 440.51 134.17 440.51 136.33C440.51 137.39 440.51 138.2 440.51 138.76C440.51 139.03 440.51 139.23 440.51 139.38C440.51 139.53 440.32 139.79 440.32 139.79Z" fill="#E0E0E0"></path><path d="M425.82 109.61H411.19V124.24H425.82V109.61Z" fill="#EBEBEB"></path><path d="M436.22 427.26C436.22 427.4 344.11 427.51 230.53 427.51C116.95 427.51 24.8203 427.4 24.8203 427.26C24.8203 427.12 116.9 427 230.53 427C344.16 427 436.22 427.11 436.22 427.26Z" fill="#263238"></path><path d="M420.18 170.65H374.2C366.474 170.65 360.21 176.913 360.21 184.64V230.62C360.21 238.346 366.474 244.61 374.2 244.61H420.18C427.906 244.61 434.17 238.346 434.17 230.62V184.64C434.17 176.913 427.906 170.65 420.18 170.65Z" fill="#95BF47"></path><path d="M407.21 217.23H402.75C402.618 217.23 402.491 217.177 402.397 217.083C402.303 216.99 402.25 216.862 402.25 216.73C402.25 216.597 402.303 216.47 402.397 216.376C402.491 216.283 402.618 216.23 402.75 216.23H406.7L406.12 199.1C406.121 198.985 406.16 198.874 406.23 198.784C406.301 198.693 406.399 198.629 406.51 198.6C406.623 198.575 406.741 198.59 406.843 198.643C406.946 198.696 407.026 198.783 407.07 198.89L409 203.28L415.14 200.21C412.88 195.65 410.33 190.73 409.9 190.29C409.409 189.878 408.86 189.541 408.27 189.29C407.927 189.105 407.569 188.947 407.2 188.82C405.55 188.21 403.2 187.59 402.26 187.35C401.83 188.24 400.53 190.12 397.21 190.35C393.86 190.17 392.55 188.29 392.12 187.35C391.18 187.59 388.85 188.2 387.25 188.79C386.874 188.923 386.506 189.08 386.15 189.26C385.556 189.514 385 189.85 384.5 190.26C384.07 190.7 381.5 195.62 379.26 200.18L385.4 203.25L387.33 198.86C387.375 198.755 387.456 198.669 387.557 198.617C387.659 198.565 387.776 198.55 387.887 198.575C387.999 198.6 388.098 198.663 388.168 198.753C388.238 198.844 388.274 198.956 388.27 199.07L387.8 216.2H396.8C396.933 216.2 397.06 216.253 397.154 216.346C397.248 216.44 397.3 216.567 397.3 216.7C397.3 216.832 397.248 216.96 397.154 217.053C397.06 217.147 396.933 217.2 396.8 217.2H387.29C387.225 217.201 387.16 217.188 387.099 217.162C387.039 217.136 386.985 217.098 386.94 217.05C386.891 217.005 386.852 216.949 386.828 216.886C386.803 216.824 386.794 216.757 386.8 216.69L387.21 201.58L386.09 204.14C386.062 204.2 386.023 204.254 385.974 204.298C385.925 204.343 385.868 204.378 385.805 204.4C385.743 204.422 385.677 204.432 385.611 204.428C385.545 204.425 385.48 204.409 385.42 204.38L378.42 200.86C378.361 200.832 378.309 200.793 378.265 200.744C378.222 200.696 378.188 200.639 378.167 200.578C378.146 200.517 378.137 200.452 378.141 200.387C378.145 200.322 378.161 200.258 378.19 200.2C379 198.56 383.08 190.33 383.84 189.57C384.408 189.079 385.049 188.681 385.74 188.39C386.113 188.202 386.497 188.039 386.89 187.9C389.05 187.1 392.22 186.32 392.36 186.29C392.484 186.259 392.614 186.277 392.724 186.341C392.834 186.404 392.915 186.508 392.95 186.63C392.95 186.73 393.75 189.13 397.27 189.31C400.78 189.12 401.54 186.66 401.55 186.63C401.585 186.508 401.666 186.404 401.777 186.341C401.887 186.277 402.017 186.259 402.14 186.29C402.27 186.29 405.45 187.1 407.53 187.86C407.944 187.999 408.346 188.173 408.73 188.38C409.416 188.662 410.05 189.054 410.61 189.54C411.37 190.3 415.44 198.54 416.25 200.17C416.306 200.287 416.315 200.421 416.274 200.544C416.233 200.668 416.145 200.77 416.03 200.83L409.03 204.35C408.969 204.377 408.902 204.391 408.835 204.391C408.768 204.391 408.702 204.377 408.64 204.35C408.577 204.33 408.52 204.296 408.471 204.251C408.423 204.206 408.385 204.151 408.36 204.09L407.25 201.57L407.76 216.64C407.76 216.773 407.71 216.901 407.62 217C407.577 217.07 407.517 217.128 407.445 217.168C407.374 217.209 407.293 217.23 407.21 217.23Z" fill="white"></path><path d="M400.19 217.23H398.79C398.657 217.23 398.53 217.177 398.436 217.084C398.343 216.99 398.29 216.863 398.29 216.73C398.29 216.597 398.343 216.47 398.436 216.376C398.53 216.283 398.657 216.23 398.79 216.23H400.19C400.323 216.23 400.45 216.283 400.544 216.376C400.637 216.47 400.69 216.597 400.69 216.73C400.69 216.863 400.637 216.99 400.544 217.084C400.45 217.177 400.323 217.23 400.19 217.23Z" fill="white"></path><path d="M376.52 223.86H374V222.35H381V223.86H378.43V230.36H376.58L376.52 223.86Z" fill="white"></path><path d="M381.16 226.42H384.4V227.85H381.16V226.42Z" fill="white"></path><path d="M385.14 229.57L385.77 228.17C386.544 228.711 387.465 229.004 388.41 229.01C389.51 229.01 389.96 228.64 389.96 228.15C389.96 226.65 385.3 227.68 385.3 224.71C385.3 223.35 386.4 222.21 388.68 222.21C389.654 222.19 390.615 222.435 391.46 222.92L390.89 224.33C390.216 223.934 389.451 223.717 388.67 223.7C387.57 223.7 387.14 224.11 387.14 224.62C387.14 226.09 391.8 225.07 391.8 228.01C391.8 229.35 390.69 230.5 388.4 230.5C387.244 230.528 386.107 230.203 385.14 229.57Z" fill="white"></path><path d="M400.41 222.35V230.35H398.56V227.07H394.92V230.35H393.07V222.35H394.92V225.51H398.56V222.35H400.41Z" fill="white"></path><path d="M402.31 222.35H404.16V230.35H402.31V222.35Z" fill="white"></path><path d="M411.16 230.36L409.62 228.13H407.91V230.36H406.06V222.36H409.53C411.66 222.36 413 223.47 413 225.27C413.022 225.809 412.876 226.342 412.582 226.796C412.288 227.249 411.861 227.6 411.36 227.8L413.15 230.37L411.16 230.36ZM409.42 223.86H407.91V226.65H409.42C410.56 226.65 411.13 226.13 411.13 225.26C411.13 224.39 410.56 223.86 409.42 223.86Z" fill="white"></path><path d="M416 223.86H413.44V222.35H420.44V223.86H417.87V230.36H416V223.86Z" fill="white"></path><path d="M398.11 373.18C397.78 370.999 397.196 368.865 396.37 366.82C395.445 364.62 394.084 362.63 392.37 360.97C390.294 358.909 387.49 357.749 384.565 357.74C381.64 357.73 378.829 358.873 376.74 360.92C375.026 362.573 373.665 364.556 372.74 366.75C371.901 368.792 371.311 370.927 370.98 373.11C370.953 372.954 370.953 372.795 370.98 372.64C371.001 372.198 371.044 371.757 371.11 371.32C371.345 369.698 371.781 368.113 372.41 366.6C373.312 364.344 374.674 362.3 376.41 360.6C377.481 359.532 378.753 358.687 380.152 358.112C381.551 357.537 383.05 357.244 384.562 357.249C386.075 357.255 387.571 357.559 388.966 358.144C390.361 358.729 391.626 359.584 392.69 360.66C394.435 362.372 395.798 364.434 396.69 366.71C397.317 368.214 397.757 369.789 398 371.4C398.066 371.837 398.109 372.278 398.13 372.72C398.15 372.873 398.143 373.029 398.11 373.18Z" fill="#263238"></path><path d="M402.799 373.18C402.462 371 401.875 368.866 401.049 366.82C400.126 364.619 398.765 362.629 397.049 360.97C394.973 358.91 392.17 357.749 389.245 357.74C386.32 357.73 383.509 358.873 381.42 360.92C379.706 362.573 378.345 364.556 377.42 366.75C376.581 368.792 375.99 370.927 375.66 373.11C375.633 372.954 375.633 372.796 375.66 372.64C375.676 372.198 375.719 371.757 375.79 371.32C376.025 369.7 376.458 368.115 377.079 366.6C377.982 364.344 379.345 362.301 381.079 360.6C382.15 359.533 383.421 358.687 384.819 358.112C386.217 357.538 387.715 357.245 389.227 357.25C390.739 357.256 392.234 357.56 393.628 358.145C395.022 358.73 396.287 359.585 397.35 360.66C399.097 362.37 400.46 364.432 401.35 366.71C401.969 368.225 402.399 369.81 402.63 371.43C402.695 371.867 402.739 372.308 402.76 372.75C402.784 372.892 402.798 373.036 402.799 373.18Z" fill="#263238"></path><path d="M355.2 370.42L408.14 370.1L409.3 427.57H349.89L355.2 370.42Z" fill="#EEEEEE"></path><path d="M408.14 370.1H414.79L420.51 427.57H409.3L408.14 370.1Z" fill="#B7B7B7"></path><path d="M399.109 389.62H364.449V395.43H399.109V389.62Z" fill="white"></path><path d="M358.141 404.75H110.001C106.722 404.692 103.601 403.336 101.321 400.98C99.0414 398.623 97.7897 395.458 97.8405 392.18V12.84C97.787 9.55991 99.0376 6.39268 101.318 4.03395C103.598 1.67523 106.72 0.31787 110.001 0.26001H358.141C359.765 0.287354 361.368 0.634463 362.859 1.28151C364.349 1.92856 365.697 2.86287 366.826 4.03108C367.956 5.19929 368.844 6.57851 369.44 8.08996C370.036 9.60142 370.328 11.2155 370.301 12.84V392.17C370.328 393.795 370.036 395.409 369.44 396.92C368.844 398.431 367.956 399.811 366.826 400.979C365.697 402.147 364.349 403.081 362.859 403.728C361.368 404.376 359.765 404.723 358.141 404.75Z" fill="#E0E0E0"></path><path d="M358.14 404.75L359.01 404.7C359.366 404.674 359.72 404.627 360.07 404.56C360.561 404.482 361.046 404.369 361.52 404.22C362.87 403.808 364.136 403.162 365.26 402.31C366.822 401.133 368.08 399.601 368.93 397.84C369.445 396.788 369.815 395.671 370.03 394.52C370.219 393.229 370.289 391.924 370.24 390.62C370.24 387.88 370.24 384.89 370.24 381.62C370.24 375.13 370.24 367.62 370.24 359.21C370.24 325.49 370.24 276.7 370.16 216.41C370.16 186.26 370.16 153.24 370.16 117.79C370.16 100.063 370.16 81.75 370.16 62.85C370.16 53.41 370.16 43.8333 370.16 34.12V19.48C370.16 17.02 370.16 14.48 370.16 12.09C370.098 10.8733 369.852 9.67302 369.43 8.53C369.026 7.37453 368.446 6.28839 367.71 5.31C366.239 3.33297 364.197 1.85344 361.86 1.07C360.639 0.692996 359.368 0.500868 358.09 0.5H110C107.161 0.511285 104.421 1.54425 102.28 3.41C100.166 5.28823 98.7546 7.83156 98.2804 10.62C98.0877 12.0179 98.0208 13.4302 98.0804 14.84V127.69C98.0804 171.08 98.0804 212.93 98.0804 252.79C98.0804 292.65 98.0804 330.54 98.0804 365.99C98.0804 374.85 98.0804 383.557 98.0804 392.11C98.0873 394.201 98.5985 396.259 99.5704 398.11C101.042 400.884 103.529 402.984 106.51 403.97C107.484 404.27 108.492 404.445 109.51 404.49C111.51 404.54 113.65 404.49 115.7 404.49H163L305.8 404.57L344.62 404.62H354.72H358.16H354.72H344.62L305.8 404.67L163 404.75H115.66C113.6 404.75 111.54 404.75 109.45 404.75C108.391 404.705 107.343 404.524 106.33 404.21C105.316 403.878 104.348 403.418 103.45 402.84C101.643 401.675 100.162 400.068 99.1504 398.17C98.1384 396.246 97.6099 394.104 97.6104 391.93C97.6104 383.377 97.6104 374.67 97.6104 365.81C97.6104 330.36 97.6104 292.47 97.6104 252.61C97.6104 212.75 97.6104 170.9 97.6104 127.51V14.86C97.5429 13.4202 97.6099 11.9773 97.8104 10.55C98.306 7.62945 99.7843 4.96577 102 3C104.224 1.07851 107.061 0.0145862 110 0L358.09 0C359.372 0.0154101 360.645 0.214089 361.87 0.59C363.684 1.20494 365.336 2.2225 366.7 3.56641C368.065 4.91032 369.108 6.54572 369.75 8.35C370.184 9.53533 370.437 10.7793 370.5 12.04C370.58 14.54 370.5 17.04 370.5 19.46V34.14C370.5 43.8467 370.5 53.4233 370.5 62.87C370.5 81.75 370.5 100.063 370.5 117.81C370.5 153.26 370.5 186.28 370.5 216.43C370.5 276.72 370.43 325.51 370.41 359.23C370.41 367.66 370.41 375.15 370.41 381.64C370.41 384.89 370.41 387.88 370.41 390.64C370.458 391.951 370.381 393.264 370.18 394.56C369.606 397.682 367.883 400.476 365.35 402.39C364.217 403.243 362.94 403.887 361.58 404.29C361.103 404.439 360.615 404.55 360.12 404.62C359.767 404.687 359.41 404.727 359.05 404.74L358.14 404.75Z" fill="#263238"></path><path d="M238.81 386.35C238.852 388.645 238.21 390.9 236.965 392.829C235.721 394.757 233.93 396.271 231.822 397.179C229.713 398.086 227.383 398.345 225.127 397.923C222.871 397.501 220.791 396.417 219.153 394.809C217.516 393.201 216.394 391.142 215.93 388.894C215.467 386.646 215.683 384.311 216.552 382.186C217.42 380.062 218.901 378.244 220.807 376.964C222.712 375.684 224.955 375 227.25 375C228.755 374.986 230.248 375.268 231.643 375.83C233.038 376.393 234.309 377.225 235.383 378.279C236.456 379.333 237.312 380.589 237.9 381.974C238.488 383.358 238.797 384.846 238.81 386.35Z" fill="white"></path><path d="M262 21.6299H206.33C205.289 21.6012 204.299 21.1672 203.573 20.4201C202.846 19.6731 202.44 18.672 202.44 17.6299C202.44 16.5878 202.846 15.5867 203.573 14.8396C204.299 14.0926 205.289 13.6585 206.33 13.6299H262C263.04 13.6611 264.027 14.0963 264.752 14.8431C265.476 15.5898 265.881 16.5895 265.88 17.6299C265.881 18.6703 265.476 19.6699 264.752 20.4167C264.027 21.1635 263.04 21.5987 262 21.6299Z" fill="#263238"></path><path d="M361.48 29.1201H106.17V366.92H361.48V29.1201Z" fill="white"></path><path d="M361.47 366.92C361.47 364.87 361.38 229.33 361.24 29.1201L361.47 29.3501H106.2L106.46 29.1001C106.46 154.83 106.46 271.41 106.41 366.9L106.2 366.69L361.5 366.9L106.2 367.11H106V366.9C106 271.41 106 154.83 106 29.1001V28.8401H106.29H361.56H361.8V29.0801C361.57 229.33 361.48 364.87 361.47 366.92Z" fill="#263238"></path><path d="M86.5703 47.8101H135.93V80.8101C135.93 86.8623 133.526 92.6667 129.246 96.9462C124.967 101.226 119.163 103.63 113.11 103.63H109.39C103.34 103.63 97.537 101.227 93.2577 96.9498C88.9784 92.6724 86.573 86.8706 86.5703 80.8201V47.8201V47.8101Z" fill="#95BF47"></path><path d="M135.54 47.8101H184.9V80.8101C184.9 86.8623 182.496 92.6667 178.216 96.9462C173.937 101.226 168.132 103.63 162.08 103.63H158.36C152.308 103.63 146.503 101.226 142.224 96.9462C137.944 92.6667 135.54 86.8623 135.54 80.8101V47.8101Z" fill="#95BF47"></path><path d="M184.51 47.8101H233.87V80.8101C233.873 83.8127 233.283 86.7864 232.134 89.5606C230.985 92.3348 229.3 94.8551 227.176 96.9769C225.051 99.0987 222.529 100.78 219.753 101.925C216.977 103.071 214.003 103.657 211 103.65H207.28C201.228 103.65 195.423 101.246 191.144 96.9662C186.864 92.6867 184.46 86.8823 184.46 80.8301V47.8301L184.51 47.8101Z" fill="#95BF47"></path><path d="M233.49 47.8101H282.84V80.8101C282.843 83.8102 282.254 86.7814 281.107 89.5537C279.96 92.3259 278.278 94.8448 276.157 96.9662C274.035 99.0877 271.516 100.77 268.744 101.917C265.972 103.064 263.001 103.653 260 103.65H256.3C250.248 103.65 244.444 101.246 240.164 96.9662C235.885 92.6867 233.48 86.8823 233.48 80.8301V47.8301L233.49 47.8101Z" fill="#95BF47"></path><path d="M282.45 47.8101H331.81V80.8101C331.813 83.8077 331.225 86.7764 330.08 89.5467C328.935 92.317 327.255 94.8346 325.137 96.9556C323.019 99.0767 320.503 100.76 317.735 101.908C314.966 103.057 311.998 103.649 309 103.65H305.28C299.228 103.65 293.424 101.246 289.144 96.9662C284.864 92.6867 282.46 86.8823 282.46 80.8301V47.8301L282.45 47.8101Z" fill="#95BF47"></path><path d="M331.42 47.8101H380.78V80.8101C380.785 86.8588 378.389 92.6623 374.117 96.945C369.846 101.228 364.049 103.639 358 103.65H354.28C348.228 103.65 342.423 101.246 338.144 96.9662C333.864 92.6867 331.46 86.8823 331.46 80.8301V47.8301L331.42 47.8101Z" fill="#95BF47"></path><g opacity="0.3"><path opacity="0.3" d="M135.54 47.8101H184.9V80.8101C184.9 86.8623 182.496 92.6667 178.216 96.9462C173.937 101.226 168.132 103.63 162.08 103.63H158.36C152.308 103.63 146.503 101.226 142.224 96.9462C137.944 92.6667 135.54 86.8623 135.54 80.8101V47.8101Z" fill="white"></path></g><g opacity="0.3"><path opacity="0.3" d="M233.49 47.8101H282.84V80.8101C282.843 83.8102 282.254 86.7814 281.107 89.5537C279.96 92.3259 278.278 94.8448 276.157 96.9662C274.035 99.0877 271.516 100.77 268.744 101.917C265.972 103.064 263.001 103.653 260 103.65H256.3C250.248 103.65 244.444 101.246 240.164 96.9662C235.885 92.6867 233.48 86.8823 233.48 80.8301V47.8301L233.49 47.8101Z" fill="white"></path></g><g opacity="0.3"><path opacity="0.3" d="M331.42 47.8101H380.78V80.8101C380.785 86.8588 378.389 92.6623 374.117 96.945C369.846 101.228 364.049 103.639 358 103.65H354.28C348.228 103.65 342.423 101.246 338.144 96.9662C333.864 92.6867 331.46 86.8823 331.46 80.8301V47.8301L331.42 47.8101Z" fill="white"></path></g><path d="M135.931 47.1899C136.081 47.1899 136.191 55.8499 136.191 66.5299C136.191 77.2099 136.081 85.8699 135.931 85.8699C135.781 85.8699 135.681 77.2099 135.681 66.5299C135.681 55.8499 135.791 47.1899 135.931 47.1899Z" fill="#263238"></path><path d="M184.9 47.1899C185.05 47.1899 185.16 55.8499 185.16 66.5299C185.16 77.2099 185.05 85.8699 184.9 85.8699C184.75 85.8699 184.65 77.2099 184.65 66.5299C184.65 55.8499 184.76 47.1899 184.9 47.1899Z" fill="#263238"></path><path d="M233.87 47.1899C234.01 47.1899 234.13 55.8499 234.13 66.5299C234.13 77.2099 234.01 85.8699 233.87 85.8699C233.73 85.8699 233.61 77.2099 233.61 66.5299C233.61 55.8499 233.73 47.1899 233.87 47.1899Z" fill="#263238"></path><path d="M282.84 47.1899C282.98 47.1899 283.1 55.8499 283.1 66.5299C283.1 77.2099 282.98 85.8699 282.84 85.8699C282.7 85.8699 282.58 77.2099 282.58 66.5299C282.58 55.8499 282.7 47.1899 282.84 47.1899Z" fill="#263238"></path><path d="M331.811 47.1899C331.951 47.1899 332.071 55.8499 332.071 66.5299C332.071 77.2099 331.951 85.8699 331.811 85.8699C331.671 85.8699 331.551 77.2099 331.551 66.5299C331.551 55.8499 331.671 47.1899 331.811 47.1899Z" fill="#263238"></path><path d="M380.78 47.9101L361.66 29.1201H106.26L86.5703 47.9101H380.78Z" fill="#95BF47"></path><path d="M373.78 47.64C373.78 47.78 309.48 47.96 230.18 48.03C150.88 48.1 86.5703 48.03 86.5703 47.9C86.5703 47.77 150.86 47.59 230.18 47.51C309.5 47.43 373.78 47.5 373.78 47.64Z" fill="#263238"></path><path d="M166.48 216.06H134.52C132.648 216.06 131.13 217.578 131.13 219.45V220.59C131.13 222.462 132.648 223.98 134.52 223.98H166.48C168.352 223.98 169.87 222.462 169.87 220.59V219.45C169.87 217.578 168.352 216.06 166.48 216.06Z" fill="#E0E0E0"></path><path d="M213.53 215.53H201.55C199.678 215.53 198.16 217.048 198.16 218.92V219.46C198.16 221.332 199.678 222.85 201.55 222.85H213.53C215.402 222.85 216.92 221.332 216.92 219.46V218.92C216.92 217.048 215.402 215.53 213.53 215.53Z" fill="#95BF47"></path><path d="M166.48 346.31H134.52C132.648 346.31 131.13 347.828 131.13 349.7V350.84C131.13 352.712 132.648 354.23 134.52 354.23H166.48C168.352 354.23 169.87 352.712 169.87 350.84V349.7C169.87 347.828 168.352 346.31 166.48 346.31Z" fill="#E0E0E0"></path><path d="M210.331 346.31H196.821C194.948 346.31 193.431 347.828 193.431 349.7V350.84C193.431 352.712 194.948 354.23 196.821 354.23H210.331C212.203 354.23 213.721 352.712 213.721 350.84V349.7C213.721 347.828 212.203 346.31 210.331 346.31Z" fill="#95BF47"></path><path d="M293.98 217.21H262.02C260.148 217.21 258.63 218.728 258.63 220.6V221.74C258.63 223.612 260.148 225.13 262.02 225.13H293.98C295.852 225.13 297.37 223.612 297.37 221.74V220.6C297.37 218.728 295.852 217.21 293.98 217.21Z" fill="#E0E0E0"></path><path d="M337.961 217.21H324.451C322.578 217.21 321.061 218.728 321.061 220.6V221.74C321.061 223.612 322.578 225.13 324.451 225.13H337.961C339.833 225.13 341.351 223.612 341.351 221.74V220.6C341.351 218.728 339.833 217.21 337.961 217.21Z" fill="#95BF47"></path><path d="M294.42 347.45H262.46C260.588 347.45 259.07 348.968 259.07 350.84V351.98C259.07 353.852 260.588 355.37 262.46 355.37H294.42C296.293 355.37 297.81 353.852 297.81 351.98V350.84C297.81 348.968 296.293 347.45 294.42 347.45Z" fill="#E0E0E0"></path><path d="M338.4 347.45H324.89C323.018 347.45 321.5 348.968 321.5 350.84V351.98C321.5 353.852 323.018 355.37 324.89 355.37H338.4C340.272 355.37 341.79 353.852 341.79 351.98V350.84C341.79 348.968 340.272 347.45 338.4 347.45Z" fill="#95BF47"></path><path d="M203.77 113.49H135.97C129.536 113.49 124.32 118.706 124.32 125.14V192.94C124.32 199.374 129.536 204.59 135.97 204.59H203.77C210.204 204.59 215.42 199.374 215.42 192.94V125.14C215.42 118.706 210.204 113.49 203.77 113.49Z" fill="#FAFAFA"></path><path d="M203.771 204.59L204.661 204.52C205.526 204.442 206.38 204.274 207.211 204.02C208.552 203.578 209.805 202.9 210.911 202.02C212.417 200.824 213.606 199.275 214.371 197.51C214.806 196.458 215.095 195.351 215.231 194.22C215.341 193.03 215.291 191.75 215.301 190.43C215.301 187.763 215.301 184.887 215.301 181.8C215.301 175.61 215.301 168.56 215.301 160.8C215.301 153.04 215.301 144.47 215.301 135.31C215.301 133.017 215.301 130.683 215.301 128.31C215.301 125.94 215.511 123.5 214.611 121.25C213.779 118.951 212.234 116.978 210.201 115.62C208.093 114.244 205.604 113.571 203.091 113.7H136.091C133.188 113.705 130.397 114.817 128.286 116.809C126.175 118.801 124.904 121.523 124.731 124.42C124.661 130.18 124.731 135.91 124.731 141.51C124.731 152.72 124.731 163.51 124.731 173.83C124.731 178.98 124.731 184.01 124.731 188.89V192.52C124.654 193.687 124.745 194.859 125.001 196C125.629 198.212 126.903 200.187 128.661 201.67C129.526 202.376 130.481 202.965 131.501 203.42C132.511 203.842 133.574 204.124 134.661 204.26C135.741 204.37 136.841 204.34 137.921 204.35H141.141H153.371L190.271 204.43H200.271H202.871H203.761H202.871H200.271L190.271 204.48L153.371 204.56H141.141H137.921C136.841 204.56 135.741 204.56 134.621 204.48C133.49 204.341 132.384 204.052 131.331 203.62C130.272 203.155 129.283 202.546 128.391 201.81C126.558 200.278 125.231 198.228 124.581 195.93C124.258 194.758 124.103 193.546 124.121 192.33V188.7C124.121 183.82 124.121 178.79 124.121 173.64C124.121 163.34 124.121 152.53 124.121 141.32C124.121 135.7 124.121 130.02 124.121 124.2C124.357 121.212 125.712 118.423 127.914 116.39C130.116 114.357 133.003 113.228 136.001 113.23H203.001C205.607 113.097 208.189 113.798 210.371 115.23C212.485 116.647 214.09 118.704 214.951 121.1C215.374 122.261 215.604 123.484 215.631 124.72C215.631 125.94 215.631 127.12 215.631 128.31C215.631 130.67 215.631 133.003 215.631 135.31C215.631 144.47 215.631 153 215.631 160.8C215.631 168.6 215.631 175.63 215.631 181.8C215.631 184.9 215.631 187.777 215.631 190.43C215.631 191.75 215.631 193.02 215.541 194.24C215.404 195.394 215.101 196.523 214.641 197.59C213.86 199.382 212.639 200.947 211.091 202.14C209.277 203.58 207.062 204.422 204.751 204.55L203.771 204.59Z" fill="#95BF47"></path><path d="M206.221 156.46C206.221 156.46 196.82 137.39 195.37 135.95C194.339 135.082 193.183 134.374 191.941 133.85C191.237 133.489 190.513 133.172 189.771 132.9C189.718 132.886 189.668 132.866 189.62 132.84C185.56 131.34 179.201 129.84 179.201 129.84C179.201 129.84 177.57 135.37 169.87 135.76C162.16 135.37 160.54 129.84 160.54 129.84C160.54 129.84 154.18 131.39 150.12 132.84L149.971 132.9C149.228 133.172 148.504 133.489 147.801 133.85C146.557 134.377 145.397 135.084 144.361 135.95C142.921 137.39 133.521 156.46 133.521 156.46L147.271 163.34L151.451 153.82L150.501 188.28H189.451L188.29 153.82L192.471 163.34L206.221 156.46Z" fill="#95BF47"></path><path d="M151.45 162.35C151.332 161.305 151.295 160.251 151.34 159.2C151.34 157.25 151.34 154.52 151.42 151.45V151.55C151.25 151.12 151.06 150.66 150.88 150.19C149.61 147.02 148.49 144.14 147.71 142.04C147.32 141.04 147.01 140.14 146.8 139.55C146.672 139.25 146.585 138.934 146.54 138.61C146.727 138.876 146.878 139.165 146.99 139.47C147.25 140.04 147.61 140.87 148.05 141.91C148.92 143.97 150.05 146.83 151.36 150C151.54 150.47 151.72 150.93 151.9 151.36V151.41C151.83 154.48 151.74 157.21 151.66 159.16C151.674 160.227 151.604 161.294 151.45 162.35Z" fill="#263238"></path><path d="M188.211 162.35C188.049 161.311 187.969 160.261 187.971 159.21C187.891 157.21 187.801 154.53 187.721 151.46V151.41C187.901 150.98 188.081 150.52 188.261 150.05C189.531 146.88 190.701 144.05 191.571 141.96C192.011 140.96 192.371 140.09 192.631 139.52C192.743 139.215 192.894 138.926 193.081 138.66C193.035 138.984 192.944 139.301 192.811 139.6C192.611 140.19 192.301 141.04 191.911 142.09C191.121 144.19 190.011 147.09 188.741 150.24C188.561 150.71 188.371 151.17 188.201 151.6V151.5C188.201 154.57 188.281 157.3 188.271 159.25C188.332 160.283 188.312 161.32 188.211 162.35Z" fill="#263238"></path><path d="M180.601 159C180.601 159 180.981 159 181.651 158.79C182.602 158.524 183.443 157.959 184.051 157.18C184.468 156.639 184.755 156.01 184.891 155.34C184.995 154.565 185.032 153.782 185.001 153C185.001 151.23 185.001 149.27 185.001 147.17L185.251 147.42H174.351L174.601 147.17C174.601 149.48 174.601 151.65 174.601 153.62C174.601 154.11 174.601 154.62 174.601 155.02C174.654 155.442 174.762 155.855 174.921 156.25C175.215 156.958 175.691 157.575 176.301 158.04C177.182 158.724 178.276 159.077 179.391 159.04C179.803 159.033 180.214 159.063 180.621 159.13C180.214 159.197 179.803 159.227 179.391 159.22C178.395 159.326 177.392 159.114 176.524 158.615C175.656 158.115 174.969 157.354 174.561 156.44C174.378 156.012 174.253 155.561 174.191 155.1C174.166 154.62 174.166 154.14 174.191 153.66C174.191 151.66 174.191 149.52 174.191 147.21V146.96H185.521V147.2C185.521 149.3 185.521 151.26 185.521 153.03C185.551 153.869 185.504 154.709 185.381 155.54C185.207 156.275 184.865 156.96 184.381 157.54C183.717 158.343 182.8 158.897 181.781 159.11C181.515 159.169 181.243 159.196 180.971 159.19C180.835 159.153 180.709 159.089 180.601 159Z" fill="#263238"></path><path d="M203.77 242.55H135.97C129.536 242.55 124.32 247.766 124.32 254.2V322C124.32 328.434 129.536 333.65 135.97 333.65H203.77C210.204 333.65 215.42 328.434 215.42 322V254.2C215.42 247.766 210.204 242.55 203.77 242.55Z" fill="#FAFAFA"></path><path d="M203.771 333.65L204.661 333.58C205.526 333.502 206.38 333.334 207.211 333.08C208.553 332.638 209.805 331.96 210.911 331.08C212.418 329.884 213.606 328.335 214.371 326.57C214.806 325.518 215.095 324.411 215.231 323.28C215.341 322.09 215.291 320.81 215.301 319.49C215.301 316.823 215.301 313.947 215.301 310.86C215.301 304.67 215.301 297.62 215.301 289.86C215.301 282.1 215.301 273.53 215.301 264.37C215.301 262.077 215.301 259.743 215.301 257.37C215.301 255.01 215.511 252.57 214.611 250.37C213.779 248.071 212.234 246.098 210.201 244.74C208.094 243.364 205.604 242.692 203.091 242.82H136.091C133.188 242.825 130.397 243.937 128.286 245.929C126.175 247.921 124.904 250.643 124.731 253.54C124.661 259.3 124.731 265.03 124.731 270.63C124.731 281.84 124.731 292.63 124.731 302.95C124.731 308.1 124.731 313.13 124.731 318.01V321.64C124.707 322.815 124.851 323.987 125.161 325.12C125.789 327.332 127.063 329.307 128.821 330.79C129.686 331.496 130.641 332.085 131.661 332.54C132.671 332.962 133.734 333.244 134.821 333.38C135.901 333.49 137.001 333.46 138.081 333.47H141.301H153.531L190.431 333.55L200.431 333.6H203.031H203.921H203.031H200.431L190.431 333.65L153.531 333.73H141.301H138.081C137.001 333.73 135.901 333.73 134.781 333.65C133.652 333.506 132.546 333.217 131.491 332.79C130.434 332.321 129.445 331.712 128.551 330.98C126.718 329.448 125.391 327.399 124.741 325.1C124.418 323.928 124.263 322.716 124.281 321.5V318C124.281 313.12 124.281 308.09 124.281 302.94C124.281 292.64 124.281 281.83 124.281 270.62C124.281 265 124.281 259.32 124.281 253.5C124.457 250.497 125.764 247.672 127.938 245.592C130.112 243.513 132.993 242.333 136.001 242.29H203.001C205.607 242.157 208.189 242.858 210.371 244.29C212.485 245.707 214.091 247.764 214.951 250.16C215.375 251.321 215.604 252.544 215.631 253.78C215.631 255 215.631 256.18 215.631 257.36C215.631 259.733 215.631 262.067 215.631 264.36C215.631 273.52 215.631 282.05 215.631 289.85C215.631 297.65 215.631 304.68 215.631 310.85C215.631 313.95 215.631 316.827 215.631 319.48C215.631 320.8 215.631 322.07 215.541 323.29C215.405 324.444 215.101 325.573 214.641 326.64C213.855 328.429 212.634 329.993 211.091 331.19C209.278 332.63 207.062 333.472 204.751 333.6L203.771 333.65Z" fill="#E0E0E0"></path><path d="M179.201 258.86C179.201 258.86 185.56 260.41 189.62 261.91C189.668 261.936 189.718 261.956 189.771 261.97C190.512 262.239 191.237 262.553 191.941 262.91C193.181 263.441 194.337 264.152 195.37 265.02C196.82 266.46 206.221 285.53 206.221 285.53L192.471 292.4L188.29 282.89L189.451 317.34H150.501L151.451 282.89L147.271 292.4L133.521 285.53C133.521 285.53 142.921 266.46 144.361 265.02C145.399 264.154 146.558 263.443 147.801 262.91C148.514 262.562 149.249 262.258 150.001 262L150.15 261.94C154.21 260.44 160.571 258.89 160.571 258.89L161.671 255.19L169.561 260.45L178.381 255.19L179.201 258.86Z" fill="#E0E0E0"></path><path d="M151.45 291.41C151.332 290.364 151.295 289.311 151.34 288.26C151.34 286.31 151.34 283.58 151.42 280.51V280.61C151.25 280.17 151.06 279.72 150.88 279.25C149.61 276.08 148.49 273.2 147.71 271.1C147.32 270.05 147.01 269.2 146.8 268.61C146.672 268.31 146.585 267.993 146.54 267.67C146.727 267.936 146.878 268.225 146.99 268.53C147.25 269.1 147.61 269.93 148.05 270.96C148.92 273.03 150.05 275.89 151.36 279.06C151.54 279.52 151.72 279.98 151.9 280.42V280.47C151.83 283.54 151.74 286.27 151.66 288.22C151.674 289.287 151.604 290.354 151.45 291.41Z" fill="#263238"></path><path d="M188.591 291.69C188.387 290.628 188.27 289.551 188.241 288.47C188.081 286.47 187.901 283.67 187.721 280.53V280.47V280.42L188.211 279.2C189.491 275.99 190.671 273.09 191.561 271C192.001 270 192.361 269.12 192.621 268.54C192.74 268.233 192.894 267.941 193.081 267.67C193.035 267.997 192.944 268.317 192.811 268.62C192.601 269.22 192.291 270.08 191.891 271.14C191.101 273.26 189.971 276.14 188.691 279.39L188.201 280.61V280.5C188.361 283.65 188.481 286.44 188.541 288.45C188.636 289.527 188.653 290.61 188.591 291.69Z" fill="#263238"></path><path d="M180.601 288.1C180.601 288.1 180.981 288.1 181.651 287.89C182.602 287.624 183.443 287.059 184.051 286.28C184.466 285.738 184.753 285.109 184.891 284.44C185.001 283.632 185.038 282.815 185.001 282C185.001 280.23 185.001 278.27 185.001 276.17L185.251 276.42H174.351L174.601 276.17C174.601 278.48 174.601 280.65 174.601 282.62C174.601 283.11 174.601 283.62 174.601 284.02C174.654 284.442 174.762 284.855 174.921 285.25C175.215 285.958 175.691 286.575 176.301 287.04C177.182 287.724 178.276 288.078 179.391 288.04C179.803 288.033 180.214 288.063 180.621 288.13C180.214 288.197 179.803 288.227 179.391 288.22C178.395 288.326 177.392 288.114 176.524 287.615C175.656 287.115 174.969 286.354 174.561 285.44C174.378 285.012 174.253 284.561 174.191 284.1C174.166 283.62 174.166 283.14 174.191 282.66C174.191 280.66 174.191 278.52 174.191 276.21V275.96H185.521V276.2C185.521 278.3 185.521 280.26 185.521 282.03C185.551 282.869 185.504 283.709 185.381 284.54C185.207 285.275 184.865 285.96 184.381 286.54C183.717 287.343 182.8 287.897 181.781 288.11C181.515 288.169 181.243 288.196 180.971 288.19C180.843 288.184 180.717 288.153 180.601 288.1Z" fill="#263238"></path><path d="M148.79 288.92C146.432 287.98 144.137 286.888 141.921 285.65C139.624 284.562 137.403 283.322 135.271 281.94C137.637 282.865 139.936 283.954 142.15 285.2C144.45 286.28 146.669 287.523 148.79 288.92Z" fill="#263238"></path><path d="M332.33 114.9H264.53C258.096 114.9 252.88 120.116 252.88 126.55V194.35C252.88 200.784 258.096 206 264.53 206H332.33C338.764 206 343.98 200.784 343.98 194.35V126.55C343.98 120.116 338.764 114.9 332.33 114.9Z" fill="#FAFAFA"></path><path d="M332.341 206C332.341 206 332.641 206 333.221 205.93C334.085 205.848 334.939 205.68 335.771 205.43C337.111 204.983 338.363 204.306 339.471 203.43C340.979 202.235 342.168 200.686 342.931 198.92C343.375 197.867 343.668 196.756 343.801 195.62C343.901 194.44 343.861 193.16 343.861 191.84C343.861 189.173 343.861 186.297 343.861 183.21C343.861 177.02 343.861 169.97 343.861 162.21C343.861 154.45 343.861 145.89 343.861 136.73C343.861 134.443 343.861 132.11 343.861 129.73C343.861 127.37 344.071 124.93 343.171 122.68C342.343 120.379 340.802 118.402 338.771 117.04C336.662 115.668 334.173 114.999 331.661 115.13H264.661C261.757 115.135 258.965 116.246 256.853 118.238C254.74 120.23 253.466 122.952 253.291 125.85C253.221 131.61 253.291 137.33 253.291 142.93C253.291 154.14 253.291 164.93 253.291 175.26C253.291 180.407 253.291 185.423 253.291 190.31V194C253.261 195.172 253.406 196.341 253.721 197.47C254.338 199.69 255.614 201.67 257.381 203.15C259.08 204.588 261.169 205.489 263.381 205.74C264.465 205.822 265.553 205.849 266.641 205.82H282.091L318.991 205.91L328.991 205.96H331.601H332.491H331.601H328.991L318.991 206.01L282.091 206.09H269.861H266.641C265.551 206.09 264.461 206.09 263.331 206.01C262.203 205.869 261.1 205.576 260.051 205.14C258.993 204.672 258.001 204.067 257.101 203.34C255.272 201.8 253.946 199.749 253.291 197.45C252.966 196.282 252.815 195.072 252.841 193.86V190.22C252.841 185.34 252.841 180.323 252.841 175.17C252.841 164.87 252.841 154.05 252.841 142.84C252.841 137.23 252.841 131.55 252.841 125.73C253.017 122.699 254.346 119.851 256.554 117.769C258.763 115.686 261.685 114.527 264.721 114.53H331.721C334.327 114.4 336.908 115.1 339.091 116.53C341.197 117.953 342.798 120.009 343.661 122.4C344.083 123.562 344.316 124.784 344.351 126.02C344.351 127.23 344.351 128.42 344.351 129.6C344.351 131.973 344.351 134.307 344.351 136.6C344.351 145.76 344.351 154.29 344.351 162.08C344.351 169.87 344.351 176.92 344.351 183.08C344.351 186.167 344.351 189.043 344.351 191.71C344.351 193.03 344.351 194.3 344.261 195.52C344.117 196.673 343.814 197.8 343.361 198.87C342.568 200.655 341.349 202.217 339.811 203.42C338.681 204.303 337.405 204.98 336.041 205.42C335.202 205.659 334.341 205.809 333.471 205.87L332.341 206Z" fill="#E0E0E0"></path><path d="M307.59 131.22C307.59 131.22 313.95 132.76 318 134.22L318.15 134.28C318.894 134.545 319.619 134.859 320.32 135.22C321.559 135.751 322.714 136.459 323.75 137.32C325.2 138.77 334.6 157.83 334.6 157.83L320.85 164.71L316.67 155.2L317.83 189.65H278.89L279.84 155.2L275.66 164.71L261.91 157.83C261.91 157.83 271.31 138.77 272.75 137.32C273.792 136.461 274.95 135.754 276.19 135.22C276.892 134.859 277.617 134.545 278.36 134.28L278.51 134.22C282.57 132.72 288.93 131.22 288.93 131.22L288.79 124.62H307.4L307.59 131.22Z" fill="#455A64"></path><path d="M288.391 188.83L263.061 173.08C261.293 171.803 260.032 169.945 259.498 167.831C258.964 165.717 259.192 163.483 260.141 161.52L261.911 157.87L275.661 164.75L294.661 178.97L288.391 188.83Z" fill="#455A64"></path><path d="M270.71 161.87C270.834 161.905 270.952 161.959 271.06 162.03L272.06 162.56L275.74 164.63C279.96 167.71 286.85 172.82 294.79 178.76L294.98 178.9L294.85 179.1L292.85 182.3L288.6 189L288.47 189.21L288.26 189.08L272.9 179.43L268.44 176.57L267.26 175.79C267.116 175.71 266.985 175.609 266.87 175.49C267.024 175.547 267.172 175.621 267.31 175.71L268.54 176.43L273.07 179.16L288.52 188.66L288.18 188.74L292.4 182C293.1 180.91 293.78 179.83 294.4 178.81L294.46 179.15C286.53 173.15 279.69 168.02 275.54 164.84L272 162.69L271 162.1C270.896 162.033 270.799 161.956 270.71 161.87Z" fill="#263238"></path><path d="M307.94 188.53L333.28 172.79C335.045 171.509 336.303 169.648 336.835 167.533C337.367 165.418 337.138 163.184 336.19 161.22L334.43 157.58L320.67 164.46L301.67 178.68L307.94 188.53Z" fill="#455A64"></path><path d="M325.62 161.58L325.31 161.8L324.36 162.39L320.74 164.58C316.59 167.76 309.74 172.94 301.82 178.89L301.88 178.55L303.88 181.74L308.11 188.41L307.76 188.33L323.21 178.83L327.75 176.1L328.97 175.39C329.107 175.298 329.255 175.224 329.41 175.17C329.293 175.283 329.162 175.38 329.02 175.46L327.84 176.25L323.38 179.11L308.03 188.76L307.82 188.89L307.68 188.68C306.34 186.57 304.91 184.33 303.45 182.02L301.45 178.83L301.32 178.63L301.51 178.48C309.45 172.55 316.35 167.48 320.57 164.35L324.26 162.28L325.26 161.75C325.49 161.62 325.61 161.56 325.62 161.58Z" fill="#263238"></path><path d="M292.12 131.92C291.858 130.742 291.771 129.533 291.86 128.33C291.771 127.127 291.858 125.918 292.12 124.74C292.369 125.919 292.453 127.128 292.37 128.33C292.453 129.532 292.369 130.741 292.12 131.92Z" fill="#263238"></path><path d="M296.15 131.92C295.901 130.741 295.817 129.532 295.9 128.33C295.817 127.128 295.901 125.919 296.15 124.74C296.412 125.918 296.499 127.127 296.41 128.33C296.499 129.533 296.412 130.742 296.15 131.92Z" fill="#263238"></path><path d="M299.85 131.84C299.589 130.662 299.501 129.453 299.59 128.25C299.501 127.047 299.589 125.837 299.85 124.66C300.1 125.839 300.184 127.047 300.1 128.25C300.184 129.452 300.1 130.661 299.85 131.84Z" fill="#263238"></path><path d="M303.93 131.84C303.669 130.662 303.581 129.453 303.67 128.25C303.581 127.047 303.669 125.837 303.93 124.66C304.18 125.839 304.264 127.047 304.18 128.25C304.264 129.452 304.18 130.661 303.93 131.84Z" fill="#263238"></path><path d="M317 161.87H280.3L279.87 152.53H316.37L317 161.87Z" fill="#E0E0E0"></path><path d="M279.64 163.42C279.522 162.374 279.485 161.321 279.53 160.27C279.53 158.27 279.53 155.59 279.61 152.52V152.62L279.14 151.44C277.91 148.31 276.83 145.44 276.06 143.44C275.68 142.44 275.38 141.57 275.18 140.98C275.077 140.663 275.016 140.333 275 140C275.187 140.261 275.335 140.547 275.44 140.85C275.7 141.41 276.05 142.23 276.44 143.24C277.29 145.24 278.44 148.1 279.66 151.24L280.13 152.42V152.52C280.06 155.59 279.97 158.31 279.89 160.26C279.883 161.318 279.799 162.374 279.64 163.42Z" fill="#263238"></path><path d="M317.001 163.77C316.803 162.734 316.686 161.684 316.651 160.63C316.501 158.68 316.321 155.96 316.141 152.89V152.83V152.78C316.321 152.34 316.501 151.89 316.681 151.42C317.951 148.25 319.121 145.42 319.991 143.32C320.431 142.32 320.791 141.46 321.051 140.89C321.159 140.584 321.311 140.294 321.501 140.03C321.454 140.354 321.363 140.67 321.231 140.97C321.031 141.56 320.721 142.41 320.331 143.46C319.541 145.56 318.431 148.46 317.161 151.61C316.971 152.08 316.791 152.53 316.621 152.97V152.86C316.781 155.93 316.891 158.66 316.961 160.61C317.05 161.661 317.064 162.717 317.001 163.77Z" fill="#263238"></path><path d="M290.13 186.31C288.916 185.797 287.776 185.125 286.74 184.31C285.601 183.636 284.556 182.816 283.63 181.87C284.844 182.389 285.987 183.061 287.03 183.87C288.162 184.55 289.203 185.369 290.13 186.31Z" fill="#263238"></path><path d="M292.471 183C291.424 182.278 290.422 181.494 289.471 180.65C288.418 179.944 287.416 179.165 286.471 178.32C287.692 178.73 288.818 179.383 289.781 180.24C290.858 180.965 291.774 181.904 292.471 183Z" fill="#263238"></path><path d="M308.88 178.31C307.18 179.651 305.28 180.717 303.25 181.47C304.045 180.727 304.953 180.116 305.94 179.66C306.841 179.054 307.834 178.599 308.88 178.31Z" fill="#263238"></path><path d="M311.731 181.76C310.982 182.531 310.114 183.176 309.161 183.67C308.293 184.305 307.331 184.801 306.311 185.14C307.059 184.369 307.927 183.725 308.881 183.23C309.748 182.595 310.71 182.099 311.731 181.76Z" fill="#263238"></path><path d="M178.85 259.25C178.281 259.881 177.662 260.467 177 261C175.77 262.09 174 263.6 171.94 265.35L171.71 265.55L171.57 265.28C170.87 263.92 170.11 262.44 169.31 260.9H169.78V260.96C169.18 262.47 168.61 263.96 168.08 265.28L167.95 265.6L167.69 265.37C165.59 263.51 163.8 261.9 162.55 260.75C161.862 260.161 161.213 259.526 160.61 258.85C161.366 259.351 162.081 259.909 162.75 260.52C164.06 261.61 165.89 263.17 168.01 265.01L167.63 265.1L169.3 260.77V260.71L169.51 260.18L169.77 260.69L172 265.08L171.63 265C173.72 263.28 175.52 261.81 176.81 260.79C177.452 260.227 178.134 259.713 178.85 259.25Z" fill="#263238"></path><path d="M169.87 317.06C169.832 316.849 169.816 316.634 169.82 316.42C169.82 315.95 169.82 315.35 169.82 314.6C169.82 312.96 169.77 310.68 169.74 307.91C169.74 302.2 169.69 294.42 169.66 285.82C169.66 278.92 169.66 272.55 169.66 267.38H170.08C170.08 268.57 170.08 269.67 170.08 270.71H169.71C169.71 267.83 169.77 265.48 169.79 263.78C169.79 263.01 169.79 262.38 169.79 261.9C169.786 261.679 169.803 261.458 169.84 261.24C169.868 261.459 169.868 261.681 169.84 261.9C169.84 262.38 169.84 263.01 169.89 263.78C169.89 265.48 169.94 267.83 169.98 270.71H169.61C169.61 269.71 169.61 268.57 169.61 267.38H170.03C170.03 272.55 170.03 278.92 170.03 285.82C170.03 294.42 169.97 302.2 169.95 307.91C169.95 310.68 169.89 312.91 169.87 314.6C169.87 315.35 169.87 315.95 169.82 316.42C169.865 316.63 169.882 316.845 169.87 317.06Z" fill="#263238"></path><path d="M204.271 281.07C203.735 281.583 203.137 282.027 202.491 282.39C201.351 283.14 199.721 284.12 197.871 285.09C196.021 286.06 194.291 286.84 193.021 287.36C192.352 287.68 191.647 287.918 190.921 288.07C190.861 287.93 193.921 286.57 197.631 284.63C201.341 282.69 204.191 280.94 204.271 281.07Z" fill="#263238"></path><path d="M332.221 241.94H264.421C257.986 241.94 252.771 247.156 252.771 253.59V321.39C252.771 327.824 257.986 333.04 264.421 333.04H332.221C338.655 333.04 343.87 327.824 343.87 321.39V253.59C343.87 247.156 338.655 241.94 332.221 241.94Z" fill="#FAFAFA"></path><path d="M332.23 333L333.11 332.93C333.975 332.853 334.83 332.685 335.66 332.43C337.002 331.988 338.255 331.31 339.36 330.43C340.87 329.237 342.059 327.687 342.82 325.92C343.265 324.871 343.554 323.763 343.68 322.63C343.79 321.44 343.75 320.17 343.75 318.84C343.75 316.19 343.75 313.31 343.75 310.22C343.75 304.02 343.75 296.98 343.75 289.22C343.75 281.46 343.75 272.89 343.75 263.73C343.75 261.44 343.75 259.11 343.75 256.73C343.75 254.35 343.96 251.93 343.06 249.73C342.232 247.429 340.691 245.453 338.66 244.09C336.551 242.712 334.056 242.043 331.54 242.18H264.54C261.638 242.18 258.846 243.289 256.734 245.28C254.622 247.271 253.351 249.993 253.18 252.89C253.11 258.65 253.18 264.38 253.18 269.98C253.18 281.19 253.18 291.98 253.18 302.3C253.18 307.46 253.18 312.48 253.18 317.36C253.18 318.58 253.18 319.79 253.18 320.99C253.159 322.165 253.308 323.337 253.62 324.47C254.241 326.683 255.513 328.659 257.27 330.14C258.135 330.848 259.09 331.436 260.11 331.89C261.123 332.315 262.19 332.598 263.28 332.73C264.361 332.815 265.446 332.845 266.53 332.82H269.75H281.98L318.89 332.9L328.89 332.95H331.5C332.09 332.95 332.39 332.95 332.39 332.95H331.5H328.89L318.89 333L281.98 333.08H269.75H266.53C265.45 333.08 264.36 333.08 263.23 332.99C262.102 332.857 260.998 332.568 259.95 332.13C258.89 331.662 257.898 331.054 257 330.32C255.174 328.783 253.847 326.735 253.19 324.44C252.865 323.268 252.713 322.056 252.74 320.84C252.74 319.64 252.74 318.43 252.74 317.21C252.74 312.33 252.74 307.31 252.74 302.15C252.74 291.85 252.74 281.04 252.74 269.83C252.74 264.22 252.74 258.53 252.74 252.71C252.921 249.683 254.25 246.839 256.456 244.757C258.661 242.676 261.578 241.515 264.61 241.51H331.61C334.217 241.382 336.796 242.082 338.98 243.51C341.095 244.927 342.7 246.984 343.56 249.38C343.982 250.542 344.215 251.764 344.25 253C344.25 254.22 344.25 255.4 344.25 256.59V263.59C344.25 272.75 344.25 281.29 344.25 289.08C344.25 296.87 344.25 303.91 344.25 310.08C344.25 313.17 344.25 316.08 344.25 318.7C344.25 320.03 344.25 321.29 344.16 322.51C344.014 323.662 343.711 324.789 343.26 325.86C342.575 327.405 341.568 328.785 340.305 329.908C339.043 331.03 337.554 331.87 335.94 332.37C335.104 332.618 334.241 332.769 333.37 332.82L332.23 333Z" fill="#E0E0E0"></path><path d="M339.51 304.37C339.51 304.37 325.27 265.84 323.83 264.37C322.793 263.504 321.634 262.796 320.39 262.27C319.689 261.908 318.964 261.594 318.22 261.33L318.07 261.27C314.01 259.77 307.65 258.22 307.65 258.22C307.65 258.22 306.03 263.75 298.32 264.14C290.62 263.75 288.99 258.22 288.99 258.22C288.99 258.22 282.63 259.77 278.58 261.27L278.42 261.33C277.677 261.594 276.952 261.908 276.25 262.27C275.008 262.794 273.852 263.502 272.82 264.37C271.37 265.81 258.2 304.79 258.2 304.79L269.52 308.67L279.9 282.24L279 316.73H317.9L316.74 282.27L328.83 309.79L339.51 304.37Z" fill="#95BF47"></path><path d="M319.87 272.26C319.87 272.4 310.29 272.52 298.48 272.52C286.67 272.52 277.08 272.4 277.08 272.26C277.08 272.12 286.66 272 298.48 272C310.3 272 319.87 272.12 319.87 272.26Z" fill="white"></path><path d="M316.85 285.48C316.374 285.554 315.892 285.588 315.41 285.58L311.47 285.66C308.15 285.66 303.56 285.73 298.47 285.73C293.38 285.73 288.81 285.73 285.47 285.66L281.53 285.58C281.048 285.588 280.566 285.554 280.09 285.48C280.565 285.399 281.048 285.366 281.53 285.38L285.47 285.29C288.79 285.29 293.38 285.22 298.47 285.22C303.56 285.22 308.13 285.22 311.47 285.29L315.41 285.38C315.892 285.366 316.374 285.399 316.85 285.48Z" fill="white"></path><path d="M316.85 298C316.374 298.081 315.892 298.114 315.41 298.1L311.47 298.18C308.15 298.23 303.56 298.26 298.47 298.26C293.38 298.26 288.81 298.26 285.47 298.18L281.53 298.1C281.048 298.114 280.565 298.081 280.09 298C280.565 297.919 281.048 297.886 281.53 297.9L285.47 297.82C288.79 297.77 293.38 297.74 298.47 297.74C303.56 297.74 308.13 297.74 311.47 297.82L315.41 297.9C315.892 297.886 316.374 297.919 316.85 298Z" fill="white"></path><path d="M316.85 310.54C316.374 310.621 315.892 310.654 315.41 310.64L311.47 310.73C308.15 310.73 303.56 310.8 298.47 310.8C293.38 310.8 288.81 310.8 285.47 310.73L281.53 310.64C281.048 310.654 280.565 310.621 280.09 310.54C280.566 310.466 281.048 310.432 281.53 310.44L285.47 310.36C288.79 310.36 293.38 310.29 298.47 310.29C303.56 310.29 308.13 310.29 311.47 310.36L315.41 310.44C315.892 310.432 316.374 310.466 316.85 310.54Z" fill="white"></path><path d="M279.9 290.8C279.789 289.757 279.756 288.708 279.8 287.66C279.8 285.66 279.8 282.98 279.88 279.9V280L279.34 278.64C278.07 275.47 276.96 272.59 276.17 270.49C275.78 269.44 275.47 268.59 275.27 268C275.137 267.701 275.046 267.384 275 267.06C275.185 267.331 275.336 267.623 275.45 267.93C275.71 268.5 276.07 269.33 276.51 270.36C277.38 272.42 278.51 275.28 279.82 278.45C280 278.92 280.19 279.38 280.36 279.81V279.86V279.91C280.28 282.99 280.2 285.71 280.11 287.66C280.123 288.711 280.052 289.761 279.9 290.8Z" fill="#263238"></path><path d="M316.661 290.8C316.505 289.761 316.425 288.711 316.421 287.66C316.341 285.66 316.251 282.99 316.181 279.91V279.86V279.81L316.721 278.45C317.981 275.28 319.151 272.45 320.021 270.36C320.461 269.36 320.821 268.5 321.081 267.93C321.194 267.623 321.346 267.331 321.531 267.06C321.492 267.385 321.405 267.702 321.271 268C321.061 268.59 320.751 269.44 320.361 270.49C319.581 272.59 318.461 275.49 317.191 278.64C317.011 279.11 316.821 279.57 316.651 280V279.9C316.711 282.98 316.731 285.7 316.731 287.66C316.789 288.707 316.766 289.757 316.661 290.8Z" fill="#263238"></path><path d="M330.12 279.77C328.248 280.921 326.289 281.925 324.26 282.77C322.308 283.779 320.278 284.632 318.19 285.32C320.062 284.169 322.022 283.166 324.05 282.32C326.003 281.311 328.033 280.458 330.12 279.77Z" fill="white"></path><path d="M334.381 291.05C332.587 292.14 330.707 293.084 328.761 293.87C326.883 294.808 324.934 295.594 322.931 296.22C324.722 295.125 326.602 294.182 328.551 293.4C330.426 292.457 332.376 291.671 334.381 291.05Z" fill="white"></path><path d="M278.54 284.85C276.569 283.998 274.666 282.995 272.85 281.85C270.953 280.859 269.137 279.718 267.42 278.44C269.395 279.284 271.298 280.287 273.11 281.44C275.01 282.427 276.826 283.567 278.54 284.85Z" fill="white"></path><path d="M274.18 296.78C270.26 295.358 266.464 293.616 262.83 291.57C264.819 292.198 266.753 292.991 268.61 293.94C270.541 294.734 272.404 295.684 274.18 296.78Z" fill="white"></path><path d="M294.86 277.25C295.924 277.075 297.003 277.005 298.08 277.04L297.88 277.25C297.88 275.94 297.82 274.25 297.82 272.49C297.82 270.29 297.82 268.29 297.9 266.85C297.877 266.066 297.938 265.281 298.08 264.51C298.229 265.281 298.29 266.066 298.26 266.85C298.31 268.29 298.34 270.29 298.34 272.49C298.34 274.28 298.34 275.94 298.34 277.25V277.46H298.14C297.043 277.493 295.945 277.423 294.86 277.25Z" fill="#263238"></path><path d="M296.611 269.41C296.611 269.584 296.559 269.754 296.462 269.899C296.366 270.044 296.228 270.156 296.067 270.223C295.907 270.29 295.73 270.307 295.559 270.273C295.388 270.239 295.231 270.155 295.108 270.032C294.985 269.909 294.901 269.752 294.867 269.582C294.834 269.411 294.851 269.234 294.918 269.073C294.984 268.912 295.097 268.775 295.242 268.678C295.386 268.582 295.557 268.53 295.731 268.53C295.964 268.53 296.188 268.623 296.353 268.788C296.518 268.953 296.611 269.177 296.611 269.41Z" fill="#E0E0E0"></path><path d="M296.611 274.81C296.613 274.984 296.563 275.156 296.467 275.302C296.372 275.448 296.235 275.562 296.074 275.63C295.914 275.698 295.736 275.717 295.565 275.684C295.394 275.651 295.236 275.568 295.112 275.446C294.988 275.323 294.903 275.166 294.868 274.995C294.833 274.824 294.85 274.647 294.917 274.486C294.983 274.324 295.096 274.186 295.241 274.089C295.386 273.992 295.556 273.94 295.731 273.94C295.962 273.94 296.185 274.031 296.349 274.194C296.514 274.357 296.608 274.578 296.611 274.81Z" fill="#E0E0E0"></path><path d="M48.2997 129.28V165.82C48.2997 172.03 55.7497 183.17 65.5797 182.73H66.3697C74.8697 181.73 70.0397 171.6 70.0397 165.8C70.0397 163.05 70.0397 160.8 70.0397 160.48C70.0397 160.48 79.3397 159.61 80.0397 150.4C80.3697 145.95 80.2997 136.74 80.1397 128.4C80.052 124.084 78.3429 119.959 75.3522 116.847C72.3616 113.734 68.3086 111.861 63.9997 111.6L63.1097 111.54C53.4597 111.51 48.0597 119.67 48.2997 129.28Z" fill="#FFBF9D"></path><path d="M69.9997 160.5C65.7438 160.225 61.6559 158.736 58.2197 156.21C58.2197 156.21 60.7397 163.12 69.9797 162.86L69.9997 160.5Z" fill="#FF9A6C"></path><path d="M64.4302 132.37C64.2502 132.56 63.1802 131.71 61.6402 131.69C60.1002 131.67 58.9502 132.44 58.7902 132.24C58.6302 132.04 58.8902 131.81 59.3902 131.45C60.0618 130.987 60.8647 130.752 61.6802 130.78C62.4842 130.789 63.2635 131.059 63.9002 131.55C64.3602 131.94 64.5202 132.28 64.4302 132.37Z" fill="#263238"></path><path d="M64.6404 136.66C64.6249 136.986 64.4818 137.292 64.2423 137.513C64.0028 137.733 63.686 137.851 63.3604 137.84C63.2016 137.843 63.0439 137.814 62.8966 137.754C62.7492 137.695 62.6152 137.607 62.5024 137.495C62.3897 137.383 62.3004 137.25 62.24 137.103C62.1795 136.956 62.1491 136.799 62.1504 136.64C62.166 136.315 62.309 136.009 62.5485 135.788C62.7881 135.567 63.1048 135.449 63.4304 135.46C63.5896 135.456 63.7479 135.484 63.8959 135.543C64.0439 135.602 64.1785 135.69 64.2915 135.802C64.4046 135.914 64.4938 136.048 64.5537 136.195C64.6137 136.343 64.6432 136.501 64.6404 136.66Z" fill="#263238"></path><path d="M68.4102 143C69.1724 142.813 69.9552 142.722 70.7402 142.73C71.1002 142.73 71.4502 142.66 71.5302 142.42C71.5819 142.047 71.5192 141.667 71.3502 141.33C71.0635 140.437 70.7635 139.497 70.4501 138.51C69.2101 134.51 68.3301 131.22 68.4501 131.17C68.5701 131.12 69.7502 134.33 71.0002 138.34C71.2902 139.34 71.5802 140.27 71.8502 141.17C72.051 141.62 72.0864 142.126 71.9501 142.6C71.8926 142.727 71.8052 142.837 71.6954 142.923C71.5857 143.008 71.4569 143.065 71.3202 143.09C71.1167 143.135 70.9081 143.151 70.7001 143.14C69.934 143.188 69.1647 143.141 68.4102 143Z" fill="#263238"></path><path d="M63.7102 127.36C63.5602 127.71 62.3302 127.46 60.8502 127.56C59.3702 127.66 58.1602 127.99 57.9902 127.66C57.9102 127.51 58.1402 127.19 58.6402 126.88C59.2944 126.496 60.0322 126.276 60.7902 126.24C61.546 126.194 62.3015 126.335 62.9902 126.65C63.5202 126.91 63.7702 127.2 63.7102 127.36Z" fill="#263238"></path><path d="M78.3697 128.63C78.2197 128.91 77.0097 128.63 75.5497 128.63C74.0897 128.63 72.8897 128.8 72.7297 128.51C72.6597 128.37 72.8997 128.12 73.3997 127.89C74.0806 127.61 74.814 127.48 75.5497 127.51C76.2932 127.527 77.0251 127.697 77.6997 128.01C78.2097 128.23 78.4397 128.49 78.3697 128.63Z" fill="#263238"></path><path d="M48.6297 136.15C48.4797 136.07 42.4197 133.89 42.2297 140.15C42.0397 146.41 48.4197 145.35 48.4397 145.15C48.4597 144.95 48.6297 136.15 48.6297 136.15Z" fill="#FFBF9D"></path><path d="M46.5801 142.77C46.5801 142.77 46.4701 142.84 46.2801 142.92C46.1504 142.975 46.011 143.003 45.8701 143.003C45.7292 143.003 45.5898 142.975 45.4601 142.92C45.0608 142.651 44.7402 142.28 44.5311 141.846C44.322 141.412 44.2319 140.93 44.2701 140.45C44.2715 139.908 44.3909 139.372 44.6201 138.88C44.6865 138.684 44.7994 138.507 44.9492 138.364C45.0989 138.221 45.2811 138.117 45.4801 138.06C45.6073 138.032 45.7401 138.049 45.8565 138.107C45.973 138.165 46.066 138.262 46.1201 138.38C46.1901 138.56 46.1201 138.69 46.1801 138.7C46.2401 138.71 46.3201 138.6 46.2801 138.33C46.2489 138.173 46.1641 138.032 46.0401 137.93C45.957 137.862 45.8612 137.811 45.7582 137.78C45.6552 137.749 45.547 137.739 45.4401 137.75C45.1789 137.795 44.9335 137.906 44.727 138.072C44.5206 138.238 44.3599 138.455 44.2601 138.7C43.9786 139.237 43.8311 139.834 43.8301 140.44C43.7813 141.002 43.8995 141.565 44.1699 142.06C44.4404 142.554 44.8509 142.958 45.3501 143.22C45.5167 143.272 45.6929 143.287 45.8658 143.262C46.0387 143.238 46.2041 143.176 46.3501 143.08C46.5601 142.92 46.6001 142.78 46.5801 142.77Z" fill="#FF9A6C"></path><path d="M40.1303 126C41.4203 123.76 41.6903 121.1 42.3803 118.61C43.0703 116.12 44.3803 113.53 46.8503 112.61C49.0303 111.7 51.7203 111.61 53.5303 113.15C53.9403 109.87 56.7803 107.24 59.9703 106.37C63.7752 105.58 67.7236 105.843 71.3903 107.13C73.7703 108.06 76.0903 109.99 78.9103 112.83C80.0984 114.028 81.1885 115.318 82.1703 116.69L85.0503 125.25L82.7203 129.79C82.5803 130.09 82.4403 130.4 82.2603 130.71L80.2603 140.23C80.1003 137.64 80.1803 128.63 80.0103 126.04C78.0632 126.008 76.1431 125.581 74.3658 124.785C72.5885 123.989 70.9912 122.841 69.6703 121.41C68.2403 119.86 67.1003 117.91 65.2003 116.99C62.7503 115.82 59.8503 116.73 57.2903 117.65L57.4003 117.55C56.0654 118.188 54.864 119.073 53.8603 120.16C54.4991 125.27 54.0319 130.457 52.4903 135.37C52.2503 136.11 51.6103 137.63 50.8903 137.92C49.4803 138.48 49.0903 137.04 48.2303 136.29C47.4694 135.78 46.549 135.563 45.6403 135.68C44.9121 133.543 44.3078 131.366 43.8303 129.16C42.9785 129.434 42.0746 129.506 41.1903 129.37C41.4503 128.71 41.7203 128.06 41.9803 127.37C41.6441 127.62 41.2591 127.798 40.8503 127.89C40.6458 127.938 40.4314 127.92 40.2376 127.84C40.0437 127.759 39.8802 127.619 39.7703 127.44C39.5403 127.07 39.8603 126.5 40.1303 126Z" fill="#263238"></path><path d="M56.4901 114.27C56.1657 114.53 55.8615 114.814 55.5801 115.12C54.8629 116.007 54.3875 117.065 54.2001 118.19C54.05 118.961 53.9796 119.745 53.9901 120.53C53.9901 121.38 54.0801 122.29 54.1501 123.24C54.2524 124.237 54.2892 125.239 54.2601 126.24C54.2357 126.774 54.1722 127.305 54.0701 127.83C53.9976 128.392 53.7806 128.927 53.4401 129.38C53.2798 129.56 53.0765 129.697 52.8492 129.777C52.6219 129.858 52.378 129.879 52.1401 129.84C51.6889 129.759 51.2774 129.53 50.9701 129.19C50.4632 128.509 50.1489 127.704 50.0601 126.86H50.2501C49.982 127.558 49.6113 128.212 49.1501 128.8C48.7091 129.352 48.0708 129.71 47.3701 129.8C47.0448 129.833 46.7165 129.778 46.4201 129.64C46.1445 129.501 45.9178 129.281 45.7701 129.01C45.6316 128.763 45.5625 128.483 45.5701 128.2C45.5776 127.935 45.6766 127.681 45.8501 127.48L45.9501 127.57C45.3993 128.208 44.7171 128.72 43.9501 129.07C43.7525 129.167 43.5487 129.25 43.3401 129.32L43.1201 129.38L43.3301 129.28C43.5323 129.203 43.7294 129.112 43.9201 129.01C44.6467 128.632 45.2896 128.112 45.8101 127.48L45.9101 127.57C45.7647 127.769 45.6863 128.009 45.6863 128.255C45.6863 128.501 45.7647 128.741 45.9101 128.94C46.043 129.178 46.2453 129.37 46.4901 129.49C46.7621 129.614 47.0637 129.659 47.3601 129.62C48.0106 129.531 48.6016 129.194 49.0101 128.68C49.4481 128.099 49.8016 127.46 50.0601 126.78L50.1901 126.48L50.2601 126.8C50.3459 127.608 50.6463 128.378 51.1301 129.03C51.393 129.323 51.7439 129.523 52.1301 129.6C52.3307 129.64 52.5384 129.626 52.7317 129.559C52.9251 129.493 53.0971 129.375 53.2301 129.22C53.5421 128.793 53.7416 128.294 53.8101 127.77C53.9122 127.255 53.9757 126.734 54.0001 126.21C54.0267 125.209 53.9966 124.208 53.9101 123.21C53.8401 122.21 53.7601 121.34 53.7701 120.48C53.7608 119.684 53.8379 118.889 54.0001 118.11C54.2006 116.966 54.7087 115.898 55.4701 115.02C55.7659 114.715 56.1107 114.461 56.4901 114.27Z" fill="#455A64"></path><path d="M85.0503 122.89L85.0003 123L84.7703 123.17C84.6512 123.267 84.524 123.354 84.3903 123.43C84.2303 123.52 84.0503 123.63 83.8303 123.73C82.6018 124.299 81.252 124.557 79.9003 124.48C77.8858 124.368 75.9472 123.673 74.3203 122.48C72.3478 121.002 70.6975 119.138 69.4703 117C68.7903 115.9 68.2303 114.76 67.6203 113.71C67.0583 112.692 66.3546 111.76 65.5303 110.94C64.7881 110.196 63.8695 109.653 62.8603 109.36C61.9768 109.115 61.0384 109.157 60.1803 109.48C59.4711 109.731 58.8234 110.13 58.2803 110.65C57.8779 111.048 57.5404 111.507 57.2803 112.01C57.0702 112.453 56.9157 112.92 56.8203 113.4C56.8203 113.4 56.8203 113.4 56.8203 113.3V113.02C56.9003 112.676 57.0141 112.341 57.1603 112.02C57.4165 111.503 57.7542 111.03 58.1603 110.62C58.7123 110.074 59.3734 109.652 60.1003 109.38C60.5259 109.228 60.9698 109.134 61.4203 109.1C61.9113 109.068 62.4043 109.115 62.8803 109.24C63.9181 109.538 64.8662 110.087 65.6403 110.84C66.4809 111.674 67.1981 112.623 67.7703 113.66C68.3903 114.66 68.9503 115.85 69.6303 116.94C70.834 119.042 72.4537 120.876 74.3903 122.33C75.9822 123.511 77.8821 124.206 79.8603 124.33C81.1896 124.421 82.5212 124.188 83.7403 123.65C84.1924 123.424 84.6299 123.17 85.0503 122.89Z" fill="#455A64"></path><path d="M78.4799 132.79C78.2999 132.97 77.2299 132.13 75.6899 132.11C74.1499 132.09 73.0099 132.85 72.8399 132.66C72.6699 132.47 72.9499 132.23 73.4499 131.87C74.1187 131.408 74.9171 131.17 75.7299 131.19C76.5548 131.205 77.3522 131.489 77.9999 132C78.4199 132.35 78.5699 132.7 78.4799 132.79Z" fill="#263238"></path><path d="M77.0897 136.66C77.0741 136.986 76.9311 137.292 76.6915 137.513C76.452 137.733 76.1352 137.851 75.8097 137.84C75.6509 137.843 75.4931 137.814 75.3458 137.754C75.1984 137.695 75.0644 137.607 74.9517 137.495C74.8389 137.383 74.7497 137.25 74.6892 137.103C74.6287 136.956 74.5983 136.799 74.5997 136.64C74.6152 136.315 74.7582 136.009 74.9978 135.788C75.2373 135.567 75.5541 135.449 75.8797 135.46C76.0384 135.457 76.1962 135.487 76.3435 135.546C76.4909 135.605 76.6249 135.693 76.7377 135.805C76.8504 135.917 76.9397 136.05 77.0001 136.197C77.0606 136.344 77.091 136.501 77.0897 136.66Z" fill="#263238"></path><path d="M81.4404 115.73C81.7874 116.286 82.2688 116.747 82.8402 117.068C83.4116 117.39 84.0547 117.562 84.7104 117.57C85.1795 117.471 85.6407 117.337 86.0903 117.17C86.5403 117.44 86.4303 118.99 86.0903 119.41C85.7881 119.773 85.4534 120.108 85.0903 120.41C86.6003 121.23 87.9803 120.83 89.5903 120.24C89.4296 121.616 88.911 122.925 88.0863 124.037C87.2616 125.15 86.1597 126.027 84.8904 126.58C84.4974 126.782 84.0621 126.887 83.6204 126.887C83.1786 126.887 82.7433 126.782 82.3503 126.58C81.7436 126.076 81.3476 125.362 81.2403 124.58C80.5154 121.818 80.1358 118.976 80.1104 116.12L81.4404 115.73Z" fill="#263238"></path><path d="M68.4305 147C68.4305 147.07 68.1505 147.28 67.5805 147.36C66.8207 147.46 66.0492 147.302 65.3905 146.91C64.7314 146.522 64.2183 145.929 63.9305 145.22C63.7305 144.67 63.7605 144.31 63.8405 144.3C63.9205 144.29 64.3705 145.59 65.7105 146.37C67.0505 147.15 68.4005 146.82 68.4305 147Z" fill="#263238"></path><path d="M75.3398 408.17V428L116.08 427.81C115.79 423.81 93.4298 415.81 93.4298 415.81L93.8699 408.23L75.3398 408.17Z" fill="#455A64"></path><g opacity="0.6"><path opacity="0.6" d="M81.9302 414C81.5329 414.141 81.2003 414.422 80.9943 414.79C80.7883 415.158 80.7229 415.588 80.8102 416C80.9122 416.4 81.1648 416.745 81.5151 416.963C81.8654 417.181 82.2864 417.255 82.6902 417.17C83.1084 417.024 83.4585 416.729 83.6742 416.342C83.8898 415.955 83.956 415.503 83.8602 415.07C83.7906 414.867 83.6814 414.68 83.5387 414.519C83.3961 414.358 83.223 414.228 83.0295 414.135C82.8359 414.042 82.6258 413.988 82.4113 413.977C82.1968 413.966 81.9823 413.998 81.7802 414.07" fill="white"></path></g><path d="M75.3398 428V424.84L114.24 425.29C114.24 425.29 116.24 426.49 116.08 427.81L75.3398 428Z" fill="#263238"></path><path d="M93.4205 416.14C93.4205 416.34 92.4205 416.45 91.4205 417.14C90.4205 417.83 89.9505 418.68 89.7705 418.6C89.5905 418.52 89.8605 417.33 91.0405 416.54C92.2205 415.75 93.4705 416 93.4205 416.14Z" fill="#263238"></path><path d="M98.7603 418C98.7603 418.2 97.9603 418.56 97.3003 419.44C96.6403 420.32 96.4603 421.24 96.3003 421.23C96.1403 421.22 95.9603 420.07 96.8003 418.99C97.6403 417.91 98.7603 417.77 98.7603 418Z" fill="#263238"></path><path d="M101.16 423C100.99 423 100.69 422 101.16 420.89C101.63 419.78 102.57 419.29 102.65 419.46C102.73 419.63 102.18 420.24 101.79 421.18C101.4 422.12 101.36 423 101.16 423Z" fill="#263238"></path><path d="M92.9998 410.51C92.9198 410.69 91.9998 410.42 90.8898 410.51C89.7798 410.6 88.8898 410.99 88.7998 410.81C88.7098 410.63 89.5198 409.89 90.7998 409.81C92.0798 409.73 93.1198 410.34 92.9998 410.51Z" fill="#263238"></path><path d="M93.2602 417C93.3734 416.607 93.4007 416.195 93.3402 415.79C93.2526 414.675 92.8807 413.601 92.2602 412.67C91.8401 412.027 91.3004 411.47 90.6702 411.03C90.4831 410.873 90.2579 410.769 90.0174 410.726C89.7769 410.684 89.5296 410.706 89.3002 410.79C89.0621 410.918 88.8619 411.107 88.7197 411.337C88.5775 411.567 88.4984 411.83 88.4902 412.1C88.5639 413.139 88.943 414.133 89.58 414.957C90.217 415.78 91.0834 416.397 92.0702 416.73C93.0443 417.033 94.0861 417.043 95.0659 416.759C96.0456 416.474 96.92 415.908 97.5802 415.13C97.8994 414.77 98.1472 414.353 98.3102 413.9C98.3956 413.644 98.3956 413.366 98.3102 413.11C98.2656 412.981 98.1932 412.863 98.0982 412.764C98.0032 412.666 97.8879 412.589 97.7602 412.54C97.3365 412.424 96.8847 412.466 96.4902 412.66C96.1614 412.814 95.8439 412.991 95.5402 413.19C94.6259 413.787 93.8349 414.554 93.2102 415.45C92.9553 415.763 92.7649 416.123 92.6502 416.51C93.4908 415.342 94.5422 414.342 95.7502 413.56C96.3002 413.25 97.0102 412.81 97.5902 413.01C97.8402 413.11 97.9402 413.4 97.8202 413.75C97.667 414.118 97.4504 414.457 97.1802 414.75C96.5806 415.433 95.7964 415.929 94.9218 416.177C94.0472 416.426 93.1195 416.416 92.2502 416.15C91.3879 415.86 90.6266 415.329 90.0561 414.62C89.4855 413.912 89.1296 413.054 89.0302 412.15C89.0292 411.978 89.0729 411.808 89.157 411.657C89.2411 411.506 89.3628 411.38 89.5102 411.29C89.6631 411.241 89.8261 411.231 89.9837 411.263C90.1413 411.294 90.2881 411.366 90.4102 411.47C91.0009 411.865 91.5157 412.363 91.9302 412.94C92.5441 413.803 92.9513 414.795 93.1202 415.84C93.2302 416.59 93.2102 417 93.2602 417Z" fill="#263238"></path><path d="M56.4099 409.18V415.57L55.9499 427.06L40.6699 427.43L40.1299 415.57L40.5799 408.35L56.4099 409.18Z" fill="#455A64"></path><path d="M48.4001 426.2C48.3001 426.2 48.5201 422.69 48.8901 418.35C49.2601 414.01 49.6201 410.48 49.7101 410.48C49.8001 410.48 49.5901 413.99 49.2201 418.33C48.8501 422.67 48.4901 426.2 48.4001 426.2Z" fill="#263238"></path><path d="M56.0101 425.15L40.5801 425.33V427.43L56.0201 427.41L56.0101 425.15Z" fill="#263238"></path><path d="M40.6201 418.54C40.6201 418.54 40.7201 418.31 41.0101 417.94C41.4144 417.419 41.87 416.94 42.3701 416.51C43.1081 415.855 43.9366 415.309 44.8301 414.89C45.9414 414.358 47.1578 414.081 48.3901 414.08C49.5105 414.066 50.6217 414.284 51.6541 414.719C52.6866 415.154 53.618 415.798 54.3901 416.61C54.8398 417.097 55.217 417.646 55.5101 418.24C55.7101 418.66 55.7801 418.91 55.7501 418.92C55.281 418.177 54.7455 417.477 54.1501 416.83C52.6135 415.351 50.5628 414.527 48.4301 414.53C46.2995 414.599 44.2536 415.381 42.6201 416.75C41.3001 417.78 40.6801 418.6 40.6201 418.54Z" fill="#263238"></path><path d="M90.7997 259.81L88.9997 257L31.9397 259.7C30.7838 265.869 30.2212 272.134 30.2597 278.41C30.2597 283.41 32.7197 293.65 32.7197 293.65L35.4197 348.78C35.9597 353.78 36.3597 413.78 36.3597 413.78H58.9997L63.6097 330.1C64.0997 320.79 63.7497 306.67 64.2197 296.37L71.9997 327.94L76.9997 349.51C76.9997 349.51 75.9997 358.34 74.9997 370.59C73.5197 387.93 73.3897 413.07 73.3897 413.07L96.6097 413.45C96.6097 413.45 99.8397 383.81 102.36 366.5L104.53 345.84C104.53 342.38 103.02 333.93 102.76 332.54L90.7997 259.81Z" fill="#BBBBBB"></path><path d="M69.2602 298.26C68.916 298.177 68.581 298.06 68.2602 297.91C67.8294 297.768 67.4085 297.598 67.0002 297.4C66.5502 297.18 66.0002 296.95 65.4702 296.62C64.862 296.287 64.2712 295.923 63.7002 295.53C63.0702 295.13 62.4402 294.63 61.7802 294.11C60.3681 292.952 59.072 291.659 57.9102 290.25C56.7657 288.823 55.761 287.29 54.9102 285.67C54.5405 284.961 54.2067 284.233 53.9102 283.49C53.6394 282.837 53.4057 282.169 53.2102 281.49C53.0351 280.945 52.8882 280.391 52.7702 279.83C52.6585 279.413 52.5782 278.989 52.5302 278.56C52.4496 278.202 52.4093 277.837 52.4102 277.47C52.5002 277.47 52.7002 279.01 53.5002 281.4C53.7002 282 53.9302 282.64 54.2302 283.32C54.5302 284 54.8702 284.7 55.2302 285.45C56.0959 287.032 57.0998 288.535 58.2302 289.94C59.3792 291.328 60.651 292.61 62.0302 293.77C62.6702 294.29 63.2802 294.77 63.9002 295.2C64.5202 295.63 65.0902 295.99 65.6202 296.32C67.8202 297.64 69.3002 298.18 69.2602 298.26Z" fill="#455A64"></path><path d="M138.811 181.26C139.529 179.573 140.341 177.928 141.241 176.33C141.871 175.5 144.671 172.33 144.671 172.33C144.671 172.33 150.281 169.72 151.201 169.99C151.742 170.141 152.263 170.359 152.751 170.64L160.601 165.14C160.601 165.14 162.441 164.14 163.151 165.27C163.861 166.4 162.881 167.2 162.461 167.71C162.041 168.22 156.361 173.09 156.361 173.09L156.151 173.48C156.151 173.48 158.271 174.13 158.271 175.29C158.21 176.147 157.953 176.978 157.521 177.72C157.838 177.976 158.069 178.324 158.183 178.715C158.298 179.106 158.29 179.523 158.161 179.91L157.751 181.32C158.112 181.568 158.401 181.906 158.589 182.301C158.777 182.696 158.857 183.134 158.821 183.57C158.621 184.98 155.261 187.4 155.261 187.4C155.261 187.4 149.151 190.13 147.881 190.25C146.484 190.461 145.099 190.741 143.731 191.09L138.811 181.26Z" fill="#FFBF9D"></path><path d="M154.441 169.42C154.02 169.855 153.546 170.234 153.03 170.55C151.861 171.43 150.593 172.168 149.25 172.75C147.861 173.116 146.506 173.601 145.2 174.2C144.699 174.506 144.241 174.88 143.84 175.31C143.79 175.31 144.07 174.58 145.04 173.94C146.325 173.249 147.688 172.715 149.101 172.35C150.411 171.79 151.672 171.121 152.87 170.35C153.354 169.978 153.881 169.665 154.441 169.42Z" fill="#FF9A6C"></path><path d="M156.31 173.21C156.36 173.21 156.31 173.43 156.09 173.64C155.813 173.882 155.499 174.078 155.16 174.22C154.722 174.485 154.222 174.633 153.71 174.65C153.65 174.54 154.24 174.17 154.98 173.84L155.91 173.39C156.14 173.28 156.25 173.18 156.31 173.21Z" fill="#FF9A6C"></path><path d="M157.56 177.48C157.64 177.56 157.38 177.98 156.93 178.35C156.48 178.72 156.02 178.9 155.93 178.81C155.84 178.72 156.2 178.38 156.63 178.03C157.06 177.68 157.47 177.4 157.56 177.48Z" fill="#FF9A6C"></path><path d="M158 181C158.11 181 158 181.63 157.38 182.1C156.76 182.57 156.19 182.6 156.18 182.48C156.17 182.36 156.63 182.16 157.11 181.77C157.59 181.38 157.87 181 158 181Z" fill="#FF9A6C"></path><path d="M139.08 180.41L128.57 187.21L132.74 200.74L146.11 189.61L145.3 183.58L139.08 180.41Z" fill="#FFBF9D"></path><path d="M26.0001 183.37C26.0001 183.37 19.1601 222 19.4901 225.64C19.8201 229.28 20.9401 234.4 25.7301 235.99C28.3038 236.76 31.0464 236.76 33.6201 235.99L35.4201 213.07L28.6901 188.51L26.0001 183.37Z" fill="#FFBF9D"></path><path d="M78.9997 165.91L84.3497 168.68L87.5897 198.92L88.6497 209.17L90.3097 237.62C90.8197 240.08 93.1897 266.34 93.1897 266.34L29.2697 267.88C30.2697 267.59 31.1397 256.41 31.7297 254L33.6197 237.34L31.7297 213.5C31.7297 213.5 25.0897 184.39 25.9997 182.09C26.9097 179.79 31.1197 174.46 39.4197 168.62C42.7297 166.29 47.5197 163.38 47.5197 163.38L69.4097 163.49L78.9997 165.91Z" fill="#EEEEEE"></path><path d="M113.81 195.51C113.81 195.51 99.4801 182.85 94.0901 177.51C88.0901 171.51 83.8401 168.51 81.9901 168.4C81.4601 168.4 75.7901 171.4 75.7901 171.4C75.7901 171.4 74.3201 173.08 71.7901 181.68C69.2601 190.28 84.0001 195.83 84.0001 195.83L91.0001 202.83C92.3301 204.04 102.16 212.83 109.36 215.65C111.28 216.4 113.368 216.61 115.399 216.258C117.43 215.905 119.325 215.003 120.88 213.65L142.88 192.42C139.49 183.31 139.16 180.42 139.16 180.42" fill="#FFBF9D"></path><path d="M25.9705 182.369L19.4805 215.219L35.4205 218.329L31.4705 182.839L25.9705 182.369Z" fill="#EEEEEE"></path><path d="M28.4901 183.14C28.6301 183.14 29.8101 194.91 31.1301 209.46C32.4501 224.01 33.4001 235.81 33.2601 235.83C33.1201 235.85 31.9401 224.06 30.6201 209.51C29.3001 194.96 28.3401 183.15 28.4901 183.14Z" fill="#263238"></path><path d="M70.2104 187.829L93.2104 207.099L107.65 187.329C107.65 187.329 90.1804 172.059 86.0004 169.849C80.8704 167.109 77.0004 165.069 73.0004 169.969C70.9028 172.382 69.5283 175.338 69.0348 178.497C68.5413 181.656 68.9487 184.891 70.2104 187.829Z" fill="#EEEEEE"></path><path d="M93.1799 206.82C93.1799 206.82 93.0099 206.73 92.7299 206.52L91.4799 205.58L86.9999 202L72.0799 190.11L71.7999 189.79C69.4628 186.996 68.2538 183.429 68.4099 179.79C68.5253 176.827 69.5991 173.981 71.4699 171.68C72.6927 170.113 74.2644 168.853 76.0599 168C76.5447 167.778 77.0462 167.594 77.5599 167.45C77.7376 167.389 77.9225 167.352 78.1099 167.34C78.1099 167.34 77.3699 167.57 76.1099 168.18C73.9758 169.288 72.1759 170.945 70.8961 172.981C69.6164 175.016 68.9031 177.357 68.8299 179.76C68.6901 183.282 69.8665 186.729 72.1299 189.43L72.3999 189.74L87.1799 201.74L91.5999 205.42L92.7899 206.42C92.9348 206.538 93.0657 206.672 93.1799 206.82Z" fill="#263238"></path><g opacity="0.3"><path opacity="0.3" d="M72.2402 189.91C72.2402 189.91 77.2902 199.54 88.6502 209.17L88.0002 202.61L72.2402 189.91Z" fill="black"></path></g><path d="M67.8903 232.76C67.5636 233.031 67.2082 233.266 66.8303 233.46C66.1303 233.88 65.1103 234.46 63.8303 235.18C61.2903 236.61 57.7303 238.51 53.7503 240.5C49.7703 242.49 46.1103 244.2 43.4403 245.39C42.1003 245.98 41.0203 246.44 40.2603 246.75C39.8799 246.935 39.481 247.079 39.0703 247.18C39.4165 246.936 39.7888 246.732 40.1803 246.57L43.2903 245.05C45.9103 243.79 49.5403 242.05 53.5203 240.05C57.5003 238.05 61.0703 236.21 63.6603 234.87L66.7403 233.29C67.1055 233.076 67.4907 232.899 67.8903 232.76Z" fill="#263238"></path></g><defs><clipPath id="clip0_421_1756"><rect width="459.14" height="427.97" fill="white"></rect></clipPath></defs></svg>