<svg width="189" height="32px" viewBox="0 0 511 79" fill="none" xmlns="http://www.w3.org/2000/svg">
                                                <g clip-path="url(#clip0_81_172)">
                                                    <path d="M47.74 66.75L61.69 0H76.06L70.54 26.22L70.75 26.32C72.6472 24.1414 74.9911 22.3967 77.6225 21.2043C80.2539 20.012 83.1111 19.4 86 19.41C93.51 19.41 97.77 23.86 97.77 31.24C97.7143 34.1057 97.3793 36.9592 96.77 39.76L91.15 66.76H76.69L82.1 40.61C82.5167 38.7149 82.7279 36.7804 82.73 34.84C82.73 32 81.48 30 78.25 30C73.67 30 68.78 35.3 66.9 43.92L62.11 66.75H47.74Z" fill="#173680"></path>
                                                    <path d="M145.64 56C147.349 57.2852 149.443 57.9516 151.58 57.89C159.58 57.89 165.11 45.89 165.11 37.44C165.11 33.94 163.76 30.25 159.38 30.25C154.38 30.25 149.7 35.64 148.03 43.79L145.64 56ZM125.12 85.3L135.12 37.49C136.27 32.1 137.41 24.9 138.04 20.17H150.74L149.91 27.17H150.12C151.9 24.8094 154.193 22.8842 156.826 21.5399C159.46 20.1956 162.364 19.4673 165.32 19.41C175.84 19.41 180.1 27.27 180.1 36.07C180.1 51.97 169.1 67.69 152.2 67.69C149.297 67.7869 146.411 67.2084 143.77 66H143.45L139.5 85.3H125.12Z" fill="#173680"></path>
                                                    <path d="M256.87 8.05005L254.26 20.45H264.78L262.7 30.2001H252.18L248.43 47.53C248.006 49.2671 247.762 51.0431 247.7 52.8301C247.7 55.2901 248.95 56.71 251.97 56.71C253.256 56.7391 254.543 56.6756 255.82 56.5201L254.16 66.6501C251.368 67.3451 248.496 67.6645 245.62 67.6C237.08 67.6 232.92 63.52 232.92 57.6C232.945 54.8576 233.28 52.1268 233.92 49.46L238 30.2001H231.64L233.73 20.45H240.08L241.85 11.93L256.87 8.05005Z" fill="#173680"></path>
                                                    <path d="M297.6 30.3899C296.419 30.1198 295.211 29.9889 294 29.9999C283.28 29.9999 278.42 40.2599 278.42 49.5899C278.42 54.0499 279.99 57.0799 283.84 57.0799C288.11 57.0799 293 52.2499 295.19 41.7399L297.6 30.3899ZM293.28 66.7499C293.38 64.0899 293.69 61.1599 293.9 58.0299H293.59C289.11 65.2299 283.07 67.6899 277.76 67.6899C269.12 67.6899 263.6 61.4399 263.6 52.2599C263.6 34.7399 271.88 20.0699 297.91 20.0699C303.226 20.11 308.514 20.8429 313.64 22.2499L308.38 46.2499C307.031 52.9875 306.332 59.8388 306.29 66.7099L293.28 66.7499Z" fill="#173680"></path>
                                                    <path d="M343.86 8.05005L341.25 20.45H351.77L349.69 30.2001H339.17L335.42 47.53C335.004 49.2683 334.763 51.0438 334.7 52.8301C334.7 55.2901 335.94 56.71 338.97 56.71C340.256 56.7389 341.543 56.6754 342.82 56.5201L341.15 66.6501C338.358 67.3451 335.486 67.6645 332.61 67.6C324.08 67.6 319.91 63.52 319.91 57.6C319.935 54.8576 320.27 52.1268 320.91 49.46L325 30.2001H318.65L320.73 20.45H327.08L328.85 11.93L343.86 8.05005Z" fill="#173680"></path>
                                                    <path d="M439 66.75L445.56 35.5C446.81 29.82 447.56 24.71 448.27 20.5H460.87L460.04 27.6H460.25C462.187 25.0517 464.692 22.9894 467.564 21.5765C470.437 20.1637 473.599 19.439 476.8 19.46C484.8 19.46 488.99 24.09 488.99 31.39C488.918 34.1225 488.604 36.8432 488.05 39.52L482.33 66.8H467.91L473.43 40.19C473.783 38.4818 473.974 36.7441 474 35C474 32.07 472.86 30 469.52 30C465.16 30 459.94 35.11 457.97 45L453.49 66.78L439 66.75Z" fill="#173680"></path>
                                                    <path d="M117.19 14.5H117.4C121.83 14.5 125.64 11.78 125.74 7.01005C125.74 3.26005 122.96 0.550049 118.63 0.550049C114.1 0.550049 110.49 3.82005 110.49 8.04005C110.49 11.88 113.17 14.5 117.19 14.5Z" fill="#173680"></path>
                                                    <path d="M122.52 20.12H108.52L102.32 49.61C101.68 52.2497 101.344 54.954 101.32 57.67C101.32 63.57 105.44 67.6 113.89 67.6C116.736 67.6622 119.577 67.3461 122.34 66.66L123.99 56.66C122.726 56.8072 121.453 56.8673 120.18 56.84C117.18 56.84 115.95 55.44 115.95 53C116.013 51.2336 116.254 49.478 116.67 47.76L122.52 20.12Z" fill="#173680"></path>
                                                    <path d="M368.6 14.5H368.81C373.23 14.5 377.05 11.78 377.15 7.01005C377.15 3.26005 374.37 0.550049 370.04 0.550049C365.51 0.550049 361.9 3.82005 361.9 8.04005C361.9 11.88 364.58 14.5 368.6 14.5" fill="#173680"></path>
                                                    <path d="M373.12 20.12H359.12L352.86 49.64C352.225 52.2806 351.889 54.9843 351.86 57.7C351.86 63.6 355.98 67.63 364.43 67.63C367.276 67.6916 370.117 67.3756 372.88 66.69L374.52 56.69C373.256 56.8458 371.983 56.9093 370.71 56.88C367.71 56.88 366.49 55.47 366.49 53.03C366.548 51.2631 366.789 49.5071 367.21 47.79L373.12 20.12Z" fill="#173680"></path>
                                                    <path d="M31.56 30.47C25.73 27 22.3 24 22.3 20.54C22.3 16.66 26.05 13.45 32.61 13.45C37.38 13.35 42.26 15.45 45.76 17.3L48.49 6.00005L48.55 5.73005C43.9306 3.2901 38.7738 2.04559 33.55 2.11005C17 2.08005 7.4 9.62005 7.4 22.63C7.4 30.1 13.24 35.77 20 39.75C25.84 43.06 28.75 44.7501 28.75 48.5601C28.75 53.5601 23.75 56.33 17.92 56.23C12.35 56.23 6.53 53.11 2.92 51.12L0 63C5.13497 65.9655 10.9505 67.5503 16.88 67.6C32.63 67.6 43.88 61.68 43.88 46.3C43.88 39.38 39.3 34.73 31.59 30.47" fill="#173680"></path>
                                                    <path d="M212.33 30.47C206.5 26.97 203.06 24.04 203.06 20.54C203.06 16.66 206.81 13.45 213.37 13.45C218.14 13.35 223.02 15.45 226.52 17.3L229.26 5.99996L229.31 5.72996C224.691 3.288 219.534 2.04337 214.31 2.10996C197.78 2.10996 188.17 9.64996 188.17 22.66C188.17 30.13 194 35.8 200.77 39.78C206.6 43.09 209.51 44.78 209.51 48.59C209.51 53.59 204.51 56.36 198.69 56.26C193.11 56.26 187.29 53.14 183.64 51.15L180.76 63C185.899 65.9514 191.714 67.5224 197.64 67.56C213.4 67.56 224.64 61.64 224.64 46.26C224.64 39.34 220.06 34.69 212.36 30.43" fill="#173680"></path>
                                                    <path d="M500.45 16.53H503.07C503.291 16.527 503.51 16.4794 503.713 16.39C503.916 16.3007 504.098 16.1715 504.25 16.01C504.421 15.8562 504.557 15.668 504.651 15.4578C504.744 15.2475 504.791 15.0199 504.79 14.79C504.788 14.3269 504.609 13.8821 504.289 13.5473C503.969 13.2125 503.533 13.013 503.07 12.99H500.45V16.53ZM499.19 21.42V11.91H503.07C503.854 11.8893 504.615 12.1764 505.19 12.71C505.478 12.9726 505.706 13.2945 505.858 13.6536C506.01 14.0126 506.082 14.4003 506.07 14.79C506.088 15.479 505.849 16.1501 505.4 16.673C504.951 17.196 504.324 17.5335 503.64 17.62L506.2 21.42H504.63L502.17 17.66H500.45V21.42H499.19ZM495.19 16.64C495.189 17.5864 495.374 18.5237 495.735 19.3984C496.096 20.2731 496.627 21.068 497.295 21.7376C497.964 22.4073 498.758 22.9385 499.632 23.301C500.507 23.6634 501.444 23.85 502.39 23.85C503.334 23.8626 504.27 23.6809 505.14 23.3162C506.011 22.9515 506.797 22.4115 507.45 21.73C508.126 21.0676 508.661 20.275 509.021 19.4002C509.382 18.5253 509.562 17.5863 509.55 16.64C509.55 14.7357 508.794 12.9095 507.447 11.563C506.1 10.2165 504.274 9.46 502.37 9.46C500.466 9.46 498.639 10.2165 497.293 11.563C495.946 12.9095 495.19 14.7357 495.19 16.64ZM494.1 16.64C494.096 15.5502 494.308 14.4704 494.723 13.4629C495.138 12.4553 495.749 11.5398 496.519 10.7692C497.29 9.99865 498.205 9.38817 499.213 8.97296C500.22 8.55775 501.3 8.34603 502.39 8.35C503.856 8.33818 505.299 8.71792 506.57 9.45C507.822 10.1618 508.858 11.1982 509.57 12.45C510.301 13.721 510.681 15.1637 510.67 16.63C510.67 18.8286 509.797 20.9372 508.242 22.4919C506.687 24.0466 504.579 24.92 502.38 24.92C500.181 24.92 498.073 24.0466 496.518 22.4919C494.963 20.9372 494.09 18.8286 494.09 16.63" fill="#173680"></path>
                                                    <path d="M437.07 46.9V37.81L429.14 36.61C428.621 34.6177 427.831 32.7064 426.79 30.93L431.55 24.47L425.12 18.05L418.67 22.81C416.895 21.7721 414.988 20.9783 413 20.45L411.81 12.52H402.7L401.5 20.45C399.507 20.9803 397.593 21.7739 395.81 22.81L389.36 18.05L382.94 24.47L387.7 30.93C386.659 32.7073 385.865 34.6182 385.34 36.61L377.41 37.81V46.9L385.34 48.09C385.859 50.0871 386.653 52.0022 387.7 53.78L382.94 60.24L389.36 66.66L395.81 61.9C397.593 62.9361 399.507 63.7298 401.5 64.26L402.7 72.19H411.79L413 64.26C414.996 63.7385 416.911 62.9444 418.69 61.9L425.14 66.66L431.57 60.24L426.81 53.78C427.851 52.0001 428.641 50.0855 429.16 48.09L437.07 46.9ZM407.24 52.33C405.262 52.33 403.329 51.7435 401.684 50.6447C400.04 49.5459 398.758 47.9841 398.001 46.1569C397.244 44.3296 397.046 42.3189 397.432 40.3791C397.818 38.4393 398.77 36.6575 400.169 35.259C401.568 33.8604 403.349 32.908 405.289 32.5222C407.229 32.1363 409.24 32.3343 411.067 33.0912C412.894 33.8481 414.456 35.1298 415.555 36.7743C416.654 38.4188 417.24 40.3522 417.24 42.33C417.24 43.6432 416.981 44.9436 416.479 46.1569C415.976 47.3701 415.24 48.4725 414.311 49.4011C413.383 50.3297 412.28 51.0663 411.067 51.5688C409.854 52.0714 408.553 52.33 407.24 52.33V52.33Z" fill="#6CBE45"></path>
                                                </g>
                                                <defs>
                                                    <clipPath id="clip0_81_172">
                                                        <rect width="510.65" height="85.3" fill="white"></rect>
                                                    </clipPath>
                                                </defs>
                                            </svg>