<svg width="581" height="385" viewBox="0 0 581 385" fill="none" xmlns="http://www.w3.org/2000/svg">
										<path d="M541.785 155.3C541.785 155.3 534.256 154.757 534.95 171.631C535.644 188.505 537.371 197.493 537.371 197.493C537.371 197.493 537.148 201.24 534.247 200.501C531.346 199.763 525.899 196.123 523.202 198.846C520.506 201.569 521.422 205.966 525.107 211.101C528.791 216.236 536.516 227.672 537.21 228.713C537.905 229.755 538.163 231.65 536.107 231.463C534.051 231.276 520.194 226.577 518.352 233.288C516.51 239.998 529.174 252.52 530.527 253.908C531.88 255.297 531.96 256.187 531.417 257.032C530.874 257.877 526.353 255.857 522.357 254.682C518.361 253.508 513.52 252.84 512.781 256.801C512.042 260.761 517.622 272.357 538.492 284.541L548.531 289.551L558.036 283.491C577.615 269.251 581.958 257.192 580.837 253.321C579.715 249.449 574.954 250.598 571.091 252.164C567.229 253.73 562.948 256.195 562.316 255.412C561.684 254.629 561.667 253.739 562.877 252.217C564.087 250.695 575.426 236.981 572.925 230.484C570.424 223.988 557.11 230.057 555.125 230.44C553.141 230.822 553.176 228.9 553.755 227.814C554.333 226.729 560.875 214.527 564.034 209.081C567.193 203.634 567.763 199.229 564.701 196.701C561.64 194.174 556.692 198.428 553.879 199.451C551.067 200.475 550.48 196.781 550.48 196.781C550.48 196.781 551.29 187.668 550.293 170.803C549.296 153.938 541.642 155.3 541.642 155.3" fill="#777777"></path>
										<path d="M542.372 170.412C542.38 170.53 542.38 170.649 542.372 170.768L542.452 171.8C542.515 172.69 542.604 174.069 542.719 175.787C542.951 179.249 543.253 184.259 543.609 190.445C544.295 202.833 545.104 219.947 545.923 238.85C546.742 257.753 547.516 274.885 548.13 287.264C548.451 293.449 548.7 298.451 548.878 301.931C548.967 303.657 549.029 304.992 549.074 305.927C549.074 306.363 549.074 306.71 549.074 306.959C549.08 307.078 549.08 307.197 549.074 307.315C549.074 307.315 549.074 307.199 549.074 306.959C549.074 306.719 549.074 306.372 548.994 305.927C548.931 305.037 548.833 303.657 548.718 301.94C548.486 298.487 548.193 293.476 547.828 287.282C547.134 274.894 546.333 257.78 545.505 238.868C544.677 219.956 543.921 202.851 543.298 190.463C542.986 184.286 542.728 179.276 542.559 175.796C542.47 174.078 542.399 172.734 542.354 171.809C542.354 171.364 542.354 171.017 542.354 170.768C542.354 170.518 542.372 170.412 542.372 170.412Z" fill="#777777"></path>
										<path d="M530.625 204.248C530.851 204.396 531.06 204.569 531.248 204.764C531.639 205.12 532.138 205.654 532.841 206.295C534.167 207.612 535.956 209.472 537.878 211.564C539.8 213.655 541.438 215.488 542.791 216.903L544.286 218.523C544.483 218.707 544.66 218.913 544.811 219.137C544.811 219.137 544.562 218.977 544.179 218.63C543.796 218.283 543.289 217.74 542.595 217.09C541.278 215.764 539.524 213.878 537.593 211.751L532.654 206.411C532.058 205.779 531.559 205.236 531.15 204.791C530.955 204.63 530.779 204.448 530.625 204.248Z" fill="#777777"></path>
										<path d="M545.799 218.844C545.728 218.772 549.403 214.928 554.004 210.255C558.606 205.583 562.406 201.863 562.477 201.943C562.548 202.023 558.917 205.859 554.28 210.531C549.644 215.204 545.879 218.924 545.799 218.844Z" fill="#777777"></path>
										<path d="M545.763 247.937C545.978 247.764 546.211 247.615 546.457 247.492L548.424 246.388C550.08 245.498 552.367 244.163 554.832 242.65C557.297 241.137 559.495 239.695 561.062 238.636L562.931 237.382C563.149 237.208 563.392 237.067 563.651 236.963C563.459 237.164 563.247 237.346 563.02 237.506C562.601 237.835 561.987 238.298 561.24 238.859C559.7 239.971 557.529 241.458 555.01 242.979C552.491 244.501 550.222 245.756 548.531 246.628C547.641 247.064 546.991 247.403 546.502 247.625C546.269 247.758 546.021 247.863 545.763 247.937Z" fill="#777777"></path>
										<path d="M529.13 237.729C529.372 237.813 529.605 237.924 529.824 238.058C530.26 238.289 530.883 238.636 531.604 239.064C533.135 239.954 535.235 241.155 537.54 242.526C539.845 243.896 541.919 245.195 543.414 246.085C544.161 246.557 544.758 246.931 545.194 247.207C545.419 247.329 545.625 247.482 545.808 247.661C545.565 247.578 545.332 247.467 545.114 247.331C544.678 247.1 544.055 246.753 543.334 246.326C541.812 245.436 539.712 244.234 537.407 242.864C535.102 241.493 533.028 240.194 531.533 239.304C530.785 238.841 530.189 238.458 529.753 238.183C529.317 237.907 529.112 237.782 529.13 237.729Z" fill="#777777"></path>
										<path d="M525.828 263.44C526.141 263.544 526.44 263.688 526.718 263.867L529.058 265.157C531.025 266.252 533.722 267.827 536.694 269.527C539.667 271.227 542.346 272.847 544.277 273.977L546.546 275.374C546.837 275.53 547.109 275.718 547.356 275.935C547.048 275.819 546.75 275.676 546.466 275.508L544.126 274.217C542.168 273.114 539.462 271.547 536.49 269.839C533.517 268.13 530.838 266.528 528.916 265.389L526.638 263.992C526.353 263.83 526.082 263.645 525.828 263.44Z" fill="#777777"></path>
										<path d="M546.92 275.517C547.194 275.288 547.492 275.091 547.81 274.929L550.249 273.443C552.313 272.188 555.152 270.444 558.258 268.432C561.364 266.421 564.088 264.543 566.063 263.164L568.413 261.535C568.687 261.315 568.986 261.127 569.303 260.975C569.052 261.219 568.785 261.445 568.502 261.651C567.968 262.069 567.194 262.665 566.224 263.386C564.283 264.819 561.56 266.75 558.463 268.726C555.366 270.702 552.509 272.446 550.453 273.639C549.403 274.235 548.549 274.707 547.944 275.027C547.617 275.219 547.275 275.383 546.92 275.517Z" fill="#777777"></path>
										<path d="M562.005 292.844H534.229L543.298 361.461H552.945L562.005 292.844Z" fill="#777777"></path>
										<path d="M535.671 301.272C535.671 301.272 535.671 301.37 535.822 301.521C536.004 301.732 536.233 301.896 536.49 302.002C536.975 302.169 537.491 302.223 538 302.16C538.509 302.097 538.997 301.918 539.427 301.637C540.548 301.023 541.527 299.804 542.986 299.27C544.65 298.734 546.444 298.768 548.086 299.368C549.762 299.937 551.361 300.711 552.847 301.673C554.086 302.451 555.376 303.144 556.71 303.746C557.619 304.154 558.58 304.433 559.567 304.574C559.835 304.614 560.105 304.631 560.376 304.627C560.554 304.627 560.652 304.627 560.652 304.627C559.335 304.425 558.053 304.038 556.843 303.479C555.542 302.842 554.279 302.129 553.061 301.343C551.558 300.348 549.934 299.549 548.228 298.967C546.489 298.338 544.588 298.316 542.835 298.905C542.093 299.205 541.406 299.63 540.806 300.16C540.302 300.603 539.77 301.014 539.213 301.388C538.828 301.654 538.39 301.833 537.929 301.915C537.469 301.996 536.996 301.977 536.543 301.86C536.216 301.724 535.92 301.524 535.671 301.272Z" fill="#777777"></path>
										<path d="M536.686 313.919C536.686 313.919 536.908 313.634 537.344 313.18C537.969 312.553 538.726 312.072 539.56 311.774C540.796 311.324 542.109 311.125 543.423 311.186C545.045 311.312 546.658 311.532 548.255 311.845C549.885 312.162 551.553 312.231 553.203 312.05C554.551 311.876 555.865 311.501 557.101 310.937C557.932 310.565 558.717 310.099 559.442 309.549C559.719 309.364 559.968 309.139 560.181 308.881C559.156 309.555 558.082 310.15 556.968 310.661C555.751 311.171 554.469 311.507 553.159 311.658C551.545 311.804 549.918 311.723 548.326 311.418C546.71 311.1 545.075 310.889 543.432 310.786C542.068 310.744 540.711 310.983 539.444 311.489C538.586 311.834 537.82 312.377 537.211 313.073C537.051 313.266 536.911 313.475 536.792 313.696C536.744 313.763 536.707 313.839 536.686 313.919Z" fill="#777777"></path>
										<path d="M558.863 320.682C558.636 320.501 558.376 320.365 558.098 320.282C557.357 320.009 556.581 319.844 555.793 319.792C554.63 319.719 553.461 319.784 552.313 319.988C551.023 320.202 549.643 320.558 548.175 320.878C546.818 321.193 545.429 321.349 544.037 321.341C542.907 321.313 541.793 321.071 540.753 320.629C539.804 320.19 538.955 319.56 538.261 318.778C538.366 319.048 538.527 319.294 538.732 319.499C539.257 320.098 539.899 320.583 540.619 320.923C541.685 321.426 542.841 321.71 544.019 321.759C545.447 321.794 546.874 321.644 548.264 321.314C549.741 321.003 551.121 320.638 552.385 320.424C553.501 320.209 554.638 320.113 555.775 320.14C556.823 320.19 557.861 320.373 558.863 320.682Z" fill="#777777"></path>
										<path d="M539.142 330.196C539.983 329.835 540.915 329.741 541.812 329.929C542.79 330.168 543.737 330.52 544.633 330.979C545.784 331.534 547.026 331.875 548.299 331.985C550.62 332.194 552.947 331.655 554.939 330.445C555.536 330.084 556.091 329.657 556.594 329.173C556.932 328.817 557.101 328.612 557.083 328.585C556.347 329.159 555.578 329.688 554.778 330.169C552.814 331.253 550.57 331.727 548.335 331.531C545.71 331.389 543.689 329.813 541.865 329.609C541.164 329.487 540.444 329.548 539.774 329.787C539.329 329.974 539.124 330.178 539.142 330.196Z" fill="#777777"></path>
										<path d="M540.69 343.368C541.486 343.388 542.277 343.23 543.004 342.905C544.401 342.442 546.128 341.374 548.148 340.573C549.084 340.189 550.082 339.978 551.094 339.95C551.917 339.951 552.729 340.137 553.47 340.493C554.144 340.854 554.73 341.359 555.188 341.97C555.15 341.758 555.058 341.559 554.921 341.392C554.588 340.899 554.143 340.494 553.621 340.208C552.847 339.788 551.984 339.556 551.103 339.532C550.035 339.534 548.977 339.742 547.988 340.146C545.897 340.983 544.223 342.086 542.888 342.611C541.554 343.136 540.681 343.296 540.69 343.368Z" fill="#777777"></path>
										<path d="M542.052 349.499C542.615 349.772 543.215 349.964 543.832 350.069C545.278 350.419 546.747 350.666 548.228 350.808C549.707 350.955 551.193 351 552.678 350.941C553.297 350.96 553.915 350.885 554.511 350.719C554.511 350.585 551.699 350.719 548.282 350.354C544.864 349.989 542.087 349.366 542.052 349.499Z" fill="#777777"></path>
										<path d="M546.243 43.9919H460.486V100.38H546.243V43.9919Z" fill="#777777"></path>
										<path d="M543.218 46.2969H463.468V97.8526H543.218V46.2969Z" fill="#777777"></path>
										<path d="M516.35 65.084H490.336V79.2701H516.35V65.084Z" fill="#555555"></path>
										<rect y="361" width="575" height="4" rx="2" fill="#8F8F8F"></rect>
										<path d="M188.406 0H372.059V174.914C372.059 178.742 370.539 182.414 367.831 185.121C365.124 187.828 361.453 189.349 357.624 189.349H188.406V0Z" fill="#777777"></path>
										<path d="M356.894 56.3527C356.894 56.7354 323.707 57.0469 282.769 57.0469C241.83 57.0469 208.626 56.7354 208.626 56.3527C208.626 55.97 241.813 55.6585 282.769 55.6585C323.725 55.6585 356.894 55.97 356.894 56.3527Z" fill="white"></path>
										<path d="M283.642 69.1949C283.642 69.5776 267.248 69.8891 247.019 69.8891C226.791 69.8891 210.388 69.5776 210.388 69.1949C210.388 68.8122 226.791 68.5007 247.019 68.5007C267.248 68.5007 283.642 68.7944 283.642 69.1949Z" fill="white"></path>
										<path d="M312.921 67.9934C312.921 68.3761 308.578 68.6876 303.221 68.6876C297.863 68.6876 293.52 68.3761 293.52 67.9934C293.52 67.6108 297.863 67.2993 303.221 67.2993C308.578 67.2993 312.921 67.6108 312.921 67.9934Z" fill="white"></path>
										<path d="M360.855 67.2014C360.855 67.5841 352.258 67.8955 341.65 67.8955C331.041 67.8955 322.444 67.5841 322.444 67.2014C322.444 66.8187 331.041 66.5072 341.65 66.5072C352.258 66.5072 360.855 66.8187 360.855 67.2014Z" fill="white"></path>
										<path d="M277.527 81.4497C277.527 81.8413 262.104 82.1528 243.076 82.1528C224.049 82.1528 208.626 81.8413 208.626 81.4497C208.626 81.0581 224.049 80.7555 243.076 80.7555C262.104 80.7555 277.527 81.067 277.527 81.4497Z" fill="#777777"></path>
										<path d="M360.855 81.1026C360.855 81.4853 344.016 81.7968 323.245 81.7968C302.473 81.7968 285.626 81.4853 285.626 81.1026C285.626 80.7199 302.464 80.4085 323.245 80.4085C344.025 80.4085 360.855 80.7111 360.855 81.1026Z" fill="white"></path>
										<path d="M360.855 93.4554C360.855 93.8381 353.361 94.1495 344.106 94.1495C334.85 94.1495 327.356 93.8381 327.356 93.4554C327.356 93.0727 334.859 92.7523 344.106 92.7523C353.352 92.7523 360.855 93.0638 360.855 93.4554Z" fill="white"></path>
										<path d="M291.562 42.6027C291.562 42.9854 273.389 43.2969 250.98 43.2969C228.57 43.2969 210.388 42.9854 210.388 42.6027C210.388 42.22 228.562 41.9085 250.98 41.9085C273.398 41.9085 291.562 42.22 291.562 42.6027Z" fill="#95BF47"></path>
										<path d="M404.463 106.057H48.8948C41.7334 106.057 35.928 111.863 35.928 119.024V345.369C35.928 352.531 41.7334 358.336 48.8948 358.336H404.463C411.624 358.336 417.43 352.531 417.43 345.369V119.024C417.43 111.863 411.624 106.057 404.463 106.057Z" fill="#555555"></path>
										<path d="M20.514 339.682H433.832V345.912C433.832 350.114 432.163 354.143 429.192 357.114C426.222 360.085 422.192 361.754 417.991 361.754H36.3465C32.1451 361.754 28.1158 360.085 25.145 357.114C22.1741 354.143 20.5051 350.114 20.5051 345.912V339.682H20.514Z" fill="#555555"></path>
										<path d="M406.652 116.078H46.7053V329.127H406.652V116.078Z" fill="#777777"></path>
										<path d="M189.607 339.673H191.218H195.917L213.352 339.602L271.671 339.478H272.098L271.885 339.851L269.571 343.821L267.124 348.012L267.052 348.137H266.91L194.734 348.004H194.671V347.95L190.889 341.8L189.937 340.243L189.634 339.727C189.634 339.727 189.768 339.914 189.99 340.27L191.005 341.827C191.895 343.207 193.176 345.218 194.858 347.826L194.76 347.772L266.937 347.639L266.723 347.763L269.17 343.571L271.484 339.602L271.698 339.976L213.619 339.851L196.069 339.745H191.298H190.043L189.607 339.673Z" fill="#777777"></path>
										<path d="M417.43 339.674C417.43 339.807 331.993 339.905 226.692 339.905C121.392 339.905 35.937 339.807 35.937 339.674C35.937 339.54 121.32 339.442 226.692 339.442C332.064 339.442 417.43 339.549 417.43 339.674Z" fill="#777777"></path>
										<path d="M320.041 73.529C322.873 73.529 325.59 74.6542 327.593 76.657C329.595 78.6598 330.721 81.3762 330.721 84.2086V106.075H298.86V85.8818C298.859 84.2592 299.177 82.6524 299.798 81.1532C300.418 79.654 301.328 78.2917 302.475 77.1444C303.623 75.9972 304.985 75.0873 306.484 74.4669C307.983 73.8466 309.59 73.5279 311.213 73.529H320.041Z" fill="#555555"></path>
										<path d="M320.041 73.5291C320.041 73.6625 289.978 73.7337 252.893 73.707C215.808 73.6803 185.745 73.5379 185.745 73.4134C185.745 73.2888 215.799 73.2087 252.893 73.2354C289.987 73.2621 320.041 73.4045 320.041 73.5291Z" fill="#555555"></path>
										<path d="M319.792 73.5023L306.496 73.4133L287.192 73.529H145.385C139.602 73.529 134.056 75.8262 129.967 79.9153C125.878 84.0044 123.581 89.5504 123.581 95.3332V329.635H307.234V85.4813C307.777 73.529 319.792 73.5023 319.792 73.5023Z" fill="#FAFAFA"></path>
										<path d="M319.792 73.5023L209.053 73.7426H153.688H146.764C145.607 73.7426 144.468 73.7426 143.329 73.8405C142.197 73.9608 141.075 74.166 139.974 74.4546C136.65 75.3121 133.58 76.9563 131.025 79.2487C128.469 81.541 126.502 84.4143 125.289 87.6261C125.111 88.169 124.862 88.6852 124.738 89.237L124.319 90.8923C124.102 92.0111 123.968 93.1445 123.919 94.2831C123.821 98.8664 123.919 103.503 123.919 108.113L124.07 329.581L123.625 329.136L307.279 329.261L306.958 329.581L307.047 197.866L307.154 132.009L307.216 99.08V90.8478V86.7272C307.19 86.0409 307.216 85.3536 307.296 84.6714C307.344 83.9864 307.454 83.3072 307.626 82.6423C308.199 79.9222 309.791 77.5245 312.076 75.9409C313.203 75.1528 314.45 74.5517 315.769 74.1609C317.075 73.7669 318.428 73.5455 319.792 73.5023ZM319.792 73.5023C318.419 73.5637 317.06 73.806 315.751 74.2232C314.437 74.6197 313.194 75.2204 312.067 76.0032C309.799 77.5933 308.226 79.9911 307.67 82.7046C307.501 83.3666 307.394 84.0429 307.35 84.7248C307.277 85.4075 307.253 86.0945 307.279 86.7806V99.1245L307.35 132.053L307.448 197.911L307.537 329.626V329.955H307.207L123.554 330.071H123.118V329.626L123.26 108.158C123.26 103.539 123.26 98.9376 123.323 94.3009C123.374 93.1325 123.511 91.9695 123.732 90.8211L124.177 89.1301C124.302 88.5606 124.56 88.0266 124.738 87.4748C125.985 84.1822 128.006 81.2378 130.63 78.8897C133.254 76.5416 136.403 74.8588 139.814 73.9829C140.945 73.6906 142.096 73.4823 143.258 73.36C144.424 73.2977 145.59 73.2354 146.738 73.2621H153.662H209.026L319.792 73.5023Z" fill="#555555"></path>
										<path d="M151.25 115.687H183.289L183.342 126.42H181.802C181.304 122.581 179.868 119.982 177.495 118.624C175.622 117.761 173.575 117.343 171.514 117.404V145.438C171.514 147.405 171.853 148.704 172.538 149.345C173.223 149.986 174.647 150.306 176.819 150.306V151.659H157.853V150.306C159.927 150.306 161.315 149.977 161.992 149.327C162.668 148.678 163.024 147.387 163.024 145.438V117.404C160.964 117.355 158.92 117.772 157.044 118.624C154.498 120.021 153.057 122.611 152.727 126.42H151.197L151.25 115.687Z" fill="#95BF47"></path>
										<path d="M282.031 118.143C282.031 118.526 264.356 118.837 242.552 118.837C220.747 118.837 203.073 118.526 203.073 118.143C203.073 117.76 220.747 117.449 242.552 117.449C264.356 117.449 282.031 117.725 282.031 118.143Z" fill="#95BF47"></path>
										<path d="M235.183 130.727C235.183 131.11 228.348 131.421 219.92 131.421C211.492 131.421 204.657 131.11 204.657 130.727C204.657 130.344 211.492 130.024 219.92 130.024C228.348 130.024 235.183 130.336 235.183 130.727Z" fill="#777777"></path>
										<path d="M196.701 169.209C196.701 169.592 183.725 169.903 167.714 169.903C151.704 169.903 138.719 169.592 138.719 169.209C138.719 168.827 151.695 168.515 167.714 168.515C183.734 168.515 196.701 168.871 196.701 169.209Z" fill="#777777"></path>
										<path d="M262.362 169.209C262.362 169.592 249.378 169.903 233.376 169.903C217.375 169.903 204.381 169.592 204.381 169.209C204.381 168.827 217.357 168.515 233.376 168.515C249.396 168.515 262.362 168.871 262.362 169.209Z" fill="#95BF47"></path>
										<path d="M196.701 179.488C196.701 179.871 183.725 180.183 167.714 180.183C151.704 180.183 138.719 179.871 138.719 179.488C138.719 179.106 151.695 178.794 167.714 178.794C183.734 178.794 196.701 179.106 196.701 179.488Z" fill="#777777"></path>
										<path d="M196.701 189.768C196.701 190.15 183.725 190.462 167.714 190.462C151.704 190.462 138.719 190.15 138.719 189.768C138.719 189.385 151.695 189.065 167.714 189.065C183.734 189.065 196.701 189.34 196.701 189.768Z" fill="#95BF47"></path>
										<path d="M235.183 151.659C235.183 152.042 228.348 152.353 219.92 152.353C211.492 152.353 204.657 152.042 204.657 151.659C204.657 151.277 211.492 150.965 219.92 150.965C228.348 150.965 235.183 151.277 235.183 151.659Z" fill="#777777"></path>
										<path d="M288.136 169.209C288.136 169.592 283.579 169.903 277.963 169.903C272.348 169.903 267.782 169.592 267.782 169.209C267.782 168.827 272.339 168.515 277.963 168.515C283.588 168.515 288.136 168.871 288.136 169.209Z" fill="#777777"></path>
										<path d="M293.582 130.727C293.582 131.11 281.852 131.421 267.39 131.421C252.928 131.421 241.199 131.11 241.199 130.727C241.199 130.344 252.92 130.024 267.39 130.024C281.861 130.024 293.582 130.336 293.582 130.727Z" fill="#777777"></path>
										<path d="M291.215 140.748C291.215 141.131 271.84 141.442 247.936 141.442C224.031 141.442 204.657 141.131 204.657 140.748C204.657 140.366 224.031 140.054 247.936 140.054C271.84 140.054 291.215 140.392 291.215 140.748Z" fill="#777777"></path>
										<path d="M288.136 179.488C288.136 179.871 269.384 180.183 246.307 180.183C223.231 180.183 204.426 179.871 204.426 179.488C204.426 179.106 223.168 178.794 246.307 178.794C269.446 178.794 288.136 179.106 288.136 179.488Z" fill="#777777"></path>
										<path d="M288.136 209.24C288.136 209.623 270.541 209.934 248.844 209.934C227.146 209.934 209.543 209.623 209.543 209.24C209.543 208.857 227.137 208.546 248.844 208.546C270.55 208.546 288.136 208.857 288.136 209.24Z" fill="#95BF47"></path>
										<path d="M288.136 219.243C288.136 219.626 270.541 219.937 248.844 219.937C227.146 219.937 209.543 219.626 209.543 219.243C209.543 218.861 227.137 218.549 248.844 218.549C270.55 218.549 288.136 218.861 288.136 219.243Z" fill="#777777"></path>
										<path d="M288.136 229.246C288.136 229.629 270.541 229.941 248.844 229.941C227.146 229.941 209.543 229.629 209.543 229.246C209.543 228.864 227.137 228.552 248.844 228.552C270.55 228.552 288.136 228.864 288.136 229.246Z" fill="#777777"></path>
										<path d="M288.136 239.25C288.136 239.632 270.541 239.944 248.844 239.944C227.146 239.944 209.543 239.632 209.543 239.25C209.543 238.867 227.137 238.555 248.844 238.555C270.55 238.555 288.136 238.867 288.136 239.25Z" fill="#777777"></path>
										<path d="M254.789 249.253C254.789 249.44 252.252 249.618 248.158 249.742C244.065 249.867 238.369 249.947 232.139 249.947C225.909 249.947 220.231 249.867 216.12 249.742C212.008 249.618 209.498 249.44 209.498 249.253C209.498 249.066 212.026 248.888 216.12 248.763C220.213 248.639 225.909 248.559 232.139 248.559C238.369 248.559 244.038 248.639 248.158 248.763C252.279 248.888 254.789 249.057 254.789 249.253Z" fill="#777777"></path>
										<path d="M273.896 190.301C273.896 190.684 258.767 190.996 240.077 190.996C221.388 190.996 206.259 190.684 206.259 190.301C206.259 189.919 221.388 189.607 240.077 189.607C258.767 189.607 273.896 189.919 273.896 190.301Z" fill="#777777"></path>
										<path d="M195.33 210.37L199.504 287.584L123.999 297.035L123.946 209.721L195.33 210.37Z" fill="#E0E0E0"></path>
										<path d="M97.5812 205.029L97.0522 286.94L199.503 287.602L200.032 205.691L97.5812 205.029Z" fill="#E0E0E0"></path>
										<path d="M101.081 210.205L100.618 281.801L195.869 282.417L196.332 210.82L101.081 210.205Z" fill="#95BF47"></path>
										<g opacity="0.2">
										<path d="M100.611 281.79L134.171 237.505L154.596 265.477L168.675 250.686L195.864 282.404L100.611 281.79Z" fill="black"></path>
										</g>
										<g opacity="0.2">
										<path d="M163.558 232.237C163.549 233.721 163.1 235.169 162.268 236.398C161.436 237.627 160.258 238.582 158.884 239.141C157.509 239.701 155.999 239.84 154.545 239.541C153.091 239.242 151.759 238.519 150.716 237.462C149.674 236.406 148.968 235.064 148.688 233.607C148.408 232.149 148.567 230.641 149.144 229.274C149.722 227.907 150.691 226.741 151.931 225.925C153.171 225.109 154.625 224.679 156.109 224.69C157.094 224.696 158.068 224.896 158.975 225.278C159.883 225.661 160.706 226.218 161.398 226.919C162.09 227.62 162.637 228.451 163.007 229.363C163.378 230.275 163.565 231.252 163.558 232.237Z" fill="black"></path>
										</g>
										<path d="M209.365 306.905C209.365 307.218 209.272 307.524 209.098 307.785C208.924 308.045 208.676 308.248 208.387 308.368C208.097 308.488 207.779 308.52 207.472 308.459C207.164 308.397 206.882 308.247 206.661 308.025C206.439 307.803 206.288 307.521 206.227 307.214C206.166 306.907 206.197 306.588 206.317 306.299C206.437 306.009 206.64 305.762 206.901 305.588C207.161 305.414 207.467 305.321 207.781 305.321C207.989 305.32 208.196 305.36 208.388 305.439C208.581 305.518 208.756 305.635 208.903 305.782C209.051 305.929 209.167 306.104 209.247 306.297C209.326 306.49 209.366 306.696 209.365 306.905Z" fill="#555555"></path>
										<path d="M218.772 306.905C218.772 307.218 218.679 307.525 218.505 307.785C218.33 308.046 218.083 308.249 217.794 308.368C217.504 308.488 217.186 308.52 216.878 308.459C216.571 308.398 216.289 308.247 216.067 308.025C215.846 307.804 215.695 307.521 215.634 307.214C215.573 306.907 215.604 306.588 215.724 306.299C215.844 306.009 216.047 305.762 216.307 305.588C216.568 305.414 216.874 305.321 217.187 305.321C217.608 305.321 218.01 305.488 218.308 305.785C218.605 306.082 218.772 306.485 218.772 306.905Z" fill="#555555"></path>
										<path d="M228.17 306.905C228.17 307.218 228.077 307.525 227.903 307.785C227.729 308.046 227.481 308.249 227.192 308.368C226.902 308.488 226.584 308.52 226.277 308.459C225.969 308.398 225.687 308.247 225.465 308.025C225.244 307.804 225.093 307.521 225.032 307.214C224.971 306.907 225.002 306.588 225.122 306.299C225.242 306.009 225.445 305.762 225.706 305.588C225.966 305.414 226.272 305.321 226.586 305.321C227.006 305.321 227.409 305.488 227.706 305.785C228.003 306.082 228.17 306.485 228.17 306.905Z" fill="#555555"></path>
										<path d="M262.807 270.096C262.807 270.479 249.822 270.79 233.812 270.79C217.801 270.79 204.817 270.479 204.817 270.096C204.817 269.713 217.801 269.402 233.812 269.402C249.822 269.402 262.807 269.713 262.807 270.096Z" fill="#95BF47"></path>
										<path d="M288.581 280.375C288.581 280.758 269.829 281.069 246.699 281.069C223.568 281.069 204.817 280.758 204.817 280.375C204.817 279.992 223.568 279.681 246.699 279.681C269.829 279.681 288.581 279.992 288.581 280.375Z" fill="#777777"></path>
										<path d="M474.992 301.323L474.499 350.663L536.209 351.28L536.702 301.94L474.992 301.323Z" fill="#E0E0E0"></path>
										<path d="M474.965 303.302L474.687 346.429L532.061 346.8L532.34 303.673L474.965 303.302Z" fill="#95BF47"></path>
										<path opacity="0.2" d="M474.673 346.419L494.884 319.738L507.192 336.585L515.674 327.677L532.049 346.784L474.673 346.419Z" fill="black"></path>
										<g opacity="0.2">
										<path d="M512.594 316.606C512.591 317.5 512.322 318.373 511.822 319.115C511.322 319.857 510.613 320.434 509.785 320.772C508.957 321.111 508.047 321.196 507.171 321.018C506.294 320.839 505.49 320.404 504.861 319.769C504.231 319.133 503.805 318.325 503.635 317.447C503.465 316.568 503.559 315.66 503.906 314.835C504.253 314.01 504.836 313.307 505.583 312.814C506.329 312.322 507.205 312.061 508.1 312.067C509.297 312.074 510.443 312.556 511.286 313.407C512.128 314.258 512.599 315.408 512.594 316.606Z" fill="black"></path>
										</g>
										<path d="M463.811 295.032L463.493 344.37L525.202 344.769L525.52 295.43L463.811 295.032Z" fill="#E0E0E0"></path>
										<path d="M465.927 298.143L465.649 341.269L523.024 341.64L523.302 298.513L465.927 298.143Z" fill="#95BF47"></path>
										<path opacity="0.2" d="M465.622 341.266L485.833 314.585L498.141 331.432L506.623 322.524L522.998 341.631L465.622 341.266Z" fill="black"></path>
										<g opacity="0.2">
										<path d="M503.543 311.417C503.538 312.313 503.266 313.187 502.763 313.929C502.26 314.67 501.547 315.245 500.717 315.581C499.886 315.917 498.974 315.998 498.097 315.815C497.22 315.632 496.417 315.192 495.791 314.552C495.164 313.911 494.742 313.099 494.578 312.218C494.413 311.337 494.515 310.427 494.868 309.604C495.222 308.781 495.813 308.081 496.565 307.595C497.317 307.108 498.197 306.855 499.093 306.869C500.284 306.888 501.42 307.376 502.253 308.228C503.087 309.079 503.55 310.226 503.543 311.417Z" fill="black"></path>
										</g>
										<path d="M455.759 290.776L455.44 340.115L517.149 340.514L517.468 291.175L455.759 290.776Z" fill="#E0E0E0"></path>
										<path d="M457.857 293.888L457.578 337.014L514.953 337.385L515.232 294.258L457.857 293.888Z" fill="#95BF47"></path>
										<path opacity="0.2" d="M457.568 337.004L477.779 310.322L490.087 327.178L498.559 318.27L514.944 337.377L457.568 337.004Z" fill="black"></path>
										<g opacity="0.2">
										<path d="M495.48 307.154C495.475 308.05 495.203 308.924 494.7 309.666C494.197 310.407 493.485 310.982 492.654 311.318C491.823 311.654 490.912 311.736 490.034 311.552C489.157 311.369 488.354 310.929 487.728 310.289C487.101 309.648 486.679 308.836 486.515 307.955C486.351 307.074 486.452 306.164 486.806 305.341C487.16 304.518 487.75 303.819 488.502 303.332C489.255 302.845 490.134 302.592 491.03 302.606C492.222 302.625 493.357 303.113 494.191 303.965C495.024 304.817 495.487 305.963 495.48 307.154Z" fill="black"></path>
										</g>
										<path d="M448.735 297.188L448.241 346.528L509.952 347.145L510.445 297.805L448.735 297.188Z" fill="#E0E0E0"></path>
										<path d="M448.818 299.19L448.54 342.317L505.914 342.688L506.193 299.561L448.818 299.19Z" fill="#777777"></path>
										<path opacity="0.2" d="M448.517 342.308L468.728 315.627L481.036 332.474L489.508 323.565L505.893 342.673L448.517 342.308Z" fill="black"></path>
										<g opacity="0.2">
										<path d="M486.465 312.458C486.459 313.354 486.188 314.228 485.685 314.97C485.182 315.711 484.469 316.286 483.639 316.622C482.808 316.958 481.896 317.04 481.019 316.856C480.142 316.673 479.339 316.233 478.712 315.593C478.086 314.952 477.664 314.14 477.499 313.259C477.335 312.378 477.436 311.469 477.79 310.645C478.144 309.822 478.735 309.123 479.487 308.636C480.239 308.149 481.119 307.896 482.015 307.911C483.208 307.925 484.346 308.411 485.181 309.264C486.015 310.117 486.477 311.265 486.465 312.458Z" fill="black"></path>
										</g>
										<path d="M544.019 314.407H508.394V362.047H544.019V314.407Z" fill="#555555"></path>
										<path d="M440.186 314.407V362.038H511.384V314.407H440.186ZM483.394 325.674H468.265C467.396 325.674 466.563 325.329 465.949 324.715C465.335 324.101 464.99 323.268 464.99 322.399C464.99 321.531 465.335 320.698 465.949 320.083C466.563 319.469 467.396 319.124 468.265 319.124H483.394C484.263 319.124 485.096 319.469 485.71 320.083C486.324 320.698 486.669 321.531 486.669 322.399C486.669 323.268 486.324 324.101 485.71 324.715C485.096 325.329 484.263 325.674 483.394 325.674Z" fill="#95BF47"></path>
										<path d="M393.953 352.99L327.695 348.943C327.276 347.993 327 347.443 327 347.443L309.041 347.807L303.194 347.443L302.962 347.922L242.676 349.12C230.653 349.12 218.015 356.434 218.015 365.779C217.864 374.654 222.189 384.328 232.958 384.107L315.093 383.831L397.236 384.107C408.005 384.328 410.853 377.894 410.871 370.164C412.126 355.857 403.137 353.105 393.953 352.99Z" fill="#777777"></path>
										<path d="M240.496 384.115H240.887H242.053L246.503 384.071L263.039 384L318.217 383.929L317.985 384.169C317.87 382.394 317.754 380.45 317.629 378.515C317.38 374.557 317.14 370.652 316.908 366.977L317.113 367.19L266.296 361.457L251.238 359.744L247.18 359.256L246.129 359.123C246.012 359.113 245.896 359.092 245.782 359.061H246.138L247.188 359.158L251.256 359.558L266.332 361.137L317.158 366.622H317.344V366.809C317.585 370.519 317.825 374.415 318.074 378.346C318.199 380.281 318.315 382.207 318.43 384V384.249H318.19L263.012 384.169L246.476 384.098H242.027H240.861L240.496 384.115Z" fill="#555555"></path>
										<path d="M257.432 360.614C257.379 360.676 256.542 360.011 255.109 359.132C253.222 357.987 251.194 357.092 249.075 356.469C246.952 355.866 244.759 355.543 242.552 355.51C240.861 355.51 239.811 355.617 239.802 355.51C240.035 355.417 240.281 355.36 240.532 355.342C241.2 355.239 241.875 355.179 242.552 355.164C247.074 355.033 251.524 356.308 255.287 358.812C255.853 359.185 256.395 359.594 256.907 360.037C257.263 360.401 257.45 360.57 257.432 360.614Z" fill="#555555"></path>
										<path d="M388.809 357.099C388.809 357.223 375.771 360.374 359.627 364.137C343.483 367.9 330.356 370.847 330.329 370.723C330.302 370.598 343.367 367.448 359.52 363.685C375.673 359.921 388.782 357.019 388.809 357.099Z" fill="#555555"></path>
										<path d="M377.764 355.821C375.973 356.455 374.255 357.276 372.638 358.271C371.113 359.397 369.719 360.689 368.482 362.123C368.68 361.587 368.982 361.096 369.372 360.677C371.101 358.513 373.451 356.927 376.109 356.132C376.637 355.93 377.198 355.825 377.764 355.821Z" fill="#555555"></path>
										<path d="M353.094 280.799L374.089 317.24C375.365 319.456 376.071 321.952 376.144 324.506C376.217 327.059 375.654 329.591 374.507 331.876C373.183 334.512 371.133 336.716 368.596 338.23C366.059 339.744 363.142 340.505 360.187 340.423L327.953 339.535L327.107 327.846L355.488 322.406L336.354 289.372L353.094 280.799Z" fill="#FFBE9D"></path>
										<path d="M274.866 343.156L304.502 350.984L305.152 342.109L277.839 326.293L297.792 289.372L281.052 280.799L260.057 317.24C258.865 319.448 258.176 321.891 258.038 324.395C257.9 326.899 258.318 329.403 259.262 331.727C260.205 334.052 261.65 336.141 263.495 337.844C265.341 339.548 267.54 340.826 269.936 341.585L274.866 343.156Z" fill="#FFBE9D"></path>
										<path d="M344.186 304.194L364.441 293.543C361.949 288.505 359.047 283.678 355.764 279.112C349.49 270.459 339.745 264.415 328.709 262.107L305.41 262.382C302.564 262.633 299.767 263.275 297.098 264.291V264.202C284.451 266.98 270.399 294.484 270.399 294.484L288.892 304.167L289.302 307.06C289.844 310.894 291.516 314.481 294.107 317.365L288.768 352.573L348.52 353.806L340.929 328.618L344.186 304.194Z" fill="#95BF47"></path>
										<path d="M294.633 317.56C294.307 317.376 294.008 317.149 293.743 316.886C292.975 316.212 292.291 315.449 291.705 314.613C289.784 311.8 288.9 308.409 289.204 305.019C289.506 303.208 289.964 301.426 290.574 299.694C291.108 298.088 291.66 296.668 292.132 295.478C292.603 294.289 293.022 293.339 293.306 292.692C293.436 292.343 293.61 292.012 293.823 291.706C293.741 292.069 293.625 292.422 293.476 292.763C293.2 293.517 292.853 294.467 292.434 295.594C292.016 296.721 291.491 298.256 290.984 299.827C290.398 301.545 289.957 303.308 289.667 305.099C289.518 306.89 289.69 308.693 290.174 310.424C290.556 311.848 291.157 313.204 291.954 314.445C292.758 315.556 293.654 316.598 294.633 317.56Z" fill="#555555"></path>
										<path d="M285.662 361.075L282.28 321.802H355.15L350.327 361.563L285.662 361.075Z" fill="#555555"></path>
										<path d="M323.361 342.748C323.362 343.665 323.091 344.562 322.581 345.325C322.072 346.088 321.346 346.683 320.497 347.035C319.648 347.387 318.713 347.479 317.811 347.301C316.909 347.122 316.08 346.681 315.43 346.033C314.78 345.384 314.337 344.558 314.158 343.658C313.979 342.759 314.072 341.827 314.425 340.98C314.777 340.133 315.374 339.409 316.14 338.901C316.905 338.392 317.804 338.122 318.724 338.124C319.954 338.124 321.133 338.611 322.003 339.478C322.872 340.345 323.361 341.521 323.361 342.748Z" fill="#FAFAFA"></path>
										<path d="M317.442 368.752L329.813 370.474V383.885L318.439 383.592L317.442 368.752Z" fill="#FFBE9D"></path>
										<path d="M329.831 370.465H335.393C336.474 370.465 337.537 370.75 338.472 371.291L341.4 372.995C343.057 373.91 344.769 374.723 346.526 375.427C349.908 376.509 355.595 377.974 356.797 378.897C360.214 381.559 359.173 384.639 357.295 384.959C355.649 385.251 329.822 383.894 329.822 383.894L329.831 370.465Z" fill="#95BF47"></path>
										<path d="M338.953 382.758C338.521 381.647 338.319 380.461 338.357 379.27C338.238 378.072 338.371 376.863 338.748 375.719C338.838 376.883 338.862 378.051 338.819 379.217C338.934 380.394 338.978 381.576 338.953 382.758Z" fill="#555555"></path>
										<path d="M341.596 382.696C341.305 380.571 341.323 378.416 341.649 376.296C341.865 377.35 341.934 378.428 341.854 379.501C341.918 380.573 341.831 381.648 341.596 382.696Z" fill="#555555"></path>
										<path d="M344.711 383.229C344.232 381.065 344.058 378.845 344.195 376.634C344.508 377.698 344.673 378.8 344.684 379.909C344.845 381.009 344.854 382.126 344.711 383.229Z" fill="#555555"></path>
										<path d="M336.55 379.207C336.153 379.155 335.767 379.035 335.411 378.852C334.399 378.429 333.459 377.851 332.625 377.139C332.367 376.918 332.1 376.669 331.833 376.394C331.533 376.112 331.291 375.775 331.121 375.4C331.025 375.175 330.988 374.929 331.017 374.686C331.045 374.444 331.136 374.212 331.281 374.015C331.453 373.807 331.698 373.674 331.967 373.643C332.222 373.615 332.48 373.642 332.723 373.722C333.692 374.07 334.545 374.68 335.186 375.485C335.827 376.289 336.231 377.255 336.352 378.275C336.473 379.296 336.307 380.329 335.872 381.26C335.437 382.192 334.75 382.984 333.889 383.547C333.505 383.823 333.069 384.019 332.607 384.124C332.371 384.181 332.123 384.181 331.887 384.124C331.764 384.084 331.651 384.019 331.555 383.934C331.458 383.848 331.38 383.744 331.326 383.627C331.247 383.417 331.22 383.191 331.248 382.969C331.276 382.746 331.358 382.533 331.486 382.349C331.68 382.021 331.92 381.722 332.198 381.462C332.99 380.701 333.92 380.098 334.939 379.687C335.3 379.513 335.689 379.405 336.087 379.367C336.087 379.367 335.696 379.527 335.01 379.855C334.048 380.319 333.175 380.947 332.429 381.71C332.181 381.944 331.968 382.213 331.798 382.509C331.706 382.644 331.647 382.798 331.624 382.96C331.601 383.121 331.615 383.286 331.664 383.441C331.754 383.586 331.892 383.696 332.055 383.751C332.217 383.806 332.394 383.803 332.554 383.743C332.955 383.641 333.333 383.463 333.666 383.219C334.454 382.694 335.08 381.963 335.477 381.106C335.875 380.249 336.027 379.299 335.917 378.361C335.808 377.423 335.441 376.533 334.857 375.79C334.273 375.047 333.494 374.479 332.607 374.148C332.446 374.069 332.265 374.04 332.087 374.065C331.909 374.091 331.743 374.169 331.611 374.29C331.509 374.431 331.445 374.596 331.427 374.769C331.408 374.942 331.435 375.116 331.504 375.276C331.843 375.906 332.306 376.461 332.866 376.909C333.971 377.855 335.213 378.63 336.55 379.207Z" fill="#555555"></path>
										<path d="M357.295 384.95C357.577 384.701 357.807 384.4 357.971 384.062C358.134 383.6 358.185 383.107 358.122 382.621C358.059 382.136 357.882 381.672 357.606 381.266C356.805 380.026 355.587 379.11 354.171 378.684C352.596 378.116 350.727 377.849 348.831 377.255C345.592 376.286 342.499 374.882 339.638 373.083C338.552 372.391 337.707 371.77 337.137 371.308C336.827 371.094 336.543 370.844 336.292 370.563C336.627 370.73 336.946 370.93 337.244 371.157C337.84 371.557 338.704 372.134 339.816 372.791C342.692 374.491 345.764 375.838 348.965 376.802C350.825 377.379 352.685 377.69 354.305 378.267C355.796 378.749 357.061 379.755 357.865 381.098C358.146 381.548 358.314 382.059 358.354 382.587C358.395 383.116 358.306 383.646 358.096 384.133C357.955 384.383 357.761 384.598 357.526 384.763C357.42 384.923 357.304 384.967 357.295 384.95Z" fill="#555555"></path>
										<path d="M348.867 271.755C348.878 271.819 348.878 271.885 348.867 271.95V272.5C348.823 273.015 348.752 273.734 348.672 274.648C348.476 276.556 348.2 279.281 347.862 282.707V282.911L347.675 282.813L336.871 277.142L337.129 277.071L331.29 286.905L331.166 287.109L330.97 286.967L321.18 279.45H321.465L317.185 282.796L311.346 287.349L311.133 287.517L311.008 287.278L305.446 277.027L305.722 277.115L293.939 282.352L293.716 282.449V282.219L291.936 271.764L292.114 271.87L285.333 274.48L283.553 275.136L283.09 275.305L282.93 275.349C282.93 275.349 282.974 275.349 283.072 275.269L283.526 275.074L285.306 274.346L292.007 271.684L292.159 271.631V271.79C292.684 274.701 293.307 278.207 294.028 282.228L293.778 282.094L305.535 276.769L305.722 276.689L305.82 276.858C307.6 280.106 309.451 283.532 311.4 287.109L311.053 287.038L316.891 282.476L321.172 279.13L321.314 279.024L321.456 279.13L331.246 286.665L330.926 286.727L336.808 276.965L336.897 276.814L337.057 276.894L347.737 282.627L347.532 282.733L348.476 274.692C348.591 273.805 348.68 273.068 348.743 272.554C348.743 272.332 348.805 272.154 348.823 272.003C348.831 271.919 348.846 271.836 348.867 271.755Z" fill="#E0E0E0"></path>
										<path d="M357.518 281.642C357.513 281.729 357.498 281.815 357.473 281.899C357.42 282.094 357.358 282.343 357.286 282.654C357.099 283.337 356.85 284.313 356.521 285.556C355.836 288.112 354.839 291.768 353.611 296.357L353.557 296.534L353.397 296.455L340.84 290.455L341.089 290.384C337.876 294.946 334.316 300.014 330.516 305.427L330.356 305.649L330.169 305.454L320.041 295.177L317.905 293.02H318.19L304.502 301.585L304.307 301.709L304.191 301.513L296.804 288.502L297.036 288.591L282.956 293.428L282.823 293.473L282.778 293.339C281.443 289.488 280.384 286.426 279.655 284.304C279.308 283.275 279.032 282.467 278.845 281.899C278.756 281.642 278.693 281.438 278.64 281.278C278.611 281.21 278.593 281.138 278.587 281.065C278.626 281.128 278.656 281.197 278.676 281.269L278.916 281.873C279.121 282.441 279.414 283.23 279.806 284.251C280.562 286.363 281.666 289.408 283.054 293.251L282.876 293.162L296.902 288.254L297.053 288.201L297.134 288.343L304.565 301.318L304.253 301.238L317.941 292.656L318.092 292.558L318.226 292.691C318.932 293.413 319.644 294.132 320.362 294.848L330.516 305.135H330.169L340.795 290.127L340.884 289.993L341.036 290.064L353.549 296.153L353.344 296.25L356.388 285.485L357.224 282.6C357.322 282.299 357.393 282.05 357.455 281.864C357.467 281.788 357.488 281.713 357.518 281.642Z" fill="#E0E0E0"></path>
										<path d="M348.52 219.728C346.735 219.914 344.93 219.733 343.218 219.194C341.507 218.655 339.924 217.77 338.57 216.595C341.81 218.228 346.126 215.983 347.274 212.548C348.422 209.113 347.479 202.714 344.649 200.442C343.29 199.363 341.699 198.613 340 198.25C338.302 197.886 336.542 197.92 334.859 198.348C331.522 199.235 327.989 204.303 326.894 207.569L326.956 207.667C326.449 207.462 325.924 207.276 325.408 207.099C321.715 205.797 317.78 205.321 313.883 205.705C309.974 206.109 306.292 207.726 303.354 210.329L325.986 246.602C330.098 246.247 333.738 243.478 335.891 239.972C338.045 236.467 338.873 232.287 339.078 228.177C339.131 227.139 339.122 226.1 339.078 225.062L346.349 226.225C345.044 224.478 343.401 223.011 341.516 221.911C342.763 222.357 344.121 222.384 345.385 221.99C346.649 221.596 347.75 220.802 348.52 219.728Z" fill="#555555"></path>
										<path d="M319.934 276.024C322.888 275.962 325.703 274.757 327.782 272.663C329.861 270.57 331.043 267.752 331.077 264.805L331.602 219.675C331.628 218.774 331.31 217.896 330.712 217.22C330.114 216.545 329.28 216.121 328.38 216.036L309.264 211.217C303.132 210.578 299.074 218.086 298.682 224.21C298.255 231.017 297.997 239.342 298.807 244.428C300.435 254.634 308.285 255.966 308.285 255.966C308.285 255.966 308.285 259.915 308.285 264.752C308.291 266.259 308.599 267.749 309.189 269.136C309.779 270.523 310.64 271.779 311.722 272.83C312.804 273.882 314.085 274.708 315.49 275.261C316.896 275.814 318.397 276.082 319.908 276.05L319.934 276.024Z" fill="#FFBE9D"></path>
										<path d="M302.651 230.822C302.649 231.165 302.78 231.494 303.018 231.742C303.256 231.989 303.581 232.133 303.924 232.145C304.091 232.158 304.259 232.138 304.418 232.085C304.577 232.033 304.724 231.949 304.85 231.839C304.976 231.729 305.079 231.595 305.152 231.445C305.225 231.294 305.268 231.131 305.277 230.964C305.281 230.623 305.152 230.293 304.916 230.046C304.679 229.798 304.355 229.653 304.013 229.642C303.845 229.628 303.677 229.649 303.517 229.701C303.358 229.753 303.21 229.837 303.084 229.947C302.957 230.057 302.853 230.191 302.779 230.341C302.705 230.491 302.661 230.655 302.651 230.822Z" fill="#555555"></path>
										<path d="M300.462 228.541C300.622 228.719 301.619 227.982 303.034 227.982C304.449 227.982 305.481 228.692 305.632 228.524C305.784 228.355 305.543 228.133 305.09 227.805C304.476 227.387 303.75 227.164 303.007 227.166C302.271 227.164 301.553 227.397 300.96 227.831C300.56 228.16 300.462 228.47 300.462 228.541Z" fill="#555555"></path>
										<path d="M316.099 230.822C316.094 231.165 316.225 231.496 316.463 231.744C316.701 231.992 317.027 232.136 317.371 232.145C317.539 232.158 317.707 232.138 317.867 232.086C318.026 232.033 318.174 231.95 318.3 231.84C318.427 231.73 318.531 231.596 318.605 231.445C318.679 231.295 318.723 231.132 318.733 230.964C318.735 230.622 318.604 230.292 318.366 230.045C318.128 229.798 317.803 229.653 317.46 229.642C317.292 229.627 317.124 229.646 316.963 229.698C316.803 229.75 316.655 229.834 316.528 229.944C316.401 230.054 316.298 230.189 316.224 230.34C316.15 230.49 316.107 230.655 316.099 230.822Z" fill="#555555"></path>
										<path d="M314.39 228.808C314.55 228.976 315.547 228.248 316.962 228.248C318.377 228.248 319.409 228.958 319.56 228.781C319.712 228.603 319.471 228.399 319.017 228.071C318.406 227.649 317.679 227.426 316.935 227.432C316.2 227.427 315.483 227.657 314.888 228.089C314.452 228.426 314.31 228.728 314.39 228.808Z" fill="#555555"></path>
										<path d="M309.255 239.262C308.509 239.03 307.738 238.89 306.959 238.845C306.603 238.845 306.264 238.739 306.202 238.49C306.168 238.119 306.252 237.746 306.442 237.425L307.51 234.683C308.988 230.787 310.064 227.583 309.904 227.52C309.744 227.458 308.418 230.574 306.932 234.479L305.908 237.23C305.686 237.665 305.62 238.163 305.721 238.641C305.772 238.77 305.853 238.886 305.956 238.978C306.06 239.071 306.184 239.138 306.318 239.174C306.518 239.227 306.724 239.254 306.932 239.254C307.703 239.355 308.483 239.358 309.255 239.262Z" fill="#555555"></path>
										<path d="M308.284 255.939C313.106 256.013 317.854 254.75 321.999 252.291C321.999 252.291 318.67 259.304 308.418 258.345L308.284 255.939Z" fill="#EB996E"></path>
										<path d="M309.86 242.653C310.129 242.316 310.479 242.053 310.877 241.889C311.276 241.724 311.71 241.663 312.138 241.712C312.452 241.744 312.755 241.839 313.031 241.992C313.306 242.144 313.547 242.351 313.74 242.6C313.93 242.834 314.043 243.12 314.063 243.42C314.084 243.72 314.012 244.02 313.856 244.277C313.629 244.53 313.331 244.709 313.002 244.793C312.672 244.877 312.325 244.861 312.005 244.748C311.348 244.506 310.744 244.141 310.225 243.674C310.065 243.562 309.929 243.42 309.824 243.256C309.772 243.179 309.744 243.088 309.744 242.995C309.744 242.901 309.772 242.81 309.824 242.733" fill="#EB996E"></path>
										<path d="M313.42 240.23C313.188 240.23 313.188 241.748 311.871 242.84C310.554 243.931 308.925 243.727 308.916 243.967C308.908 244.206 309.281 244.269 309.967 244.286C310.87 244.287 311.745 243.973 312.441 243.399C313.108 242.853 313.535 242.07 313.633 241.215C313.696 240.603 313.518 240.23 313.42 240.23Z" fill="#555555"></path>
										<path d="M313.749 226.34C313.891 226.722 315.298 226.544 316.962 226.74C318.626 226.935 319.961 227.388 320.175 227.05C320.272 226.882 320.041 226.527 319.507 226.163C318.784 225.708 317.967 225.423 317.118 225.329C316.268 225.235 315.409 225.335 314.603 225.621C313.998 225.861 313.687 226.163 313.749 226.34Z" fill="#555555"></path>
										<path d="M300.693 225.941C300.942 226.26 301.912 225.941 303.087 225.941C304.262 225.941 305.25 226.163 305.472 225.825C305.579 225.657 305.419 225.337 304.983 225.036C304.407 224.663 303.728 224.48 303.043 224.512C302.353 224.524 301.684 224.751 301.129 225.16C300.72 225.462 300.586 225.79 300.693 225.941Z" fill="#555555"></path>
										<path d="M330.463 232.366C330.878 232.143 331.346 232.038 331.816 232.061C332.287 232.085 332.742 232.236 333.133 232.5C334.079 233.05 334.805 233.91 335.189 234.933C335.572 235.956 335.59 237.08 335.238 238.115C334.886 239.149 334.187 240.031 333.258 240.61C332.33 241.19 331.229 241.432 330.142 241.295" fill="#FFBE9D"></path>
										<path d="M331.183 238.251C331.183 238.18 331.575 238.331 332.073 238.109C332.382 237.935 332.632 237.673 332.79 237.357C332.949 237.041 333.009 236.685 332.963 236.334C332.962 235.984 332.858 235.643 332.663 235.352C332.468 235.062 332.192 234.835 331.869 234.701C331.353 234.488 330.979 234.594 330.979 234.514C330.979 234.434 331.326 234.195 332.002 234.346C332.394 234.439 332.744 234.657 332.999 234.967C333.309 235.347 333.486 235.818 333.506 236.307C333.56 236.754 333.464 237.206 333.232 237.592C333 237.977 332.645 238.275 332.225 238.438C331.504 238.642 331.13 238.287 331.183 238.251Z" fill="#EB996E"></path>
										<path d="M333.978 240.319C333.978 240.319 334.156 240.416 334.45 240.647L335.705 241.641L340.155 245.386L340.306 245.511L340.181 245.662C338.535 247.632 336.701 250.099 334.646 252.673C334.174 253.259 333.711 253.827 333.257 254.359L332.875 254.803V254.217C332.697 250.064 332.545 246.38 332.465 243.736C332.465 242.484 332.412 241.437 332.394 240.629C332.359 240.251 332.359 239.871 332.394 239.493C332.483 239.863 332.531 240.241 332.536 240.62C332.59 241.428 332.661 242.466 332.75 243.727C332.91 246.389 333.106 250.037 333.311 254.199L332.91 254.057L334.281 252.389C336.337 249.815 338.188 247.366 339.879 245.404V245.679L335.562 241.81L334.37 240.753C334.224 240.623 334.092 240.477 333.978 240.319Z" fill="#777777"></path>
										<path d="M313.269 206.752C310.758 206.775 308.257 207.049 305.802 207.569C303.333 208.096 301.083 209.359 299.349 211.19C298.496 212.113 297.887 213.233 297.576 214.449C297.265 215.665 297.263 216.94 297.569 218.157C297.919 219.362 298.673 220.411 299.705 221.128C300.736 221.846 301.984 222.188 303.239 222.098C305.125 221.849 306.932 220.456 308.756 221.006C310.581 221.556 311.426 223.624 313.206 223.953C314.986 224.281 316.508 222.71 318.27 222.55C320.228 222.382 321.919 223.979 322.791 225.737C323.663 227.494 323.993 229.464 324.865 231.213C325.106 231.795 325.469 232.319 325.929 232.751C326.39 233.182 326.937 233.511 327.535 233.715C328.1 233.831 328.684 233.811 329.24 233.657C329.795 233.502 330.306 233.218 330.73 232.828C331.566 232.032 332.205 231.054 332.599 229.97C333.523 227.703 333.91 225.253 333.727 222.812C333.545 220.371 332.799 218.006 331.548 215.9C330.297 213.795 328.574 212.006 326.514 210.675C324.455 209.343 322.115 208.505 319.676 208.226" fill="#555555"></path>
										<path d="M338.223 217.598C338.143 217.598 337.903 216.773 337.28 215.521C335.608 212.258 332.783 209.729 329.35 208.421C328.042 207.924 327.179 207.773 327.188 207.693C327.197 207.613 327.419 207.693 327.811 207.693C328.373 207.77 328.927 207.898 329.466 208.075C331.253 208.663 332.896 209.618 334.29 210.879C335.691 212.134 336.81 213.671 337.574 215.388C337.809 215.902 337.993 216.437 338.126 216.986C338.192 217.183 338.225 217.39 338.223 217.598Z" fill="#95BF47"></path>
										<path d="M346.055 202.643C345.256 202.321 344.431 202.066 343.59 201.88C341.544 201.533 339.44 201.844 337.582 202.768C335.74 203.728 334.151 205.109 332.946 206.797C331.993 208.085 331.548 208.981 331.477 208.946C331.52 208.711 331.604 208.485 331.726 208.28C331.999 207.701 332.314 207.143 332.67 206.611C333.843 204.81 335.465 203.345 337.378 202.359C339.301 201.389 341.499 201.104 343.608 201.552C344.245 201.687 344.86 201.915 345.432 202.226C345.85 202.457 346.073 202.59 346.055 202.643Z" fill="#777777"></path>
										<path d="M336.212 214.634C336.326 215.33 336.326 216.041 336.212 216.737C336.033 218.428 335.601 220.082 334.93 221.645C334.263 223.206 333.363 224.657 332.26 225.95C331.831 226.509 331.311 226.992 330.721 227.378C332.249 225.584 333.533 223.597 334.539 221.468C335.389 219.271 335.951 216.974 336.212 214.634Z" fill="#777777"></path>
										<path d="M336.505 214.856C336.623 215.034 336.708 215.233 336.755 215.441C336.94 215.987 337.074 216.548 337.155 217.119C337.444 219.016 337.351 220.952 336.88 222.813C336.409 224.673 335.571 226.422 334.414 227.955C334.068 228.418 333.681 228.849 333.257 229.242C332.954 229.526 332.785 229.668 332.759 229.642C332.732 229.615 333.337 228.949 334.147 227.76C335.194 226.217 335.968 224.506 336.434 222.701C336.881 220.891 337.017 219.018 336.835 217.163C336.683 215.743 336.425 214.873 336.505 214.856Z" fill="#777777"></path>
										<path d="M363.435 218.211C362.455 218.52 361.622 219.178 361.095 220.061C360.568 220.944 360.385 221.99 360.578 222.999C360.772 224.009 361.331 224.912 362.147 225.537C362.963 226.162 363.981 226.465 365.006 226.389C366.031 226.313 366.993 225.862 367.708 225.123C368.422 224.385 368.841 223.409 368.883 222.381C368.925 221.354 368.589 220.347 367.937 219.552C367.285 218.757 366.364 218.229 365.349 218.068" fill="#EBEBEB"></path>
										<path d="M375.468 200.723C374.341 201.076 373.383 201.831 372.777 202.844C372.17 203.857 371.957 205.058 372.178 206.218C372.399 207.378 373.039 208.417 373.975 209.136C374.912 209.855 376.08 210.205 377.258 210.119C378.435 210.034 379.541 209.518 380.363 208.67C381.185 207.823 381.668 206.703 381.718 205.523C381.768 204.343 381.384 203.186 380.637 202.272C379.889 201.357 378.832 200.749 377.666 200.563" fill="#EBEBEB"></path>
										<path d="M401.161 123.652C393.152 122.976 384.973 124.773 379.446 130.665C376.701 133.645 374.654 137.199 373.453 141.069C372.252 144.939 371.928 149.028 372.504 153.039C363.943 156.599 359.279 167.492 362.599 176.178C365.919 184.864 376.687 189.794 385.427 186.706C387.403 191.713 390.65 196.118 394.848 199.487C399.046 202.856 404.049 205.073 409.365 205.92C414.68 206.766 420.125 206.212 425.161 204.313C430.198 202.414 434.652 199.235 438.086 195.09C446.478 196.985 455.885 196.869 463.005 191.921C470.125 186.973 473.257 176.133 467.882 169.405C477.556 167.047 482.469 154.97 479.603 145.429C476.737 135.889 468.14 129.054 458.973 125.183C452.913 122.62 445.348 121.285 440.177 125.352C438.097 122.152 435.282 119.496 431.967 117.604C428.652 115.713 424.933 114.641 421.12 114.478C417.307 114.315 413.51 115.066 410.046 116.668C406.582 118.27 403.551 120.677 401.206 123.688" fill="#E0E0E0"></path>
										<path d="M401.161 123.652C401.161 123.652 401.321 123.438 401.651 123.029C402.139 122.429 402.659 121.856 403.208 121.311C405.356 119.198 407.879 117.505 410.648 116.319C412.655 115.449 414.767 114.851 416.931 114.539C419.522 114.178 422.155 114.259 424.719 114.779C427.685 115.376 430.515 116.517 433.067 118.143C435.948 119.981 438.407 122.407 440.284 125.263H440.053C442.251 123.606 444.919 122.69 447.671 122.646C450.589 122.593 453.494 123.057 456.25 124.017C459.178 125.009 461.997 126.3 464.66 127.87C467.489 129.502 470.105 131.478 472.448 133.753C474.927 136.136 476.967 138.938 478.473 142.03C479.22 143.643 479.793 145.332 480.181 147.067C480.535 148.847 480.658 150.666 480.546 152.478C480.324 156.22 479.124 159.838 477.066 162.971C475.994 164.56 474.658 165.954 473.115 167.091C471.542 168.252 469.764 169.104 467.873 169.601L467.989 169.254C469.156 170.744 469.974 172.478 470.383 174.327C470.786 176.206 470.835 178.143 470.525 180.04C469.867 183.937 467.999 187.527 465.185 190.302C462.229 193.058 458.561 194.932 454.595 195.713C450.579 196.533 446.451 196.656 442.393 196.077C440.907 195.891 439.439 195.597 437.997 195.294L438.228 195.214C435.604 198.406 432.367 201.041 428.709 202.963C425.051 204.885 421.046 206.056 416.928 206.407C412.811 206.758 408.665 206.281 404.734 205.006C400.804 203.73 397.168 201.681 394.042 198.979C390.146 195.687 387.11 191.496 385.195 186.768L385.462 186.884C383.001 187.676 380.403 187.946 377.831 187.678C375.26 187.41 372.773 186.609 370.529 185.327C368.394 184.174 366.522 182.591 365.032 180.678C363.541 178.765 362.464 176.562 361.869 174.211C360.865 169.787 361.498 165.149 363.649 161.155C365.553 157.469 368.663 154.548 372.46 152.878L372.371 153.048C371.862 149.521 372.05 145.929 372.923 142.475C374.037 138.006 376.273 133.895 379.419 130.531C380.332 129.579 381.33 128.712 382.401 127.942C384.27 126.597 386.339 125.554 388.533 124.853C392.622 123.596 396.924 123.181 401.179 123.634C401.179 123.634 400.894 123.634 400.342 123.634C399.791 123.634 398.972 123.572 397.886 123.572C394.723 123.573 391.579 124.069 388.568 125.04C386.395 125.748 384.347 126.793 382.499 128.137C381.442 128.902 380.459 129.763 379.562 130.709C378.604 131.746 377.729 132.856 376.945 134.029C375.215 136.64 373.939 139.526 373.172 142.564C372.325 145.983 372.149 149.535 372.656 153.021V153.137L372.54 153.19C368.822 154.843 365.78 157.716 363.916 161.333C361.797 165.248 361.165 169.796 362.136 174.14C362.744 176.443 363.825 178.595 365.312 180.457C366.798 182.319 368.657 183.85 370.769 184.953C372.965 186.204 375.398 186.984 377.912 187.245C380.426 187.505 382.967 187.24 385.373 186.466L385.56 186.403L385.64 186.59C387.589 191.343 390.672 195.547 394.62 198.833C398.569 202.119 403.262 204.387 408.29 205.44C413.719 206.448 419.317 206.004 424.52 204.154C429.722 202.304 434.344 199.112 437.917 194.903L438.006 194.796H438.139C439.572 195.098 441.023 195.392 442.5 195.57C446.502 196.139 450.571 196.019 454.533 195.214C458.418 194.457 462.013 192.626 464.91 189.928C467.648 187.222 469.464 183.722 470.098 179.925C470.436 178.111 470.395 176.247 469.977 174.45C469.559 172.654 468.773 170.963 467.668 169.485L467.455 169.218L467.793 169.129C469.626 168.642 471.352 167.818 472.884 166.7C474.367 165.57 475.649 164.198 476.675 162.641C478.696 159.574 479.875 156.029 480.092 152.362C480.213 150.575 480.096 148.779 479.745 147.022C479.368 145.32 478.807 143.664 478.072 142.083C476.593 139.029 474.587 136.261 472.145 133.904C469.828 131.649 467.239 129.691 464.438 128.075C461.804 126.51 459.015 125.222 456.117 124.23C453.401 123.282 450.539 122.818 447.662 122.86C444.977 122.893 442.371 123.778 440.222 125.387L440.088 125.494L439.991 125.352C436.454 119.998 430.94 116.263 424.656 114.966C422.121 114.441 419.516 114.347 416.949 114.69C411.807 115.42 407.022 117.738 403.262 121.32C402.541 122.032 402.007 122.602 401.677 123.002C401.348 123.403 401.161 123.652 401.161 123.652Z" fill="#555555"></path>
										<path d="M456.206 151.392C456.206 151.775 440.418 152.086 420.954 152.086C401.491 152.086 385.711 151.775 385.711 151.392C385.711 151.009 401.491 150.698 420.954 150.698C440.418 150.698 456.206 151.009 456.206 151.392Z" fill="#777777"></path>
										<path d="M456.206 159.081C456.206 159.464 440.418 159.776 420.954 159.776C401.491 159.776 385.711 159.464 385.711 159.081C385.711 158.699 401.491 158.378 420.954 158.378C440.418 158.378 456.206 158.654 456.206 159.081Z" fill="#777777"></path>
										<path d="M456.206 166.691C456.206 167.073 440.418 167.385 420.954 167.385C401.491 167.385 385.711 167.073 385.711 166.691C385.711 166.308 401.491 165.997 420.954 165.997C440.418 165.997 456.206 166.308 456.206 166.691Z" fill="#777777"></path>
										<path d="M456.206 174.335C456.206 174.718 440.418 175.03 420.954 175.03C401.491 175.03 385.711 174.718 385.711 174.335C385.711 173.953 401.491 173.641 420.954 173.641C440.418 173.641 456.206 173.953 456.206 174.335Z" fill="#777777"></path>
									</svg>