<svg width="140" height="40px" viewBox="0 0 113 32" fill="none" xmlns="http://www.w3.org/2000/svg">
                                                <path fill-rule="evenodd" clip-rule="evenodd" d="M6.68005 4.88005L10.8021 16.245L15.1211 4.88005H21.2521L10.7681 31.198H4.70405L7.80505 23.043L0.352051 4.88005H6.68005ZM71.437 4.47705C76.973 4.47705 81.0101 8.77305 81.0101 14.653C81.0101 20.533 76.973 24.83 71.437 24.83C69.394 24.83 67.6741 24.289 66.3611 23.246L66.2761 23.177L66.2031 23.1171V31.192H60.295V4.88005H65.5191V6.84705L65.5491 6.81305C66.8361 5.34505 68.7831 4.53305 71.1891 4.48005L71.3161 4.47805H71.437V4.47705ZM32.0131 4.47705C38.1091 4.47705 42.43 8.68905 42.43 14.653C42.43 20.592 38.0951 24.83 32.0131 24.83C25.8971 24.83 21.5551 20.598 21.5551 14.653C21.5551 8.68305 25.8821 4.47705 32.0131 4.47705V4.47705ZM52.273 0.550049V4.88005H57.133V9.98305H52.273V17.0271C52.273 18.603 53.038 19.4701 54.432 19.5231L54.5 19.524L54.569 19.525C55.514 19.525 56.23 19.277 56.871 18.661L56.931 18.602L57.09 18.439H57.134V24.0681L56.953 24.1551C55.98 24.6201 55.381 24.83 53.723 24.83C49.039 24.83 46.4671 22.28 46.3671 17.518L46.3651 17.373V17.2281L46.364 9.98305H44.2261V4.88005H46.5251V0.550049H52.272H52.273ZM93.9201 4.47705C100.016 4.47705 104.337 8.68905 104.337 14.653C104.337 20.592 100.002 24.83 93.9201 24.83C87.8041 24.83 83.4621 20.598 83.4621 14.653C83.4621 8.68305 87.7901 4.47705 93.9201 4.47705V4.47705ZM109.153 18.355C110.941 18.355 112.39 19.805 112.39 21.592C112.39 23.38 110.94 24.83 109.153 24.83C107.365 24.83 105.916 23.38 105.916 21.592C105.916 19.804 107.366 18.355 109.153 18.355V18.355ZM70.5521 9.78205C67.8901 9.78205 66.0821 11.752 66.0821 14.653C66.0821 17.555 67.8901 19.525 70.5521 19.525C73.2481 19.525 75.062 17.561 75.062 14.653C75.062 11.746 73.2481 9.78205 70.5521 9.78205V9.78205ZM32.0121 9.78205C29.3421 9.78205 27.5031 11.762 27.5031 14.653C27.5031 17.545 29.3421 19.525 32.0131 19.525C34.6491 19.525 36.4831 17.539 36.4831 14.653C36.4831 11.768 34.6491 9.78205 32.0131 9.78205H32.0121ZM93.9201 9.78205C91.2501 9.78205 89.4101 11.762 89.4101 14.653C89.4101 17.545 91.2501 19.525 93.9201 19.525C96.5561 19.525 98.3901 17.539 98.3901 14.653C98.3901 11.768 96.5561 9.78205 93.9201 9.78205V9.78205Z" fill="#0042E4"></path>
                                            </svg>