<svg width="170" height="38px" viewBox="0 0 1073 239" fill="none" xmlns="http://www.w3.org/2000/svg">
                                                <path d="M145.674 63.1146V239H0L145.674 63.1146Z" fill="#03363D"></path>
                                                <path d="M145.674 0C145.674 40.215 113.052 72.8369 72.8369 72.8369C32.622 72.8369 0 40.215 0 0H145.674Z" fill="#03363D"></path>
                                                <path d="M169.698 239C169.698 198.745 202.28 166.163 242.535 166.163C282.791 166.163 315.372 198.785 315.372 239H169.698Z" fill="#03363D"></path>
                                                <path d="M169.698 175.845V0H315.372L169.698 175.845Z" fill="#03363D"></path>
                                                <path d="M838.869 165.072C847.982 165.072 857.095 161.567 864.105 155.258L876.723 168.577C866.909 178.392 853.59 184 839.57 183.299C809.428 183.299 789.099 162.969 789.099 135.629C788.398 109.691 808.727 88.6598 834.664 87.9587C835.364 87.9587 836.066 87.9587 836.766 87.9587C866.909 87.9587 884.434 111.093 883.032 143.34H810.83C812.933 157.361 825.551 166.474 838.869 165.072ZM860.6 127.918C859.899 115.299 849.384 105.485 836.766 106.186C823.448 105.485 812.232 114.598 810.83 127.918H860.6Z" fill="#03363D"></path>
                                                <path d="M365 164.371L420.378 108.289H366.402V90.7629H445.614V108.99L390.236 165.072H446.315V182.598H365V164.371Z" fill="#03363D"></path>
                                                <path d="M512.208 165.072C521.321 165.072 530.434 161.567 537.444 155.258L550.061 168.577C540.247 179.093 526.228 184.701 512.208 184C481.364 184 461.737 163.67 461.737 136.33C461.036 110.392 481.364 89.3608 507.301 88.6598C508.002 88.6598 508.703 88.6598 509.404 88.6598C539.546 88.6598 557.071 111.794 554.968 144.041H484.168C486.271 157.361 498.889 166.474 512.208 165.072ZM533.939 127.918C533.238 115.299 522.723 105.485 510.105 106.186C497.487 105.485 486.271 114.598 484.168 127.918H533.939Z" fill="#03363D"></path>
                                                <path d="M674.838 136.33C673.436 111.093 693.063 89.3608 718.299 88.6598C719 88.6598 719.701 88.6598 720.402 88.6598C732.319 88.6598 743.535 93.567 750.545 102.68V48H770.172V181.897H750.545V169.278C742.834 178.392 731.618 184 719.701 184C694.465 184 673.436 162.969 674.137 137.732C674.838 137.031 674.838 136.33 674.838 136.33ZM751.947 136.33C751.947 120.206 738.628 107.588 723.206 107.588C707.083 107.588 694.465 120.907 694.465 136.33C694.465 152.454 707.784 165.072 723.206 165.072C739.329 165.072 751.947 152.454 751.947 136.33Z" fill="#03363D"></path>
                                                <path d="M894.948 162.969L912.473 153.155C917.38 161.567 926.493 166.474 935.606 166.474C946.822 166.474 952.43 160.866 952.43 154.557C952.43 148.247 941.915 145.443 929.998 143.34C914.576 139.835 898.453 134.928 898.453 116C898.453 101.278 912.473 87.9588 934.204 87.9588C948.925 87.2577 962.944 93.567 971.356 105.485L955.234 115.299C950.327 108.289 942.616 104.784 934.905 104.784C924.39 104.784 919.483 109.691 919.483 116C919.483 122.309 927.895 124.412 941.214 127.216C956.636 130.722 973.459 135.629 973.459 154.557C973.459 167.175 962.243 184 936.307 184C918.782 185.402 902.659 176.99 894.948 162.969Z" fill="#03363D"></path>
                                                <path d="M1022.53 141.237L1007.11 158.062V181.897H987.479V48H1007.11V135.629L1048.47 90.0619H1072.3L1036.55 129.32L1073 181.897H1051.27L1022.53 141.237Z" fill="#03363D"></path>
                                                <path d="M616.655 88.6598C593.523 88.6598 573.895 104.082 573.895 128.619V182.598H593.523V131.423C592.121 119.505 600.533 108.99 612.449 107.588C613.851 107.588 615.253 107.588 616.655 107.588C631.376 107.588 638.386 116.701 638.386 131.423V182.598H659.416V128.619C659.416 103.381 639.788 88.6598 616.655 88.6598Z" fill="#03363D"></path>
                                            </svg>