<svg width="121" height="48px" viewBox="0 0 419 167" fill="none" xmlns="http://www.w3.org/2000/svg">
                                                <path fill-rule="evenodd" clip-rule="evenodd" d="M34.3 94.1001C23 94.1001 9.9 99.5001 2.8 105.1L9.3 118.7C15 113.5 24.2 109.1 32.5 109.1C40.4 109.1 44.7 111.7 44.7 117C44.7 120.6 41.8 122.4 36.4 123.1C16 125.7 0 131.3 0 147C0 159.4 8.9 167 22.7 167C32.6 167 41.4 161.5 45.6 154.3V165H64V120.1C64 101.6 51.1 94.1001 34.3 94.1001ZM27.4 152.6C22.2 152.6 19.6 150.1 19.6 145.9C19.6 138.1 28.3 135.5 44.2 133.8C44.3 144.2 37.2 152.6 27.4 152.6V152.6Z" fill="black"></path>
                                                <path fill-rule="evenodd" clip-rule="evenodd" d="M237.5 107.7V96.1001H219.1V165H238.8V131.8C238.8 116 248.3 111.4 255 111.4C257.6 111.4 261.1 112.2 263.4 113.9L267 95.7001C264 94.4001 260.8 94.1001 258.2 94.1001C248.1 94.1001 241.7 98.6001 237.5 107.7Z" fill="black"></path>
                                                <path fill-rule="evenodd" clip-rule="evenodd" d="M358.4 94.1001C348 94.1001 340.2 100.3 336.1 106.2C332.3 98.5001 324.4 94.1001 314.8 94.1001C304.4 94.1001 297.2 99.9001 293.8 106.5V96.1001H274.8V165H294.5V129.5C294.5 116.8 301.2 110.7 307.4 110.7C313 110.7 318.2 114.3 318.2 123.7V165H338V129.5C338 116.6 344.5 110.7 351 110.7C356.2 110.7 361.7 114.5 361.7 123.6V165H381.4V117.4C381.4 101.9 371 94.1001 358.4 94.1001V94.1001Z" fill="black"></path>
                                                <path fill-rule="evenodd" clip-rule="evenodd" d="M133.6 91V96.1H103.7V89.1C103.7 80 108.9 77.4 113.4 77.4C116 77.4 119.4 78 122.2 79.6L128.3 65.7C124.7 63.6 118.8 61.7 110.9 61.7C98.3 61.7 84 68.8 84 91.1V96.2H72.6V111.4H84V165H103.7V111.3H133.6V165H153.3V111.3H171.2V96.1H153.3V89.1C153.3 80 158.5 77.4 163 77.4C168 77.4 171.8 79.6 171.8 79.6L177.9 65.7C177.9 65.7 171.7 61.7 160.5 61.7C148 61.6 133.6 68.7 133.6 91V91Z" fill="black"></path>
                                                <path fill-rule="evenodd" clip-rule="evenodd" d="M182.9 96.1001H202.6V165H182.9V96.1001Z" fill="black"></path>
                                                <path fill-rule="evenodd" clip-rule="evenodd" d="M297.7 0C244.5 0 197.1 36.9 183.7 84.4H203C214.2 49 252.3 18 297.7 18C352.9 18 400.5 60 400.5 125.4C400.5 140.1 398.6 153.3 395 165H413.7L413.9 164.4C417 152.3 418.5 139.2 418.5 125.4C418.5 52.5 365.4 0 297.7 0Z" fill="#0FA0EA"></path>
                                            </svg>