<svg class="logo" xmlns="http://www.w3.org/2000/svg" xmlns:xlink="http://www.w3.org/1999/xlink" width="175" height="16px" viewBox="0 0 187 17">
                                                <defs>
                                                    <path id="a" d="M.114 16.819V.975H10.67v15.844H.114z">
                                                    </path>
                                                </defs>
                                                <g fill="none" fill-rule="evenodd">
                                                    <mask id="b" fill="#fff">
                                                        <use xlink:href="#a">
                                                        </use>
                                                    </mask>
                                                    <path fill="#1A1918" d="M2.702 3.468V7.82H9.8v2.47H2.702v6.529H0V.975h10.67l-.022 2.493H2.702" mask="url(#b)">
                                                    </path>
                                                    <g fill="#1A1918">
                                                        <path d="M32.114 4.715c-1.093-1.119-2.43-1.678-4.018-1.678-1.588 0-2.93.56-4.019 1.678-1.093 1.118-1.637 2.474-1.637 4.068 0 1.595.544 2.95 1.637 4.069 1.09 1.118 2.431 1.677 4.019 1.677 1.587 0 2.925-.559 4.018-1.677 1.09-1.118 1.636-2.474 1.636-4.069 0-1.594-.546-2.95-1.636-4.068zm1.981 9.916c-1.62 1.564-3.618 2.346-6 2.346-2.38 0-4.382-.782-5.998-2.346-1.62-1.564-2.428-3.513-2.428-5.848 0-2.334.808-4.284 2.428-5.848C23.713 1.371 25.714.59 28.096.59c2.381 0 4.379.782 6 2.346C35.71 4.5 36.521 6.45 36.521 8.783c0 2.335-.81 4.284-2.427 5.848zM50.398 13.192c.733.846 1.725 1.27 2.977 1.27 1.25 0 2.244-.424 2.977-1.27.73-.846 1.099-1.995 1.099-3.445V.975h2.702V9.86c0 2.282-.634 4.038-1.9 5.27-1.268 1.232-2.893 1.847-4.878 1.847-1.984 0-3.61-.615-4.877-1.847-1.27-1.232-1.9-2.988-1.9-5.27V.975h2.701v8.772c0 1.45.367 2.599 1.1 3.445M80.44 8.364c.55-.468.825-1.22.825-2.255s-.284-1.746-.847-2.131c-.565-.385-1.573-.578-3.023-.578H73.96v5.667h3.366c1.527 0 2.565-.235 3.115-.703zm3.596-2.244c0 2.614-1.153 4.261-3.46 4.941l4.192 5.758h-3.434l-3.824-5.327h-3.55v5.327h-2.702V.975h5.954c2.442 0 4.19.408 5.244 1.224 1.053.816 1.58 2.123 1.58 3.921zM99.64 3.06c-.786 0-1.43.159-1.934.476-.506.317-.756.797-.756 1.44 0 .642.25 1.133.756 1.473.503.34 1.576.706 3.217 1.099 1.639.393 2.875.944 3.707 1.655.834.71 1.25 1.756 1.25 3.139 0 1.383-.528 2.505-1.58 3.366-1.055.861-2.437 1.292-4.144 1.292-2.506 0-4.725-.854-6.664-2.561l1.695-2.018c1.616 1.39 3.297 2.086 5.035 2.086.87 0 1.561-.185 2.075-.556.51-.37.767-.861.767-1.473 0-.612-.24-1.088-.722-1.428-.48-.34-1.309-.65-2.484-.93-1.177-.279-2.068-.536-2.68-.77a6.039 6.039 0 0 1-1.625-.918c-.946-.71-1.42-1.798-1.42-3.264 0-1.466.539-2.595 1.615-3.389C96.824.986 98.154.59 99.742.59c1.024 0 2.04.167 3.047.499 1.006.332 1.878.8 2.61 1.405l-1.444 2.018c-.473-.423-1.113-.771-1.922-1.043a7.496 7.496 0 0 0-2.393-.408M116.09.975h2.703v15.844h-2.702zM139.584 16.819l-3.938-5.962h-.115l-3.938 5.962h-3.364l5.495-8.138-5.108-7.706h3.345l3.57 5.349h.115l3.574-5.35h3.34l-5.104 7.707 5.494 8.138h-3.366M158.43 3.423v13.396h-2.703V3.423h-4.854V.975h12.41v2.448h-4.854M179.38 16.819h-2.747v-6.256L170.679.975h2.954l4.374 7.208L182.38.975h2.954l-5.953 9.588v6.256">
                                                        </path>
                                                    </g>
                                                </g>
                                            </svg>