<svg width="142" height="34px" viewBox="0 0 200 47" fill="none" xmlns="http://www.w3.org/2000/svg">
                                                <path fill-rule="evenodd" clip-rule="evenodd" d="M39.8295 46.9967H42.6021C43.2445 46.9967 43.7855 46.4445 43.8192 45.789V14.9755C43.8192 11.939 41.4187 9.48904 38.4432 9.48904H34.8931C34.2507 9.48904 33.7097 8.93698 33.7097 8.28133V5.4864C33.7097 2.4499 31.3091 0 28.3338 0H5.37597C2.40059 0 0 2.4499 0 5.4864V36.4379C0 39.4399 2.40059 41.8899 5.37597 41.9244H31.9853C32.222 41.9244 32.4587 41.9934 32.6616 42.1314L39.1533 46.7896C39.3562 46.9277 39.5928 46.9967 39.8295 46.9967ZM33.3716 37.5422H5.4436C4.76737 37.5422 4.2602 37.0245 4.2602 36.3344V5.5554C4.2602 4.8998 4.80118 4.34771 5.4436 4.34771H28.2661C28.9085 4.34771 29.4495 4.8998 29.4495 5.5554V8.28133C29.4495 8.93698 28.9085 9.48904 28.2661 9.48904H11.2591C10.6167 9.48904 10.0757 10.0411 10.0757 10.6968V31.2276C10.0757 31.8832 10.6167 32.4353 11.2591 32.4353H32.4925C33.1349 32.4353 33.6759 31.8832 33.6759 31.2276V15.0445C33.6759 14.3888 34.2168 13.8367 34.8593 13.8367H38.3418C38.9842 13.8367 39.5252 14.3888 39.5252 15.0445V40.2336C39.5252 40.8546 38.849 41.1997 38.3757 40.8546L34.0478 37.7492C33.845 37.6112 33.6083 37.5422 33.3716 37.5422ZM28.8409 28.053H14.9107C14.6064 28.053 14.3359 27.8116 14.3359 27.4665V14.4234C14.3359 14.1128 14.5726 13.8367 14.9107 13.8367H28.8409C29.1452 13.8367 29.4157 14.0783 29.4157 14.4234V27.4665C29.4157 27.7771 29.179 28.053 28.8409 28.053ZM151.516 6.56108C153.291 6.56108 154.73 5.09233 154.73 3.28054C154.73 1.46874 153.291 0 151.516 0C149.74 0 148.301 1.46874 148.301 3.28054C148.301 5.09233 149.74 6.56108 151.516 6.56108ZM114.845 11.3571V9.53461H109.666V32.2554H114.845V16.7335L120.887 14.182V8.86629H120.828L114.845 11.3571ZM94.78 9.51416C91.4167 9.51416 88.6784 10.638 86.5948 12.9162C85.6425 13.9793 84.898 15.1943 84.3628 16.6219C83.8566 18.0192 83.5886 19.5076 83.5886 21.0568C83.5886 24.2462 84.4816 26.8888 86.2972 28.9239C88.2917 31.1718 91.03 32.2652 94.512 32.2652C97.9049 32.2652 100.614 31.1414 102.667 28.8632C104.602 26.7065 105.584 24.0032 105.584 20.7226C105.584 17.4421 104.631 14.7994 102.756 12.7339C100.763 10.5773 98.1135 9.51416 94.78 9.51416ZM98.8276 25.6738C97.8456 26.9192 96.476 27.5571 94.7503 27.5571C92.905 27.5571 91.387 26.9192 90.2558 25.6434C89.7198 25.0663 89.3034 24.3373 89.0058 23.5171C88.7081 22.697 88.5589 21.8465 88.5589 20.9352C88.5589 19.1127 89.0354 17.5939 90.0175 16.3182C91.0894 14.9513 92.5479 14.2527 94.4229 14.2527C96.2682 14.2527 97.7268 14.8906 98.7682 16.1967C99.7502 17.4117 100.256 18.9912 100.256 20.9656C100.286 22.8793 99.8096 24.4588 98.8276 25.6738ZM148.892 9.53831H154.042V32.2895H148.892V9.53831ZM70.3177 9.51416C67.3711 9.51416 64.9602 10.395 63.0851 12.1568C61.329 13.8274 60.4361 15.9233 60.4361 18.4445C60.4361 20.6922 61.2099 22.5451 62.7577 24.0336C61.4183 25.127 60.7635 26.4332 60.7635 27.9824C60.7635 28.9239 60.8825 29.7441 61.0909 30.4427C61.2992 31.1718 61.716 31.7793 62.3708 32.326C60.0492 33.6321 58.9182 35.7584 59.0075 38.6745C59.067 41.1956 60.1385 43.2003 62.222 44.7191C64.3054 46.2379 67.0734 46.9973 70.4666 46.9973C73.8597 46.9973 76.3896 46.329 78.1159 44.9925C79.8418 43.656 80.7051 41.7424 80.7051 39.2212C80.7051 36.7304 80.0207 34.7864 78.6517 33.4195C77.9075 32.6905 76.9551 32.1134 75.7943 31.597C74.6037 31.111 72.9965 30.6857 70.913 30.3516C68.8295 30.0175 67.3413 29.653 66.4484 29.1974C66.0317 29.0151 65.7638 28.8025 65.6448 28.5899C65.5257 28.3772 65.4662 28.0734 65.4662 27.6786C65.4662 27.2837 65.7341 26.7369 66.2401 26.0383C67.4009 26.4332 68.6807 26.6458 70.0498 26.6458C72.8476 26.6458 75.1395 25.7953 76.9551 24.0639C77.7587 23.2741 78.3838 22.3325 78.8302 21.2694C79.2767 20.2063 79.4848 19.0216 79.4848 17.7155C79.4848 16.4093 79.1874 15.1639 78.5921 14.0096C78.5921 14.0096 78.5921 13.9793 78.5624 13.9793H80.7348V9.51416H70.3177ZM66.7163 34.0878L67.7878 34.27C70.794 34.7257 72.9369 35.3332 74.1573 36.1533C75.2586 36.8519 75.7943 37.7935 75.7943 38.9478C75.7943 41.3778 74.0978 42.5625 70.7047 42.5625C68.7105 42.5625 67.1032 42.1372 65.8531 41.3171C65.2877 40.9526 64.8412 40.497 64.5435 39.9806C64.2161 39.4642 64.0673 38.8871 64.0673 38.1884C64.0673 37.4898 64.2756 36.7608 64.6924 36.0014C65.1388 35.2116 65.8234 34.6041 66.7163 34.0878ZM73.2048 21.0568C72.3715 21.8162 71.3892 22.211 70.288 22.211C68.7998 22.211 67.6092 21.7858 66.6866 20.9352C66.2698 20.5707 65.9722 20.1151 65.7341 19.6595C65.5257 19.1734 65.4066 18.6875 65.4066 18.1711C65.4066 17.6547 65.4959 17.1383 65.7043 16.6219C66.3591 14.8906 67.8176 14.04 70.1094 14.04C71.4785 14.04 72.5798 14.4045 73.3536 15.1336C74.1276 15.8626 74.5442 16.8346 74.5442 18.0192C74.5144 19.1734 74.068 20.2062 73.2048 21.0568ZM176.78 14.4653C177.167 15.4981 177.376 16.7131 177.376 18.0192V32.2045H172.316V31.1414C170.798 31.84 169.398 32.2045 168.119 32.2045C166.512 32.2045 165.173 32.0526 164.041 31.7489C162.91 31.4451 161.958 30.9895 161.184 30.4124C159.606 29.1974 158.803 27.4659 158.803 25.2182C158.803 23.2134 159.756 21.5124 161.72 20.1758C163.833 18.7178 166.72 17.9888 170.352 17.9888L171.184 18.0192C171.27 18.0192 171.356 18.0262 171.445 18.0335C171.542 18.0414 171.642 18.0496 171.75 18.0496C171.85 18.0642 171.943 18.0717 172.032 18.079C172.129 18.087 172.223 18.0945 172.316 18.1103C172.197 15.8626 171.245 14.5261 169.459 14.1615C168.893 14.04 168.238 13.9793 167.583 13.9793C166.898 13.9793 166.244 14.04 165.619 14.1615C164.964 14.2831 164.339 14.4653 163.744 14.6476C162.434 15.0728 161.452 15.5892 160.886 16.1359L160.827 16.1056L160.202 11.4581C162.613 10.152 165.291 9.51416 168.178 9.51416C172.673 9.51416 175.53 11.1544 176.78 14.4653ZM172.316 26.8281V23.912V21.9376C171.929 21.8769 171.542 21.8465 171.155 21.8465H170.321C167.285 21.8465 165.351 22.5451 164.517 23.912C164.28 24.3069 164.16 24.7321 164.16 25.1878C164.16 25.6434 164.25 26.0383 164.398 26.3725C164.577 26.7065 164.845 27.0103 165.202 27.223C165.916 27.6482 166.988 27.8608 168.387 27.8608C169.786 27.8608 171.095 27.4963 172.316 26.8281ZM196.398 19.5683C197.262 19.9936 197.976 20.51 198.512 21.1175C199.494 22.211 200 23.669 200 25.5523C200 27.5267 199.226 29.1366 197.678 30.382C196.071 31.6881 193.809 32.326 190.892 32.326C187.38 32.326 184.641 31.7185 182.707 30.5339V24.9448C182.707 24.9144 182.826 25.0359 183.034 25.2789C183.243 25.5219 183.659 25.7953 184.225 26.1598C184.791 26.5243 185.475 26.8281 186.219 27.1014C187.856 27.6786 189.552 27.952 191.338 27.952C193.72 27.952 194.91 27.1318 194.91 25.5219C194.91 25.0056 194.672 24.6107 194.226 24.3677C193.422 23.9424 192.231 23.6083 190.654 23.3957C189.077 23.1526 187.797 22.8489 186.784 22.4237C185.773 21.9984 184.939 21.482 184.314 20.9049C183.153 19.7809 182.558 18.323 182.558 16.5308C182.558 14.3438 183.391 12.6124 185.029 11.367C186.666 10.1217 188.927 9.51416 191.815 9.51416C194.672 9.51416 197.113 10.3343 199.137 12.0049C199.048 12.3694 198.958 12.7339 198.839 13.0681C198.512 14.0096 198.273 14.678 198.125 15.0728L197.648 16.3182C197.619 16.4397 197.589 16.5005 197.589 16.5005C197.559 16.5005 197.44 16.3486 197.262 16.0448C196.398 15.012 195.03 14.3438 193.214 14.0096C192.648 13.8882 192.083 13.8274 191.488 13.8274C188.988 13.8274 187.737 14.5868 187.737 16.1359C187.737 16.6524 187.975 17.0776 188.511 17.3509C189.493 17.8977 190.833 18.2926 192.529 18.5356C194.226 18.809 195.505 19.1431 196.398 19.5683ZM133.742 9.51416C130.795 9.51416 128.385 10.395 126.51 12.1568C124.753 13.8274 123.86 15.9233 123.86 18.4445C123.86 20.6922 124.634 22.5451 126.181 24.0336C124.842 25.127 124.188 26.4332 124.188 27.9824C124.188 28.9239 124.306 29.7441 124.515 30.4427C124.724 31.1718 125.14 31.7793 125.795 32.326C123.474 33.6321 122.342 35.7584 122.431 38.6745C122.491 41.1956 123.563 43.2003 125.646 44.7191C127.73 46.2379 130.498 46.9973 133.891 46.9973C137.284 46.9973 139.813 46.329 141.54 44.9925C143.267 43.656 144.13 41.7424 144.13 39.2212C144.13 36.7304 143.445 34.7864 142.076 33.4195C141.331 32.6905 140.379 32.1134 139.218 31.597C138.027 31.111 136.42 30.6857 134.337 30.3516C132.253 30.0175 130.766 29.653 129.873 29.1974C129.456 29.0151 129.188 28.8025 129.069 28.5899C128.95 28.3772 128.89 28.0734 128.89 27.6786C128.89 27.2837 129.158 26.7369 129.664 26.0383C130.825 26.4332 132.105 26.6458 133.474 26.6458C136.272 26.6458 138.563 25.7953 140.379 24.0639C141.183 23.2741 141.808 22.3325 142.254 21.2694C142.701 20.2063 142.91 19.0216 142.91 17.7155C142.91 16.4093 142.612 15.1639 142.017 14.0096C142.017 14.0096 142.017 13.9793 141.986 13.9793H144.159V9.51416H133.742ZM130.14 34.0878L131.212 34.27C134.218 34.7257 136.361 35.3332 137.581 36.1533C138.683 36.8519 139.218 37.7935 139.218 38.9478C139.218 41.3778 137.522 42.5625 134.129 42.5625C132.135 42.5625 130.528 42.1372 129.278 41.3171C128.712 40.9526 128.265 40.497 127.967 39.9806C127.64 39.4642 127.492 38.8871 127.492 38.1884C127.492 37.4898 127.699 36.7608 128.117 36.0014C128.563 35.2116 129.248 34.6041 130.14 34.0878ZM136.629 21.0568C135.795 21.8162 134.813 22.211 133.712 22.211C132.224 22.211 131.033 21.7858 130.11 20.9352C129.694 20.5707 129.396 20.1151 129.158 19.6595C128.95 19.1734 128.831 18.6875 128.831 18.1711C128.831 17.6547 128.92 17.1383 129.128 16.6219C129.783 14.8906 131.242 14.04 133.534 14.04C134.902 14.04 136.004 14.4045 136.777 15.1336C137.552 15.8626 137.968 16.8346 137.968 18.0192C137.938 19.1734 137.492 20.2062 136.629 21.0568Z" fill="black"></path>
                                            </svg>