<svg width="79" height="76" viewBox="0 0 79 76" fill="none" xmlns="http://www.w3.org/2000/svg">
<path d="M44.0576 28.5217V18.6364H47.2878L49.1117 24.6929C49.2138 25.0456 49.2927 25.4448 49.3484 25.8903H49.3762C49.4226 25.4912 49.5062 25.0828 49.6268 24.6651L51.3672 18.6364H54.6391V28.5217H52.495V21.783C52.495 21.3746 52.5135 21.0033 52.5507 20.6692H52.5089C52.481 20.9569 52.4114 21.2771 52.3 21.6299L50.3091 28.5217H48.332L46.2575 21.6299C46.1554 21.3514 46.0858 21.0358 46.0486 20.6831H46.0069C46.044 21.1286 46.0626 21.4953 46.0626 21.783V28.5217H44.0576ZM59.0555 28.5217H56.7025V18.6364H59.0555V28.5217ZM61.1214 28.5217V18.6364H63.725L66.8995 24.2752C67.1965 24.8321 67.3961 25.2591 67.4982 25.5561H67.526C67.526 25.4355 67.5214 25.2359 67.5121 24.9574C67.5121 24.679 67.5121 24.4562 67.5121 24.2891V18.6364H69.6701V28.5217H67.164L63.8782 22.8272C63.5626 22.2332 63.3677 21.8294 63.2934 21.6159H63.2656C63.2656 21.7459 63.2656 21.9547 63.2656 22.2425C63.2749 22.5302 63.2795 22.7576 63.2795 22.9247V28.5217H61.1214ZM78.8832 18.6364V20.5021H76.0012V28.5217H73.6621V20.5021H70.794V18.6364H78.8832Z" fill="white"/>
<path d="M43.6347 43.0261V39.4479L40.3489 33.1408H42.8271L44.5675 36.7886C44.6882 37.0485 44.7671 37.2898 44.8042 37.5126H44.8321C44.8692 37.2898 44.9481 37.0485 45.0687 36.7886L46.7952 33.1408H49.2874L46.0016 39.4479V43.0261H43.6347ZM57.4302 41.8705C56.5484 42.7987 55.3649 43.2628 53.8798 43.2628C52.3947 43.2628 51.2112 42.7987 50.3295 41.8705C49.4477 40.933 49.0068 39.6706 49.0068 38.0834C49.0068 36.4962 49.4477 35.2385 50.3295 34.3103C51.2112 33.3728 52.3947 32.9041 53.8798 32.9041C55.3649 32.9041 56.5484 33.3728 57.4302 34.3103C58.312 35.2385 58.7528 36.4962 58.7528 38.0834C58.7528 39.6706 58.312 40.933 57.4302 41.8705ZM52.0698 40.5339C52.5061 41.1279 53.1094 41.4249 53.8798 41.4249C54.6502 41.4249 55.2489 41.1325 55.6759 40.5478C56.1121 39.9537 56.3303 39.1323 56.3303 38.0834C56.3303 37.0345 56.1121 36.2177 55.6759 35.633C55.2489 35.0389 54.6502 34.7419 53.8798 34.7419C53.1094 34.7419 52.5061 35.0389 52.0698 35.633C51.6336 36.2177 51.4154 37.0345 51.4154 38.0834C51.4154 39.123 51.6336 39.9398 52.0698 40.5339ZM60.0172 33.1408H62.3702V39.4757C62.3702 40.0605 62.5326 40.5199 62.8575 40.8541C63.1824 41.1882 63.6326 41.3553 64.208 41.3553C64.7835 41.3553 65.2337 41.1882 65.5586 40.8541C65.8834 40.5199 66.0459 40.0605 66.0459 39.4757V33.1408H68.3989V39.5732C68.3989 40.7056 68.0276 41.6059 67.285 42.2742C66.5425 42.9332 65.5168 43.2628 64.208 43.2628C62.8993 43.2628 61.8736 42.9332 61.1311 42.2742C60.3885 41.6059 60.0172 40.7056 60.0172 39.5732V33.1408ZM75.9533 43.0261L74.0597 39.239H72.6396V43.0261H70.2866V33.1408H74.6306C75.8465 33.1408 76.7515 33.4099 77.3456 33.9483C77.9489 34.4866 78.2506 35.2292 78.2506 36.176C78.2506 36.8071 78.0835 37.3641 77.7493 37.8467C77.4152 38.3294 76.9372 38.6775 76.3153 38.8909L78.5012 43.0261H75.9533ZM72.6396 34.7976V37.6239H74.1572C75.2525 37.6239 75.8001 37.1413 75.8001 36.176C75.8001 35.257 75.2525 34.7976 74.1572 34.7976H72.6396Z" fill="white"/>
<path d="M38.0622 57.7671C37.0226 57.7671 36.1269 57.5629 35.3751 57.1545C34.6232 56.7461 34.071 56.1846 33.7182 55.4699L35.4586 54.2446C36.0341 55.377 36.9298 55.9432 38.1458 55.9432C38.647 55.9432 39.0554 55.8504 39.371 55.6648C39.6866 55.4699 39.8444 55.1868 39.8444 54.8155C39.8444 54.4535 39.733 54.1889 39.5102 54.0219C39.2967 53.8455 38.9301 53.7016 38.4103 53.5903L37.0876 53.3118C35.2683 52.9127 34.3587 51.9241 34.3587 50.3462C34.3587 49.4366 34.7021 48.7219 35.389 48.2021C36.0852 47.673 37.0273 47.4085 38.2154 47.4085C39.1157 47.4085 39.9093 47.5755 40.5962 47.9097C41.2831 48.2346 41.7982 48.7219 42.1416 49.3716L40.6101 50.6664C40.3595 50.1838 40.0114 49.8125 39.5659 49.5526C39.1296 49.2834 38.6284 49.1488 38.0622 49.1488C37.5981 49.1488 37.2268 49.2416 36.9484 49.4273C36.6699 49.6036 36.5307 49.8496 36.5307 50.1652C36.5307 50.4808 36.6374 50.7314 36.8509 50.917C37.0737 51.0934 37.445 51.2419 37.9648 51.3626L39.3988 51.6689C40.3085 51.8731 40.986 52.2072 41.4316 52.6713C41.8771 53.1262 42.0999 53.7666 42.0999 54.5927C42.0999 55.5488 41.7425 56.3192 41.0278 56.9039C40.3224 57.4794 39.3338 57.7671 38.0622 57.7671ZM50.6075 47.6451V49.5108H47.7254V57.5305H45.3864V49.5108H42.5182V47.6451H50.6075ZM58.998 56.3748C58.1162 57.303 56.9328 57.7671 55.4477 57.7671C53.9625 57.7671 52.7791 57.303 51.8973 56.3748C51.0155 55.4374 50.5746 54.175 50.5746 52.5878C50.5746 51.0006 51.0155 49.7429 51.8973 48.8147C52.7791 47.8772 53.9625 47.4085 55.4477 47.4085C56.9328 47.4085 58.1162 47.8772 58.998 48.8147C59.8798 49.7429 60.3207 51.0006 60.3207 52.5878C60.3207 54.175 59.8798 55.4374 58.998 56.3748ZM53.6377 55.0382C54.0739 55.6323 54.6773 55.9293 55.4477 55.9293C56.2181 55.9293 56.8167 55.6369 57.2437 55.0522C57.68 54.4581 57.8981 53.6367 57.8981 52.5878C57.8981 51.5389 57.68 50.7221 57.2437 50.1374C56.8167 49.5433 56.2181 49.2463 55.4477 49.2463C54.6773 49.2463 54.0739 49.5433 53.6377 50.1374C53.2014 50.7221 52.9833 51.5389 52.9833 52.5878C52.9833 53.6274 53.2014 54.4442 53.6377 55.0382ZM67.4188 57.5305L65.5253 53.7434H64.1051V57.5305H61.7521V47.6451H66.0961C67.3121 47.6451 68.217 47.9143 68.8111 48.4527C69.4144 48.991 69.7161 49.7336 69.7161 50.6804C69.7161 51.3115 69.549 51.8684 69.2149 52.3511C68.8807 52.8338 68.4027 53.1818 67.7808 53.3953L69.9667 57.5305H67.4188ZM64.1051 49.302V52.1283H65.6227C66.718 52.1283 67.2656 51.6457 67.2656 50.6804C67.2656 49.7614 66.718 49.302 65.6227 49.302H64.1051ZM73.7588 55.7901H78.2698V57.5305H71.4058V47.6451H78.1723V49.3855H73.7588V51.6132H77.9356V53.3396H73.7588V55.7901Z" fill="white"/>
<path d="M74.7792 15.7739V2H2V74H74.7792V60.2261" stroke="white" stroke-width="2.3205"/>
</svg>
