<svg width="140" height="60px" viewBox="0 0 77 23" fill="none" xmlns="http://www.w3.org/2000/svg">
                                            <path fill-rule="evenodd" clip-rule="evenodd" d="M29.6699 10.2119V2.8623C29.6699 -0.940589 35.3728 -0.940589 35.3728 2.8623C34.9416 6.40903 29.6699 6.40903 29.6699 10.2119Z" fill="#AB333E"></path>
                                            <path fill-rule="evenodd" clip-rule="evenodd" d="M35.3904 2.8623V13.6404C35.3904 17.4433 29.6876 17.4433 29.6876 13.6404V10.2119C29.668 6.40904 34.9397 6.40904 35.3904 2.8623Z" fill="#F0555D"></path>
                                            <path fill-rule="evenodd" clip-rule="evenodd" d="M29.7275 15.9849C31.6089 19.8272 25.8081 22.6646 23.9463 18.8223L20.9675 12.714C22.5941 9.26584 24.3382 6.1723 26.1804 8.67471L29.7275 15.9849ZM9.13062 12.714L6.15181 18.8223C4.29005 22.6646 -1.51079 19.8469 0.370561 15.9849L3.9373 8.67471C5.75986 6.15259 7.50403 9.26584 9.13062 12.714Z" fill="#AB333E"></path>
                                            <path fill-rule="evenodd" clip-rule="evenodd" d="M9.12887 12.714C7.50228 9.26582 5.75811 6.15257 3.93555 8.67469L6.09127 4.24128C7.4043 1.40389 10.971 1.4433 12.1861 4.24128L15.0473 10.1328L17.9085 4.24128C19.1236 1.4433 22.6903 1.40389 24.0033 4.24128L26.1591 8.67469C24.3365 6.17228 22.5923 9.26582 20.9461 12.714L17.9673 18.8223C17.3598 20.0636 16.2036 20.6745 15.0277 20.6745C13.8519 20.6745 12.6956 20.0636 12.0881 18.8223L9.12887 12.714Z" fill="#F0555D"></path>
                                            <path fill-rule="evenodd" clip-rule="evenodd" d="M45.0521 16.6352V18.8814C45.0521 24.1424 37.1543 24.1424 37.1543 18.8814V16.3593C38.1734 12.9505 42.6024 14.1722 45.0521 16.6352ZM45.0521 3.94574V6.192C42.6024 8.65501 38.1538 9.87667 37.1543 6.44816V3.94574C37.1543 -1.31525 45.0521 -1.31525 45.0521 3.94574Z" fill="#AB333E"></path>
                                            <path fill-rule="evenodd" clip-rule="evenodd" d="M45.0521 6.19216L49.9906 1.22673C53.6946 -2.49734 59.2798 3.13803 55.5759 6.84239L51.0293 11.4137L55.5759 15.9654C59.2798 19.6894 53.675 25.3051 49.9906 21.581L45.0521 16.6156C42.6024 14.1526 38.1538 12.9309 37.1543 16.3595V6.44831C38.1734 9.87682 42.6024 8.65516 45.0521 6.19216Z" fill="#F0555D"></path>
                                            <path fill-rule="evenodd" clip-rule="evenodd" d="M65.728 11.6502C65.8652 10.2315 64.8069 8.97043 63.3959 8.8325C61.9849 8.69457 60.7306 9.75859 60.5934 11.1773C60.8482 8.3596 63.3175 6.29067 66.1199 6.54683C68.9224 6.80298 70.9801 9.28569 70.7253 12.1034C70.353 16.3003 66.6491 19.3939 62.4748 18.9998C58.3005 18.6254 55.2237 14.9014 55.6157 10.7044C55.3609 13.5221 57.4187 16.0048 60.2211 16.2609C63.0039 16.5171 65.4732 14.4482 65.728 11.6502Z" fill="#F0555D"></path>
                                            <path fill-rule="evenodd" clip-rule="evenodd" d="M60.5929 11.1772C60.4557 12.5959 61.514 13.857 62.925 13.9949C64.336 14.1328 65.5902 13.0688 65.7274 11.6501C65.4727 14.4678 63.0034 16.5367 60.2009 16.2806C57.3985 16.0244 55.3408 13.5417 55.5955 10.724C55.9679 6.52706 59.6718 3.43352 63.8461 3.8276C68.0203 4.20198 71.0971 7.92605 70.7052 12.123C70.9599 9.30533 68.9022 6.82262 66.0998 6.56647C63.3169 6.29061 60.8477 8.35954 60.5929 11.1772Z" fill="#AB333E"></path>
                                            <path d="M75.1332 3.49264C75.7408 3.88672 76.0347 4.41873 76.0347 5.12808C76.0347 5.56157 75.9171 5.95565 75.682 6.34973C75.4468 6.72411 75.1332 7.03937 74.7413 7.25612C74.3493 7.49256 73.9378 7.59108 73.4871 7.59108C73.0559 7.59108 72.6444 7.47286 72.2524 7.25612C71.8605 7.03937 71.5469 6.72411 71.3117 6.36943C71.0766 5.99506 70.959 5.60097 70.959 5.18719C70.959 4.93104 71.0374 4.71429 71.1941 4.55666C71.3509 4.39903 71.5469 4.32021 71.7821 4.32021C71.9976 4.32021 72.174 4.37932 72.3112 4.49755C72.4092 4.57636 72.4876 4.67488 72.5072 4.7537C72.5268 4.83252 72.5464 4.99015 72.566 5.18719C72.5856 5.36452 72.6444 5.52216 72.7424 5.64038C72.8403 5.75861 72.9579 5.85713 73.0951 5.91624C73.2323 5.97535 73.3891 6.01476 73.5262 6.01476C73.7614 6.01476 73.977 5.93594 74.1534 5.77831C74.3297 5.62068 74.4277 5.42364 74.4277 5.14778C74.4277 4.93104 74.3493 4.73399 74.2122 4.55666C74.075 4.37932 73.8986 4.2611 73.7026 4.20198C73.4871 4.12317 73.3303 4.06406 73.2715 3.98524C73.2127 3.92613 73.1735 3.8079 73.1735 3.65027C73.1735 3.41382 73.2519 3.27589 73.3891 3.19708L73.683 3.07885C73.879 2.98033 73.9574 2.803 73.9574 2.56655C73.9574 2.42862 73.9182 2.29069 73.8202 2.19217C73.7418 2.09365 73.6046 2.03454 73.4479 2.03454C73.1931 2.03454 73.0167 2.19217 72.9187 2.52714C72.8599 2.68477 72.7619 2.8227 72.6248 2.90152C72.5072 2.98033 72.37 3.03944 72.2132 3.03944C72.076 3.03944 71.9585 3.00004 71.8213 2.94092C71.7037 2.86211 71.5861 2.76359 71.5077 2.64536C71.4293 2.50743 71.3901 2.36951 71.3901 2.21187C71.3901 2.01483 71.4489 1.79809 71.5665 1.60105C71.8017 1.18726 72.174 0.852293 72.6836 0.635548C72.9187 0.537028 73.1539 0.49762 73.3891 0.49762C73.7614 0.49762 74.0946 0.59614 74.4277 0.773477C74.7609 0.950813 75.0156 1.20697 75.2116 1.50253C75.4076 1.79809 75.5056 2.11335 75.5056 2.44832C75.5644 2.76359 75.4076 3.13797 75.1332 3.49264Z" fill="#AB333E"></path>
                                            <path d="M75.133 3.49282C75.7797 3.92631 75.7993 4.67506 75.7405 4.99033C75.6817 5.42381 75.3682 5.89671 74.9174 6.13316C74.3883 6.42872 73.624 6.3105 73.2909 6.01494C73.2517 5.97553 73.3888 6.01494 73.526 6.01494C73.7612 6.01494 73.9768 5.93612 74.1531 5.77849C74.3295 5.62086 74.4275 5.42381 74.4275 5.14796C74.4275 4.93121 74.3491 4.73417 74.2119 4.55684C74.0748 4.3795 73.8984 4.26127 73.7024 4.20216C73.4868 4.12335 73.33 4.06423 73.2713 3.98542C73.2125 3.92631 73.1733 3.80808 73.1733 3.65045C73.1733 3.414 73.2517 3.27607 73.3888 3.19726L73.6828 3.07903C73.8788 2.98051 73.9572 2.80317 73.9572 2.56673C73.9572 2.4288 73.918 2.29087 73.82 2.19235C73.7416 2.09383 73.6044 2.03472 73.4476 2.03472C73.1929 2.03472 73.0165 2.19235 72.9185 2.52732C72.8597 2.68495 72.7617 2.82288 72.6245 2.90169C72.507 2.98051 72.3698 3.01992 72.1934 3.03962C72.1346 3.03962 72.1346 2.66525 72.1738 2.50761C72.1934 2.33028 72.409 1.68004 72.8989 1.42389C73.1145 1.30566 73.3496 1.20714 73.5848 1.18744C73.7612 1.16774 74.1531 1.18744 74.3883 1.32537C74.7215 1.52241 74.8782 1.64063 75.0742 1.9362C75.2702 2.23176 75.3878 2.78347 75.2114 3.27607C75.1918 3.33518 75.1134 3.47311 75.133 3.49282Z" fill="#F0555D"></path>
                                        </svg>