<svg width="139" height="72px" viewBox="0 0 88 48" fill="none" xmlns="http://www.w3.org/2000/svg">
                                                <path d="M3.95182 20.0735C2.78309 15.4366 10.3554 10.0561 15.7677 9.23546C20.8128 8.47035 22.0183 11.0804 20.1122 13.8477C18.2061 16.6151 15.1588 17.7689 12.9468 18.5371C13.1763 14.8473 13.4302 13.0549 10.3034 13.6688C6.92873 14.3321 6.10266 15.2823 6.10266 15.2823C8.09135 19.7157 6.36578 27.3267 6.52488 32.7319C6.61666 34.0554 6.61666 36.215 8.42177 36.215C10.4808 36.215 15.3852 34.6786 15.3852 34.6786C12.3349 31.8094 12.497 28.4682 12.7418 20.7924C14.8774 23.0229 20.0846 20.4839 21.3941 19.5244C22.6516 22.2023 22.312 27.7401 22.0152 30.9641C21.749 33.8857 22.3212 36.7549 28.6482 35.2185C27.3143 33.9875 27.2011 29.6837 27.7334 25.7625C28.2658 21.8413 29.9057 16.4238 34.8223 15.924C35.5872 15.8469 36.2328 15.8562 36.759 15.6525C37.6432 15.3101 38.1939 14.6129 38.4448 13.4096C38.8028 11.6851 37.6646 9.55014 35.4434 9.55014C32.3839 9.55014 29.2387 11.7005 27.4122 21.7673C27.4917 20.7893 27.351 19.7342 27.3755 19.1357C27.4244 17.7905 26.5188 17.2537 25.4327 17.3679C24.2119 17.4975 23.6214 17.6949 23.6214 17.6949C25.2797 16.3868 27.6019 13.4436 28.0853 8.92078C28.6329 3.80254 26.3475 -0.677083 19.794 0.084946C13.2069 0.85006 7.62936 4.8885 4.23942 8.12481C-0.622151 12.7587 -2.04177 19.8452 3.95182 20.0735Z" fill="#56C9AC"></path>
                                                <path d="M31.7715 18.8889C33.4267 24.3804 31.5175 29.4308 31.9275 33.4507C32.1815 35.9374 33.3777 35.6535 35.1033 35.5949C36.3455 35.5517 37.811 35.2062 39.2428 34.7557C35.9141 30.091 37.0675 26.7745 37.8966 22.4059C38.2271 20.6628 38.6829 17.7412 36.4495 17.7412C34.0875 17.7443 31.7715 18.8889 31.7715 18.8889Z" fill="#56C9AC"></path>
                                                <path d="M46.3472 16.7384C45.2182 15.924 41.813 17.0778 40.5433 19.3084C39.9344 20.5116 39.5612 24.007 39.6315 27.5087C39.7111 31.288 40.9257 35.5794 43.4896 36.1162C45.4477 36.5265 48.6724 34.8605 50.9028 27.7647C52.2214 23.5689 52.6804 17.0809 52.5855 16.4669C55.1494 16.4855 57.2513 15.9764 58.5577 15.1095C59.7387 14.3228 60.6167 13.5206 60.6167 11.9842C60.6167 10.6638 59.5275 9.43901 57.9244 9.39581C55.7888 10.9075 54.2652 11.6264 52.3591 12.0861C51.6738 7.24239 49.9451 6.80738 48.2685 7.8841C46.5919 8.96081 46.3104 13.6749 49.5382 15.7759C50.1746 22.0788 48.0666 29.2055 46.234 29.5078C44.5298 29.7855 44.1504 21.8906 46.3472 16.7384Z" fill="#56C9AC"></path>
                                                <path d="M59.0413 27.12C59.231 28.1535 59.8001 29.0575 60.4395 29.0698C61.4339 29.0945 62.1467 27.7154 62.5261 26.9102C62.5261 25.7564 62.5537 20.9559 61.7918 18.6513C62.7066 18.3428 64.9156 17.8245 65.757 17.8245C66.8247 17.8245 68.483 17.7875 68.3239 19.5953C68.0853 22.3535 67.5284 30.6463 66.993 36.505C72.6348 38.2111 77.5697 42.0767 87.556 38.6368C88.8716 42.231 87.2133 46.0751 83.2482 46.3805C78.2704 46.7661 73.0723 42.6537 66.1731 40.0405C64.3068 44.3844 60.6445 46.7106 57.4443 46.9852C53.6902 47.306 51.1172 45.02 51.1172 42.1168C51.1172 36.3723 56.606 34.9686 62.4955 35.4499C62.4955 35.4499 62.5537 32.6054 62.4955 30.5291C61.4278 33.2193 60.0143 35.0519 56.7283 34.0893C53.2221 33.0651 52.2309 27.0675 53.73 18.9475C53.935 18.2564 55.2537 17.2044 59.7267 17.9232C59.5829 18.5927 58.4049 23.6616 59.0413 27.12ZM62.0366 38.8312C58.9128 38.3314 56.2419 38.9083 56.2419 41.5584C56.2419 43.6903 58.3866 45.3254 60.0907 43.2491C61.801 41.1728 62.0305 38.9823 62.0366 38.8312Z" fill="#56C9AC"></path>
                                            </svg>