<svg width="193" height="38px" viewBox="0 0 601 121" fill="none" xmlns="http://www.w3.org/2000/svg">
                                                <path fill-rule="evenodd" clip-rule="evenodd" d="M120 60.2001C120 93.3001 93.1999 120.1 60.0999 120.1C27 120.1 0.199951 93.3001 0.199951 60.2001C0.199951 27.1001 27 0.300049 60.0999 0.300049C93.1999 0.300049 120 27.1001 120 60.2001ZM36.2 83.9001H65.8999C66.3999 83.9001 66.5999 83.3001 66.3999 82.9001L42.4 53.2001C42 52.8001 41.5 53.0001 41.4 53.4001L35.5999 83.1001C35.4999 83.6001 35.8 83.9001 36.2 83.9001ZM35.5999 39.1001H65.3C65.7 39.1001 65.9999 39.5 65.8999 39.8L60.0999 69.5001C59.9999 70.0001 59.3999 70.1001 59.0999 69.7001L35.0999 39.9001C34.8999 39.6001 35.0999 39.1001 35.5999 39.1001ZM68.3 39.5001C68.4 39.3001 68.5999 39.0001 68.8999 39.0001H90.3C90.7 39.0001 90.9999 39.4001 90.8999 39.7001L86.8999 59.0001C86.7999 59.3001 86.6 59.5001 86.3 59.5001H85.7C75.2 59.5001 66.8 49.8001 68.3 39.5001ZM164.2 34.9001H185.6C186.6 34.9001 187.3 35.5001 187 36.6001L185.8 43.5001C190 37.4001 196.1 33.7001 202.4 33.7001C205.5 33.7001 208.8 34.9001 210.6 36.6001C211.6 37.6001 211.6 38.2001 210.9 39.2001L204.7 48.0001C203.9 49.1001 203.4 49.0001 202.1 48.4001C200.9 47.9001 199.3 47.4001 197.7 47.4001C190.3 47.4001 184 52.3001 181.1 67.1001L176.8 89.4001C176.5 90.9001 175.4 91.2001 174.8 91.2001H163.5C162.6 91.2001 161.8 90.4001 162.1 89.4001L170.5 46.5001L163.4 36.5001C162.8 35.7001 163.2 34.9001 164.2 34.9001ZM205.1 62.6001C208 45.2001 220.8 33.7001 237.4 33.7001C254.3 33.7001 262.3 47.2 259.9 61.8C259.3 65.6 258 68.6001 254.9 68.6001H218.9C219.2 76.8001 224.9 80.7001 232.5 80.7001C237.5 80.7001 242.2 78.8001 245.7 76.5001C246.6 75.8001 247.6 75.5001 248.2 76.5001L252.3 82.9001C253 83.9001 252.6 84.6001 251.6 85.5001C246.3 90.4001 237.6 92.6001 229.7 92.6001C212 92.6001 202.4 79.5001 205.1 62.6001ZM247 58.8C247.5 50 241.5 46.3 235.8 46.3C228.2 46.3 222.4 51.4 220.1 58.8H247ZM313.7 89.8L326.6 24.0001L320.3 15.6001C320 15.0001 320.4 14.3 321.2 14.3H341C342.1 14.3 342.7 15.0001 342.4 16.0001L336.6 45.0001C341 38.3001 347.7 33.8 355.5 33.8C368 33.8 375.1 44.5001 372.4 57.6001L366 89.5001C365.8 90.7001 364.8 91.3 364 91.3H352.3C351.2 91.3 350.6 90.6001 350.8 89.5001L356.6 60.7001C358.1 52.9001 356 48.1001 351.3 48.1001C342.4 48.1001 335.4 58.1001 332.4 72.2001L328.6 89.9001C328.5 90.6001 327.9 91.2001 327.1 91.2001H314.8C314.1 91.1001 313.6 90.5 313.7 89.8ZM376.4 63.2001C379.3 44.6001 392.4 33.6001 407.7 33.6001C415.8 33.6001 422.1 37.3001 424.6 43.4001L425.9 36.6001C426.1 35.4001 427 34.8 428 34.8H438.8C440 34.8 440.5 35.6001 440.2 36.6001L429.9 89.4001C429.7 90.4001 429 91.1001 427.8 91.1001H416.9C415.9 91.1001 415.4 90.5001 415.6 89.4001L416.6 83.9001C411.5 89.7001 405.2 92.6001 398.3 92.6001C382.6 92.7001 373.8 79.7001 376.4 63.2001ZM402.7 79.2001C411.7 79.2001 418.4 71.6 419.7 62.8C421 53.9 416.2 47.2001 407.9 47.2001C399 47.2001 392.6 54.4001 391.1 62.9001C389.7 71.5001 394 79.2001 402.7 79.2001ZM436.9 89.3L447.4 36.3C447.6 35.4 448.1 34.9001 448.7 34.9001H460.5C461.5 34.9001 462.2 35.5001 461.9 36.6001L460.7 43.5001C464.9 37.4001 471 33.7001 477.2 33.7001C480.3 33.7001 483.7 34.9001 485.4 36.6001C486.4 37.6001 486.4 38.2001 485.7 39.2001L479.5 48.0001C478.7 49.1001 478.1 49.0001 476.9 48.4001C475.7 47.9001 474.1 47.4001 472.4 47.4001C465 47.4001 458.7 52.3001 455.9 67.1001L451.6 89.4001C451.3 90.9001 450.1 91.2001 449.6 91.2001H438.3C437.5 91.1001 436.7 90.3 436.9 89.3ZM475.7 107.2C475 106.7 475 105.8 475.5 105L480.7 96.8C481.3 95.9 482.1 95.7001 482.8 96.2001C487.9 99.4001 492.9 101.4 499 101.4C509.7 101.4 518.6 97.1001 521.7 82.7001C515.8 88.2001 510.4 90.9001 502.1 90.9001C486 90.9001 477.6 77.4001 480.2 62.2001C483.2 45.1001 496 33.5001 512.1 33.5001C521 33.5001 527.1 38.5001 529 42.6001L530.3 36.5001C530.5 35.3001 531.3 34.7001 532.2 34.7001H543.1C544.2 34.7001 544.8 35.4001 544.6 36.5001L535.5 83.0001C531.5 103.2 517.5 113.8 498.5 113.8C490.5 113.9 481.5 111.9 475.7 107.2ZM506.4 78.0001C515.4 78.0001 522.1 70.8001 523.4 62.2001C524.7 53.6001 520 47.2001 511.6 47.2001C502.7 47.2001 496.3 54.2 494.8 62.3C493.4 70.6 497.7 78.0001 506.4 78.0001ZM545 62.6001C547.9 45.2001 560.7 33.7001 577.3 33.7001C594.2 33.7001 602.2 47.2 599.7 61.8C599.2 65.6 597.8 68.6001 594.7 68.6001H558.7C559 76.8001 564.7 80.7001 572.3 80.7001C577.3 80.7001 582 78.8001 585.5 76.5001C586.4 75.8001 587.4 75.5001 588 76.5001L592.1 82.9001C592.8 83.9001 592.4 84.6001 591.4 85.5001C586.1 90.4001 577.4 92.6001 569.5 92.6001C551.9 92.6001 542.3 79.5001 545 62.6001ZM586.9 58.8C587.4 50 581.4 46.3 575.7 46.3C568.1 46.3 562.3 51.4 560 58.8H586.9ZM288.8 92.7001C296.3 92.7001 303.6 90.6 310.3 84.3C311.3 83.4 311.4 82.2001 310.7 81.5001L304.6 74.7001C304 74.0001 303.1 74.0001 302.4 74.6001C299.8 76.5001 295.7 78.7001 290.8 78.7001C282 78.7001 277.1 71.8001 278.2 63.2001C279.3 54.6001 286.1 47.7001 294.7 47.7001C299.4 47.7001 302.4 49.4001 305.7 52.7001C306.6 53.6001 307.1 53.6 308.1 52.8L316 46.0001C316.8 45.3001 317 44.6001 316.4 43.7001C311.6 36.9001 304.2 33.7001 296 33.7001C279.4 33.7001 266 46.0001 263.8 62.4001C261.4 80.1001 273.2 92.7001 288.8 92.7001Z" fill="#3901F1"></path>
                                            </svg>