<svg xmlns="http://www.w3.org/2000/svg" width="587" height="433" viewBox="0 0 587 433" fill="none"><path d="M528.183 403.386H489.3V403.68H528.183V403.386Z" fill="#616161"></path><path d="M388.852 406.58H378.65V406.874H388.852V406.58Z" fill="#616161"></path><path d="M488.126 392.49H465.597V392.784H488.126V392.49Z" fill="#616161"></path><path d="M112.293 394.463H61.588V394.756H112.293V394.463Z" fill="#616161"></path><path d="M130.185 394.463H122.753V394.756H130.185V394.463Z" fill="#616161"></path><path d="M264.326 399.418H154.346V399.711H264.326V399.418Z" fill="#616161"></path><path d="M278.238 332.124H51.5621C49.7842 332.124 48.0791 331.418 46.822 330.16C45.5648 328.903 44.8585 327.198 44.8585 325.419V6.70471C44.8585 4.92651 45.5648 3.22114 46.822 1.96376C48.0791 0.706387 49.7842 0 51.5621 0L278.238 0C280.016 0 281.721 0.706387 282.978 1.96376C284.235 3.22114 284.942 4.92651 284.942 6.70471V325.419C284.942 326.3 284.768 327.172 284.431 327.985C284.094 328.799 283.601 329.538 282.978 330.16C282.356 330.783 281.617 331.277 280.803 331.614C279.99 331.951 279.118 332.124 278.238 332.124ZM51.5621 0.293551C49.863 0.296655 48.2344 0.973112 47.0329 2.17477C45.8315 3.37642 45.1551 5.00532 45.152 6.70471V325.419C45.1551 327.119 45.8315 328.748 47.0329 329.949C48.2344 331.151 49.863 331.827 51.5621 331.83H278.238C279.937 331.827 281.566 331.151 282.767 329.949C283.969 328.748 284.645 327.119 284.648 325.419V6.70471C284.645 5.00532 283.969 3.37642 282.767 2.17477C281.566 0.973112 279.937 0.296655 278.238 0.293551H51.5621Z" fill="#616161"></path><path d="M532.186 332.124H305.487C303.71 332.121 302.006 331.414 300.75 330.157C299.493 328.9 298.786 327.197 298.783 325.419V6.70471C298.786 4.92747 299.493 3.2239 300.75 1.96719C302.006 0.710489 303.71 0.00310437 305.487 0L532.186 0C533.96 0.00621415 535.659 0.715344 536.911 1.97205C538.163 3.22875 538.866 4.93057 538.866 6.70471V325.419C538.866 327.193 538.163 328.895 536.911 330.152C535.659 331.409 533.96 332.118 532.186 332.124ZM305.487 0.293551C303.787 0.296655 302.159 0.973112 300.957 2.17477C299.756 3.37642 299.08 5.00532 299.076 6.70471V325.419C299.08 327.119 299.756 328.748 300.957 329.949C302.159 331.151 303.787 331.827 305.487 331.83H532.186C533.885 331.827 535.514 331.151 536.715 329.949C537.917 328.748 538.593 327.119 538.596 325.419V6.70471C538.593 5.00532 537.917 3.37642 536.715 2.17477C535.514 0.973112 533.885 0.296655 532.186 0.293551H305.487Z" fill="#616161"></path><path d="M587 384.494H0V384.787H587V384.494Z" fill="#616161"></path><path d="M304.676 258.396C304.676 259.399 304.379 260.38 303.822 261.214C303.264 262.048 302.472 262.698 301.546 263.082C300.619 263.466 299.599 263.566 298.615 263.371C297.632 263.175 296.728 262.692 296.019 261.982C295.309 261.273 294.826 260.369 294.631 259.385C294.435 258.401 294.535 257.381 294.919 256.454C295.303 255.528 295.953 254.735 296.787 254.178C297.621 253.621 298.602 253.323 299.605 253.323C300.271 253.321 300.931 253.452 301.547 253.706C302.163 253.96 302.723 254.334 303.194 254.805C303.666 255.277 304.039 255.836 304.294 256.453C304.548 257.069 304.678 257.729 304.676 258.396Z" stroke="#262626" stroke-width="3" stroke-miterlimit="10"></path><path d="M303.103 262.059L311.192 270.161" stroke="#262626" stroke-width="3" stroke-miterlimit="10"></path><path d="M523.164 63.337C526.278 44.1463 513.249 26.0638 494.061 22.9487C474.874 19.8336 456.795 32.8655 453.68 52.0562C450.566 71.2469 463.595 89.3294 482.783 92.4445C501.97 95.5595 520.049 82.5277 523.164 63.337Z" fill="#5B5B5B"></path><path d="M488.501 93.6782C479.069 93.5078 470.081 89.6405 463.47 82.9086C456.86 76.1768 453.157 67.1184 453.157 57.6829C453.157 48.2474 456.86 39.189 463.47 32.4572C470.081 25.7253 479.069 21.858 488.501 21.6876V23.2728C479.487 23.4394 470.898 27.1379 464.582 33.5729C458.266 40.0079 454.727 48.6653 454.727 57.6829C454.727 66.7005 458.266 75.3578 464.582 81.7929C470.898 88.2279 479.487 91.9264 488.501 92.093V93.6782Z" fill="#FAFAFA"></path><path d="M488.501 93.678V92.0929C493.073 92.1773 497.615 91.3497 501.863 89.6584C506.111 87.967 509.98 85.4459 513.243 82.2423C516.506 79.0386 519.097 75.2167 520.866 70.9999C522.636 66.7831 523.547 62.2558 523.547 57.6828C523.547 53.1097 522.636 48.5825 520.866 44.3657C519.097 40.1488 516.506 36.3269 513.243 33.1233C509.98 29.9197 506.111 27.3985 501.863 25.7072C497.615 24.0158 493.073 23.1882 488.501 23.2727V21.6875C493.282 21.6011 498.032 22.4684 502.474 24.2385C506.916 26.0087 510.961 28.6463 514.373 31.9973C517.784 35.3483 520.494 39.3456 522.344 43.7557C524.194 48.1658 525.146 52.9003 525.146 57.6828C525.146 62.4652 524.194 67.1997 522.344 71.6099C520.494 76.02 517.784 80.0172 514.373 83.3683C510.961 86.7193 506.916 89.3569 502.474 91.127C498.032 92.8972 493.282 93.7644 488.501 93.678Z" fill="#FAFAFA"></path><path d="M506.898 57.6888H505.313C505.313 46.0171 499.443 30.412 488.079 23.1554L488.936 21.8168C500.723 29.3552 506.898 45.5944 506.898 57.6888Z" fill="#FAFAFA"></path><path d="M488.936 92.4804L488.079 91.1535C499.396 83.8969 505.313 68.28 505.313 56.6084H506.898C506.898 68.7145 500.723 84.9185 488.936 92.4804Z" fill="#FAFAFA"></path><path d="M471.701 57.6769H470.117C470.117 45.5826 476.28 29.3786 488.079 21.8049L488.936 23.1435C477.618 30.4001 471.701 46.017 471.701 57.6769Z" fill="#FAFAFA"></path><path d="M488.079 92.4804C476.28 84.9068 470.117 68.7027 470.117 56.6084H471.701C471.701 68.2683 477.571 83.8852 488.936 91.1418L488.079 92.4804Z" fill="#FAFAFA"></path><path d="M489.3 22.4742H487.715V92.8796H489.3V22.4742Z" fill="#FAFAFA"></path><path d="M518.309 38.1382H458.717V39.7234H518.309V38.1382Z" fill="#FAFAFA"></path><path d="M523.698 57.4891H453.328V59.0743H523.698V57.4891Z" fill="#FAFAFA"></path><path d="M517.511 76.8282H459.504V78.4134H517.511V76.8282Z" fill="#FAFAFA"></path><path d="M112.223 44.6902C112.235 42.3031 111.887 39.9279 111.19 37.645L117.33 32.2436L113.467 25.5624L105.73 28.1809C102.485 24.6827 98.271 22.2301 93.6265 21.1356L92.0181 13.1276H84.3049L82.7083 21.1356C78.0604 22.23 73.843 24.6824 70.5926 28.1809L62.856 25.5624L59.0052 32.2436L65.1335 37.645C63.7564 42.2008 63.7564 47.0622 65.1335 51.618L59.0052 57.0663L62.856 63.7593L70.5926 61.1408C73.8466 64.6349 78.0625 67.0864 82.7083 68.1861L84.3049 76.1824H92.0181L93.6265 68.1039C98.2689 67.0041 102.481 64.5524 105.73 61.0586L113.467 63.6771L117.33 56.9841L111.19 51.665C111.88 49.4047 112.228 47.0537 112.223 44.6902ZM88.1674 57.6769C85.6912 57.6792 83.27 56.9468 81.2101 55.5723C79.1503 54.1978 77.5444 52.243 76.5957 49.9554C75.647 47.6677 75.3982 45.15 75.8807 42.7208C76.3632 40.2917 77.5554 38.0603 79.3063 36.309C81.0573 34.5578 83.2883 33.3654 85.717 32.8828C88.1458 32.4002 90.663 32.6491 92.9503 33.5979C95.2376 34.5468 97.192 36.1529 98.5663 38.2131C99.9405 40.2733 100.673 42.695 100.671 45.1716C100.671 48.4882 99.3532 51.669 97.0084 54.0142C94.6636 56.3594 91.4834 57.6769 88.1674 57.6769Z" fill="#5B5B5B"></path><path d="M145.329 77.9555C145.328 76.1536 145.063 74.3617 144.543 72.6364L149.239 68.5267L146.269 63.4071L140.399 65.3915C137.919 62.7476 134.712 60.8968 131.183 60.0724L130.009 53.9783H124.139L122.965 60.0724C119.432 60.8967 116.221 62.7473 113.737 65.3915L107.867 63.4071L104.92 68.4915L109.616 72.6012C108.567 76.0737 108.567 79.7787 109.616 83.2512L104.92 87.3492L107.867 92.4452L113.737 90.4491C116.221 93.0966 119.431 94.9511 122.965 95.78L124.139 101.874H130.009L131.183 95.78C134.713 94.951 137.92 93.0962 140.399 90.4491L146.269 92.4452L149.204 87.3492L144.508 83.2512C145.036 81.535 145.313 79.7512 145.329 77.9555ZM127.003 87.8541C125.117 87.8564 123.273 87.2992 121.704 86.2529C120.135 85.2067 118.911 83.7184 118.188 81.9764C117.464 80.2344 117.274 78.3169 117.64 76.4667C118.007 74.6164 118.914 72.9164 120.247 71.5818C121.579 70.2472 123.278 69.3379 125.127 68.9691C126.977 68.6002 128.894 68.7884 130.637 69.5097C132.38 70.231 133.869 71.453 134.917 73.0212C135.965 74.5894 136.524 76.4333 136.524 78.3195C136.524 80.8462 135.522 83.2696 133.736 85.0573C131.951 86.8451 129.53 87.851 127.003 87.8541Z" fill="#5B5B5B"></path><path d="M233.168 47.6727L236.279 41.3555L239.402 47.6727L246.376 48.6825L241.327 53.6024L242.525 60.5302L236.291 57.2659L230.069 60.542L231.255 53.6024L226.206 48.6943L233.168 47.6727Z" fill="#616161"></path><path d="M261.544 47.6727L264.655 41.3555L267.778 47.6727L274.739 48.6825L269.703 53.6024L270.9 60.5302L264.667 57.2659L258.433 60.542L259.618 53.6024L254.57 48.6943L261.544 47.6727Z" fill="#616161"></path><path d="M289.908 47.6727L293.019 41.3555L296.142 47.6727L303.115 48.6825L298.079 53.6024L299.276 60.5302L293.042 57.2659L286.808 60.542L287.994 53.6024L282.946 48.6943L289.908 47.6727Z" fill="#616161"></path><path d="M318.283 47.6727L321.394 41.3555L324.517 47.6727L331.491 48.6825L326.442 53.6024L327.64 60.5302L321.406 57.2659L315.184 60.542L316.37 53.6024L311.321 48.6943L318.283 47.6727Z" fill="#616161"></path><path d="M346.659 47.6727L349.77 41.3555L352.893 47.6727L359.854 48.6825L354.818 53.6024L356.015 60.5302L349.782 57.2659L343.548 60.542L344.733 53.6024L339.685 48.6943L346.659 47.6727Z" fill="#616161"></path><path d="M287.841 433C413.556 433 515.468 427.049 515.468 419.708C515.468 412.367 413.556 406.416 287.841 406.416C162.126 406.416 60.2145 412.367 60.2145 419.708C60.2145 427.049 162.126 433 287.841 433Z" fill="#5B5B5B"></path><path d="M210.921 408.013L210.686 410.714C210.661 411.042 210.697 411.373 210.792 411.688C210.839 411.835 210.902 411.977 210.98 412.111C211.066 412.242 211.16 412.367 211.261 412.487C211.362 412.606 211.481 412.709 211.613 412.792C212.007 413.083 212.486 413.236 212.975 413.226H309.713C309.943 413.231 310.173 413.199 310.394 413.132C310.547 413.082 310.697 413.019 310.84 412.945C311.186 412.769 311.487 412.516 311.72 412.205C311.816 412.085 311.899 411.955 311.967 411.817C312.122 411.556 312.229 411.27 312.284 410.972L312.507 408.377C312.545 408.068 312.508 407.754 312.401 407.461C312.355 407.323 312.296 407.189 312.225 407.062C312.04 406.757 311.782 406.503 311.474 406.322C311.341 406.253 311.204 406.195 311.063 406.146C310.847 406.076 310.621 406.04 310.394 406.04H286.303C285.999 406.046 285.696 406.014 285.399 405.946L285.059 405.864C284.93 405.827 284.804 405.78 284.683 405.723C284.568 405.676 284.458 405.617 284.355 405.547C284.183 405.463 284.022 405.361 283.873 405.242C283.694 405.098 283.525 404.941 283.368 404.772C283.286 404.666 283.204 404.572 283.122 404.455L282.957 404.208L282.899 404.126C282.828 404.015 282.769 403.897 282.723 403.774L282.582 403.469C282.588 403.446 282.588 403.421 282.582 403.398C282.59 403.371 282.59 403.343 282.582 403.316C282.583 403.296 282.583 403.277 282.582 403.257C282.546 403.171 282.522 403.08 282.511 402.987C282.499 402.854 282.499 402.721 282.511 402.588C282.511 402.471 282.511 402.33 282.511 402.212C282.511 402.095 282.511 401.954 282.511 401.837V401.578C282.511 401.461 282.511 401.332 282.511 401.202C282.511 401.073 282.57 400.956 282.594 400.815L292.056 364.497L293.876 357.534L295.296 352.074H240.353L237.406 357.534L233.649 364.497L212.283 404.126L212.06 404.537L211.848 405.007C211.79 405.171 211.719 405.336 211.66 405.512L211.555 405.829C211.263 406.531 211.05 407.263 210.921 408.013Z" fill="#262626"></path><path opacity="0.2" d="M312.472 408.306L312.284 410.972C312.226 411.607 311.935 412.199 311.467 412.633C310.998 413.066 310.386 413.311 309.748 413.32H212.999C212.672 413.332 212.346 413.274 212.044 413.149C211.742 413.024 211.47 412.835 211.247 412.595C211.024 412.356 210.856 412.071 210.753 411.761C210.65 411.45 210.615 411.121 210.651 410.796L210.886 408.095C210.946 407.373 211.088 406.66 211.308 405.97C211.507 405.362 211.759 404.773 212.06 404.208L240.142 352.168H295.085L282.382 400.909C282.298 401.188 282.247 401.475 282.23 401.766C282.149 402.729 282.423 403.688 283.001 404.462C283.578 405.236 284.419 405.772 285.364 405.97C285.66 406.038 285.964 406.07 286.268 406.064H310.323C310.616 406.055 310.907 406.107 311.178 406.218C311.449 406.329 311.694 406.495 311.897 406.707C312.099 406.918 312.255 407.17 312.354 407.446C312.453 407.721 312.493 408.014 312.472 408.306Z" fill="#FAFAFA"></path><path d="M208.972 404.138L237.042 352.074H240.153L212.071 404.138C211.419 405.336 211.019 406.654 210.897 408.013L210.663 410.714C210.627 411.039 210.662 411.368 210.765 411.678C210.868 411.989 211.036 412.274 211.259 412.513C211.482 412.753 211.754 412.941 212.056 413.067C212.358 413.192 212.684 413.25 213.011 413.238H209.899C209.573 413.25 209.247 413.192 208.945 413.067C208.642 412.941 208.371 412.753 208.148 412.513C207.925 412.274 207.756 411.989 207.654 411.678C207.551 411.368 207.516 411.039 207.551 410.714L207.786 408.013C207.907 406.653 208.311 405.333 208.972 404.138Z" fill="#262626"></path><path opacity="0.3" d="M240.177 352.074H295.108L291.868 364.52H233.462L240.177 352.074Z" fill="black"></path><path d="M146.961 179.571V348.962C146.96 350.088 147.18 351.203 147.609 352.243C148.038 353.284 148.668 354.23 149.463 355.027C150.258 355.824 151.202 356.456 152.241 356.889C153.28 357.321 154.394 357.544 155.52 357.546H389.932C391.058 357.544 392.172 357.321 393.211 356.889C394.25 356.456 395.194 355.824 395.989 355.027C396.784 354.23 397.414 353.284 397.843 352.243C398.272 351.203 398.492 350.088 398.491 348.962V179.571C398.492 178.445 398.272 177.33 397.842 176.289C397.411 175.248 396.78 174.303 395.984 173.507C395.188 172.71 394.243 172.079 393.202 171.649C392.162 171.219 391.047 170.998 389.921 171H155.543C153.659 170.997 151.827 171.616 150.331 172.761C150.121 172.92 149.921 173.093 149.732 173.277C149.155 173.797 148.656 174.399 148.253 175.062C147.969 175.506 147.733 175.978 147.548 176.471C147.167 177.461 146.968 178.511 146.961 179.571Z" fill="#262626"></path><path d="M398.491 330.656V348.974C398.491 350.1 398.269 351.214 397.838 352.254C397.408 353.294 396.776 354.239 395.981 355.035C395.185 355.831 394.24 356.462 393.2 356.893C392.161 357.324 391.046 357.546 389.921 357.546H155.543C154.418 357.546 153.303 357.324 152.264 356.893C151.224 356.462 150.279 355.831 149.483 355.035C148.687 354.239 148.056 353.294 147.625 352.254C147.195 351.214 146.973 350.1 146.973 348.974V330.656H398.491Z" fill="#95BF47"></path><path opacity="0.6" d="M398.491 330.656V348.974C398.491 350.1 398.269 351.214 397.838 352.254C397.408 353.294 396.776 354.239 395.981 355.035C395.185 355.831 394.24 356.462 393.2 356.893C392.161 357.324 391.046 357.546 389.921 357.546H155.543C154.418 357.546 153.303 357.324 152.264 356.893C151.224 356.462 150.279 355.831 149.483 355.035C148.687 354.239 148.056 353.294 147.625 352.254C147.195 351.214 146.973 350.1 146.973 348.974V330.656H398.491Z" fill="#FAFAFA"></path><path d="M155.696 325.478H389.768C391.013 325.478 392.208 324.983 393.089 324.102C393.969 323.221 394.464 322.027 394.464 320.781V180.828C394.464 179.582 393.969 178.387 393.089 177.506C392.208 176.626 391.013 176.131 389.768 176.131H155.696C154.45 176.131 153.256 176.626 152.375 177.506C151.495 178.387 151 179.582 151 180.828V320.828C151.012 322.066 151.512 323.248 152.392 324.119C153.271 324.99 154.459 325.478 155.696 325.478Z" fill="#95BF47"></path><path d="M150.354 171H155.543C153.27 171 151.09 171.903 149.483 173.51C147.876 175.118 146.973 177.298 146.973 179.571V348.974C146.973 351.247 147.876 353.427 149.483 355.035C151.09 356.642 153.27 357.546 155.543 357.546H150.354C148.081 357.546 145.901 356.642 144.294 355.035C142.687 353.427 141.784 351.247 141.784 348.974V179.571C141.784 177.298 142.687 175.118 144.294 173.51C145.901 171.903 148.081 171 150.354 171Z" fill="#262626"></path><g opacity="0.2"><path opacity="0.2" d="M150.354 171H155.543C153.27 171 151.09 171.903 149.483 173.51C147.876 175.118 146.973 177.298 146.973 179.571V348.974C146.973 351.247 147.876 353.427 149.483 355.035C151.09 356.642 153.27 357.546 155.543 357.546H150.354C148.081 357.546 145.901 356.642 144.294 355.035C142.687 353.427 141.784 351.247 141.784 348.974V179.571C141.784 177.298 142.687 175.118 144.294 173.51C145.901 171.903 148.081 171 150.354 171Z" fill="#FAFAFA"></path></g><path opacity="0.5" d="M395.849 265.37C389.815 264.196 380.259 268.106 378.474 273.977C378.675 272.185 378.355 270.372 377.554 268.757C376.752 267.141 375.503 265.79 373.954 264.865C370.843 263.069 366.769 261.801 363.905 263.961C365.263 258.191 364.987 252.156 363.108 246.534C361.23 240.911 357.822 235.923 353.268 232.129C344.088 224.696 330.692 223.909 320.091 229.087C321.623 226.143 322.492 222.899 322.638 219.583C322.783 216.267 322.201 212.96 320.932 209.893C319.663 206.825 317.739 204.073 315.294 201.829C312.849 199.585 309.942 197.904 306.778 196.902C292.033 191.763 276.265 190.264 260.816 192.534C251.882 193.861 242.771 196.656 236.279 202.926C229.787 209.196 228.061 220.539 232.429 228.43C227.388 226.805 221.999 226.591 216.845 227.812C211.692 229.034 206.971 231.643 203.196 235.358C199.556 239.159 197.035 243.891 195.911 249.033C194.786 254.175 195.101 259.527 196.821 264.501C195.435 263.681 193.866 263.22 192.256 263.16C190.647 263.101 189.048 263.445 187.605 264.161C186.183 264.882 184.968 265.954 184.075 267.275C183.181 268.596 182.639 270.122 182.498 271.711C180.621 269.233 178.176 267.242 175.369 265.906C172.563 264.57 169.476 263.928 166.369 264.034C163.263 264.14 160.227 264.991 157.518 266.515C154.808 268.039 152.504 270.191 150.8 272.791V325.513H394.464L395.849 265.37Z" fill="#FAFAFA"></path><path d="M341.552 242.192H216.028C209.641 242.192 204.464 247.37 204.464 253.757C204.464 260.145 209.641 265.323 216.028 265.323H341.552C347.938 265.323 353.116 260.145 353.116 253.757C353.116 247.37 347.938 242.192 341.552 242.192Z" fill="#FAFAFA"></path><path d="M220.383 251.35C220.383 252.354 220.086 253.334 219.529 254.169C218.971 255.003 218.179 255.653 217.252 256.037C216.326 256.421 215.306 256.521 214.322 256.326C213.338 256.13 212.435 255.647 211.725 254.937C211.016 254.228 210.533 253.324 210.337 252.34C210.142 251.356 210.242 250.336 210.626 249.409C211.01 248.482 211.66 247.69 212.494 247.133C213.328 246.575 214.309 246.278 215.312 246.278C215.978 246.276 216.638 246.406 217.254 246.661C217.87 246.915 218.43 247.289 218.901 247.76C219.373 248.231 219.746 248.791 220 249.407C220.255 250.024 220.385 250.684 220.383 251.35V251.35Z" stroke="#262626" stroke-width="3" stroke-miterlimit="10"></path><path d="M218.81 255.014L226.899 263.116" stroke="#262626" stroke-width="3" stroke-miterlimit="10"></path><g opacity="0.1"><path opacity="0.1" d="M315.184 176.178H324.177L342.855 325.478H333.85L315.184 176.178Z" fill="#FAFAFA"></path><path opacity="0.1" d="M351.953 325.478L333.287 176.178H367.11L385.776 325.478H351.953Z" fill="#FAFAFA"></path></g><path opacity="0.2" d="M227.603 408.33L227.392 410.807C227.359 411.117 227.392 411.43 227.488 411.726C227.585 412.021 227.744 412.293 227.954 412.523C228.163 412.753 228.42 412.935 228.705 413.059C228.991 413.182 229.3 413.243 229.611 413.238H309.713C310.35 413.226 310.961 412.981 311.429 412.548C311.896 412.114 312.188 411.524 312.249 410.89L312.472 408.295C312.507 407.997 312.478 407.695 312.387 407.409C312.296 407.123 312.144 406.86 311.943 406.637C311.742 406.415 311.495 406.238 311.22 406.119C310.944 406 310.647 405.941 310.347 405.946H286.292C285.991 405.951 285.692 405.92 285.399 405.852H230.221C229.558 405.875 228.926 406.14 228.444 406.596C227.962 407.052 227.663 407.669 227.603 408.33Z" fill="#FAFAFA"></path><path opacity="0.2" d="M211.32 405.888H285.399C284.454 405.692 283.613 405.156 283.037 404.381C282.461 403.606 282.19 402.646 282.277 401.684H213.668L211.32 405.888Z" fill="black"></path><path d="M249.205 228.312L250.825 224.708C252.831 226.095 255.207 226.848 257.646 226.868C260.475 226.868 261.626 225.917 261.626 224.649C261.626 220.786 249.616 223.475 249.616 215.772C249.616 212.249 252.445 209.337 258.315 209.337C260.828 209.285 263.308 209.918 265.488 211.169L264.009 214.797C262.276 213.771 260.306 213.212 258.292 213.177C255.462 213.177 254.371 214.234 254.371 215.525C254.371 219.33 266.381 216.7 266.381 224.285C266.381 227.737 263.516 230.684 257.611 230.684C254.634 230.759 251.704 229.933 249.205 228.312Z" fill="#688632"></path><path d="M285.646 226.504V230.344H269.656V209.69H285.282V213.529H274.423V218.015H284.014V221.725H274.423V226.504H285.646Z" fill="#688632"></path><path d="M288.1 220.023C288.1 213.881 292.878 209.337 299.393 209.337C305.909 209.337 310.699 213.846 310.699 220.023C310.699 226.199 305.886 230.696 299.393 230.696C292.901 230.696 288.1 226.152 288.1 220.023ZM305.862 220.023C305.837 218.75 305.437 217.513 304.711 216.466C303.986 215.42 302.969 214.611 301.786 214.14C300.604 213.67 299.308 213.558 298.063 213.821C296.817 214.083 295.677 214.707 294.784 215.614C293.891 216.521 293.286 217.672 293.044 218.922C292.802 220.172 292.934 221.465 293.424 222.64C293.913 223.815 294.739 224.82 295.796 225.528C296.854 226.236 298.097 226.617 299.37 226.622C300.239 226.648 301.104 226.495 301.911 226.172C302.718 225.848 303.449 225.361 304.059 224.742C304.668 224.122 305.143 223.383 305.454 222.571C305.764 221.759 305.903 220.891 305.862 220.023Z" fill="#688632"></path><path opacity="0.8" d="M272.626 280.506H223.084C220.587 280.506 218.564 282.53 218.564 285.027V295.5C218.564 297.997 220.587 300.021 223.084 300.021H272.626C275.123 300.021 277.146 297.997 277.146 295.5V285.027C277.146 282.53 275.123 280.506 272.626 280.506Z" fill="#FAFAFA"></path><path opacity="0.8" d="M344.475 280.506H294.932C292.436 280.506 290.412 282.53 290.412 285.027V295.5C290.412 297.997 292.436 300.021 294.932 300.021H344.475C346.971 300.021 348.995 297.997 348.995 295.5V285.027C348.995 282.53 346.971 280.506 344.475 280.506Z" fill="#FAFAFA"></path><path d="M246.446 182.824L275.55 131.159C275.652 130.978 275.8 130.828 275.98 130.723C276.159 130.619 276.363 130.563 276.571 130.563C276.779 130.563 276.983 130.619 277.162 130.723C277.341 130.828 277.49 130.978 277.592 131.159L306.696 182.824C306.796 183.002 306.848 183.204 306.846 183.409C306.845 183.614 306.789 183.814 306.686 183.991C306.583 184.168 306.435 184.315 306.258 184.417C306.08 184.519 305.879 184.573 305.674 184.573H247.479C247.273 184.575 247.071 184.523 246.892 184.421C246.713 184.32 246.563 184.174 246.459 183.996C246.354 183.819 246.298 183.618 246.296 183.412C246.293 183.206 246.345 183.003 246.446 182.824Z" fill="#95BF47"></path><path opacity="0.3" d="M246.446 182.824L275.55 131.159C275.652 130.978 275.8 130.828 275.98 130.723C276.159 130.619 276.363 130.563 276.571 130.563C276.779 130.563 276.983 130.619 277.162 130.723C277.341 130.828 277.49 130.978 277.592 131.159L306.696 182.824C306.796 183.002 306.848 183.204 306.846 183.409C306.845 183.614 306.789 183.814 306.686 183.991C306.583 184.168 306.435 184.315 306.258 184.417C306.08 184.519 305.879 184.573 305.674 184.573H247.479C247.273 184.575 247.071 184.523 246.892 184.421C246.713 184.32 246.563 184.174 246.459 183.996C246.354 183.819 246.298 183.618 246.296 183.412C246.293 183.206 246.345 183.003 246.446 182.824Z" fill="black"></path><path d="M262.741 192.3L261.321 186.499H256.225L254.817 192.3C256.071 192.826 257.418 193.097 258.779 193.097C260.14 193.097 261.486 192.826 262.741 192.3Z" fill="#262626"></path><path opacity="0.2" d="M256.226 186.499L255.932 187.873C257.811 188.419 259.806 188.419 261.685 187.873L261.356 186.511L256.226 186.499Z" fill="#FAFAFA"></path><path opacity="0.4" d="M255.545 189.317C255.451 189.681 255.357 190.057 255.275 190.409C257.568 191.124 260.025 191.124 262.319 190.409L262.06 189.317C259.91 189.746 257.695 189.746 255.545 189.317Z" fill="#FAFAFA"></path><path d="M264.15 186.088C262.447 186.801 260.619 187.167 258.773 187.167C256.927 187.167 255.099 186.801 253.396 186.088V143.006C253.393 140.594 253.866 138.205 254.789 135.976C255.711 133.748 257.066 131.723 258.773 130.02C260.481 131.723 261.835 133.748 262.757 135.976C263.68 138.205 264.153 140.594 264.15 143.006V186.088Z" fill="#95BF47"></path><path d="M253.396 143.006V183.622C256.879 184.828 260.667 184.828 264.15 183.622V143.006C264.153 140.594 263.68 138.205 262.757 135.976C261.835 133.748 260.481 131.723 258.773 130.02C257.066 131.723 255.711 133.748 254.789 135.976C253.866 138.205 253.393 140.594 253.396 143.006Z" fill="#95BF47"></path><path opacity="0.4" d="M253.396 143.006V183.622C256.879 184.828 260.667 184.828 264.15 183.622V143.006C264.153 140.594 263.68 138.205 262.757 135.976C261.835 133.748 260.481 131.723 258.773 130.02C257.066 131.723 255.711 133.748 254.789 135.976C253.866 138.205 253.393 140.594 253.396 143.006Z" fill="#FAFAFA"></path><path d="M253.396 143.006V173.536C256.91 174.54 260.636 174.54 264.15 173.536V143.006C264.153 140.594 263.68 138.205 262.757 135.976C261.835 133.748 260.481 131.723 258.773 130.02C257.066 131.723 255.711 133.748 254.789 135.976C253.866 138.205 253.393 140.594 253.396 143.006Z" fill="#95BF47"></path><path opacity="0.6" d="M253.396 143.006V173.536C256.91 174.54 260.636 174.54 264.15 173.536V143.006C264.153 140.594 263.68 138.205 262.757 135.976C261.835 133.748 260.481 131.723 258.773 130.02C257.066 131.723 255.711 133.748 254.789 135.976C253.866 138.205 253.393 140.594 253.396 143.006Z" fill="#FAFAFA"></path><path d="M253.396 143.006V158.976C256.91 159.986 260.636 159.986 264.15 158.976V143.006C264.153 140.594 263.68 138.205 262.757 135.976C261.835 133.748 260.481 131.723 258.773 130.02C257.066 131.723 255.711 133.748 254.789 135.976C253.866 138.205 253.393 140.594 253.396 143.006Z" fill="#95BF47"></path><path opacity="0.8" d="M253.396 143.006V158.976C256.91 159.986 260.636 159.986 264.15 158.976V143.006C264.153 140.594 263.68 138.205 262.757 135.976C261.835 133.748 260.481 131.723 258.773 130.02C257.066 131.723 255.711 133.748 254.789 135.976C253.866 138.205 253.393 140.594 253.396 143.006Z" fill="#FAFAFA"></path><path d="M253.396 143.006V144.873C256.91 145.878 260.636 145.878 264.15 144.873V143.006C264.153 140.594 263.68 138.205 262.757 135.976C261.835 133.748 260.481 131.723 258.773 130.02C257.066 131.723 255.711 133.748 254.789 135.976C253.866 138.205 253.393 140.594 253.396 143.006Z" fill="#95BF47"></path><path opacity="0.4" d="M253.396 143.006V144.873C256.91 145.878 260.636 145.878 264.15 144.873V143.006C264.153 140.594 263.68 138.205 262.757 135.976C261.835 133.748 260.481 131.723 258.773 130.02C257.066 131.723 255.711 133.748 254.789 135.976C253.866 138.205 253.393 140.594 253.396 143.006Z" fill="#FAFAFA"></path><path d="M297.339 192.3L295.93 186.499H290.835L289.414 192.3C290.669 192.826 292.016 193.097 293.377 193.097C294.737 193.097 296.084 192.826 297.339 192.3Z" fill="#262626"></path><path opacity="0.2" d="M290.835 186.499L290.506 187.861C292.385 188.407 294.38 188.407 296.259 187.861L295.93 186.499H290.835Z" fill="#FAFAFA"></path><path opacity="0.4" d="M290.142 189.317C290.06 189.681 289.966 190.057 289.884 190.409C292.178 191.124 294.634 191.124 296.928 190.409L296.658 189.317C294.507 189.746 292.293 189.746 290.142 189.317Z" fill="#FAFAFA"></path><path d="M298.76 186.088C297.056 186.801 295.229 187.167 293.383 187.167C291.537 187.167 289.709 186.801 288.006 186.088V143.006C288.002 140.594 288.475 138.205 289.398 135.976C290.321 133.748 291.675 131.723 293.383 130.02C295.09 131.723 296.444 133.748 297.367 135.976C298.29 138.205 298.763 140.594 298.76 143.006V186.088Z" fill="#95BF47"></path><path d="M288.006 143.006V183.622C291.489 184.828 295.276 184.828 298.76 183.622V143.006C298.763 140.594 298.29 138.205 297.367 135.976C296.444 133.748 295.09 131.723 293.383 130.02C291.675 131.723 290.321 133.748 289.398 135.976C288.475 138.205 288.002 140.594 288.006 143.006Z" fill="#95BF47"></path><path opacity="0.4" d="M288.006 143.006V183.622C291.489 184.828 295.276 184.828 298.76 183.622V143.006C298.763 140.594 298.29 138.205 297.367 135.976C296.444 133.748 295.09 131.723 293.383 130.02C291.675 131.723 290.321 133.748 289.398 135.976C288.475 138.205 288.002 140.594 288.006 143.006Z" fill="#FAFAFA"></path><path d="M288.006 143.006V173.536C291.52 174.54 295.245 174.54 298.76 173.536V143.006C298.763 140.594 298.29 138.205 297.367 135.976C296.444 133.748 295.09 131.723 293.383 130.02C291.675 131.723 290.321 133.748 289.398 135.976C288.475 138.205 288.002 140.594 288.006 143.006Z" fill="#95BF47"></path><path opacity="0.6" d="M288.006 143.006V173.536C291.52 174.54 295.245 174.54 298.76 173.536V143.006C298.763 140.594 298.29 138.205 297.367 135.976C296.444 133.748 295.09 131.723 293.383 130.02C291.675 131.723 290.321 133.748 289.398 135.976C288.475 138.205 288.002 140.594 288.006 143.006Z" fill="#FAFAFA"></path><path d="M288.006 143.006V158.976C291.519 159.986 295.246 159.986 298.76 158.976V143.006C298.763 140.594 298.29 138.205 297.367 135.976C296.444 133.748 295.09 131.723 293.383 130.02C291.675 131.723 290.321 133.748 289.398 135.976C288.475 138.205 288.002 140.594 288.006 143.006Z" fill="#95BF47"></path><path opacity="0.8" d="M288.006 143.006V158.976C291.519 159.986 295.246 159.986 298.76 158.976V143.006C298.763 140.594 298.29 138.205 297.367 135.976C296.444 133.748 295.09 131.723 293.383 130.02C291.675 131.723 290.321 133.748 289.398 135.976C288.475 138.205 288.002 140.594 288.006 143.006Z" fill="#FAFAFA"></path><path d="M288.006 143.006V144.873C291.52 145.878 295.245 145.878 298.76 144.873V143.006C298.763 140.594 298.29 138.205 297.367 135.976C296.444 133.748 295.09 131.723 293.383 130.02C291.675 131.723 290.321 133.748 289.398 135.976C288.475 138.205 288.002 140.594 288.006 143.006Z" fill="#95BF47"></path><path opacity="0.4" d="M288.006 143.006V144.873C291.52 145.878 295.245 145.878 298.76 144.873V143.006C298.763 140.594 298.29 138.205 297.367 135.976C296.444 133.748 295.09 131.723 293.383 130.02C291.675 131.723 290.321 133.748 289.398 135.976C288.475 138.205 288.002 140.594 288.006 143.006Z" fill="#FAFAFA"></path><path d="M282.476 195.634L280.128 186.241H271.91L269.621 195.634C271.656 196.489 273.841 196.928 276.048 196.928C278.256 196.928 280.441 196.489 282.476 195.634Z" fill="#262626"></path><path opacity="0.2" d="M271.969 186.276C271.969 186.276 271.628 187.673 271.429 188.46C274.465 189.346 277.691 189.346 280.727 188.46L280.187 186.276H271.969Z" fill="#FAFAFA"></path><path opacity="0.4" d="M270.854 190.82C270.713 191.407 270.572 191.994 270.431 192.581C274.109 193.721 278.046 193.721 281.725 192.581L281.302 190.832C277.852 191.508 274.302 191.504 270.854 190.82Z" fill="#FAFAFA"></path><path d="M284.765 185.607C282.012 186.749 279.059 187.338 276.078 187.338C273.096 187.338 270.144 186.749 267.39 185.607V116.047C267.391 112.157 268.159 108.306 269.649 104.713C271.14 101.121 273.325 97.8576 276.078 95.1106C278.835 97.8618 281.022 101.131 282.513 104.73C284.004 108.328 284.769 112.186 284.765 116.082V185.607Z" fill="#95BF47"></path><path d="M267.39 116.047V181.626C273.019 183.57 279.137 183.57 284.765 181.626V116.047C284.765 112.157 283.997 108.306 282.506 104.713C281.016 101.121 278.831 97.8576 276.078 95.1106C273.325 97.8576 271.14 101.121 269.649 104.713C268.159 108.306 267.391 112.157 267.39 116.047Z" fill="#95BF47"></path><path opacity="0.4" d="M267.39 116.047V181.626C273.019 183.57 279.137 183.57 284.765 181.626V116.047C284.765 112.157 283.997 108.306 282.506 104.713C281.016 101.121 278.831 97.8576 276.078 95.1106C273.325 97.8576 271.14 101.121 269.649 104.713C268.159 108.306 267.391 112.157 267.39 116.047Z" fill="#FAFAFA"></path><path d="M267.39 116.047V165.293C273.068 166.92 279.088 166.92 284.765 165.293V116.047C284.765 112.157 283.997 108.306 282.506 104.713C281.016 101.121 278.831 97.8576 276.078 95.1106C273.325 97.8576 271.14 101.121 269.649 104.713C268.159 108.306 267.391 112.157 267.39 116.047Z" fill="#95BF47"></path><path opacity="0.6" d="M267.39 116.047V165.293C273.068 166.92 279.088 166.92 284.765 165.293V116.047C284.765 112.157 283.997 108.306 282.506 104.713C281.016 101.121 278.831 97.8576 276.078 95.1106C273.325 97.8576 271.14 101.121 269.649 104.713C268.159 108.306 267.391 112.157 267.39 116.047Z" fill="#FAFAFA"></path><path d="M267.39 116.047V141.879C273.069 143.498 279.087 143.498 284.765 141.879V116.047C284.765 112.157 283.997 108.306 282.506 104.713C281.016 101.121 278.831 97.8576 276.078 95.1106C273.325 97.8576 271.14 101.121 269.649 104.713C268.159 108.306 267.391 112.157 267.39 116.047Z" fill="#95BF47"></path><path opacity="0.8" d="M267.39 116.047V141.879C273.069 143.498 279.087 143.498 284.765 141.879V116.047C284.765 112.157 283.997 108.306 282.506 104.713C281.016 101.121 278.831 97.8576 276.078 95.1106C273.325 97.8576 271.14 101.121 269.649 104.713C268.159 108.306 267.391 112.157 267.39 116.047Z" fill="#FAFAFA"></path><path d="M267.39 116.047V119.053C273.069 120.671 279.087 120.671 284.765 119.053V116.047C284.765 112.157 283.997 108.306 282.506 104.713C281.016 101.121 278.831 97.8576 276.078 95.1106C273.325 97.8576 271.14 101.121 269.649 104.713C268.159 108.306 267.391 112.157 267.39 116.047Z" fill="#95BF47"></path><path opacity="0.1" d="M267.39 116.047V119.053C273.069 120.671 279.087 120.671 284.765 119.053V116.047C284.765 112.157 283.997 108.306 282.506 104.713C281.016 101.121 278.831 97.8576 276.078 95.1106C273.325 97.8576 271.14 101.121 269.649 104.713C268.159 108.306 267.391 112.157 267.39 116.047Z" fill="#FAFAFA"></path><path d="M281.138 129.961C281.138 130.962 280.841 131.94 280.285 132.773C279.729 133.605 278.939 134.254 278.014 134.637C277.09 135.02 276.072 135.12 275.091 134.925C274.109 134.729 273.208 134.247 272.5 133.54C271.792 132.832 271.31 131.93 271.115 130.948C270.92 129.967 271.02 128.949 271.403 128.024C271.786 127.1 272.435 126.309 273.267 125.753C274.099 125.197 275.077 124.9 276.078 124.9C276.742 124.9 277.4 125.031 278.014 125.285C278.628 125.54 279.186 125.912 279.656 126.382C280.126 126.852 280.498 127.41 280.753 128.024C281.007 128.638 281.138 129.296 281.138 129.961Z" fill="#95BF47"></path><path d="M276.078 135.034C274.8 135.034 273.569 134.549 272.635 133.677C271.7 132.806 271.131 131.612 271.041 130.337C271.041 130.454 271.041 130.583 271.041 130.713C271.041 132.055 271.574 133.342 272.523 134.291C273.472 135.24 274.759 135.773 276.101 135.773C277.443 135.773 278.73 135.24 279.679 134.291C280.628 133.342 281.161 132.055 281.161 130.713C281.161 130.583 281.161 130.454 281.161 130.337C281.069 131.619 280.492 132.818 279.548 133.69C278.604 134.563 277.363 135.043 276.078 135.034Z" fill="#95BF47"></path><path opacity="0.3" d="M276.078 135.034C274.8 135.034 273.569 134.549 272.635 133.677C271.7 132.806 271.131 131.612 271.041 130.337C271.041 130.454 271.041 130.583 271.041 130.713C271.041 132.055 271.574 133.342 272.523 134.291C273.472 135.24 274.759 135.773 276.101 135.773C277.443 135.773 278.73 135.24 279.679 134.291C280.628 133.342 281.161 132.055 281.161 130.713C281.161 130.583 281.161 130.454 281.161 130.337C281.069 131.619 280.492 132.818 279.548 133.69C278.604 134.563 277.363 135.043 276.078 135.034Z" fill="black"></path><path d="M276.078 133.542C278.055 133.542 279.659 131.939 279.659 129.961C279.659 127.983 278.055 126.38 276.078 126.38C274.1 126.38 272.497 127.983 272.497 129.961C272.497 131.939 274.1 133.542 276.078 133.542Z" fill="#FAFAFA"></path><path d="M275.89 133.519L277.358 126.626C276.982 126.484 276.585 126.405 276.184 126.391L274.716 133.261C275.09 133.411 275.487 133.499 275.89 133.519Z" fill="#95BF47"></path><path d="M277.228 133.331L278.496 127.342C278.331 127.193 278.154 127.055 277.968 126.932L276.571 133.495C276.794 133.459 277.014 133.404 277.228 133.331Z" fill="#95BF47"></path><g opacity="0.7"><path opacity="0.7" d="M275.89 133.519L277.358 126.626C276.982 126.484 276.585 126.405 276.184 126.391L274.716 133.261C275.09 133.411 275.487 133.499 275.89 133.519Z" fill="#FAFAFA"></path><path opacity="0.7" d="M277.228 133.331L278.496 127.343C278.331 127.193 278.154 127.055 277.968 126.932L276.571 133.495C276.794 133.459 277.014 133.404 277.228 133.331Z" fill="#FAFAFA"></path></g><path d="M405.699 265.734L404.349 266.016C403.745 266.142 403.194 266.453 402.773 266.905C402.353 267.357 402.083 267.929 402.001 268.541L401.884 269.492C401.823 269.967 401.88 270.449 402.047 270.897C402.215 271.345 402.489 271.745 402.846 272.063C405.065 274.001 410.301 277.594 416.641 275.269L421.701 271.465L420.867 264.631L410.301 263.104C409.661 263.123 409.046 263.354 408.552 263.762L405.699 265.734Z" fill="#FAB27B"></path><path d="M421.736 271.465L435.789 270.76L433.617 263.116L420.902 264.631L421.736 271.465Z" fill="#FAB27B"></path><path d="M430.107 263.163C429.534 264.242 429.336 265.481 429.543 266.686C429.799 268.636 430.582 270.479 431.809 272.016C429.44 272.04 427.108 272.615 425 273.696L424.882 273.754C417.557 268.752 421.783 262.822 421.783 262.822L422.264 262.881C424.861 263.256 427.49 263.351 430.107 263.163Z" fill="#95BF47"></path><path d="M458.881 269.48C445.826 272.486 429.59 272.193 429.59 272.193C429.055 271.29 428.813 270.244 428.897 269.198C429.015 267.014 429.308 264.278 430.071 263.163C430.834 262.047 436.481 261.484 436.481 261.484C436.481 261.484 447.388 256.423 449.454 254.767C451.52 253.112 451.438 245.374 451.051 240.278C448.973 212.954 453.774 210.923 458.095 209.678C467.252 207.13 470.434 266.815 458.881 269.48Z" fill="#95BF47"></path><path d="M369.434 275.339H405.922C407.096 275.339 407.648 274.377 407.096 273.191L397.986 252.595C397.702 251.995 397.264 251.481 396.718 251.104C396.172 250.727 395.536 250.5 394.875 250.446H358.375C357.201 250.446 356.649 251.409 357.201 252.595L366.358 273.191C366.639 273.786 367.07 274.298 367.61 274.675C368.15 275.052 368.779 275.281 369.434 275.339Z" fill="#95BF47"></path><path opacity="0.2" d="M369.434 275.339H405.922C407.096 275.339 407.648 274.377 407.096 273.191L397.986 252.595C397.702 251.995 397.264 251.481 396.718 251.104C396.172 250.727 395.536 250.5 394.875 250.446H358.375C357.201 250.446 356.649 251.409 357.201 252.595L366.358 273.191C366.639 273.786 367.07 274.298 367.61 274.675C368.15 275.052 368.779 275.281 369.434 275.339Z" fill="black"></path><path d="M356.79 250.446H358.375C357.201 250.446 356.649 251.409 357.201 252.595L366.358 273.191C366.641 273.789 367.076 274.303 367.62 274.681C368.164 275.058 368.798 275.285 369.458 275.339H367.885C367.223 275.286 366.587 275.059 366.041 274.682C365.495 274.305 365.058 273.79 364.774 273.191L355.628 252.595C355.076 251.409 355.605 250.446 356.79 250.446Z" fill="#95BF47"></path><path opacity="0.4" d="M356.79 250.446H358.375C357.201 250.446 356.649 251.409 357.201 252.595L366.358 273.191C366.641 273.789 367.076 274.303 367.62 274.681C368.164 275.058 368.798 275.285 369.458 275.339H367.885C367.223 275.286 366.587 275.059 366.041 274.682C365.495 274.305 365.058 273.79 364.774 273.191L355.628 252.595C355.076 251.409 355.605 250.446 356.79 250.446Z" fill="black"></path><path d="M370.115 272.967H403.14L394.182 252.818H361.158L370.115 272.967Z" fill="#262626"></path><path opacity="0.8" d="M370.115 272.967H403.14L394.182 252.818H361.158L370.115 272.967Z" fill="#FAFAFA"></path><path d="M478.781 273.731C478.781 273.731 479.685 285.766 479.814 290.005C480.694 318.186 457.649 320.394 440.696 317.282L379.296 300.115C376.866 308.335 348.478 353.213 348.478 353.213L333.557 344.641C333.557 344.641 349.03 307.548 359.021 281.727C364.715 266.991 411.123 277.183 428.216 280.212C433.406 281.621 432.408 273.508 432.408 273.508L478.781 273.731Z" fill="#262626"></path><path d="M344.675 352.367L338.969 361.867L328.344 356.583L333.874 345.756L344.675 352.367Z" fill="#FAB27B"></path><path d="M322.686 354.61C321.289 353.964 319.95 353.048 319.762 352.262C319.719 352.033 319.748 351.796 319.848 351.585C319.947 351.374 320.11 351.2 320.314 351.087C320.484 350.972 320.676 350.891 320.877 350.851C321.079 350.811 321.287 350.811 321.488 350.853C323.613 351.193 326.525 355.244 326.642 355.42C326.679 355.469 326.699 355.529 326.699 355.59C326.699 355.652 326.679 355.712 326.642 355.761C326.605 355.807 326.556 355.843 326.5 355.863C326.444 355.884 326.384 355.889 326.325 355.878C325.079 355.558 323.861 355.134 322.686 354.61ZM321.899 351.592C321.729 351.509 321.547 351.454 321.359 351.428C321.242 351.392 321.117 351.385 320.997 351.408C320.876 351.43 320.763 351.481 320.666 351.557C320.314 351.804 320.302 351.992 320.338 352.121C320.525 353.095 323.367 354.469 325.585 355.115C324.589 353.726 323.338 352.538 321.899 351.616V351.592Z" fill="#95BF47"></path><path d="M326.243 355.866C326.202 355.859 326.165 355.838 326.137 355.808C325.069 354.633 323.472 350.9 324.294 349.749C324.458 349.455 324.858 349.185 325.632 349.444C325.915 349.541 326.174 349.696 326.394 349.898C326.614 350.1 326.79 350.345 326.912 350.618C327.804 352.461 326.712 355.643 326.666 355.784C326.648 355.835 326.617 355.879 326.575 355.912C326.534 355.945 326.484 355.966 326.431 355.972C326.357 355.962 326.29 355.924 326.243 355.866ZM325.574 349.995L325.433 349.913C324.928 349.737 324.811 349.913 324.764 349.972C324.341 350.712 325.245 353.436 326.266 354.904C326.716 353.563 326.745 352.116 326.349 350.759C326.192 350.418 325.916 350.147 325.574 349.995Z" fill="#95BF47"></path><path d="M328.156 354.833L340.46 360.481C340.678 360.581 340.858 360.75 340.97 360.963C341.083 361.175 341.122 361.418 341.082 361.655L338.734 372.693C338.635 373.164 338.354 373.577 337.951 373.841C337.548 374.105 337.057 374.199 336.586 374.102C336.461 374.073 336.34 374.034 336.222 373.984C331.819 371.871 328.004 369.828 322.451 367.303C315.935 364.321 317.227 365.859 309.537 362.465C304.841 360.411 306.449 354.774 308.515 355.42C318.001 358.391 320.173 356.113 325.104 354.481C326.131 354.225 327.215 354.35 328.156 354.833Z" fill="#262626"></path><path opacity="0.2" d="M341.775 357.193L344.675 352.367L333.874 345.756L331.197 350.993L341.775 357.193Z" fill="black"></path><path d="M350.85 352.32L332.348 340.766C331.506 341.236 330.829 341.953 330.409 342.821C329.989 343.688 329.846 344.664 330 345.616L347.798 356.958C347.798 356.958 350.181 356.864 350.85 352.32Z" fill="#95BF47"></path><path d="M376.161 399.617L373.919 410.162L362.484 408.659L364.151 396.964L376.161 399.617Z" fill="#FAB27B"></path><path d="M356.673 408.623C355.182 408.483 353.667 408.06 353.233 407.367C353.125 407.172 353.081 406.949 353.106 406.728C353.131 406.507 353.225 406.299 353.374 406.134C353.488 405.979 353.632 405.849 353.798 405.75C353.963 405.651 354.146 405.586 354.337 405.559C356.391 405.195 360.348 408.001 360.524 408.13C360.57 408.164 360.606 408.212 360.625 408.266C360.643 408.321 360.645 408.38 360.629 408.436C360.611 408.492 360.577 408.542 360.532 408.58C360.486 408.617 360.43 408.641 360.371 408.647C359.14 408.751 357.902 408.743 356.673 408.623ZM354.994 406.099C354.811 406.075 354.625 406.075 354.442 406.099C354.323 406.106 354.207 406.14 354.103 406.199C353.999 406.258 353.91 406.34 353.844 406.439C353.597 406.78 353.656 406.956 353.726 407.062C354.208 407.895 357.248 408.236 359.491 408.154C358.133 407.2 356.607 406.511 354.994 406.122V406.099Z" fill="#95BF47"></path><path d="M360.336 408.623C360.317 408.632 360.297 408.636 360.277 408.636C360.257 408.636 360.237 408.632 360.218 408.623C358.845 407.848 356.215 404.96 356.603 403.645C356.661 403.316 356.943 402.94 357.777 402.94C358.061 402.941 358.343 402.998 358.605 403.109C358.867 403.22 359.104 403.382 359.303 403.586C360.711 404.995 360.711 408.283 360.711 408.412C360.712 408.463 360.698 408.514 360.671 408.558C360.644 408.601 360.605 408.636 360.559 408.659C360.522 408.675 360.482 408.68 360.442 408.673C360.403 408.667 360.366 408.65 360.336 408.623ZM357.87 403.48H357.718C357.201 403.48 357.143 403.68 357.119 403.751C356.966 404.561 358.657 406.78 360.054 407.802C360.045 406.426 359.615 405.086 358.821 403.962C358.568 403.704 358.231 403.545 357.87 403.516V403.48Z" fill="#95BF47"></path><path d="M361.768 407.109L374.858 408.4C375.098 408.42 375.323 408.522 375.497 408.689C375.67 408.856 375.78 409.078 375.809 409.316L377.136 420.213C377.192 420.677 377.064 421.144 376.778 421.513C376.492 421.882 376.072 422.124 375.61 422.186H375.234C370.538 421.645 366.347 421.011 360.477 420.401C353.538 419.732 355.217 420.73 347.046 420.049C342.127 419.626 341.775 413.954 343.888 413.884C353.538 413.614 354.818 410.831 358.821 407.778C359.69 407.205 360.737 406.967 361.768 407.109Z" fill="#262626"></path><path opacity="0.2" d="M363.271 403.105L375.222 404.044L376.161 399.617L364.151 396.964L363.271 403.105Z" fill="black"></path><path d="M379.554 395.461L379.214 396.788L361.686 395.402L361.874 394.075L379.554 395.461Z" fill="#262626"></path><path d="M380.27 400.956L375.95 400.568L363.787 399.476L359.866 399.112C359.31 398.365 358.995 397.465 358.963 396.533C358.932 395.602 359.185 394.683 359.69 393.899L361.874 394.075L379.554 395.461L380.822 395.566C382.29 399.782 380.27 400.956 380.27 400.956Z" fill="#95BF47"></path><path d="M451.438 327.756C435.577 329.153 398.996 329.729 394.041 329.012L379.554 395.461L361.874 394.075C361.874 394.075 363.74 336.621 371.536 312.867C377.805 293.774 478.088 297.732 478.088 297.732L478.44 303.109C479.133 321.638 469.6 326.136 451.438 327.756Z" fill="#262626"></path><path opacity="0.1" d="M451.438 327.756C435.577 329.153 398.996 329.729 394.041 329.012L379.554 395.461L361.874 394.075C361.874 394.075 363.74 336.621 371.536 312.867C377.805 293.774 478.088 297.732 478.088 297.732L478.44 303.109C479.133 321.638 469.6 326.136 451.438 327.756Z" fill="black"></path><path d="M371.254 319.807C371.247 319.697 371.247 319.587 371.254 319.478V319.807Z" fill="#262626"></path><path d="M372.44 311.164L372.264 312.468C372.297 312.03 372.356 311.595 372.44 311.164Z" fill="#262626"></path><path d="M428.58 207.412L433.453 214.527L444.406 205.157L437.562 196.75L428.58 207.412Z" fill="#FAB27B"></path><path opacity="0.2" d="M431.022 210.77C433.135 207.67 432.196 202.844 432.196 202.844L430.271 205.286L428.604 207.412L431.022 210.77Z" fill="black"></path><path d="M409.843 191.736C410.078 192.429 410.642 192.91 411.1 192.699C411.557 192.488 411.757 191.795 411.51 191.125C411.264 190.456 410.724 189.951 410.254 190.174C409.785 190.397 409.62 191.032 409.843 191.736Z" fill="#262626"></path><path d="M412.379 191.947L410.83 198.593C411.613 198.757 412.424 198.736 413.198 198.532C413.973 198.328 414.689 197.947 415.291 197.419L412.379 191.947Z" fill="#ED893E"></path><path d="M409.151 186.886C409.206 186.856 409.269 186.839 409.333 186.839C409.396 186.839 409.459 186.856 409.515 186.886C409.959 187.071 410.441 187.147 410.921 187.109C411.401 187.07 411.865 186.917 412.274 186.663C412.355 186.607 412.456 186.583 412.554 186.599C412.653 186.614 412.741 186.667 412.802 186.746C412.856 186.833 412.877 186.938 412.859 187.039C412.842 187.141 412.788 187.233 412.708 187.297C412.194 187.64 411.603 187.849 410.987 187.904C410.372 187.96 409.753 187.86 409.186 187.614C409.091 187.575 409.015 187.501 408.973 187.407C408.932 187.313 408.928 187.206 408.963 187.11C409.003 187.019 409.068 186.941 409.151 186.886Z" fill="#262626"></path><path d="M435.871 179.653C439.393 188.73 441.142 192.499 438.724 199.192C433.969 207.13 423.016 211.944 416.77 204.171C411.158 197.126 406.286 183.54 413.401 175.755C415.776 173.088 419.11 171.468 422.674 171.248C426.239 171.028 429.746 172.226 432.431 174.581C433.966 175.973 435.145 177.713 435.871 179.653Z" fill="#FAB27B"></path><path d="M444.465 182.413C443.969 185.459 443.668 188.534 443.561 191.619C443.477 194.465 442.546 197.223 440.888 199.538C439.229 201.853 436.919 203.621 434.251 204.617C434.251 204.617 421.454 204.464 416.019 188.354C414.515 188.499 413 188.27 411.606 187.69C410.212 187.109 408.982 186.194 408.026 185.025C407.07 183.856 406.416 182.469 406.123 180.988C405.83 179.506 405.906 177.975 406.345 176.53C407.39 173.101 411.722 170.953 415.302 170.835C416.475 169.308 418.005 168.093 419.757 167.296C421.509 166.5 423.431 166.146 425.352 166.267C429.226 166.585 432.966 167.83 436.258 169.896C439.231 171.383 441.746 173.647 443.537 176.448C444.494 178.28 444.82 180.377 444.465 182.413Z" fill="#262626"></path><path d="M418.684 190.303C418.278 191.213 418.057 192.194 418.033 193.19C418.009 194.185 418.182 195.176 418.543 196.104C419.529 198.558 422.159 198.135 423.673 196.104C425.047 194.237 426.162 190.738 424.307 188.93C422.452 187.121 419.705 188.049 418.684 190.303Z" fill="#FAB27B"></path><path d="M444.5 199.862C440.978 200.002 435.777 202.398 428.827 207.189C428.463 207.503 428.186 207.906 428.021 208.358C427.857 208.81 427.811 209.297 427.888 209.772C427.97 210.711 428.909 211.592 429.801 211.298C430.259 212.473 430.565 213.752 430.975 214.891C433.148 213.784 435.4 212.842 437.714 212.073C441.22 210.682 444.807 209.505 448.456 208.551C447.482 207.071 446.179 205.615 445.791 203.854C446.201 203.67 446.534 203.349 446.733 202.946C446.932 202.543 446.985 202.084 446.883 201.646C446.683 201.162 446.356 200.74 445.937 200.426C445.517 200.112 445.021 199.917 444.5 199.862Z" fill="#95BF47"></path><path d="M444.5 199.862C440.978 200.002 435.777 202.398 428.827 207.189C428.463 207.503 428.186 207.906 428.021 208.358C427.857 208.81 427.811 209.297 427.888 209.772C427.97 210.711 428.909 211.592 429.801 211.298C430.259 212.473 430.565 213.752 430.975 214.891C433.148 213.784 435.4 212.842 437.714 212.073C441.22 210.682 444.807 209.505 448.456 208.551C447.482 207.071 446.179 205.615 445.791 203.854C446.201 203.67 446.534 203.349 446.733 202.946C446.932 202.543 446.985 202.084 446.883 201.646C446.683 201.162 446.356 200.74 445.937 200.426C445.517 200.112 445.021 199.917 444.5 199.862Z" fill="#95BF47"></path><path d="M434.192 289.806C426.743 271.967 420.403 253.685 415.209 235.064C409.761 214.739 425.317 214.386 444.089 209.337C458.975 205.322 465.338 208.915 469.588 216.465C473.838 224.015 480.694 287.915 480.694 287.915L434.192 289.806Z" fill="#95BF47"></path><path d="M434.192 289.806C426.743 271.967 420.403 253.685 415.209 235.064C409.761 214.739 425.317 214.386 444.089 209.337C458.975 205.322 465.338 208.915 469.588 216.465C473.838 224.015 480.694 287.915 480.694 287.915L434.192 289.806Z" fill="#95BF47"></path><path opacity="0.3" d="M434.192 289.806C426.743 271.967 420.403 253.685 415.209 235.064C409.761 214.739 425.317 214.386 444.089 209.337C458.975 205.322 465.338 208.915 469.588 216.465C473.838 224.015 480.694 287.915 480.694 287.915L434.192 289.806Z" fill="black"></path><path d="M366.288 260.498H364.973C364.389 260.519 363.825 260.722 363.361 261.077C362.896 261.433 362.553 261.923 362.379 262.482L362.109 263.363C361.97 263.799 361.941 264.262 362.023 264.713C362.105 265.163 362.295 265.586 362.578 265.946C364.351 268.142 368.671 272.392 375.023 271.265L380.435 268.517L380.787 261.942L371.137 258.76C370.529 258.666 369.908 258.782 369.376 259.088L366.288 260.498Z" fill="#FAB27B"></path><path d="M380.458 268.564L393.795 270.232L393.02 262.682L380.81 261.989L380.458 268.564Z" fill="#FAB27B"></path><path d="M389.768 262.153C389.022 263.079 388.609 264.228 388.594 265.417C388.513 267.297 388.943 269.164 389.838 270.819C387.603 270.449 385.313 270.602 383.147 271.265H383.029C376.971 265.335 381.937 260.45 381.937 260.45L382.384 260.603C384.785 261.374 387.259 261.894 389.768 262.153Z" fill="#95BF47"></path><path d="M415.737 272.874C402.952 273.531 387.725 270.525 387.725 270.525C387.37 269.591 387.312 268.57 387.561 267.601C388.042 265.558 388.735 263.034 389.709 262.13C390.684 261.225 396.025 261.601 396.025 261.601C396.025 261.601 407.131 258.654 409.35 257.445C411.569 256.235 412.778 248.932 413.248 244.094C415.843 218.038 420.703 216.899 424.988 216.476C433.969 215.584 427.054 272.298 415.737 272.874Z" fill="#95BF47"></path><path d="M377.136 420.213L389.064 346.461C389.679 342.69 391.614 339.261 394.524 336.785C397.433 334.31 401.128 332.949 404.948 332.946H434.239C438.176 332.947 441.976 334.391 444.92 337.004C447.865 339.618 449.749 343.221 450.217 347.13L459.069 421.223" stroke="#262626" stroke-width="2" stroke-miterlimit="10"></path><path d="M418.108 420.213L430.036 346.461C430.652 342.69 432.587 339.261 435.496 336.785C438.406 334.31 442.1 332.949 445.92 332.946H475.212C479.147 332.947 482.946 334.391 485.888 337.005C488.831 339.619 490.713 343.222 491.178 347.13L500.042 421.223" stroke="#262626" stroke-width="2" stroke-miterlimit="10"></path><path d="M380.27 400.956H420.585" stroke="#262626" stroke-width="2" stroke-miterlimit="10"></path><path d="M450.217 347.13H491.906" stroke="#262626" stroke-width="2" stroke-miterlimit="10"></path><path d="M457.86 334.649H488.537C494.239 334.651 499.733 332.504 503.922 328.634C508.111 324.764 510.687 319.457 511.136 313.771L515.503 258.654C515.67 256.545 515.399 254.424 514.708 252.425C514.018 250.425 512.922 248.59 511.489 247.034C510.056 245.477 508.318 244.234 506.383 243.38C504.447 242.527 502.356 242.082 500.241 242.074H483.218C473.589 242.075 464.217 245.184 456.494 250.938C448.772 256.692 443.112 264.784 440.356 274.013L428.616 313.372C427.659 316.586 425.69 319.406 423.001 321.409C420.312 323.413 417.047 324.494 413.694 324.492H392.233C389.54 324.492 386.957 325.562 385.053 327.467C383.148 329.371 382.078 331.955 382.078 334.649H457.86Z" fill="#95BF47"></path><path opacity="0.7" d="M457.86 334.649H488.537C494.239 334.651 499.733 332.504 503.922 328.634C508.111 324.764 510.687 319.457 511.136 313.771L515.503 258.654C515.67 256.545 515.399 254.424 514.708 252.425C514.018 250.425 512.922 248.59 511.489 247.034C510.056 245.477 508.318 244.234 506.383 243.38C504.447 242.527 502.356 242.082 500.241 242.074H483.218C473.589 242.075 464.217 245.184 456.494 250.938C448.772 256.692 443.112 264.784 440.356 274.013L428.616 313.372C427.659 316.586 425.69 319.406 423.001 321.409C420.312 323.413 417.047 324.494 413.694 324.492H392.233C389.54 324.492 386.957 325.562 385.053 327.467C383.148 329.371 382.078 331.955 382.078 334.649H457.86Z" fill="#FAFAFA"></path><path d="M427.442 144.427V144.298C427.447 144.341 427.447 144.384 427.442 144.427Z" fill="#95BF47"></path><path d="M372.158 129.538C368.137 133.259 365.196 137.998 363.646 143.253H361.498C362.251 137.371 364.458 131.77 367.92 126.955L372.158 129.538Z" fill="#95BF47"></path><path opacity="0.6" d="M372.158 129.538C368.137 133.259 365.196 137.998 363.646 143.253H361.498C362.251 137.371 364.458 131.77 367.92 126.955L372.158 129.538Z" fill="#FAFAFA"></path><path d="M384.602 122.517C379.954 123.843 375.688 126.258 372.158 129.562L367.92 126.908C371.38 122.071 375.933 118.12 381.21 115.377L384.602 122.517Z" fill="#95BF47"></path><path opacity="0.5" d="M384.602 122.517C379.954 123.843 375.688 126.258 372.158 129.562L367.92 126.908C371.38 122.071 375.933 118.12 381.21 115.377L384.602 122.517Z" fill="#FAFAFA"></path><path d="M397.786 111.373L396.742 121.859C395.241 121.597 393.721 121.468 392.198 121.472C389.631 121.474 387.075 121.825 384.602 122.517L381.21 115.354C386.172 112.749 391.689 111.379 397.293 111.362L397.786 111.373Z" fill="#95BF47"></path><path opacity="0.4" d="M397.786 111.373L396.742 121.859C395.241 121.597 393.721 121.468 392.198 121.472C389.631 121.474 387.075 121.825 384.602 122.517L381.21 115.354C386.172 112.749 391.689 111.379 397.293 111.362L397.786 111.373Z" fill="#FAFAFA"></path><path d="M413.495 115.824L406.65 125.863C403.68 123.82 400.297 122.453 396.742 121.859L397.786 111.373C403.328 111.413 408.756 112.95 413.495 115.824Z" fill="#95BF47"></path><path opacity="0.3" d="M413.495 115.824L406.65 125.863C403.68 123.82 400.297 122.453 396.742 121.859L397.786 111.373C403.328 111.413 408.756 112.95 413.495 115.824Z" fill="#FAFAFA"></path><path d="M424.354 127.66L413.671 133.378C411.894 130.393 409.491 127.828 406.627 125.863L413.471 115.824C418.133 118.674 421.904 122.775 424.354 127.66Z" fill="#95BF47"></path><path opacity="0.2" d="M424.354 127.66L413.671 133.378C411.894 130.393 409.491 127.828 406.627 125.863L413.471 115.824C418.133 118.674 421.904 122.775 424.354 127.66Z" fill="#FAFAFA"></path><path d="M427.477 143.981L417.028 143.864C416.701 140.162 415.554 136.581 413.671 133.378L424.354 127.66C426.86 132.715 427.94 138.358 427.477 143.981Z" fill="#95BF47"></path><path opacity="0.1" d="M427.477 143.981L417.028 143.864C416.701 140.162 415.554 136.581 413.671 133.378L424.354 127.66C426.86 132.715 427.94 138.358 427.477 143.981Z" fill="#FAFAFA"></path><path d="M427.453 144.286C427.459 144.329 427.459 144.373 427.453 144.416C427.031 148.09 426.095 151.687 424.671 155.101L416.206 153.187L416.887 149.946C416.946 149.535 417.005 149.112 417.04 148.69V148.431C417.175 146.912 417.175 145.383 417.04 143.864L427.489 143.981C427.489 143.981 427.489 144.098 427.489 144.157C427.484 144.202 427.472 144.245 427.453 144.286Z" fill="#95BF47"></path><path d="M362.766 154.431L362.144 154.561C361.944 153.762 361.78 152.94 361.639 152.107C361.243 149.563 361.148 146.981 361.357 144.416V144.286C361.352 144.243 361.352 144.2 361.357 144.157C361.357 143.828 361.416 143.511 361.463 143.183H363.611C363.114 144.889 362.776 146.639 362.602 148.408C362.602 148.408 362.602 148.49 362.602 148.537C362.602 148.584 362.602 148.619 362.602 148.666C362.524 149.705 362.504 150.748 362.543 151.79C362.59 152.647 362.66 153.574 362.766 154.431Z" fill="#95BF47"></path><path opacity="0.7" d="M362.766 154.431L362.144 154.561C361.944 153.762 361.78 152.94 361.639 152.107C361.243 149.563 361.148 146.981 361.357 144.416V144.286C361.352 144.243 361.352 144.2 361.357 144.157C361.357 143.828 361.416 143.511 361.463 143.183H363.611C363.114 144.889 362.776 146.639 362.602 148.408C362.602 148.408 362.602 148.49 362.602 148.537C362.602 148.584 362.602 148.619 362.602 148.666C362.524 149.705 362.504 150.748 362.543 151.79C362.59 152.647 362.66 153.574 362.766 154.431Z" fill="#FAFAFA"></path><path d="M426.772 152.717L425.88 154.936L424.072 154.525L407.225 150.709L399.97 149.065C400.475 148.418 400.894 147.708 401.215 146.952C401.583 146.066 401.805 145.126 401.872 144.169L417.956 149.688L426.772 152.717Z" fill="#262626"></path><path d="M401.872 144.169C401.737 145.954 401.075 147.658 399.97 149.065L393.454 147.598L395.509 141.985L401.872 144.169Z" fill="#262626"></path><path d="M401.872 144.169C401.737 145.954 401.075 147.658 399.97 149.065C399.165 150.105 398.149 150.961 396.988 151.578C392.797 153.821 387.854 152.4 385.964 148.408C385.097 146.347 385.043 144.034 385.815 141.935C386.586 139.836 388.125 138.108 390.12 137.1C394.311 134.846 399.254 136.267 401.156 140.271C401.728 141.486 401.975 142.829 401.872 144.169Z" fill="#95BF47"></path><path d="M134.4 139.19H141.127V144.827H133.73L132.697 153.046H126.827L127.86 144.827H120.265L119.231 153.046H113.479L114.512 144.827H107.738V139.19H115.181L116.261 130.818H109.499V125.182H116.942L117.975 116.963H123.763L122.73 125.182H130.314L131.347 116.963H137.135L136.102 125.182H142.817V130.818H135.374L134.4 139.19ZM128.53 139.19L129.61 130.818H122.096L121.016 139.19H128.53Z" fill="#95BF47"></path><path d="M159.875 116.916V153.105H151.505V123.632H144.273V116.916H159.875Z" fill="#95BF47"></path><path d="M128.506 267.414H70.6161V307.278H128.506V267.414Z" fill="#464646"></path><path d="M128.506 267.414H70.6161V271.065H128.506V267.414Z" fill="#95BF47"></path><path d="M81.2173 289.465L90.6915 294.726C91.0473 294.902 91.366 295.146 91.6307 295.442C91.7965 295.674 91.8793 295.955 91.8655 296.24C91.8683 296.438 91.8313 296.635 91.7567 296.819C91.6821 297.002 91.5714 297.169 91.4311 297.309C91.2988 297.45 91.1388 297.563 90.961 297.64C90.7833 297.716 90.5916 297.756 90.398 297.755C89.9777 297.705 89.5753 297.557 89.224 297.321L77.0144 290.534C76.819 290.436 76.6547 290.286 76.5398 290.101C76.4249 289.915 76.3641 289.701 76.3641 289.483C76.3641 289.264 76.4249 289.05 76.5398 288.865C76.6547 288.679 76.819 288.529 77.0144 288.432L89.224 281.621C89.5784 281.396 89.9802 281.255 90.398 281.21C90.5932 281.21 90.7866 281.249 90.9668 281.324C91.147 281.399 91.3106 281.509 91.4481 281.648C91.5857 281.787 91.6944 281.951 91.768 282.132C91.8417 282.313 91.8788 282.506 91.8772 282.702C91.8929 282.987 91.81 283.269 91.6424 283.5C91.3778 283.796 91.059 284.04 90.7032 284.216L81.2173 289.465Z" fill="#FAFAFA"></path><path d="M105.578 279.684L96.1858 299.869C96.0442 300.24 95.8239 300.577 95.5401 300.855C95.2869 301.056 94.9707 301.16 94.6479 301.149C94.4562 301.151 94.2659 301.115 94.0885 301.042C93.911 300.969 93.7499 300.862 93.6148 300.726C93.4783 300.603 93.3691 300.452 93.2943 300.285C93.2195 300.117 93.1807 299.935 93.1804 299.751C93.2148 299.341 93.3306 298.942 93.5209 298.577L102.913 278.404C103.058 278.041 103.274 277.71 103.547 277.43C103.826 277.214 104.174 277.107 104.526 277.129C104.878 277.15 105.21 277.299 105.46 277.547C105.597 277.668 105.706 277.816 105.781 277.982C105.855 278.148 105.894 278.328 105.895 278.51C105.868 278.918 105.76 279.317 105.578 279.684Z" fill="#FAFAFA"></path><path d="M117.4 289.465L107.938 284.216C107.577 284.042 107.254 283.799 106.987 283.5C106.824 283.266 106.742 282.986 106.752 282.702C106.755 282.309 106.911 281.933 107.188 281.655C107.464 281.376 107.839 281.217 108.231 281.21C108.649 281.253 109.052 281.394 109.405 281.621L121.615 288.408C121.81 288.506 121.974 288.656 122.089 288.841C122.204 289.027 122.265 289.241 122.265 289.459C122.265 289.678 122.204 289.892 122.089 290.077C121.974 290.263 121.81 290.413 121.615 290.51L109.405 297.297C109.054 297.534 108.652 297.683 108.231 297.732C108.035 297.732 107.84 297.692 107.66 297.613C107.48 297.534 107.319 297.419 107.186 297.274C107.047 297.135 106.937 296.97 106.863 296.789C106.788 296.607 106.751 296.413 106.752 296.217C106.743 295.932 106.826 295.653 106.987 295.418C107.254 295.119 107.577 294.876 107.938 294.702L117.4 289.465Z" fill="#FAFAFA"></path></svg>