<svg width="173" height="46px" viewBox="0 0 188 49" fill="none" xmlns="http://www.w3.org/2000/svg">
                                                <path fill-rule="evenodd" clip-rule="evenodd" d="M64.321 45.4835H67.0842L66.2061 42.7203C66.0187 42.1232 65.8782 41.6432 65.726 41.1397H65.6792C65.5387 41.6314 65.3864 42.1232 65.2108 42.6969L64.321 45.4835ZM66.4402 40.4957L69.098 48.7033H68.1145L67.3534 46.3148H64.0517L63.2907 48.7033H62.3306L64.9884 40.4957H66.4402Z" fill="#171644"></path>
                                                <path fill-rule="evenodd" clip-rule="evenodd" d="M78.3734 45.7412V48.7034H77.4485V45.7412L74.7322 40.4958H75.7976L77.9168 44.7811H77.9637L80.0828 40.4958H81.0898L78.3734 45.7412Z" fill="#171644"></path>
                                                <mask id="mask0_83_189" style="mask-type:alpha" maskUnits="userSpaceOnUse" x="83" y="40" width="7" height="9">
                                                    <path d="M83.6187 40.3787H89.988V48.8204H83.6187V40.3787Z" fill="white"></path>
                                                </mask>
                                                <g mask="url(#mask0_83_189)">
                                                    <path fill-rule="evenodd" clip-rule="evenodd" d="M86.815 47.9774C88.1732 47.9774 89.0279 47.1812 89.0279 44.6405C89.0279 42.0764 88.1498 41.2217 86.7799 41.2217C85.4451 41.2217 84.5787 42.0061 84.5787 44.5586C84.5787 47.1227 85.4568 47.9774 86.815 47.9774ZM86.7565 48.8204C84.8012 48.8204 83.6187 47.6612 83.6187 44.6405C83.6187 41.6081 84.8715 40.3787 86.8502 40.3787C88.7937 40.3787 89.988 41.5378 89.988 44.5586C89.988 47.591 88.7235 48.8204 86.7565 48.8204Z" fill="#171644"></path>
                                                </g>
                                                <path fill-rule="evenodd" clip-rule="evenodd" d="M94.7417 41.3271H92.5522V40.4957H97.8561V41.3271H95.6784V48.7033H94.7417V41.3271Z" fill="#171644"></path>
                                                <path fill-rule="evenodd" clip-rule="evenodd" d="M102.141 41.3271V44.6405H103.394C104.752 44.6405 105.256 44.0434 105.256 42.9545C105.256 41.7837 104.6 41.3271 103.359 41.3271H102.141ZM106.227 42.8491C106.227 44.4883 105.279 45.4601 103.394 45.4601H102.141V48.7033H101.205V40.4957H103.57C105.197 40.4957 106.227 41.1983 106.227 42.8491Z" fill="#171644"></path>
                                                <mask id="mask1_83_189" style="mask-type:alpha" maskUnits="userSpaceOnUse" x="109" y="40" width="7" height="9">
                                                    <path d="M109.483 40.3787H115.852V48.8204H109.483V40.3787Z" fill="white"></path>
                                                </mask>
                                                <g mask="url(#mask1_83_189)">
                                                    <path fill-rule="evenodd" clip-rule="evenodd" d="M112.679 47.9774C114.037 47.9774 114.892 47.1812 114.892 44.6405C114.892 42.0764 114.014 41.2217 112.644 41.2217C111.309 41.2217 110.443 42.0061 110.443 44.5586C110.443 47.1227 111.321 47.9774 112.679 47.9774ZM112.621 48.8204C110.665 48.8204 109.483 47.6612 109.483 44.6405C109.483 41.6081 110.735 40.3787 112.714 40.3787C114.658 40.3787 115.852 41.5378 115.852 44.5586C115.852 47.591 114.588 48.8204 112.621 48.8204Z" fill="#171644"></path>
                                                </g>
                                                <mask id="mask2_83_189" style="mask-type:alpha" maskUnits="userSpaceOnUse" x="122" y="40" width="7" height="9">
                                                    <path d="M122.832 40.3787H128.37V48.8204H122.832V40.3787Z" fill="white"></path>
                                                </mask>
                                                <g mask="url(#mask2_83_189)">
                                                    <path fill-rule="evenodd" clip-rule="evenodd" d="M126.193 40.3787C127.445 40.3787 128.101 40.8236 128.37 41.0578L127.785 41.7719C127.434 41.4793 126.954 41.2217 126.099 41.2217C124.67 41.2217 123.792 42.2637 123.792 44.582C123.792 46.8066 124.624 47.9657 126.193 47.9657C127.024 47.9657 127.504 47.7432 127.797 47.4622L128.312 48.1296C127.949 48.4808 127.235 48.8204 126.064 48.8204C123.804 48.8204 122.832 47.1929 122.832 44.6639C122.832 41.971 124.003 40.3787 126.193 40.3787Z" fill="#171644"></path>
                                                </g>
                                                <mask id="mask3_83_189" style="mask-type:alpha" maskUnits="userSpaceOnUse" x="131" y="40" width="7" height="9">
                                                    <path d="M131.415 40.3787H137.784V48.8204H131.415V40.3787Z" fill="white"></path>
                                                </mask>
                                                <g mask="url(#mask3_83_189)">
                                                    <path fill-rule="evenodd" clip-rule="evenodd" d="M134.611 47.9774C135.969 47.9774 136.824 47.1812 136.824 44.6405C136.824 42.0764 135.946 41.2217 134.576 41.2217C133.241 41.2217 132.375 42.0061 132.375 44.5586C132.375 47.1227 133.253 47.9774 134.611 47.9774ZM134.552 48.8204C132.597 48.8204 131.415 47.6612 131.415 44.6405C131.415 41.6081 132.667 40.3787 134.646 40.3787C136.59 40.3787 137.784 41.5378 137.784 44.5586C137.784 47.591 136.519 48.8204 134.552 48.8204Z" fill="#171644"></path>
                                                </g>
                                                <path fill-rule="evenodd" clip-rule="evenodd" d="M145.64 46.35L147.994 40.4958H149.481V48.7034H148.579V41.5965H148.509C147.713 43.5517 146.881 45.5656 146.085 47.5209H145.09L142.678 41.5965H142.608V48.7034H141.718V40.4958H143.217L145.57 46.35H145.64Z" fill="#171644"></path>
                                                <path fill-rule="evenodd" clip-rule="evenodd" d="M154.738 41.3271V44.6405H155.99C157.349 44.6405 157.852 44.0434 157.852 42.9545C157.852 41.7837 157.196 41.3271 155.955 41.3271H154.738ZM158.824 42.8491C158.824 44.4883 157.876 45.4601 155.99 45.4601H154.738V48.7033H153.801V40.4957H156.166C157.794 40.4957 158.824 41.1983 158.824 42.8491Z" fill="#171644"></path>
                                                <path fill-rule="evenodd" clip-rule="evenodd" d="M162.782 45.4835H165.545L164.667 42.7203C164.479 42.1232 164.339 41.6432 164.187 41.1397H164.14C163.999 41.6314 163.847 42.1232 163.672 42.6969L162.782 45.4835ZM164.901 40.4957L167.559 48.7033H166.575L165.814 46.3148H162.512L161.751 48.7033H160.791L163.449 40.4957H164.901Z" fill="#171644"></path>
                                                <path fill-rule="evenodd" clip-rule="evenodd" d="M171.727 41.6082C171.75 42.3107 171.762 42.9663 171.762 43.7859V48.7034H170.872V40.4958H172.183L174.947 45.6943C175.263 46.2915 175.602 46.9355 175.895 47.5443H175.977C175.953 46.7949 175.953 46.0339 175.953 45.3431V40.4958H176.832V48.7034H175.544L172.757 43.4698C172.429 42.8609 172.125 42.2404 171.82 41.6082H171.727Z" fill="#171644"></path>
                                                <path fill-rule="evenodd" clip-rule="evenodd" d="M183.681 45.7412V48.7034H182.756V45.7412L180.04 40.4958H181.105L183.224 44.7811H183.271L185.39 40.4958H186.397L183.681 45.7412Z" fill="#171644"></path>
                                                <path fill-rule="evenodd" clip-rule="evenodd" d="M45.5635 36.0703L45.5608 36.0721C41.7418 39.0181 36.5755 39.6545 31.8962 39.6139C27.1077 39.5723 22.3295 38.7931 17.6814 37.6783C14.9201 37.016 12.2025 36.0886 9.34944 35.7091C8.56881 35.6053 7.78758 35.48 6.99775 35.4848C5.62409 35.4931 4.13549 35.6561 2.93573 36.3771C2.20513 36.816 1.67476 37.4591 1.33948 38.1984C2.26162 37.4448 3.54452 37.3879 4.67602 37.5283C7.45909 37.8739 9.98961 39.219 12.3839 40.6004C13.6111 41.3084 14.8176 42.052 16.0546 42.7431C16.5708 43.0315 17.092 43.3114 17.6216 43.5742C20.3193 44.9164 23.1373 46.0155 26.0302 46.8575C29.7724 47.9466 33.6426 48.6129 37.5372 48.7911C37.7886 48.8026 38.04 48.8119 38.2915 48.8205C53.6126 48.7287 55.1958 43.0809 55.4228 41.7398C56.38 34.9057 47.505 35.9526 45.5635 36.0703Z" fill="#171644"></path>
                                                <path fill-rule="evenodd" clip-rule="evenodd" d="M48.0896 4.84434C45.4237 1.32017 32.4337 0.510481 30.6194 0.44874C15.3692 0.236286 11.0303 3.98854 9.79191 4.80462C8.55349 5.62061 9.09484 8.54474 9.09484 8.54474C10.2322 14.2568 10.8055 22.3674 11.0978 28.7269C11.234 31.6902 11.3093 34.2722 11.3521 36.0548C11.3594 36.3143 11.3631 36.4564 11.3631 36.4564C11.3631 36.4564 35.0877 44.72 45.5607 36.6409C45.5115 35.5869 45.5412 34.1803 45.6214 32.5883C45.7031 30.8622 45.8449 28.954 46.0215 26.9986C46.6567 19.9648 47.7407 12.3223 48.085 10.3618C48.6097 7.37576 48.8449 5.7896 48.0896 4.84434Z" fill="#171644"></path>
                                                <path fill-rule="evenodd" clip-rule="evenodd" d="M17.725 47.7624C19.439 47.5585 21.1439 47.2857 22.8544 47.0547C23.3952 46.9817 23.9402 46.8975 24.4862 46.8757C24.2997 46.8831 24.0607 46.789 23.8775 46.7513C23.6089 46.6961 23.3408 46.6385 23.0737 46.5762C22.326 46.402 21.5867 46.193 20.8568 45.9549C18.0849 45.0509 15.5178 43.7302 12.9506 42.3692C12.0039 41.8673 11.0581 41.364 10.1134 40.8581C8.98276 40.2527 7.68182 39.8203 6.40498 39.6662C5.36563 39.5406 4.27234 39.5499 3.24141 39.802C2.22131 40.0514 0.911175 40.7609 0.880691 41.9759C0.845526 43.3763 2.16966 44.6838 3.2102 45.4362C4.35102 46.261 5.71003 46.89 7.05431 47.3012C9.58903 48.0766 12.2981 48.167 14.927 48.0154C15.862 47.9614 16.795 47.8731 17.725 47.7624Z" fill="#171644"></path>
                                                <path fill-rule="evenodd" clip-rule="evenodd" d="M64.6148 23.0161C64.7885 24.2432 65.1296 25.1604 65.6381 25.7676C66.5683 26.8732 68.1621 27.4259 70.4196 27.4259C71.7715 27.4259 72.8694 27.2801 73.7127 26.9885C75.3128 26.4299 76.1129 25.3912 76.1129 23.8726C76.1129 22.986 75.7208 22.2995 74.9373 21.8135C74.1531 21.3397 72.9101 20.9207 71.208 20.5562L68.3002 19.9184C65.4422 19.2869 63.4788 18.6005 62.4099 17.8593C60.5997 16.6203 59.6949 14.6827 59.6949 12.0466C59.6949 9.64122 60.5801 7.64306 62.351 6.05152C64.122 4.4602 66.7229 3.66443 70.154 3.66443C73.0191 3.66443 75.4631 4.41465 77.4864 5.91481C79.5093 7.41534 80.5698 9.59279 80.6683 12.4474H75.2746C75.175 10.8319 74.4527 9.68396 73.1077 9.00345C72.2108 8.55417 71.0964 8.32926 69.7639 8.32926C68.2817 8.32926 67.0987 8.62083 66.2144 9.2039C65.33 9.78701 64.8881 10.601 64.8881 11.6457C64.8881 12.6054 65.3241 13.322 66.1959 13.7958C66.7562 14.1119 67.9454 14.4823 69.7642 14.9074L74.4777 16.0189C76.5437 16.505 78.0919 17.1549 79.1232 17.9686C80.7241 19.2322 81.5248 21.0604 81.5248 23.4535C81.5248 25.9075 80.5761 27.9452 78.679 29.5669C76.7819 31.1887 74.1022 31.9996 70.6397 31.9996C67.1035 31.9996 64.3224 31.2009 62.2964 29.6034C60.2703 28.0061 59.2576 25.8104 59.2576 23.0161H64.6148Z" fill="#171644"></path>
                                                <path fill-rule="evenodd" clip-rule="evenodd" d="M89.1141 4.448L92.6602 19.8291L93.4327 24.1095L94.2074 19.9167L97.2411 4.448H103.163L106.355 19.8268L107.172 24.1095L108.001 19.9933L111.582 4.448H117.296L109.74 31.3072H104.366L101.122 15.5998L100.175 10.4066L99.2273 15.5998L95.9837 31.3072H90.7714L83.1555 4.448H89.1141Z" fill="#171644"></path>
                                                <path fill-rule="evenodd" clip-rule="evenodd" d="M140.546 9.20396H126.332V14.9074H139.379V19.5723H126.332V26.4784H141.202V31.3072H120.848V4.448H140.546V9.20396Z" fill="#171644"></path>
                                                <path fill-rule="evenodd" clip-rule="evenodd" d="M145.575 4.448H151.187V26.4783H164.599V31.3072H145.575V4.448Z" fill="#171644"></path>
                                                <path fill-rule="evenodd" clip-rule="evenodd" d="M168.371 4.448H173.983V26.4783H187.394V31.3072H168.371V4.448Z" fill="#171644"></path>
                                            </svg>