<svg width="646" height="347" viewBox="0 0 646 347" fill="none" xmlns="http://www.w3.org/2000/svg">
	<path d="M497.687 332.474C493.011 338.557 487.494 343.069 488.71 345.128C488.71 345.128 491.197 347 498.061 347C509.844 347 521.439 346.101 519.532 344.903C516.894 343.237 509.264 342.638 501.97 340.111C500.1 339.493 505.916 335.993 504.345 335.431C502.029 334.68 499.798 333.688 497.687 332.474V332.474Z" fill="#252627"></path>
	<path d="M619.142 344.772C619.142 344.772 620.695 346.944 626.623 346.944C636.816 346.944 647.439 345.558 645.793 344.51C643.512 343.087 625.651 339.362 625.651 339.362L621.648 334.383L614.859 338.127L619.142 344.772Z" fill="#252627"></path>
	<path d="M586.936 194.4C582.449 194.418 577.977 193.883 573.62 192.809C571.843 192.264 570.346 191.049 569.448 189.42C568.549 187.791 568.318 185.877 568.803 184.081C569.289 182.285 570.453 180.748 572.05 179.795C573.647 178.843 575.551 178.549 577.361 178.975C577.604 178.975 593.707 183.168 603.095 175.1C609.379 169.709 611.773 159.526 610.202 144.869L609.697 140.189L624.173 131.971C624.993 131.459 625.908 131.118 626.863 130.97C627.818 130.821 628.793 130.867 629.73 131.105C630.666 131.344 631.545 131.769 632.313 132.356C633.081 132.944 633.722 133.68 634.198 134.522C634.675 135.364 634.976 136.293 635.083 137.255C635.191 138.216 635.103 139.189 634.825 140.115C634.548 141.042 634.085 141.902 633.466 142.645C632.847 143.388 632.085 143.998 631.224 144.438L624.828 148.07C625.838 165.348 621.648 178.114 612.334 186.051C604.442 192.753 594.642 194.4 586.936 194.4Z" fill="#FFBE9D"></path>
	<path d="M611.624 154.64C611.362 165.067 608.594 172.611 603.339 177.103C593.034 185.958 575.379 181.446 575.079 181.371C574.083 181.101 573.044 181.03 572.02 181.161C570.997 181.293 570.009 181.625 569.114 182.139C567.306 183.176 565.984 184.89 565.438 186.903C564.893 188.916 565.168 191.064 566.205 192.873C567.241 194.683 568.953 196.007 570.965 196.553C575.569 198.556 580.552 199.539 585.571 199.435C616.019 198.35 634.404 172.068 634.741 156.737L611.624 154.64Z" fill="#F0F0F0"></path>
	<path d="M569.75 118.194C567.019 116.958 564.345 115.629 561.708 114.244C536.459 128.621 504.216 147.059 503.58 147.696C503.58 147.696 519.608 173.229 520.637 174.258C521.291 174.913 561.034 146.385 589.612 125.719C583.01 123.155 576.221 121.077 569.75 118.194Z" fill="#6F9529"></path>
	<path d="M570.104 117.445C576.725 120.365 583.663 122.48 590.378 125.12C606.107 113.738 618.282 104.884 618.282 104.884L591.388 97.3965L562.623 113.757C565.054 115.068 567.579 116.303 570.104 117.445Z" fill="#A9DA4D"></path>
	<path d="M523.797 83.9375L539.638 126.842L570.591 138.205L531.39 66.5098L523.797 83.9375Z" fill="#7FA637"></path>
	<path d="M572.292 148.762H549.344L569.767 184.46L600.888 197.582L572.292 148.762Z" fill="#799F32"></path>
	<path d="M600.87 197.582L582.616 166.396L504.495 212.239L489.141 186.032L498.791 30.1005L533.896 9.50928L597.073 117.389L618.338 104.922L636.012 135.116L614.766 147.583L633.019 178.769L600.87 197.582ZM530.006 76.5806L528.023 77.7412L522.656 161.023L564.942 136.22L530.006 76.5806Z" fill="#95BF47"></path>
	<path d="M463.182 178.882L489.141 186.014L504.514 212.24L477.059 205.295L463.182 178.882Z" fill="#799F32"></path>
	<path d="M463.182 178.882L489.141 186.014L498.791 30.0819L474.964 24.3726L463.182 178.882Z" fill="#A9DA4D"></path>
	<path d="M474.965 24.3725L498.792 30.0819L533.897 9.47189L509.77 2.45215L474.965 24.3725Z" fill="#BAEA61"></path>
	<path d="M527.2 241.011C527.2 241.011 530.94 282.194 530.94 296.664C530.94 296.664 501.016 320.044 493.535 332.23C496.677 334.627 502.886 337.846 507.001 337.697C519.954 325.511 533.996 314.539 548.951 304.919C548.951 304.919 558.433 277.439 561.369 254.152L527.2 241.011Z" fill="#252627"></path>
	<path d="M548.579 242.958C555.317 243.19 562.006 241.722 568.029 238.69C566.159 230.453 570.236 206.174 575.51 193.202C575.51 193.202 579.625 184.179 576.745 181.39C566.084 171.132 557.013 172.03 554.189 171.862C544.389 180.136 526.136 204.527 526.902 236.799C531.859 242.041 542.051 242.92 548.579 242.958Z" fill="#F0F0F0"></path>
	<path d="M614.691 339.269C618.622 338.403 622.158 336.265 624.753 333.185C613.176 314.466 570.721 245.373 568.421 239.963C568.421 239.832 568.309 239.664 568.253 239.514C561.785 242.749 554.579 244.221 547.362 243.782C541.097 243.538 531.988 242.659 526.789 237.998C526.789 238.335 526.789 238.671 526.789 239.008C527.668 257.016 587.385 317.087 610.951 340.093C612.214 339.899 613.463 339.624 614.691 339.269V339.269Z" fill="#343536"></path>
	<path d="M491.442 224.276C489.816 224.285 488.199 224.032 486.654 223.527C484.347 222.729 482.28 221.359 480.645 219.546C479.01 217.733 477.86 215.535 477.303 213.157C477.004 212.246 476.891 211.284 476.97 210.329C477.049 209.373 477.319 208.443 477.763 207.594C478.207 206.745 478.817 205.993 479.557 205.384C480.297 204.775 481.151 204.321 482.069 204.048C482.987 203.775 483.951 203.689 484.903 203.795C485.855 203.901 486.776 204.198 487.611 204.667C488.447 205.135 489.18 205.767 489.767 206.524C490.354 207.282 490.784 208.149 491.03 209.076C491.111 209.386 491.224 209.687 491.367 209.974C492.134 209.974 494.958 209.75 501.859 205.688C508.031 202.075 515.325 196.665 522.432 191.442C534.346 182.625 545.604 174.295 554.9 171.338C556.692 170.827 558.613 171.035 560.254 171.919C561.896 172.802 563.128 174.292 563.691 176.07C564.253 177.848 564.101 179.776 563.266 181.444C562.431 183.112 560.98 184.389 559.22 185.003C552.188 187.23 541.396 195.223 530.942 202.955C515.643 214.298 502.158 224.276 491.442 224.276Z" fill="#FFBE9D"></path>
	<path d="M563.877 176.018C563.305 174.207 562.038 172.696 560.355 171.819C558.672 170.942 556.71 170.769 554.899 171.338C545.548 174.296 534.327 182.57 522.432 191.442C515.381 196.665 508.087 202.075 501.859 205.688L501.055 206.156C503.729 209.694 508.349 227.159 508.442 227.552C516.035 223.584 552.431 195.842 560.323 187.474C563.091 184.591 565.074 179.78 563.877 176.018Z" fill="#F0F0F0"></path>
	<path d="M504.831 218.922C503.952 214.71 502.961 210.049 500.361 206.586C494.582 209.787 492.132 209.993 491.422 209.974C491.279 209.687 491.166 209.386 491.085 209.076C490.839 208.149 490.409 207.282 489.822 206.524C489.234 205.767 488.501 205.135 487.666 204.667C486.83 204.198 485.909 203.902 484.957 203.795C484.005 203.689 483.042 203.775 482.124 204.048C481.205 204.321 480.351 204.775 479.612 205.384C478.872 205.993 478.262 206.745 477.818 207.594C477.373 208.443 477.103 209.373 477.024 210.329C476.945 211.284 477.059 212.246 477.357 213.157C477.915 215.535 479.065 217.733 480.7 219.546C482.335 221.359 484.402 222.729 486.709 223.527C488.254 224.032 489.871 224.285 491.496 224.276C496.296 224.016 500.969 222.644 505.149 220.27C505 219.821 504.925 219.371 504.831 218.922Z" fill="#FFBE9D"></path>
	<path d="M481.304 218.492C480.868 218.488 480.444 218.351 480.089 218.099C474.478 214.074 471.541 206.343 471.429 206.025C471.233 205.504 471.252 204.926 471.482 204.419C471.712 203.911 472.133 203.516 472.654 203.32C473.175 203.124 473.752 203.143 474.259 203.373C474.766 203.603 475.161 204.025 475.357 204.546V204.546C475.357 204.546 477.975 211.416 482.539 214.673C482.991 215 483.295 215.492 483.386 216.043C483.477 216.593 483.347 217.157 483.025 217.612C482.831 217.888 482.573 218.111 482.273 218.265C481.973 218.418 481.641 218.496 481.304 218.492Z" fill="#FFBE9D"></path>
	<path d="M481.324 213.363C480.985 213.364 480.652 213.284 480.352 213.127C480.052 212.97 479.795 212.743 479.603 212.464C476.91 208.72 474.759 199.604 474.516 198.593C474.392 198.047 474.487 197.475 474.781 196.998C475.075 196.522 475.544 196.181 476.087 196.047C476.357 195.984 476.637 195.975 476.911 196.02C477.185 196.066 477.447 196.166 477.682 196.314C477.917 196.462 478.12 196.655 478.28 196.883C478.439 197.11 478.552 197.367 478.612 197.638C479.21 200.184 481.155 207.372 483.026 210.031C483.187 210.256 483.302 210.512 483.364 210.782C483.426 211.052 483.433 211.332 483.386 211.606C483.339 211.879 483.239 212.14 483.09 212.374C482.941 212.608 482.748 212.811 482.521 212.97C482.173 213.224 481.754 213.361 481.324 213.363V213.363Z" fill="#FFBE9D"></path>
	<path d="M484.221 212.09C483.815 212.081 483.421 211.951 483.088 211.718C482.755 211.485 482.498 211.158 482.351 210.779C480.481 206.043 479.658 196.122 479.62 195.804C479.583 195.259 479.756 194.719 480.104 194.298C480.452 193.877 480.948 193.605 481.491 193.539C482.038 193.492 482.581 193.662 483.005 194.012C483.428 194.362 483.697 194.864 483.754 195.411C484.044 200.085 484.854 204.712 486.166 209.207C486.376 209.726 486.372 210.307 486.154 210.823C485.937 211.338 485.524 211.747 485.007 211.959C484.757 212.058 484.489 212.103 484.221 212.09Z" fill="#FFBE9D"></path>
	<path d="M487.383 211.154C486.917 211.156 486.463 211.003 486.094 210.718C485.725 210.433 485.461 210.033 485.345 209.582C484.578 206.079 484.578 202.452 485.345 198.949C485.478 198.406 485.82 197.938 486.296 197.647C486.773 197.356 487.345 197.265 487.888 197.395C488.157 197.457 488.411 197.571 488.636 197.732C488.86 197.893 489.05 198.097 489.194 198.333C489.339 198.568 489.435 198.83 489.477 199.103C489.52 199.376 489.507 199.654 489.44 199.922C488.837 202.755 488.837 205.682 489.44 208.515C489.511 208.783 489.527 209.062 489.489 209.336C489.45 209.611 489.358 209.875 489.217 210.113C489.076 210.351 488.89 210.56 488.668 210.725C488.446 210.891 488.194 211.011 487.926 211.079C487.749 211.131 487.567 211.156 487.383 211.154V211.154Z" fill="#FFBE9D"></path>
	<path d="M571.974 187.474C570.978 187.467 569.996 187.243 569.094 186.819C568.295 186.441 567.578 185.91 566.984 185.254C566.391 184.599 565.932 183.833 565.635 183C565.338 182.167 565.208 181.283 565.253 180.4C565.298 179.516 565.516 178.651 565.896 177.852C567.28 175.18 568.955 172.669 570.89 170.364C572.043 168.996 573.692 168.143 575.473 167.992C577.255 167.841 579.024 168.405 580.39 169.559C581.757 170.714 582.609 172.364 582.76 174.147C582.911 175.931 582.348 177.701 581.195 179.069V179.069C579.996 180.484 578.95 182.021 578.071 183.655C577.516 184.8 576.65 185.766 575.571 186.442C574.493 187.117 573.246 187.475 571.974 187.474Z" fill="#FFBE9D"></path>
	<path d="M572.985 184.011C573.773 184.893 574.61 185.731 575.492 186.519C576.629 185.829 577.539 184.82 578.11 183.618C578.988 181.984 580.035 180.447 581.233 179.032C582.386 177.664 582.95 175.894 582.799 174.11C582.648 172.327 581.796 170.676 580.429 169.522C579.062 168.368 577.294 167.804 575.512 167.955C573.73 168.106 572.081 168.959 570.928 170.327C570.797 170.496 570.255 171.151 569.525 172.105C569.6 176.336 570.105 180.754 572.985 184.011Z" fill="#EB996E"></path>
	<path d="M595.11 176.523C593.819 179.645 591.344 182.127 588.227 183.425C585.11 184.723 581.607 184.732 578.484 183.449C576.936 182.813 575.529 181.878 574.344 180.697C573.158 179.515 572.217 178.112 571.574 176.566C570.931 175.02 570.599 173.362 570.598 171.688C570.596 170.013 570.924 168.355 571.564 166.808L574.93 158.628C575.566 157.079 576.5 155.671 577.681 154.484C578.861 153.297 580.263 152.355 581.808 151.712C583.352 151.068 585.008 150.736 586.681 150.734C588.354 150.733 590.011 151.061 591.557 151.701V151.701C594.679 152.99 597.162 155.467 598.46 158.588C599.757 161.709 599.763 165.218 598.477 168.343L595.11 176.523Z" fill="#FFBE9D"></path>
	<path d="M572.985 165.89C571.937 170.271 565.653 168.867 563.297 166.583C560.042 163.419 558.097 154.509 565.316 154.996C560.117 147.152 577.735 138.635 579.568 147.714C580.952 145.374 582.354 143.259 585.422 143.072C587.629 142.922 591.481 144.644 591.163 147.34C592.792 146.121 594.78 145.481 596.813 145.521C598.846 145.562 600.807 146.281 602.385 147.564C603.432 148.407 605.303 150.278 604.367 151.626C603.844 152.375 601.188 152.618 600.309 152.88C601.843 152.188 608.108 153.592 606.874 156.194C606.312 157.411 603.227 156.325 602.329 156.063V156.344C605.695 158.215 607.061 160.087 606.668 164.224C606.481 166.096 605.583 169.84 603.301 170.046C602.123 170.177 600.777 169.428 600.795 168.174C603.601 170.963 599.636 178.451 596.101 174.763C595.524 173.995 595.264 173.034 595.375 172.079C595.487 171.124 595.961 170.249 596.699 169.634C594.605 168.436 590.06 162.147 593.295 160.368C591.781 160.368 584.786 158.028 587.011 156.025C587.61 158.347 584.711 161.379 582.429 160.181C583.851 163.288 579.643 165.61 577.062 165.797C578.651 167.781 573.789 170.14 572.293 167.257L572.985 165.89Z" fill="#343536"></path>
	<path d="M340.687 140.451C340.687 140.451 336.61 124.783 356.883 121.058L355.331 139.89L340.687 140.451Z" fill="#895A51"></path>
	<path d="M259.443 179.986C255.167 180.025 250.936 179.104 247.062 177.291C228.64 168.586 226.602 142.398 226.489 141.294C226.368 139.406 226.998 137.546 228.24 136.121C229.483 134.695 231.238 133.819 233.123 133.683C235.009 133.547 236.871 134.163 238.305 135.395C239.739 136.628 240.628 138.378 240.778 140.264C241.171 145.543 244.182 160.125 253.197 164.356C260.678 167.856 272.161 164.356 286.543 154.06C288.092 153.004 289.994 152.597 291.839 152.928C293.684 153.259 295.326 154.3 296.413 155.829C297.499 157.357 297.944 159.252 297.651 161.105C297.359 162.958 296.352 164.622 294.847 165.741C281.606 175.232 269.655 179.986 259.443 179.986Z" fill="#CDE5E8"></path>
	<path d="M297.521 193.371C299.503 188.129 301.355 182.832 303.506 177.646C302.031 177.534 300.564 177.34 299.11 177.066C292.558 175.937 286.45 173 281.474 168.586C276.505 164.058 272.662 158.429 270.252 152.151C267.51 144.906 265.969 137.261 265.689 129.519C265.041 111.472 268.467 93.5118 275.714 76.974C278.841 69.9356 283.085 63.4498 288.282 57.7679C292.795 52.782 298.422 48.9336 304.703 46.5363C310.357 44.5837 316.393 44 322.316 44.8329C328.239 45.6659 333.881 47.8919 338.779 51.3285C340.798 47.2851 342.987 43.2979 345.063 39.3294C347.513 34.6496 349.794 29.8574 351.964 25.0466C352.899 22.9874 353.703 20.8534 354.564 18.7569C347.2 14.6151 339.198 11.7302 330.886 10.2209C319.293 7.81641 307.29 8.27255 295.912 11.5499C284.995 14.8138 274.919 20.4156 266.381 27.9668C257.26 36.1843 249.74 46.0219 244.2 56.9817C231.741 81.6033 226.47 109.242 228.995 136.726C230.157 148.937 233.576 160.826 239.075 171.787C244.218 181.982 251.527 190.927 260.49 197.994C269.158 204.723 279.245 209.384 289.984 211.622C292.602 205.576 295.183 199.567 297.521 193.371Z" fill="#A9DA4D"></path>
	<path d="M394.457 85.7347C393.315 73.5256 389.929 61.6327 384.47 50.6547C379.323 40.4628 372.015 31.5188 363.056 24.4476C360.638 22.5434 358.095 20.8048 355.444 19.2437C354.602 21.3589 353.798 23.4742 352.863 25.5333C350.637 30.3442 348.412 35.1364 345.943 39.8349C343.848 43.8221 341.641 47.828 339.603 51.9089C340.332 52.4704 341.043 53.032 341.735 53.6498C346.672 58.2205 350.509 63.8529 352.956 70.1228C355.784 77.291 357.384 84.8852 357.688 92.586C358.346 110.633 354.919 128.596 347.664 145.131C344.548 152.25 340.241 158.783 334.927 164.449C330.326 169.372 324.666 173.181 318.375 175.587C313.904 177.233 309.142 177.94 304.386 177.665C302.011 183.281 300.009 189.14 297.84 194.868C295.67 200.596 293.277 206.1 290.789 211.603L292.472 211.959C304.067 214.35 316.069 213.887 327.446 210.611C338.361 207.353 348.438 201.758 356.977 194.213C366.118 186.042 373.67 176.249 379.252 165.329C391.731 140.721 397.008 113.084 394.476 85.6036L394.457 85.7347Z" fill="#799F32"></path>
	<path d="M314.316 219.578C302.654 217.531 291.664 212.674 282.297 205.426C273.338 198.355 266.03 189.411 260.883 179.219C255.391 168.247 251.974 156.354 250.802 144.139C248.27 116.659 253.547 89.0217 266.026 64.4131C271.608 53.4931 279.16 43.7005 288.301 35.5292C296.842 27.9779 306.927 22.3819 317.851 19.131C329.252 16.0246 341.211 15.5632 352.817 17.782C364.423 20.0009 375.37 24.8414 384.825 31.935C393.782 39.0079 401.09 47.9516 406.239 58.1421C411.737 69.1059 415.161 80.993 416.338 93.2034C418.87 120.683 413.593 148.32 401.114 172.929C395.527 183.83 387.982 193.608 378.858 201.775C370.323 209.326 360.245 214.922 349.327 218.174C337.944 221.482 325.927 221.964 314.316 219.578V219.578ZM320.993 184.647C327.411 185.961 334.068 185.462 340.219 183.206C346.532 180.787 352.202 176.943 356.789 171.974C362.081 166.308 366.38 159.79 369.507 152.693C373.163 144.497 375.831 135.894 377.456 127.067C379.234 118.211 379.931 109.172 379.532 100.148C379.208 92.4481 377.602 84.8561 374.781 77.6851C372.34 71.4173 368.502 65.7897 363.56 61.2308C358.663 56.8682 352.656 53.9463 346.204 52.7884C339.693 51.4314 332.933 51.911 326.678 54.1736C320.401 56.5772 314.776 60.4246 310.257 65.4052C305.053 71.0807 300.808 77.5679 297.689 84.6112C293.996 92.8486 291.314 101.504 289.703 110.388C287.964 119.192 287.279 128.172 287.665 137.138C287.933 144.847 289.462 152.461 292.191 159.676C294.588 165.967 298.432 171.604 303.412 176.13C308.382 180.518 314.466 183.446 320.993 184.591V184.647Z" fill="#95BF47"></path>
	<path d="M440.577 114.319L441.119 140.657C441.119 140.657 433.638 147.396 426.887 140.657L429.355 111.006L440.577 114.319Z" fill="#343536"></path>
	<path d="M409.588 324.406C409.157 324.069 406.221 322.703 405.847 322.366C404.526 324.397 402.99 326.28 401.265 327.982C402.582 329.036 403.597 330.422 404.205 331.997C404.812 333.572 404.992 335.281 404.725 336.948C403.287 338.209 401.762 339.366 400.161 340.411C396.066 342.433 388.51 345.241 388.51 345.241L407.53 346.738L421.632 332.268C417.411 329.979 413.383 327.35 409.588 324.406V324.406Z" fill="#252627"></path>
	<path d="M335.095 325.435C332.066 324.911 328.232 327.307 325.744 325.435C325.407 328.155 325.251 330.894 325.277 333.634L297.223 345.24H333.15C333.468 341.403 332.776 337.753 333.3 334.177C333.524 332.361 334.759 327.195 335.095 325.435Z" fill="#252627"></path>
	<path d="M367.843 197.639L336.049 258.102C336.049 258.102 348.935 269.015 361.615 272.647L385.442 201.401L367.843 197.639Z" fill="#F0F0F0"></path>
	<path d="M402.649 329.497C404.538 327.447 406.229 325.222 407.698 322.852C399.469 315.795 395.448 308.532 384.283 296.027C379.663 290.842 391.895 261.209 394.868 256.23C400.217 247.301 401.04 240.824 405.211 225.53L374.183 237.136C366.702 263.624 358.174 290.131 366.814 302.766C375.923 316.132 392.119 326.895 399.918 332.268C400.217 332.474 402.387 329.31 402.649 329.497Z" fill="#252627"></path>
	<path d="M403.022 231.933C412.261 206.53 420.153 166.677 423.108 150.784C421.618 150.176 420.094 149.651 418.545 149.212C415.796 148.463 412.523 147.565 409.698 148.444C408.309 148.925 406.989 149.586 405.771 150.41C405.071 152.488 404.527 154.615 404.144 156.775C404.144 156.775 384.282 194.756 371.377 220.645C382.37 223.018 393.007 226.812 403.022 231.933V231.933Z" fill="#AAAAAA"></path>
	<path d="M370.986 221.45L367.75 228.001C365.206 232.513 362.457 236.687 359.801 240.693C334.272 279.255 324.622 309.955 322.92 324.518C325.351 326.39 334.572 327.495 337.658 328.019C342.371 303.927 354.621 288.54 376.596 270.363C383.946 264.28 389.445 256.548 394.289 250.128C397.873 244.74 400.722 238.898 402.761 232.756C392.712 227.605 382.028 223.803 370.986 221.45V221.45Z" fill="#343536"></path>
	<path d="M418.134 153.161H417.629C415.849 153.022 414.195 152.185 413.029 150.832C411.862 149.479 411.277 147.719 411.401 145.936C411.732 142.934 412.391 139.977 413.365 137.119C413.945 135.428 415.173 134.038 416.777 133.253C418.382 132.469 420.232 132.354 421.921 132.935C423.61 133.516 424.999 134.745 425.783 136.351C426.567 137.957 426.682 139.809 426.101 141.499C425.495 143.26 425.075 145.079 424.848 146.928C424.712 148.62 423.947 150.199 422.704 151.353C421.461 152.507 419.83 153.153 418.134 153.161V153.161Z" fill="#9B6E65"></path>
	<path d="M420.005 146.048C421.19 147.4 422.485 148.652 423.876 149.792C424.377 148.921 424.677 147.949 424.755 146.947C424.981 145.098 425.401 143.279 426.008 141.518C426.53 139.981 426.481 138.307 425.868 136.804C425.256 135.301 424.122 134.069 422.675 133.336C421.228 132.603 419.565 132.417 417.992 132.813C416.419 133.209 415.042 134.159 414.113 135.49C414.768 139.253 417.872 143.54 420.005 146.048Z" fill="#895A51"></path>
	<path d="M437.398 131.447C437.362 133.127 436.993 134.783 436.315 136.32C435.636 137.856 434.66 139.243 433.442 140.401C432.225 141.558 430.791 142.462 429.223 143.062C427.655 143.662 425.984 143.945 424.306 143.896C422.628 143.859 420.973 143.491 419.438 142.811C417.903 142.132 416.517 141.155 415.361 139.937C414.204 138.718 413.301 137.283 412.701 135.714C412.102 134.144 411.819 132.471 411.869 130.792L412.056 121.956C412.095 120.277 412.464 118.621 413.144 117.084C413.823 115.548 414.799 114.161 416.016 113.002C417.232 111.844 418.665 110.937 420.232 110.335C421.799 109.732 423.469 109.445 425.148 109.489C426.826 109.528 428.48 109.898 430.016 110.578C431.551 111.259 432.937 112.235 434.094 113.453C435.251 114.67 436.157 116.104 436.759 117.673C437.361 119.241 437.648 120.913 437.604 122.593L437.398 131.447Z" fill="#9B6E65"></path>
	<path d="M346.203 232.026C344.517 232.018 342.888 231.414 341.603 230.322C340.317 229.229 339.458 227.718 339.177 226.054C338.895 224.39 339.209 222.68 340.063 221.225C340.918 219.769 342.257 218.663 343.847 218.099C352.525 215.085 365.86 203.123 374.837 190.45C384.62 176.301 395.152 162.685 406.388 149.661C407.005 148.922 407.763 148.314 408.619 147.875C409.475 147.436 410.411 147.174 411.371 147.104C412.33 147.035 413.294 147.159 414.204 147.471C415.114 147.782 415.953 148.274 416.669 148.917C417.385 149.559 417.965 150.34 418.373 151.212C418.782 152.084 419.01 153.029 419.046 153.991C419.081 154.953 418.923 155.913 418.579 156.812C418.236 157.712 417.716 158.533 417.049 159.227V159.227C406.191 171.842 396.003 185.02 386.526 198.706C377.661 211.285 361.988 226.972 348.541 231.633C347.788 231.888 346.998 232.02 346.203 232.026Z" fill="#9B6E65"></path>
	<path d="M336.087 230.06C332.61 229.933 329.192 229.125 326.025 227.683C325.546 227.443 325.177 227.03 324.991 226.527C324.805 226.025 324.816 225.471 325.023 224.976C325.23 224.482 325.616 224.085 326.104 223.864C326.592 223.644 327.145 223.617 327.652 223.789C333.263 226.129 337.62 226.466 340.426 224.763C340.902 224.475 341.473 224.388 342.013 224.521C342.553 224.655 343.018 224.998 343.306 225.474C343.594 225.951 343.68 226.522 343.547 227.063C343.414 227.603 343.071 228.069 342.595 228.357C340.625 229.518 338.372 230.108 336.087 230.06Z" fill="#9B6E65"></path>
	<path d="M338.611 233.113C335.535 233.032 332.482 232.567 329.522 231.727L328.568 231.503C328.067 231.335 327.648 230.986 327.391 230.524C327.135 230.063 327.06 229.522 327.182 229.008C327.304 228.494 327.614 228.044 328.05 227.747C328.486 227.45 329.018 227.327 329.54 227.403L330.513 227.627C335.689 229.28 341.244 229.326 346.447 227.758C346.715 227.685 346.995 227.667 347.27 227.704C347.545 227.741 347.81 227.833 348.048 227.975C348.287 228.116 348.495 228.304 348.661 228.527C348.826 228.751 348.944 229.005 349.01 229.275C349.146 229.816 349.064 230.389 348.78 230.87C348.496 231.35 348.034 231.699 347.495 231.84C344.599 232.637 341.614 233.065 338.611 233.113Z" fill="#9B6E65"></path>
	<path d="M335.937 225.905C331.769 225.842 327.754 224.326 324.584 221.618C324.379 221.432 324.213 221.207 324.095 220.956C323.978 220.706 323.911 220.434 323.899 220.157C323.886 219.88 323.929 219.604 324.024 219.344C324.119 219.084 324.265 218.845 324.453 218.642C324.834 218.236 325.358 217.995 325.913 217.971C326.469 217.946 327.012 218.14 327.427 218.511C329.006 219.84 330.872 220.784 332.878 221.268C334.883 221.752 336.974 221.763 338.985 221.3C339.253 221.227 339.532 221.209 339.807 221.246C340.082 221.283 340.347 221.375 340.586 221.516C340.825 221.658 341.033 221.846 341.198 222.069C341.363 222.292 341.482 222.546 341.547 222.816C341.684 223.357 341.601 223.93 341.317 224.411C341.034 224.891 340.572 225.24 340.032 225.381C338.693 225.722 337.318 225.898 335.937 225.905V225.905Z" fill="#9B6E65"></path>
	<path d="M340.35 223.64H340.107C338.046 223.445 336.055 222.785 334.286 221.708C332.518 220.632 331.016 219.167 329.895 217.425C329.622 216.928 329.558 216.344 329.715 215.8C329.873 215.255 330.241 214.796 330.737 214.523C331.233 214.25 331.817 214.186 332.36 214.344C332.904 214.501 333.363 214.869 333.636 215.366C334.421 216.533 335.46 217.508 336.674 218.217C337.889 218.927 339.247 219.354 340.649 219.465C341.205 219.497 341.725 219.749 342.095 220.165C342.465 220.581 342.654 221.127 342.622 221.683C342.59 222.239 342.338 222.76 341.923 223.13C341.507 223.501 340.961 223.691 340.406 223.658L340.35 223.64Z" fill="#9B6E65"></path>
	<path d="M350.375 137.325C349.932 137.333 349.498 137.195 349.141 136.932C348.916 136.77 348.726 136.566 348.581 136.33C348.436 136.095 348.339 135.833 348.296 135.56C348.252 135.287 348.263 135.008 348.328 134.739C348.393 134.47 348.51 134.216 348.673 133.993C350.105 132.09 351.141 129.92 351.722 127.61C351.852 127.092 352.174 126.642 352.622 126.351C353.07 126.061 353.611 125.951 354.137 126.043C354.662 126.136 355.134 126.424 355.456 126.85C355.778 127.276 355.927 127.808 355.874 128.34C355.192 131.274 353.92 134.039 352.133 136.464C351.932 136.74 351.667 136.963 351.361 137.113C351.054 137.263 350.716 137.336 350.375 137.325V137.325Z" fill="#9B6E65"></path>
	<path d="M365.505 140.376H365.169C361.69 139.796 352.077 138.298 349.945 138.298C349.652 138.326 349.356 138.292 349.077 138.199C348.798 138.106 348.541 137.955 348.324 137.757C348.106 137.559 347.932 137.317 347.813 137.048C347.694 136.778 347.633 136.487 347.633 136.192C347.633 135.898 347.694 135.607 347.813 135.337C347.932 135.068 348.106 134.826 348.324 134.628C348.541 134.43 348.798 134.279 349.077 134.186C349.356 134.093 349.652 134.059 349.945 134.087C352.9 134.087 364.533 135.958 365.861 136.221C366.374 136.318 366.834 136.603 367.15 137.02C367.466 137.437 367.617 137.956 367.573 138.477C367.528 138.999 367.293 139.486 366.911 139.843C366.529 140.201 366.028 140.404 365.505 140.414V140.376Z" fill="#9B6E65"></path>
	<path d="M364.158 144.794C363.978 144.82 363.795 144.82 363.615 144.794C358.767 143.445 353.83 142.438 348.84 141.78C348.285 141.742 347.766 141.487 347.395 141.071C347.025 140.654 346.832 140.109 346.858 139.552C346.872 139.275 346.941 139.004 347.061 138.754C347.181 138.503 347.349 138.28 347.556 138.095C347.763 137.91 348.005 137.769 348.267 137.678C348.529 137.588 348.807 137.551 349.083 137.568C354.365 138.241 359.591 139.298 364.719 140.732C365.227 140.85 365.673 141.154 365.969 141.584C366.265 142.013 366.391 142.539 366.321 143.056C366.25 143.574 365.99 144.046 365.59 144.381C365.19 144.717 364.679 144.891 364.158 144.869V144.794Z" fill="#9B6E65"></path>
	<path d="M363.149 149.436C362.933 149.436 362.717 149.398 362.514 149.324C353.031 146.273 350.693 146.086 349.422 145.973C348.828 145.949 348.239 145.861 347.664 145.711C347.381 145.654 347.113 145.54 346.876 145.375C346.64 145.21 346.439 144.999 346.287 144.754C346.135 144.509 346.034 144.235 345.992 143.949C345.949 143.664 345.966 143.373 346.04 143.094C346.114 142.815 346.244 142.554 346.423 142.328C346.601 142.101 346.824 141.913 347.078 141.776C347.332 141.639 347.611 141.556 347.898 141.53C348.185 141.505 348.475 141.539 348.748 141.63C349.079 141.717 349.417 141.768 349.758 141.78C351.273 141.911 353.836 142.117 363.785 145.318C364.258 145.478 364.658 145.801 364.916 146.228C365.173 146.656 365.272 147.161 365.193 147.654C365.115 148.147 364.865 148.596 364.487 148.922C364.11 149.248 363.629 149.431 363.131 149.436H363.149Z" fill="#9B6E65"></path>
	<path d="M358.998 152.806H358.829C349.347 152.113 348.954 146.965 348.936 146.366H353.144V146.235C353.144 146.235 353.574 148.294 359.147 148.688C359.672 148.752 360.153 149.012 360.496 149.414C360.839 149.817 361.019 150.333 361.001 150.862C360.982 151.391 360.766 151.893 360.395 152.271C360.024 152.648 359.525 152.872 358.998 152.899V152.806Z" fill="#9B6E65"></path>
	<path d="M351.029 150.316C349.548 149.729 347.965 149.443 346.372 149.474C343.979 149.474 340.762 145.393 340.762 141.181C340.762 141.181 339.583 128.752 352.713 134.368L351.029 150.316Z" fill="#9B6E65"></path>
	<path d="M392.362 187.25L373.959 277.907C373.959 277.907 402.462 284.777 419.93 274.706L424.344 148.744C424.344 148.744 404.8 141.911 392.362 187.25Z" fill="#F0F0F0"></path>
	<path d="M396.626 237.136L414.244 236.182C414.244 236.182 414.655 263.156 404.144 262.108C404.144 262.108 389.725 265.253 396.626 237.136Z" fill="#DDDDDD"></path>
	<path d="M418.751 146.572C416.672 144.706 413.938 143.742 411.15 143.893C408.362 144.044 405.747 145.297 403.882 147.377C392.561 160.53 381.948 174.277 372.088 188.56C370.872 190.282 369.563 192.023 368.142 193.745L366.271 196.047L368.31 198.2C370.48 200.503 372.761 202.73 374.968 204.883L378.522 208.421L381.121 211.042L383.497 208.215C385.61 205.688 387.555 203.161 389.294 200.727C398.698 187.152 408.798 174.075 419.555 161.548C420.488 160.513 421.208 159.304 421.673 157.991C422.137 156.677 422.338 155.284 422.263 153.893C422.189 152.501 421.84 151.138 421.237 149.882C420.634 148.625 419.789 147.501 418.751 146.572V146.572Z" fill="#DDDDDD"></path>
	<path d="M370.415 187.91L363.303 195.833L381.819 212.485L388.932 204.562L370.415 187.91Z" fill="#F8FDFF"></path>
	<path d="M399.15 136.501L415.347 142.847C415.347 142.847 422.229 109.34 417.217 104.304C417.198 104.304 399.15 102.601 399.15 136.501Z" fill="#343536"></path>
	<path d="M418.134 110.145C418.713 111.006 431.225 119.392 441.119 117.071C441.119 117.071 439.436 102.245 416.432 104.379L418.134 110.145Z" fill="#343536"></path>
	<path d="M427.84 125.981C427.844 127.378 427.433 128.744 426.661 129.907C425.888 131.07 424.788 131.978 423.5 132.515C422.212 133.052 420.794 133.194 419.425 132.924C418.056 132.654 416.798 131.983 415.81 130.997C414.822 130.011 414.149 128.753 413.875 127.384C413.602 126.014 413.74 124.594 414.273 123.304C414.806 122.013 415.71 120.91 416.87 120.134C418.03 119.357 419.394 118.943 420.789 118.943C421.714 118.94 422.631 119.121 423.486 119.473C424.341 119.826 425.119 120.344 425.774 120.998C426.429 121.652 426.948 122.428 427.303 123.284C427.657 124.139 427.84 125.055 427.84 125.981V125.981Z" stroke="#95BF47" stroke-width="0.87" stroke-miterlimit="10"></path>
	<path d="M443.72 127.329C443.72 128.539 443.361 129.723 442.689 130.73C442.017 131.736 441.062 132.521 439.944 132.984C438.827 133.447 437.597 133.569 436.411 133.332C435.225 133.096 434.135 132.513 433.28 131.657C432.424 130.801 431.842 129.71 431.606 128.523C431.37 127.336 431.491 126.105 431.954 124.986C432.417 123.868 433.201 122.912 434.206 122.239C435.212 121.567 436.394 121.208 437.604 121.208C438.408 121.205 439.204 121.362 439.947 121.668C440.69 121.975 441.366 122.426 441.934 122.995C442.502 123.564 442.953 124.24 443.259 124.983C443.566 125.727 443.722 126.524 443.72 127.329Z" stroke="#95BF47" stroke-width="0.75" stroke-miterlimit="10"></path>
	<path d="M427.84 125.981C428.451 125.723 429.119 125.632 429.776 125.718C430.433 125.803 431.056 126.062 431.58 126.468" stroke="#95BF47" stroke-width="0.87" stroke-miterlimit="10"></path>
	<path d="M223.067 138.28H222.562C220.781 138.15 219.125 137.318 217.957 135.967C216.789 134.615 216.205 132.855 216.334 131.073C216.646 128.062 217.305 125.097 218.298 122.237C218.586 121.4 219.037 120.628 219.623 119.965C220.21 119.303 220.921 118.762 221.717 118.374C222.512 117.987 223.376 117.76 224.259 117.706C225.142 117.653 226.027 117.774 226.863 118.063C227.7 118.352 228.471 118.802 229.133 119.39C229.795 119.977 230.336 120.689 230.723 121.485C231.11 122.281 231.337 123.146 231.39 124.029C231.444 124.913 231.323 125.799 231.034 126.636C230.428 128.391 230.001 130.204 229.762 132.046C229.644 133.741 228.886 135.328 227.643 136.485C226.4 137.642 224.764 138.284 223.067 138.28V138.28Z" fill="#C78976"></path>
	<path d="M219.064 325.398C225.669 328.492 232.82 330.248 240.105 330.565C247.38 317.611 269.3 282.512 249.363 253.722L221.159 238.541C221.159 238.541 249.363 268.005 219.064 325.398Z" fill="#252627"></path>
	<path d="M233.652 336.873C233.652 336.873 236.252 331.576 238.29 328.038C236.776 327.85 229.93 327.57 227.069 326.484C223.433 333.044 219.28 339.304 214.65 345.203H252.542L233.652 336.873Z" fill="#252627"></path>
	<path d="M280.52 255.406C275.807 246.253 241.581 218.679 238.495 202.843C238.215 201.439 237.972 199.997 237.766 198.537C232.267 201.439 225.142 202.281 219.493 202.524C213.078 202.843 209.244 203.236 203.035 200.222C203.559 210.049 201.969 219.54 207.692 229.48C219.063 249.248 256.824 266.151 261.05 272.684C269.354 285.563 272.272 313.511 275.059 330.564C279.51 330.564 290.021 330.359 294.378 328.824C292.92 320.082 295.295 284.084 280.52 255.406Z" fill="#343536"></path>
	<path d="M292.321 335.338C292.321 335.338 291.087 330.359 290.731 328.038C286.392 329.554 283.867 328.038 279.51 328.038C280.183 332.268 279.678 340.168 280.071 344.885H315.998L292.321 335.338Z" fill="#252627"></path>
	<path d="M219.756 207.691C225.217 207.448 236.719 205.913 241.32 201.308C240.385 193.82 237.018 181.69 238.215 171.956C242.218 138.954 226.115 129.07 226.115 129.07C226.115 129.07 218.634 123.885 212.705 130.081C203.634 139.44 194.807 165.816 195.686 204.846C201.932 208.066 213.191 207.991 219.756 207.691Z" fill="#F0F0F0"></path>
	<path d="M302.309 218.099C301.763 218.098 301.218 218.041 300.682 217.931C274.742 211.903 252.785 196.347 237.094 173.004C230.071 162.595 224.72 151.15 221.234 139.085C220.847 137.271 221.178 135.379 222.156 133.804C223.134 132.229 224.684 131.095 226.48 130.64C228.276 130.184 230.178 130.443 231.788 131.361C233.397 132.28 234.588 133.787 235.111 135.566C238.276 146.224 243.071 156.327 249.325 165.517C263.071 185.902 281.437 198.893 303.918 204.116C305.643 204.497 307.166 205.504 308.192 206.943C309.219 208.382 309.676 210.151 309.476 211.908C309.276 213.664 308.433 215.285 307.109 216.456C305.786 217.627 304.076 218.266 302.309 218.249V218.099Z" fill="#C78976"></path>
	<path d="M307.621 218.623C305.17 218.603 302.728 218.346 300.327 217.856C299.814 217.712 299.374 217.38 299.096 216.925C298.817 216.471 298.72 215.928 298.824 215.406C298.928 214.883 299.225 214.419 299.656 214.106C300.088 213.793 300.621 213.655 301.149 213.719C307.415 214.973 312.652 214.505 316.691 212.352C317.188 212.093 317.767 212.04 318.302 212.205C318.838 212.37 319.287 212.738 319.553 213.232C319.683 213.476 319.764 213.744 319.79 214.02C319.816 214.295 319.788 214.573 319.706 214.838C319.624 215.103 319.491 215.348 319.314 215.561C319.137 215.774 318.919 215.949 318.674 216.077C315.258 217.831 311.459 218.706 307.621 218.623V218.623Z" fill="#C78976"></path>
	<path d="M307.92 213.962C306.888 213.959 305.856 213.884 304.834 213.737C304.545 213.715 304.263 213.634 304.007 213.498C303.75 213.362 303.524 213.175 303.343 212.948C303.162 212.721 303.029 212.46 302.954 212.179C302.878 211.899 302.861 211.606 302.904 211.318C302.946 211.031 303.047 210.756 303.201 210.509C303.354 210.263 303.557 210.051 303.796 209.886C304.035 209.721 304.305 209.607 304.59 209.552C304.875 209.496 305.168 209.5 305.451 209.563C309.971 210.028 314.527 209.142 318.543 207.017C319.028 206.746 319.6 206.676 320.135 206.823C320.67 206.97 321.127 207.322 321.405 207.803C321.545 208.041 321.636 208.304 321.673 208.578C321.711 208.852 321.693 209.13 321.622 209.396C321.55 209.663 321.426 209.913 321.258 210.131C321.089 210.349 320.878 210.532 320.638 210.667C316.722 212.765 312.361 213.895 307.92 213.962V213.962Z" fill="#C78976"></path>
	<path d="M306.05 209.75H305.059C304.518 209.689 304.022 209.421 303.673 209.003C303.325 208.584 303.151 208.047 303.189 207.504C303.203 207.228 303.272 206.957 303.392 206.708C303.512 206.458 303.681 206.236 303.888 206.053C304.096 205.869 304.337 205.73 304.599 205.641C304.861 205.553 305.138 205.518 305.414 205.538C306.807 205.669 308.212 205.49 309.528 205.014C310.843 204.539 312.038 203.778 313.026 202.787C313.392 202.399 313.891 202.163 314.423 202.128C314.955 202.093 315.48 202.26 315.894 202.596C316.308 202.932 316.58 203.413 316.655 203.941C316.73 204.469 316.603 205.006 316.299 205.445C314.997 206.853 313.408 207.966 311.641 208.709C309.873 209.451 307.966 209.806 306.05 209.75V209.75Z" fill="#C78976"></path>
	<path d="M298.774 206.212C298.25 206.163 297.764 205.92 297.41 205.53C297.056 205.141 296.859 204.633 296.859 204.107C296.859 203.58 297.056 203.072 297.41 202.683C297.764 202.293 298.25 202.05 298.774 202.001C300.084 201.94 301.365 201.591 302.525 200.98C303.685 200.369 304.697 199.509 305.488 198.463C305.806 198.003 306.293 197.689 306.841 197.589C307.39 197.489 307.957 197.611 308.415 197.929C308.874 198.247 309.188 198.734 309.288 199.284C309.388 199.833 309.266 200.4 308.948 200.859C307.765 202.461 306.236 203.775 304.474 204.702C302.712 205.629 300.764 206.145 298.774 206.212V206.212Z" fill="#C78976"></path>
	<path d="M286.543 196.59C271.817 189.431 259.314 178.399 250.372 164.674C244.215 155.617 239.484 145.667 236.345 135.172C236.077 134.097 235.599 133.086 234.938 132.197C234.278 131.308 233.449 130.559 232.498 129.992C231.547 129.425 230.494 129.051 229.398 128.893C228.303 128.735 227.187 128.795 226.115 129.07C225.043 129.338 224.035 129.816 223.148 130.476C222.262 131.136 221.514 131.964 220.947 132.913C220.381 133.863 220.007 134.915 219.848 136.009C219.688 137.103 219.746 138.218 220.018 139.29V139.459C223.207 152.797 228.64 165.495 236.083 177.01C248.032 195.339 265.274 209.592 285.514 217.874C285.664 217.932 285.822 217.964 285.982 217.968C286.236 217.968 286.484 217.889 286.693 217.743C286.863 217.626 287.003 217.47 287.101 217.287C287.198 217.105 287.251 216.902 287.254 216.695V197.732C287.258 197.493 287.193 197.258 287.067 197.056C286.941 196.853 286.759 196.691 286.543 196.59V196.59Z" fill="#DDDDDD"></path>
	<path d="M291.892 158.646C291.559 158.647 291.23 158.568 290.934 158.415C290.637 158.262 290.382 158.039 290.19 157.767C288.402 155.349 287.129 152.591 286.45 149.661C286.377 149.378 286.363 149.083 286.41 148.794C286.457 148.505 286.563 148.229 286.722 147.984C286.881 147.738 287.089 147.528 287.333 147.367C287.577 147.206 287.852 147.098 288.14 147.048C288.428 146.999 288.723 147.01 289.006 147.081C289.29 147.151 289.556 147.28 289.787 147.459C290.019 147.637 290.21 147.862 290.351 148.119C290.491 148.375 290.576 148.658 290.602 148.95C291.192 151.25 292.228 153.413 293.65 155.314C293.813 155.538 293.931 155.791 293.995 156.06C294.06 156.329 294.071 156.608 294.028 156.881C293.984 157.154 293.887 157.416 293.742 157.652C293.597 157.887 293.407 158.092 293.183 158.253C292.806 158.519 292.353 158.657 291.892 158.646Z" fill="#C78976"></path>
	<path d="M292.342 159.677H291.93C287.348 159.067 282.731 158.766 278.109 158.778C277.816 158.806 277.52 158.772 277.241 158.679C276.962 158.585 276.705 158.435 276.488 158.236C276.27 158.038 276.096 157.797 275.977 157.527C275.858 157.258 275.797 156.966 275.797 156.672C275.797 156.377 275.858 156.086 275.977 155.816C276.096 155.547 276.27 155.305 276.488 155.107C276.705 154.909 276.962 154.758 277.241 154.665C277.52 154.572 277.816 154.538 278.109 154.566C283.001 154.548 287.888 154.873 292.734 155.539C293.233 155.655 293.673 155.947 293.972 156.363C294.271 156.778 294.41 157.288 294.362 157.799C294.314 158.309 294.083 158.784 293.711 159.136C293.339 159.488 292.853 159.694 292.342 159.714V159.677Z" fill="#C78976"></path>
	<path d="M276.948 163.964C276.393 163.998 275.846 163.811 275.429 163.442C275.012 163.073 274.758 162.554 274.723 161.998C274.688 161.442 274.875 160.894 275.244 160.477C275.612 160.059 276.131 159.804 276.687 159.77C278.033 159.601 289.778 158.16 293.669 158.834C294.186 158.964 294.635 159.286 294.926 159.735C295.216 160.183 295.326 160.725 295.234 161.251C295.141 161.778 294.853 162.249 294.428 162.572C294.002 162.895 293.47 163.044 292.939 162.99C290.526 162.559 282.017 163.346 277.21 163.945L276.948 163.964Z" fill="#C78976"></path>
	<path d="M279.735 168.736C279.223 168.716 278.737 168.51 278.365 168.158C277.994 167.806 277.762 167.331 277.714 166.821C277.666 166.311 277.805 165.801 278.104 165.385C278.404 164.97 278.843 164.677 279.342 164.562C282.374 164.049 285.363 163.305 288.282 162.334C289.423 161.96 290.863 161.51 293.013 160.874C293.548 160.729 294.118 160.801 294.6 161.072C295.083 161.344 295.44 161.794 295.594 162.326C295.748 162.858 295.688 163.43 295.426 163.918C295.163 164.406 294.72 164.772 294.192 164.936C292.097 165.535 290.75 165.966 289.553 166.359C286.499 167.371 283.373 168.153 280.202 168.699L279.735 168.736Z" fill="#C78976"></path>
	<path d="M284.223 172.087C283.7 172.077 283.2 171.874 282.818 171.516C282.436 171.159 282.2 170.672 282.156 170.151C282.112 169.629 282.262 169.11 282.579 168.693C282.895 168.276 283.354 167.991 283.868 167.894C290.676 166.733 292.041 164.15 292.041 164.15C292.244 163.654 292.627 163.254 293.114 163.03C293.6 162.806 294.154 162.775 294.662 162.944C295.17 163.113 295.596 163.468 295.852 163.939C296.108 164.409 296.177 164.96 296.043 165.479C295.781 166.303 293.967 170.44 284.579 172.049L284.223 172.087Z" fill="#C78976"></path>
	<path d="M292.341 169.541L290.732 152.375C292.827 152.543 294.776 153.516 296.171 155.089C297.565 156.663 298.297 158.716 298.213 160.818C298.232 163.42 297.465 166.378 292.341 169.541Z" fill="#C78976"></path>
	<path d="M244.967 113.607C245.873 117.06 245.374 120.732 243.579 123.817C241.784 126.902 238.839 129.148 235.391 130.062V130.062C231.939 130.975 228.266 130.478 225.179 128.681C222.093 126.883 219.846 123.933 218.933 120.477L216.558 111.455C216.103 109.745 215.99 107.962 216.224 106.209C216.459 104.455 217.036 102.765 217.924 101.235C218.812 99.7049 219.992 98.3651 221.397 97.2921C222.803 96.2191 224.406 95.434 226.115 94.9817V94.9817C227.824 94.527 229.606 94.4144 231.359 94.6502C233.112 94.8861 234.802 95.4657 236.331 96.356C237.859 97.2463 239.198 98.4298 240.269 99.8386C241.34 101.247 242.123 102.854 242.573 104.566L244.967 113.607Z" fill="#C78976"></path>
	<path d="M243.695 108.815C242.802 111.707 241.186 114.323 239 116.415C236.214 118.725 232.854 120.237 229.278 120.791C225.702 121.345 222.043 120.919 218.689 119.56L218.933 120.478C219.912 123.856 222.171 126.717 225.229 128.45C228.287 130.184 231.9 130.652 235.298 129.756C238.696 128.859 241.61 126.668 243.416 123.651C245.222 120.634 245.779 117.03 244.967 113.608L243.695 108.815Z" fill="#343536"></path>
	<path d="M218.895 119.991C213.845 116.734 208.384 104.398 216.37 101.702C221.308 100.017 219.325 115.255 219.325 119.56L218.895 119.991Z" fill="#343536"></path>
	<path d="M214.836 102.713C208.739 98.2767 216.314 85.7534 231.388 85.7534C240.739 85.7534 240.739 92.9042 234.212 96.7604C228.844 99.9614 220.559 98.0895 216.538 103.556L214.836 102.713Z" fill="#343536"></path>
	<path d="M243.695 111.586C240.751 107.248 238.083 102.727 235.709 98.0517C234.662 95.7118 233.241 91.7059 237.954 94.5512C241.881 96.9286 244.032 105.334 243.658 109.527L243.695 111.586Z" fill="#343536"></path>
	<path d="M137.053 141.537C134.612 143.6 132.283 145.793 130.077 148.107L99.6855 211.641L122.297 182.401L146.33 132.701C143.206 135.678 140.177 138.635 137.053 141.537Z" fill="#799F32"></path>
	<path d="M119.023 131.11C121.23 128.096 123.343 124.558 125.849 121.432L72.659 95.4497L22.1621 100.504L110.588 141.312C113.524 137.999 116.442 134.648 119.023 131.11Z" fill="#6F9529"></path>
	<path d="M126.616 121.807C123.792 125.345 121.492 129.519 118.78 132.814C116.349 135.79 113.899 138.748 111.393 141.668L151.603 160.219L166.191 141.144L126.616 121.807Z" fill="#A9DA4D"></path>
	<path d="M66.0762 195.542L81.6741 162.933L0 123.81L13.0918 96.3859L147.601 17.0908L184.295 34.687L130.357 147.471L152.557 158.122L137.595 189.627L115.357 178.975L99.7782 211.585L66.0762 195.542ZM126.579 69.0369L124.522 68.0448L52.5729 110.201L96.7671 131.372L126.579 69.0369Z" fill="#95BF47"></path>
	<path d="M152.614 158.141L166.192 141.144L155.531 164.823L137.016 190.712L152.614 158.141Z" fill="#799F32"></path>
	<path d="M147.394 131.747L200.435 15.3687L184.35 34.687L130.412 147.471C131.871 146.029 146.534 132.608 147.394 131.747Z" fill="#799F32"></path>
	<path d="M13.1113 96.3858L37.088 75.495L168.511 0L147.62 17.0907L13.1113 96.3858Z" fill="#A9DA4D"></path>
	<path d="M147.619 17.0907L184.332 34.6869L200.435 15.3873L168.51 0L147.619 17.0907Z" fill="#BAEA61"></path>
	<path d="M102.564 102.095C98.0567 98.8752 94.9521 100.223 92.7826 100.635C91.3313 100.829 89.8587 100.497 88.6306 99.6989C88.3997 99.5489 88.1416 99.4459 87.871 99.3958C87.6004 99.3457 87.3225 99.3495 87.0533 99.4068C86.7841 99.4642 86.5289 99.5741 86.3021 99.7302C86.0754 99.8863 85.8815 100.086 85.7317 100.317C85.5819 100.548 85.479 100.806 85.4289 101.077C85.3789 101.348 85.3826 101.626 85.4399 101.895C85.4972 102.165 85.607 102.42 85.763 102.647C85.9189 102.874 86.118 103.068 86.3489 103.218C87.9483 104.167 89.6825 104.868 91.4921 105.296C87.9947 108.497 84.4225 112.353 84.2168 112.578C84.0289 112.781 83.8831 113.02 83.7879 113.28C83.6928 113.54 83.65 113.817 83.6622 114.093C83.6744 114.37 83.7412 114.642 83.8589 114.892C83.9765 115.143 84.1427 115.368 84.3477 115.554C84.7348 115.91 85.2434 116.104 85.7691 116.097C86.0599 116.096 86.3475 116.035 86.6143 115.919C86.8811 115.803 87.1217 115.635 87.3214 115.423C87.3214 115.423 89.8463 112.69 92.6142 110.013C90.0333 113.252 87.6207 116.602 87.1718 117.22C86.9444 117.537 86.8087 117.91 86.7797 118.298C86.7507 118.687 86.8296 119.076 87.0076 119.423C87.1856 119.769 87.4558 120.06 87.7884 120.263C88.121 120.465 88.5031 120.572 88.8924 120.571C89.2253 120.569 89.553 120.488 89.8487 120.335C90.1445 120.182 90.4 119.962 90.5944 119.691C91.9784 117.819 93.9234 115.161 95.775 112.821C95.083 114.188 94.204 115.741 92.4646 118.568C92.3172 118.802 92.2177 119.064 92.1717 119.337C92.1258 119.61 92.1344 119.889 92.197 120.159C92.2596 120.429 92.3749 120.684 92.5365 120.909C92.698 121.133 92.9024 121.324 93.1379 121.469C93.6123 121.762 94.183 121.856 94.726 121.73C95.2689 121.604 95.7401 121.268 96.0368 120.796L97.9071 117.838C97.7247 118.29 97.7052 118.791 97.8519 119.256C97.9987 119.72 98.3026 120.119 98.7113 120.384C99.052 120.602 99.4476 120.719 99.8522 120.721C100.202 120.723 100.546 120.636 100.854 120.469C101.161 120.302 101.421 120.06 101.61 119.766C103.18 117.499 104.316 114.96 104.958 112.278H105.051C106.136 106.438 104.715 103.63 102.564 102.095ZM98.3185 116.921C99.0105 115.704 99.4781 114.768 99.927 113.851C99.4706 114.914 98.9329 115.94 98.3185 116.921V116.921Z" fill="#FFBE9D"></path>
	<path d="M38.0968 125.981C31.4386 125.607 21.7507 138.654 31.6444 142.211C22.7045 142.005 20.4228 154.678 28.7081 158.178C14.3445 155.37 16.009 174.015 22.8167 180.772C21.6615 180.628 20.4886 180.747 19.3855 181.119C18.2823 181.492 17.2773 182.108 16.4451 182.923C15.613 183.738 14.9751 184.731 14.579 185.826C14.183 186.922 14.0389 188.093 14.1575 189.252C14.8682 194.082 16.7758 200.783 28.7268 204.377C40.6777 207.972 47.9904 201.251 53.9378 194.905C57.6783 202.693 76.5492 192.172 74.5106 182.869C81.5989 185.377 87.9578 177.253 88.1074 170.87C88.257 164.487 83.8432 159.788 79.6538 155.707C82.6088 152.993 83.1699 147.995 82.3844 144.157C81.0939 137.793 73.1454 137.175 73.1454 132.102C73.1454 130.343 73.482 124.839 71.9671 122.424C69.5732 118.568 65.4025 114.768 60.1471 116.64C38.0967 106.157 38.0968 125.981 38.0968 125.981Z" fill="#343536"></path>
	<path d="M50.9652 330.565C44.9056 329.498 43.9143 329.797 37.8734 328.337L23.9961 345.334H77.8782L46.5888 336.91L50.9652 330.565Z" fill="#252627"></path>
	<path d="M151.322 335.431L148.124 331.238C145.287 333.135 142.228 334.675 139.016 335.825L147.525 345.334H179.095L151.322 335.431Z" fill="#252627"></path>
	<path d="M32.2051 330.621C38.246 332.099 44.2869 333.634 50.4027 334.664L94.8961 279.872L87.415 258.102L56.2566 222.142L65.2338 273.096L32.2051 330.621Z" fill="#252627"></path>
	<path d="M92.709 207.055C80.515 203.816 63.9445 207.916 52.0684 212.408C52.0684 212.408 59.3624 241.442 64.1502 250.09C78.0649 275.305 138.325 338.24 138.325 338.24C141.635 337.116 148.013 332.455 150.93 330.565L92.709 207.055Z" fill="#343536"></path>
	<path d="M50.478 223.752C62.2606 219.334 86.0129 211.846 98.0573 214.879C98.0573 214.879 81.9731 177.103 74.6791 168.773C69.7603 163.157 42.8848 147.302 42.8848 168.006C43.2024 186.823 45.7513 205.536 50.478 223.752V223.752Z" fill="#F0F0F0"></path>
	<path d="M60.9134 166.246L60.4459 166.396C58.7198 166.86 56.8804 166.62 55.3308 165.729C53.7812 164.837 52.6479 163.368 52.1793 161.641C51.5011 158.693 51.1436 155.681 51.1133 152.656C51.2043 150.928 51.9543 149.3 53.2087 148.109C54.4632 146.918 56.1264 146.254 57.8555 146.254C59.5847 146.254 61.2479 146.918 62.5024 148.109C63.7568 149.3 64.5069 150.928 64.5978 152.656C64.59 154.544 64.7907 156.428 65.1963 158.272C65.5948 159.896 65.3774 161.61 64.5863 163.083C63.7952 164.556 62.4866 165.683 60.9134 166.246Z" fill="#FFBE9D"></path>
	<path d="M65.4598 159.676C65.4308 159.183 65.3557 158.694 65.2354 158.216C64.8298 156.372 64.6291 154.488 64.6369 152.6C64.5459 150.872 63.7959 149.244 62.5415 148.053C61.287 146.862 59.6238 146.198 57.8946 146.198C56.1655 146.198 54.5022 146.862 53.2478 148.053C51.9933 149.244 51.2433 150.872 51.1523 152.6C51.1523 152.693 51.1523 152.899 51.1523 153.18C54.4814 156.98 59.9613 158.759 65.4598 159.676Z" fill="#EB996E"></path>
	<path d="M72.1354 139.365C73.1788 142.58 72.9039 146.078 71.3713 149.09C69.8387 152.102 67.1737 154.381 63.9624 155.427V155.427C60.748 156.466 57.2531 156.189 54.2422 154.656C51.2314 153.123 48.9499 150.459 47.8969 147.246L45.1663 138.823C44.6501 137.23 44.4525 135.551 44.5848 133.881C44.7172 132.212 45.1768 130.585 45.9375 129.093C46.6983 127.602 47.7452 126.275 49.0184 125.188C50.2916 124.102 51.7662 123.277 53.358 122.761V122.761C56.5699 121.722 60.0623 122 63.0701 123.533C66.0779 125.066 68.3559 127.731 69.4048 130.942L72.1354 139.365Z" fill="#FFBE9D"></path>
	<path d="M147.058 132.589C146.795 132.379 146.488 132.232 146.16 132.159L147.17 131.054C147.359 130.852 147.506 130.614 147.603 130.355C147.7 130.095 147.744 129.819 147.734 129.543C147.723 129.266 147.658 128.994 147.542 128.742C147.426 128.491 147.262 128.265 147.058 128.078L146.721 127.816C147.007 127.401 147.136 126.898 147.085 126.397C147.033 125.896 146.805 125.43 146.441 125.083C146.157 124.819 145.806 124.639 145.426 124.563C145.046 124.487 144.653 124.518 144.29 124.652C145.244 123.679 145.842 123.005 145.917 122.93C146.236 122.504 146.384 121.974 146.329 121.444C146.275 120.915 146.024 120.425 145.625 120.073C145.226 119.721 144.709 119.532 144.177 119.545C143.646 119.558 143.138 119.77 142.756 120.141C140.012 123.187 136.866 125.845 133.405 128.04C132.205 126.179 130.489 124.709 128.467 123.81C127.96 123.665 127.417 123.715 126.945 123.951C126.473 124.186 126.106 124.59 125.916 125.083C125.726 125.575 125.727 126.121 125.919 126.613C126.111 127.105 126.479 127.507 126.953 127.741C128.168 128.33 129.193 129.252 129.908 130.399C129.684 131.005 129.521 131.632 129.421 132.271C98.4312 174.24 57.3603 159.339 55.4901 158.628C53.7428 158.048 51.8398 158.164 50.1758 158.952C48.5118 159.739 47.2144 161.137 46.5529 162.857C45.8913 164.576 45.9164 166.484 46.6228 168.185C47.3292 169.886 48.6627 171.25 50.3469 171.993C58.354 174.748 66.7735 176.109 75.24 176.018C78.2899 176.022 81.3374 175.846 84.3668 175.494C99.8338 173.622 122.707 164.786 140.998 141.2C141.438 140.944 141.863 140.663 142.27 140.358C142.665 140.103 143.045 139.829 143.411 139.534V139.534C144.83 138.311 146.143 136.971 147.338 135.528C147.679 135.096 147.84 134.55 147.788 134.002C147.736 133.455 147.474 132.948 147.058 132.589V132.589Z" fill="#FFBE9D"></path>
	<path d="M90.0153 158.815L88.276 159.189C83.9732 160.113 79.5848 160.577 75.1842 160.574C68.6551 160.655 62.1599 159.623 55.9766 157.523C53.893 156.723 51.5776 156.782 49.5375 157.687C47.4973 158.592 45.8987 160.27 45.0917 162.352C44.6441 163.371 44.4254 164.476 44.4513 165.589C44.4771 166.702 44.7468 167.795 45.2414 168.792C49.3559 176.092 60.6523 179.05 75.1655 179.05C78.2905 179.051 81.4128 178.87 84.5168 178.507C86.4705 178.288 88.4119 177.97 90.3332 177.553L91.5489 177.234C90.4612 173.745 89.7526 170.149 89.4355 166.508C89.4732 163.934 89.6668 161.365 90.0153 158.815V158.815Z" fill="#DDDDDD"></path>
	<path d="M44.7932 145.599C49.2257 142.772 50.7406 137.512 50.2543 132.233C54.1445 134.854 57.2117 133.263 59.6056 128.77C66.9557 139.085 78.1399 123.754 62.8786 118.194C50.6658 113.757 38.6962 125.85 41.8382 137.999L44.7932 145.599Z" fill="#343536"></path>
	</svg>