<svg xmlns="http://www.w3.org/2000/svg" width="40" height="40" viewBox="0 0 40 40" fill="none"><path d="M30 31.4333H28.7333C27.4 31.4333 26.1333 31.95 25.2 32.8833L22.35 35.7001C21.05 36.9834 18.9333 36.9834 17.6333 35.7001L14.7833 32.8833C13.85 31.95 12.5667 31.4333 11.25 31.4333H10C7.23333 31.4333 5 29.2167 5 26.4834V8.29999C5 5.56665 7.23333 3.35004 10 3.35004H30C32.7667 3.35004 35 5.56665 35 8.29999V26.4834C35 29.2 32.7667 31.4333 30 31.4333Z" stroke="white" stroke-width="1.5" stroke-miterlimit="10" stroke-linecap="round" stroke-linejoin="round"></path><path opacity="0.4" d="M11.6667 15.2667C11.6667 13.7167 12.9333 12.45 14.4833 12.45C16.0333 12.45 17.3 13.7167 17.3 15.2667C17.3 18.4001 12.85 18.7334 11.8666 21.7167C11.6666 22.3334 12.1833 22.95 12.8333 22.95H17.3" stroke="white" stroke-width="1.5" stroke-linecap="round" stroke-linejoin="round"></path><path opacity="0.4" d="M26.7333 22.9333V13.4167C26.7333 12.9834 26.45 12.5999 26.0333 12.4833C25.6166 12.3666 25.1667 12.5333 24.9333 12.8999C23.7333 14.8333 22.4333 17.0333 21.3 18.9666C21.1166 19.2833 21.1166 19.7 21.3 20.0166C21.4833 20.3333 21.8333 20.5332 22.2166 20.5332H28.3333" stroke="white" stroke-width="1.5" stroke-linecap="round" stroke-linejoin="round"></path></svg>