<svg width="28" height="28" viewBox="0 0 28 28" fill="none" xmlns="http://www.w3.org/2000/svg">
<path d="M14 11.375V15.75" stroke="#222222" stroke-width="1.5" stroke-linecap="round" stroke-linejoin="round"/>
<path d="M12.4855 4.37333L2.86305 20.9975C2.70908 21.2635 2.62788 21.5654 2.62763 21.8727C2.62737 22.1801 2.70807 22.4821 2.8616 22.7483C3.01513 23.0146 3.23608 23.2357 3.50221 23.3895C3.76834 23.5432 4.07028 23.6242 4.37763 23.6242H23.6224C23.9298 23.6242 24.2317 23.5432 24.4979 23.3895C24.764 23.2357 24.9849 23.0146 25.1385 22.7483C25.292 22.4821 25.3727 22.1801 25.3724 21.8727C25.3722 21.5654 25.291 21.2635 25.137 20.9975L15.5146 4.37333C15.3609 4.10775 15.14 3.88726 14.8742 3.73397C14.6084 3.58069 14.3069 3.5 14 3.5C13.6932 3.5 13.3917 3.58069 13.1259 3.73397C12.86 3.88726 12.6392 4.10775 12.4855 4.37333V4.37333Z" stroke="#222222" stroke-width="1.5" stroke-linecap="round" stroke-linejoin="round"/>
<path d="M14 21C14.7249 21 15.3125 20.4124 15.3125 19.6875C15.3125 18.9626 14.7249 18.375 14 18.375C13.2751 18.375 12.6875 18.9626 12.6875 19.6875C12.6875 20.4124 13.2751 21 14 21Z" fill="#222222"/>
</svg>
