<svg xmlns="http://www.w3.org/2000/svg" width="60" height="60" viewBox="0 0 60 60" fill="none"><path d="M53.0002 23.6193C55.8738 23.6193 57.8027 24.9183 58.9836 26.5322V3.5435C58.9836 3.11049 58.4719 2.83494 58.1176 3.11049L29.7359 23.8555H30.4839C33.4362 23.8555 34.932 25.745 34.932 27.7919C34.932 29.4058 34.1054 30.5868 32.9638 31.0985C32.767 31.1772 32.767 31.4528 32.9638 31.5315C34.2628 32.0826 35.2076 33.4603 35.2076 35.1136C35.2076 37.4755 33.6724 39.3256 30.72 39.3256H22.6504C22.4929 39.3256 22.3355 39.2075 22.3355 39.0107V29.2484L1.19684 44.7185C0.842566 45.0334 1.00002 45.5845 1.47239 45.5845H58.4719C58.7474 45.5845 58.9442 45.3877 58.9442 45.1122V37.2787C57.409 38.6958 55.4014 39.6012 52.9609 39.6012C48.3946 39.6012 44.6944 36.452 44.6944 31.6102C44.7337 26.7291 48.4733 23.6193 53.0002 23.6193ZM41.7027 39.0501C41.7027 39.2075 41.5846 39.3256 41.4271 39.3256H38.711C38.5535 39.3256 38.4354 39.2075 38.4354 39.0501V24.131C38.4354 23.9736 38.5535 23.8555 38.711 23.8555H41.4271C41.5846 23.8555 41.7027 23.9736 41.7027 24.131V39.0501Z" fill="#ffffff"></path><path d="M25.957 29.9974H29.7753C30.8775 29.9974 31.5861 29.3676 31.5861 28.3835C31.5861 27.4387 30.8775 26.7695 29.7753 26.7695H25.7995C25.7208 26.7695 25.6421 26.8483 25.6421 26.927V29.7219C25.6421 29.8793 25.7995 29.9974 25.957 29.9974Z" fill="#ffffff"></path><path d="M25.957 36.452H29.9328C31.1531 36.452 31.901 35.7828 31.901 34.6806C31.901 33.6965 31.1924 32.9092 29.9328 32.9092H25.957C25.7995 32.9092 25.6421 33.0273 25.6421 33.2241V36.137C25.6421 36.2945 25.7995 36.452 25.957 36.452Z" fill="#ffffff"></path><path d="M56.5035 28.3046C55.7556 27.3205 54.4959 26.5332 53.0001 26.5332C50.1658 26.5332 48.1189 28.6982 48.1189 31.6112C48.1189 34.5242 50.1658 36.6892 53.0001 36.6892C54.2991 36.6892 55.5194 36.1381 56.1886 35.587C56.2279 35.5476 56.2673 35.4689 56.2673 35.3902V33.8943C56.2673 33.7762 56.1492 33.6581 56.0311 33.6581H52.5277C52.3309 33.6581 52.2128 33.5007 52.2128 33.3432V31.1388C52.2128 30.942 52.3702 30.8239 52.5277 30.8239H59.0228V27.3205L56.9365 28.4621C56.779 28.5014 56.5822 28.4227 56.5035 28.3046Z" fill="#ffffff"></path><path d="M1 52.9853C1 50.8787 2.57457 49.4512 4.6016 49.4512C5.92279 49.4512 6.77343 50.0953 7.28019 50.8787C7.31638 50.931 7.29828 51.018 7.22589 51.0354L6.41145 51.4532C6.35716 51.4881 6.28477 51.4706 6.26667 51.4184C5.9228 50.8961 5.28935 50.5131 4.6016 50.5131C3.24421 50.5131 2.2307 51.5403 2.2307 52.9853C2.2307 54.4128 3.24421 55.4574 4.6016 55.4574C5.28935 55.4574 5.9228 55.0744 6.26667 54.5521C6.30287 54.4999 6.35716 54.4824 6.41145 54.5173L7.22589 54.9177C7.29828 54.9525 7.31638 55.0221 7.28019 55.0918C6.75533 55.8752 5.9047 56.5367 4.6016 56.5367C2.57457 56.5193 1 55.0744 1 52.9853Z" fill="#ffffff"></path><path d="M7.69189 52.9811C7.69189 51.273 8.71564 49.9484 10.2512 49.5649C12.8654 48.9026 15.2603 51.2382 14.6936 53.8352C14.3462 55.4387 13.0117 56.5367 11.2384 56.5367C9.15438 56.5193 7.69189 55.0204 7.69189 52.9811ZM13.5236 52.9811C13.5236 51.5693 12.6095 50.5061 11.2201 50.5061C9.8125 50.5061 8.91672 51.5693 8.91672 52.9811C8.91672 54.3929 9.8125 55.4561 11.2201 55.4561C12.6278 55.4561 13.5236 54.3755 13.5236 52.9811Z" fill="#ffffff"></path><path d="M22.2424 56.0582V50.9798L20.1808 56.0921C20.1808 56.1091 20.1462 56.1261 20.1288 56.1261H19.6957C19.6784 56.1261 19.6438 56.1091 19.6438 56.0921L17.5649 50.9798V56.0582C17.5649 56.1091 17.5302 56.1431 17.4782 56.1431H16.4388C16.3868 56.1431 16.3522 56.1091 16.3522 56.0582V49.5361C16.3522 49.4851 16.3868 49.4512 16.4388 49.4512H17.9287C17.998 49.4512 18.0499 49.4851 18.0846 49.5531L19.9036 54.1389L21.7053 49.5531C21.7227 49.4851 21.7919 49.4512 21.8612 49.4512H23.3511C23.4031 49.4512 23.4377 49.4851 23.4377 49.5361V56.0582C23.4377 56.1091 23.4031 56.1431 23.3511 56.1431H22.3117C22.2943 56.1431 22.2424 56.1091 22.2424 56.0582Z" fill="#ffffff"></path><path d="M34.066 56.0538V49.5709C34.066 49.5025 34.1231 49.4512 34.1992 49.4512H39.0502C39.1263 49.4512 39.1834 49.5025 39.1834 49.5709V50.3578C39.1834 50.4262 39.1263 50.4775 39.0502 50.4775H35.5118C35.4357 50.4775 35.3787 50.5288 35.3787 50.5972V52.0854C35.3787 52.1538 35.4357 52.2051 35.5118 52.2051H38.9741C39.0502 52.2051 39.1073 52.2564 39.1073 52.3249V53.1117C39.1073 53.1801 39.0502 53.2314 38.9741 53.2314H35.5118C35.4357 53.2314 35.3787 53.2828 35.3787 53.3512V54.9762C35.3787 55.0446 35.4357 55.0959 35.5118 55.0959H39.0502C39.1263 55.0959 39.1834 55.1472 39.1834 55.2157V56.0025C39.1834 56.0709 39.1263 56.1223 39.0502 56.1223H34.1992C34.1231 56.1736 34.066 56.1222 34.066 56.0538Z" fill="#ffffff"></path><path d="M44.8092 56.075L43.2946 53.6911C43.2763 53.657 43.2216 53.64 43.1851 53.64H42.1267C42.0537 53.64 41.9989 53.6911 41.9989 53.7592V56.0239C41.9989 56.092 41.9442 56.1431 41.8712 56.1431H40.8858C40.8128 56.1431 40.7581 56.092 40.7581 56.0239V49.5704C40.7581 49.5023 40.8128 49.4512 40.8858 49.4512H43.915C45.3384 49.4512 46.2691 50.3026 46.2691 51.5456C46.2691 52.6524 45.5391 53.2824 44.7362 53.4697C44.645 53.4868 44.6085 53.5719 44.645 53.657C44.9369 54.0998 45.8493 55.462 46.1961 55.9558C46.2508 56.0409 46.1961 56.1431 46.0866 56.1431H44.9369C44.8822 56.1431 44.8457 56.1261 44.8092 56.075ZM44.9734 51.5286C44.9734 50.8815 44.4625 50.4728 43.7508 50.4728H42.1449C42.0719 50.4728 42.0172 50.5239 42.0172 50.592V52.4821C42.0172 52.5502 42.0719 52.6013 42.1449 52.6013H43.7508C44.4625 52.6013 44.9734 52.1926 44.9734 51.5286Z" fill="#ffffff"></path><path d="M54.5354 56.3753V49.5767C54.5354 49.505 54.5835 49.4512 54.6477 49.4512H58.7532C58.8174 49.4512 58.8655 49.505 58.8655 49.5767V50.4198C58.8655 50.4916 58.8174 50.5454 58.7532 50.5454H55.7542C55.6901 50.5454 55.642 50.5992 55.642 50.671V52.2495C55.642 52.3213 55.6901 52.3751 55.7542 52.3751H58.673C58.7372 52.3751 58.7853 52.4289 58.7853 52.5007V53.3437C58.7853 53.4155 58.7372 53.4693 58.673 53.4693H55.7542C55.6901 53.4693 55.642 53.5231 55.642 53.5949V55.3169C55.642 55.3887 55.6901 55.4425 55.7542 55.4425H58.7532C58.8174 55.4425 58.8655 55.4963 58.8655 55.5681V56.4112C58.8655 56.4829 58.8174 56.5367 58.7532 56.5367H54.6477C54.5835 56.5009 54.5354 56.447 54.5354 56.3753Z" fill="#ffffff"></path><path d="M46.6625 52.9853C46.6625 50.8787 48.3355 49.4512 50.4892 49.4512C51.8929 49.4512 52.7967 50.0953 53.3352 50.8787C53.3736 50.931 53.3544 51.018 53.2775 51.0354L52.4121 51.4532C52.3545 51.4881 52.2775 51.4706 52.2583 51.4184C51.8929 50.8961 51.2199 50.5131 50.4892 50.5131C49.047 50.5131 47.9701 51.5403 47.9701 52.9853C47.9701 54.4128 49.047 55.4574 50.4892 55.4574C51.2199 55.4574 51.8929 55.0744 52.2583 54.5521C52.2968 54.4999 52.3545 54.4824 52.4121 54.5173L53.2775 54.9177C53.3544 54.9525 53.3736 55.0221 53.3352 55.0918C52.7775 55.8752 51.8737 56.5367 50.4892 56.5367C48.3355 56.5193 46.6625 55.0918 46.6625 52.9853Z" fill="#ffffff"></path><path d="M30.9024 56.0582V50.9798L28.8408 56.0921C28.8408 56.1091 28.8062 56.1261 28.7889 56.1261H28.3558C28.3384 56.1261 28.3038 56.1091 28.3038 56.0921L26.2249 50.9798V56.0582C26.2249 56.1091 26.1902 56.1431 26.1383 56.1431H25.0988C25.0469 56.1431 25.0122 56.1091 25.0122 56.0582V49.5361C25.0122 49.4851 25.0469 49.4512 25.0988 49.4512H26.5887C26.658 49.4512 26.71 49.4851 26.7446 49.5531L28.5637 54.1389L30.3654 49.5531C30.3827 49.4851 30.452 49.4512 30.5213 49.4512H32.0112C32.0631 49.4512 32.0978 49.4851 32.0978 49.5361V56.0582C32.0978 56.1091 32.0631 56.1431 32.0112 56.1431H30.9717C30.9371 56.1431 30.9024 56.1091 30.9024 56.0582Z" fill="#ffffff"></path></svg>