<svg xmlns="http://www.w3.org/2000/svg" width="46" height="46" viewBox="0 0 46 46" fill="none"><path d="M37.0692 25.4763V26.2263V30.1142C37.0692 33.2268 34.5476 35.75 31.4333 35.75H14.5641C11.4511 35.75 8.92969 33.2266 8.92969 30.1142V26.2263V25.4763H9.67969C11.0496 25.4763 12.1538 24.3721 12.1538 23.0022C12.1538 21.6695 11.0894 20.6533 9.67969 20.6533H8.92942L8.92969 19.9031L8.93113 15.8858C8.93113 15.8857 8.93113 15.8856 8.93113 15.8856C8.93127 12.773 11.4543 10.25 14.5669 10.25H31.4319C34.5447 10.25 37.066 12.7731 37.0663 15.8853L37.0692 25.4763ZM37.0692 25.4763H36.3192C34.9476 25.4763 33.8436 24.3719 33.8436 23.0022C33.8436 21.6312 34.9474 20.5281 36.3192 20.5281H37.0697L37.0692 19.7775L37.0663 15.8858L37.0692 25.4763Z" stroke="#24282C" stroke-width="1.5" stroke-linecap="round"></path><path d="M25.1549 27.5314L25.1572 27.5326C25.9353 27.9383 26.859 27.2837 26.7084 26.404L26.7083 26.4037L26.2956 24.0007L28.0416 22.3019L28.0427 22.3007C28.6787 21.6793 28.3238 20.6061 27.4515 20.4767L27.4494 20.4764L25.0372 20.1256L23.9583 17.9405L23.285 18.271L23.9575 17.9389L23.9577 17.9393C23.5643 17.1401 22.4323 17.1484 22.0403 17.9372L22.0394 17.9389L20.9597 20.1256L18.549 20.4764L18.549 20.4764L18.5469 20.4767C17.6746 20.6061 17.3197 21.6793 17.9556 22.3007L17.9566 22.3017L19.7013 24.0006L19.2886 26.4037L19.2886 26.404C19.1379 27.2837 20.0617 27.9383 20.8397 27.5326L20.842 27.5314L22.9985 26.3974L25.1549 27.5314Z" stroke="#24282C" stroke-width="1.5" stroke-linecap="round"></path></svg>