<svg xmlns="http://www.w3.org/2000/svg" width="60" height="60" viewBox="0 0 60 60" fill="none"><mask id="path-1-inside-1_294_1196" fill="white"><path d="M30 1.25C17.5736 1.25 7.5 11.2963 7.5 23.689C7.5 26.7276 8.47973 33.0807 15.9375 40.5183C19.7531 44.3235 19.8877 46.8669 19.0462 51.0534C18.903 51.766 19.4398 52.439 20.1666 52.439H40.6979C41.3699 52.439 41.8752 51.8614 41.7537 51.2004C41.3122 48.7971 40.7378 45.2364 45.4688 40.5183C50.7539 35.2475 52.5 30 52.5 23.689C52.5 11.2963 42.4264 1.25 30 1.25Z"></path></mask><path d="M15.9375 40.5183L16.6436 39.8102H16.6436L15.9375 40.5183ZM19.0462 51.0534L18.0658 50.8564L19.0462 51.0534ZM41.7537 51.2004L42.7373 51.0197V51.0197L41.7537 51.2004ZM45.4688 40.5183L44.7626 39.8102L45.4688 40.5183ZM8.5 23.689C8.5 11.8511 18.1233 2.25 30 2.25V0.25C17.0239 0.25 6.5 10.7415 6.5 23.689H8.5ZM30 2.25C41.8767 2.25 51.5 11.8511 51.5 23.689H53.5C53.5 10.7415 42.9761 0.25 30 0.25V2.25ZM6.5 23.689C6.5 26.9824 7.57785 33.5936 15.2314 41.2264L16.6436 39.8102C9.38162 32.5679 8.5 26.4729 8.5 23.689H6.5ZM15.2314 41.2264C17.0676 43.0576 17.9223 44.4908 18.2676 45.8836C18.6171 47.2928 18.4807 48.792 18.0658 50.8564L20.0266 51.2505C20.4531 49.1283 20.6702 47.2625 20.2088 45.4022C19.7434 43.5253 18.623 41.7842 16.6436 39.8102L15.2314 41.2264ZM20.1666 53.439H40.6979V51.439H20.1666V53.439ZM42.7373 51.0197C42.5191 49.8323 42.3019 48.5127 42.6481 46.9427C42.9919 45.3838 43.9172 43.4779 46.1749 41.2264L44.7626 39.8102C42.2893 42.2768 41.1364 44.5103 40.695 46.5121C40.256 48.5028 40.5468 50.1653 40.7702 51.3811L42.7373 51.0197ZM46.1749 41.2264C51.6632 35.753 53.5 30.2437 53.5 23.689H51.5C51.5 29.7563 49.8446 34.742 44.7626 39.8102L46.1749 41.2264ZM40.6979 53.439C41.9621 53.439 42.9773 52.3265 42.7373 51.0197L40.7702 51.3811C40.7732 51.3976 40.7712 51.4045 40.7708 51.4056C40.7702 51.4079 40.7688 51.4113 40.765 51.4158C40.7611 51.4203 40.7547 51.4257 40.745 51.4302C40.7362 51.4343 40.7213 51.439 40.6979 51.439V53.439ZM18.0658 50.8564C17.8017 52.1705 18.7906 53.439 20.1666 53.439V51.439C20.089 51.439 20.0043 51.3615 20.0266 51.2505L18.0658 50.8564Z" fill="#24282C" mask="url(#path-1-inside-1_294_1196)"></path><path d="M22.9688 51.7378V57.6143C22.9688 58.2415 23.4772 58.75 24.1044 58.75H37.3018C37.929 58.75 38.4375 58.2415 38.4375 57.6143V51.7378" stroke="#24282C"></path><path d="M30.7857 23.8019L31.9205 15.5023C32.0899 14.2636 30.4256 13.7004 29.8079 14.7874L22.5266 27.602C22.0964 28.3591 22.6432 29.2987 23.514 29.2987H28.2234C28.8804 29.2987 29.4003 29.8546 29.3565 30.5101L28.9154 37.1083C28.8355 38.3047 30.4235 38.7925 31.0289 37.7575L37.4378 26.8004C37.8807 26.0433 37.3346 25.0914 36.4575 25.0914H31.9109C31.2225 25.0914 30.6924 24.4839 30.7857 23.8019Z" stroke="#24282C"></path></svg>