<svg width="28" height="28" viewBox="0 0 28 28" fill="none" xmlns="http://www.w3.org/2000/svg">
<path d="M10.4999 7.875V5.25" stroke="#222222" stroke-width="1.5" stroke-linecap="round" stroke-linejoin="round"/>
<path d="M17.4999 22.75V20.125" stroke="#222222" stroke-width="1.5" stroke-linecap="round" stroke-linejoin="round"/>
<path d="M7.87495 10.5H5.24995" stroke="#222222" stroke-width="1.5" stroke-linecap="round" stroke-linejoin="round"/>
<path d="M22.7499 17.5H20.1249" stroke="#222222" stroke-width="1.5" stroke-linecap="round" stroke-linejoin="round"/>
<path d="M7.76885 14.0439L6.53141 15.2814C5.71134 16.1019 5.25075 17.2146 5.25092 18.3747C5.25109 19.5348 5.71201 20.6473 6.53233 21.4676C7.35264 22.288 8.46517 22.7489 9.62527 22.7491C10.7854 22.7492 11.898 22.2886 12.7186 21.4686L13.956 20.2311" stroke="#222222" stroke-width="1.5" stroke-linecap="round" stroke-linejoin="round"/>
<path d="M20.2312 13.9561L21.4686 12.7186C22.2887 11.8981 22.7493 10.7854 22.7491 9.62533C22.7489 8.46523 22.288 7.3527 21.4677 6.53238C20.6474 5.71207 19.5348 5.25115 18.3747 5.25098C17.2146 5.2508 16.102 5.7114 15.2814 6.53147L14.044 7.7689" stroke="#222222" stroke-width="1.5" stroke-linecap="round" stroke-linejoin="round"/>
</svg>
