<svg width="64" height="64" viewBox="0 0 64 64" fill="none" xmlns="http://www.w3.org/2000/svg">
                                        <path opacity="0.06" fill-rule="evenodd" clip-rule="evenodd" d="M2 2H62V11.7056H2V2ZM6.8528 56.1766H57.1472V62H6.8528V56.1766Z" fill="#24282C"></path>
                                        <path d="M57.1472 62H6.8528M2 2H62V56.1766H2V2Z" stroke="#24282C"></path>
                                        <path d="M7.50181 7.82296C8.03784 7.82296 8.47237 7.38842 8.47237 6.8524C8.47237 6.31637 8.03784 5.88184 7.50181 5.88184C6.96578 5.88184 6.53125 6.31637 6.53125 6.8524C6.53125 7.38842 6.96578 7.82296 7.50181 7.82296Z" fill="#24282C"></path>
                                        <path d="M13.326 7.82296C13.8621 7.82296 14.2966 7.38842 14.2966 6.8524C14.2966 6.31637 13.8621 5.88184 13.326 5.88184C12.79 5.88184 12.3555 6.31637 12.3555 6.8524C12.3555 7.38842 12.79 7.82296 13.326 7.82296Z" fill="#24282C"></path>
                                        <path d="M10.4159 7.82296C10.9519 7.82296 11.3864 7.38842 11.3864 6.8524C11.3864 6.31637 10.9519 5.88184 10.4159 5.88184C9.87985 5.88184 9.44531 6.31637 9.44531 6.8524C9.44531 7.38842 9.87985 7.82296 10.4159 7.82296Z" fill="#24282C"></path>
                                        <path d="M26.3615 31.5566C26.3615 29.8998 27.7046 28.5566 29.3615 28.5566H33.8991C35.5559 28.5566 36.8991 29.8998 36.8991 31.5566V36.9891C36.8991 39.899 34.5401 42.2579 31.6303 42.2579V42.2579C28.7204 42.2579 26.3615 39.899 26.3615 36.9891V31.5566Z" stroke="#24282C" stroke-linecap="round" stroke-linejoin="round"></path>
                                        <path d="M28.4747 28.5566V27.5021C28.4747 25.7562 29.8901 24.3409 31.636 24.3409V24.3409C33.3819 24.3409 34.7973 25.7562 34.7973 27.5021V28.5566" stroke="#24282C" stroke-linecap="round" stroke-linejoin="round"></path>
                                        <path d="M29.5183 24.8666L28.4645 23.8126L27.9376 22.2317" stroke="#24282C" stroke-linejoin="round"></path>
                                        <path d="M33.7359 24.8666L34.7896 23.8126L35.3165 22.2317" stroke="#24282C" stroke-linejoin="round"></path>
                                        <path d="M26.6209 38.8311L23.9865 40.9389L23 44.001" stroke="#24282C" stroke-linejoin="round"></path>
                                        <path d="M36.8976 38.8311L39.532 40.9389L40.0589 44.3643" stroke="#24282C" stroke-linejoin="round"></path>
                                        <path d="M26.3607 31.7164L23.8813 29.8858L22.9515 26.8349L21.0919 25.9197" stroke="#24282C" stroke-linejoin="round"></path>
                                        <path d="M36.9012 31.7166L39.3807 29.8861L40.3105 26.8352L42.17 25.9199" stroke="#24282C" stroke-linejoin="round"></path>
                                        <path d="M26.3577 34.8779H24.7771L22.1427 36.4588" stroke="#24282C" stroke-linejoin="round"></path>
                                        <path d="M36.8964 34.8779H38.477L41.1115 36.4588" stroke="#24282C" stroke-linejoin="round"></path>
                                        <rect x="40.5752" y="20.2956" width="2" height="31" transform="rotate(40 40.5752 20.2956)" fill="#24282C" stroke="white"></rect>
                                        </svg>