<svg xmlns="http://www.w3.org/2000/svg" width="30" height="30" viewBox="0 0 30 30" fill="none"><path d="M4.47461 28.2734L4.12143 28.935L4.47461 28.2734ZM1.69359 25.3599L1.01914 25.688H1.01914L1.69359 25.3599ZM28.3064 25.3599L28.9809 25.688L28.3064 25.3599ZM25.5254 28.2734L25.8786 28.935L25.5254 28.2734ZM25.5254 1.72662L25.8786 1.06498V1.06498L25.5254 1.72662ZM28.3064 4.64006L28.9809 4.31203L28.3064 4.64006ZM4.47461 1.72662L4.12143 1.06498V1.06498L4.47461 1.72662ZM1.69359 4.64006L1.01914 4.31203H1.01914L1.69359 4.64006ZM6.09091 20.0076C5.6767 20.0076 5.34091 20.3434 5.34091 20.7576C5.34091 21.1718 5.6767 21.5076 6.09091 21.5076V20.0076ZM16.2727 21.5076C16.6869 21.5076 17.0227 21.1718 17.0227 20.7576C17.0227 20.3434 16.6869 20.0076 16.2727 20.0076V21.5076ZM6.09091 14.553C5.6767 14.553 5.34091 14.8888 5.34091 15.303C5.34091 15.7172 5.6767 16.053 6.09091 16.053V14.553ZM11.1818 16.053C11.596 16.053 11.9318 15.7172 11.9318 15.303C11.9318 14.8888 11.596 14.553 11.1818 14.553V16.053ZM11.1818 1.75H18.8182V0.25H11.1818V1.75ZM18.8182 28.25H11.1818V29.75H18.8182V28.25ZM11.1818 28.25C9.38687 28.25 8.08791 28.2494 7.06616 28.1619C6.05424 28.0753 5.38205 27.9076 4.82778 27.6117L4.12143 28.935C4.92842 29.3658 5.82785 29.5614 6.93823 29.6564C8.03878 29.7506 9.41279 29.75 11.1818 29.75V28.25ZM0.25 11.6667C0.25 13.5319 0.249943 16.6102 0.337064 19.402C0.380594 20.797 0.446189 22.1315 0.545772 23.2126C0.595512 23.7526 0.654667 24.24 0.72601 24.6453C0.793957 25.0313 0.883559 25.4092 1.01914 25.688L2.36805 25.0319C2.33023 24.9541 2.26811 24.7534 2.2033 24.3852C2.14188 24.0363 2.08725 23.5939 2.03945 23.075C1.94396 22.0383 1.8795 20.7387 1.83633 19.3553C1.75006 16.5904 1.75 13.5351 1.75 11.6667H0.25ZM4.82778 27.6117C3.77408 27.0493 2.91099 26.1482 2.36805 25.0319L1.01914 25.688C1.6964 27.0805 2.78034 28.2192 4.12143 28.935L4.82778 27.6117ZM28.25 11.6667C28.25 13.5351 28.2499 16.5904 28.1637 19.3553C28.1205 20.7387 28.056 22.0383 27.9606 23.075C27.9128 23.5939 27.8581 24.0363 27.7967 24.3852C27.7319 24.7534 27.6698 24.9541 27.6319 25.0319L28.9809 25.688C29.1164 25.4092 29.206 25.0313 29.274 24.6453C29.3453 24.24 29.4045 23.7526 29.4542 23.2126C29.5538 22.1315 29.6194 20.797 29.6629 19.402C29.7501 16.6102 29.75 13.5319 29.75 11.6667H28.25ZM18.8182 29.75C20.5872 29.75 21.9612 29.7506 23.0618 29.6564C24.1722 29.5614 25.0716 29.3658 25.8786 28.935L25.1722 27.6117C24.618 27.9076 23.9458 28.0753 22.9338 28.1619C21.9121 28.2494 20.6131 28.25 18.8182 28.25V29.75ZM27.6319 25.0319C27.089 26.1482 26.2259 27.0493 25.1722 27.6117L25.8786 28.935C27.2197 28.2192 28.3036 27.0805 28.9809 25.688L27.6319 25.0319ZM18.8182 1.75C20.6131 1.75 21.9121 1.75064 22.9338 1.8381C23.9458 1.92471 24.618 2.0924 25.1722 2.38826L25.8786 1.06498C25.0716 0.634222 24.1722 0.438602 23.0618 0.34356C21.9612 0.24936 20.5872 0.25 18.8182 0.25V1.75ZM29.75 11.6667C29.75 9.81164 29.7505 8.37731 29.661 7.2297C29.5709 6.0743 29.3861 5.14528 28.9809 4.31203L27.6319 4.9681C27.9203 5.56093 28.0823 6.27836 28.1656 7.34633C28.2495 8.42208 28.25 9.78801 28.25 11.6667H29.75ZM25.1722 2.38826C26.2259 2.95072 27.089 3.85177 27.6319 4.9681L28.9809 4.31203C28.3036 2.91953 27.2197 1.78084 25.8786 1.06498L25.1722 2.38826ZM11.1818 0.25C9.41279 0.25 8.03878 0.24936 6.93823 0.34356C5.82785 0.438602 4.92842 0.634222 4.12143 1.06498L4.82778 2.38826C5.38205 2.0924 6.05424 1.92471 7.06616 1.8381C8.08791 1.75064 9.38687 1.75 11.1818 1.75V0.25ZM1.75 11.6667C1.75 9.78801 1.75053 8.42208 1.83443 7.34633C1.91772 6.27836 2.07972 5.56093 2.36805 4.9681L1.01914 4.31203C0.613874 5.14528 0.429079 6.0743 0.33897 7.2297C0.249468 8.37731 0.25 9.81164 0.25 11.6667H1.75ZM4.12143 1.06498C2.78034 1.78084 1.6964 2.91953 1.01914 4.31203L2.36805 4.9681C2.91099 3.85177 3.77408 2.95072 4.82778 2.38826L4.12143 1.06498ZM6.09091 21.5076H16.2727V20.0076H6.09091V21.5076ZM6.09091 16.053L11.1818 16.053V14.553L6.09091 14.553V16.053Z" fill="white"></path><circle cx="5.5" cy="5.5" r="0.5" fill="white"></circle><circle cx="7.5" cy="5.5" r="0.5" fill="white"></circle><circle cx="9.5" cy="5.5" r="0.5" fill="white"></circle></svg>