<svg xmlns="http://www.w3.org/2000/svg" width="60" height="60" viewBox="0 0 60 60" fill="none"><rect width="60" height="60" rx="10" fill="#F5F5F5"></rect><path d="M19.8221 43.0463L20.225 42.4137L19.8221 43.0463ZM16.7629 39.2224L17.4575 38.9393L16.7629 39.2224ZM43.237 39.2224L42.5425 38.9393L43.237 39.2224ZM40.1779 43.0463L39.775 42.4137L40.1779 43.0463ZM40.1779 16.9537L39.775 17.5863L40.1779 16.9537ZM43.237 20.7776L43.9316 20.4945L43.237 20.7776ZM19.8221 16.9537L20.225 17.5863L19.8221 16.9537ZM16.7629 20.7776L16.0684 20.4945L16.7629 20.7776ZM34.2 39.5C34.6142 39.5 34.95 39.1642 34.95 38.75C34.95 38.3358 34.6142 38 34.2 38V39.5ZM28.6 38C28.1858 38 27.85 38.3358 27.85 38.75C27.85 39.1642 28.1858 39.5 28.6 39.5V38ZM24.4 39.5C24.8142 39.5 25.15 39.1642 25.15 38.75C25.15 38.3358 24.8142 38 24.4 38V39.5ZM21.6 38C21.1858 38 20.85 38.3358 20.85 38.75C20.85 39.1642 21.1858 39.5 21.6 39.5V38ZM16.0155 26.5L15.2656 26.4885L16.0155 26.5ZM43.9845 26.5L44.7344 26.4885L43.9845 26.5ZM27.2 16.75H32.8V15.25H27.2V16.75ZM32.8 43.25H27.2V44.75H32.8V43.25ZM27.2 43.25C25.2244 43.25 23.799 43.2491 22.6786 43.1347C21.5734 43.0218 20.8376 42.8039 20.225 42.4137L19.4192 43.6789C20.3039 44.2424 21.2969 44.5014 22.5262 44.6269C23.7404 44.7509 25.2552 44.75 27.2 44.75V43.25ZM15.25 30C15.25 32.4403 15.2496 34.3067 15.347 35.7959C15.4446 37.2901 15.6431 38.4621 16.0684 39.5055L17.4575 38.9393C17.1198 38.111 16.9369 37.122 16.8438 35.6981C16.7504 34.2691 16.75 32.4601 16.75 30H15.25ZM20.225 42.4137C19.0566 41.6696 18.0784 40.4625 17.4575 38.9393L16.0684 39.5055C16.7898 41.2751 17.9533 42.7453 19.4192 43.6789L20.225 42.4137ZM43.25 30C43.25 32.4601 43.2496 34.2691 43.1562 35.6981C43.0632 37.122 42.8802 38.111 42.5425 38.9393L43.9316 39.5055C44.3569 38.4621 44.5554 37.2901 44.653 35.7959C44.7504 34.3067 44.75 32.4403 44.75 30H43.25ZM32.8 44.75C34.7448 44.75 36.2596 44.7509 37.4738 44.6269C38.7031 44.5014 39.6961 44.2424 40.5808 43.6789L39.775 42.4137C39.1624 42.8039 38.4266 43.0218 37.3214 43.1347C36.201 43.2491 34.7756 43.25 32.8 43.25V44.75ZM42.5425 38.9393C41.9216 40.4625 40.9434 41.6696 39.775 42.4137L40.5808 43.6789C42.0467 42.7453 43.2102 41.2751 43.9316 39.5055L42.5425 38.9393ZM32.8 16.75C34.7756 16.75 36.201 16.7509 37.3214 16.8653C38.4266 16.9782 39.1624 17.1961 39.775 17.5863L40.5808 16.3211C39.6961 15.7576 38.7031 15.4986 37.4738 15.3731C36.2596 15.2491 34.7448 15.25 32.8 15.25V16.75ZM39.775 17.5863C40.9434 18.3305 41.9216 19.5375 42.5425 21.0607L43.9316 20.4945C43.2102 18.7249 42.0467 17.2547 40.5808 16.3211L39.775 17.5863ZM27.2 15.25C25.2552 15.25 23.7404 15.2491 22.5262 15.3731C21.2969 15.4986 20.3039 15.7576 19.4192 16.3211L20.225 17.5863C20.8376 17.1961 21.5734 16.9782 22.6786 16.8653C23.799 16.7509 25.2244 16.75 27.2 16.75V15.25ZM19.4192 16.3211C17.9533 17.2547 16.7898 18.7249 16.0684 20.4945L17.4575 21.0607C18.0784 19.5375 19.0566 18.3305 20.225 17.5863L19.4192 16.3211ZM34.2 38H28.6V39.5H34.2V38ZM24.4 38H21.6V39.5H24.4V38ZM16.75 30C16.75 28.6621 16.75 27.5143 16.7654 26.5115L15.2656 26.4885C15.25 27.5052 15.25 28.6655 15.25 30H16.75ZM16.7654 26.5115C16.8067 23.8122 16.9619 22.2764 17.4575 21.0607L16.0684 20.4945C15.4541 22.0015 15.3067 23.8005 15.2656 26.4885L16.7654 26.5115ZM43.9845 25.75H16.0155V27.25H43.9845V25.75ZM44.75 30C44.75 28.6655 44.75 27.5052 44.7344 26.4885L43.2346 26.5115C43.25 27.5143 43.25 28.6621 43.25 30H44.75ZM44.7344 26.4885C44.6933 23.8005 44.5459 22.0015 43.9316 20.4945L42.5425 21.0607C43.0381 22.2764 43.1933 23.8122 43.2346 26.5115L44.7344 26.4885Z" fill="#222222"></path></svg>