<svg xmlns="http://www.w3.org/2000/svg" width="31" height="31" viewBox="0 0 31 31" fill="none"><mask id="path-1-outside-1_573_1726" maskUnits="userSpaceOnUse" x="0" y="0" width="31" height="31" fill="black"><rect fill="white" width="31" height="31"></rect><path d="M25.8889 3.55556C25.8889 4.41467 26.5853 5.11111 27.4444 5.11111C28.3036 5.11111 29 4.41467 29 3.55556C29 2.69645 28.3036 2 27.4444 2C26.5853 2 25.8889 2.69645 25.8889 3.55556Z"></path></mask><path d="M19.6667 2.75C20.0809 2.75 20.4167 2.41421 20.4167 2C20.4167 1.58579 20.0809 1.25 19.6667 1.25V2.75ZM29.75 11.3333C29.75 10.9191 29.4142 10.5833 29 10.5833C28.5858 10.5833 28.25 10.9191 28.25 11.3333H29.75ZM4.20611 28.5146L3.76527 29.1213L3.76528 29.1213L4.20611 28.5146ZM2.48542 26.7939L3.09219 26.353H3.09219L2.48542 26.7939ZM25.7939 28.5146L26.2347 29.1213V29.1213L25.7939 28.5146ZM27.5146 26.7939L28.1213 27.2347H28.1213L27.5146 26.7939ZM2.48542 5.20611L1.87866 4.76528H1.87866L2.48542 5.20611ZM4.20611 3.48542L3.76528 2.87866V2.87866L4.20611 3.48542ZM6.54887 20.1141C6.36645 20.486 6.52004 20.9354 6.89192 21.1178C7.2638 21.3002 7.71315 21.1466 7.89557 20.7747L6.54887 20.1141ZM9.49385 15.8135L10.1672 16.1438L9.49385 15.8135ZM20.5061 16.1865L21.1795 16.5168L20.5061 16.1865ZM23.4511 11.8859C23.6335 11.514 23.48 11.0646 23.1081 10.8822C22.7362 10.6998 22.2868 10.8534 22.1044 11.2253L23.4511 11.8859ZM15 16L14.3058 16.284H14.3058L15 16ZM15 2.75H19.6667V1.25H15V2.75ZM28.25 11.3333V16H29.75V11.3333H28.25ZM15 29.25C12.0668 29.25 9.92721 29.249 8.26319 29.0687C6.61321 28.8899 5.52005 28.5422 4.64695 27.9078L3.76528 29.1213C4.93669 29.9724 6.32401 30.3674 8.10162 30.56C9.86519 30.751 12.1002 30.75 15 30.75V29.25ZM0.25 16C0.25 18.8998 0.248971 21.1348 0.440041 22.8984C0.632633 24.676 1.02758 26.0633 1.87866 27.2347L3.09219 26.353C2.45785 25.48 2.11008 24.3868 1.93131 22.7368C1.75103 21.0728 1.75 18.9332 1.75 16H0.25ZM4.64696 27.9078C4.05033 27.4743 3.52566 26.9497 3.09219 26.353L1.87866 27.2347C2.40465 27.9587 3.04131 28.5953 3.76527 29.1213L4.64696 27.9078ZM15 30.75C17.8998 30.75 20.1348 30.751 21.8984 30.56C23.676 30.3674 25.0633 29.9724 26.2347 29.1213L25.353 27.9078C24.48 28.5422 23.3868 28.8899 21.7368 29.0687C20.0728 29.249 17.9332 29.25 15 29.25V30.75ZM28.25 16C28.25 18.9332 28.249 21.0728 28.0687 22.7368C27.8899 24.3868 27.5422 25.48 26.9078 26.353L28.1213 27.2347C28.9724 26.0633 29.3674 24.676 29.56 22.8984C29.751 21.1348 29.75 18.8998 29.75 16H28.25ZM26.2347 29.1213C26.9587 28.5953 27.5953 27.9587 28.1213 27.2347L26.9078 26.353C26.4743 26.9497 25.9497 27.4743 25.353 27.9078L26.2347 29.1213ZM1.75 16C1.75 13.0668 1.75103 10.9272 1.93131 9.26319C2.11008 7.61321 2.45785 6.52005 3.09219 5.64695L1.87866 4.76528C1.02758 5.93669 0.632633 7.32401 0.440041 9.10162C0.248971 10.8652 0.25 13.1002 0.25 16H1.75ZM15 1.25C12.1002 1.25 9.86519 1.24897 8.10162 1.44004C6.32401 1.63263 4.93669 2.02758 3.76528 2.87866L4.64695 4.09219C5.52005 3.45785 6.61321 3.11008 8.26319 2.93131C9.92721 2.75103 12.0668 2.75 15 2.75V1.25ZM3.09219 5.64695C3.52566 5.05033 4.05033 4.52566 4.64695 4.09219L3.76528 2.87866C3.04131 3.40465 2.40465 4.04131 1.87866 4.76528L3.09219 5.64695ZM7.89557 20.7747L10.1672 16.1438L8.8205 15.4832L6.54887 20.1141L7.89557 20.7747ZM21.1795 16.5168L23.4511 11.8859L22.1044 11.2253L19.8328 15.8562L21.1795 16.5168ZM14.3058 16.284C15.5373 19.2942 19.7471 19.4368 21.1795 16.5168L19.8328 15.8562C18.9704 17.6144 16.4356 17.5285 15.6942 15.716L14.3058 16.284ZM10.1672 16.1438C11.0296 14.3856 13.5644 14.4715 14.3058 16.284L15.6942 15.716C14.4627 12.7058 10.2529 12.5632 8.8205 15.4832L10.1672 16.1438ZM24.3889 3.55556C24.3889 5.24309 25.7569 6.61111 27.4444 6.61111V3.61111C27.4138 3.61111 27.3889 3.58624 27.3889 3.55556H24.3889ZM27.4444 6.61111C29.132 6.61111 30.5 5.24309 30.5 3.55556H27.5C27.5 3.58624 27.4751 3.61111 27.4444 3.61111V6.61111ZM30.5 3.55556C30.5 1.86802 29.132 0.5 27.4444 0.5V3.5C27.4751 3.5 27.5 3.52487 27.5 3.55556H30.5ZM27.4444 0.5C25.7569 0.5 24.3889 1.86802 24.3889 3.55556H27.3889C27.3889 3.52487 27.4138 3.5 27.4444 3.5V0.5Z" fill="white" mask="url(#path-1-outside-1_573_1726)"></path></svg>