<svg width="64" height="64" viewBox="0 0 64 64" fill="none" xmlns="http://www.w3.org/2000/svg">
                                        <path opacity="0.06" fill-rule="evenodd" clip-rule="evenodd" d="M2 2H62V11.7056H2V2ZM6.8528 56.1766H57.1472V62H6.8528V56.1766Z" fill="#24282C"></path>
                                        <path d="M57.1472 62H6.8528M2 2H62V56.1766H2V2Z" stroke="#24282C"></path>
                                        <path d="M20.5385 24.8854L11.6094 33.7563L20.5385 42.6175M43.0361 42.6175L51.9652 33.7563L43.0361 24.8854M38.0959 23.4102L25.4787 44.0928" stroke="#24282C"></path>
                                        <path d="M7.50181 7.82393C8.03784 7.82393 8.47237 7.3894 8.47237 6.85337C8.47237 6.31735 8.03784 5.88281 7.50181 5.88281C6.96578 5.88281 6.53125 6.31735 6.53125 6.85337C6.53125 7.3894 6.96578 7.82393 7.50181 7.82393Z" fill="#24282C"></path>
                                        <path d="M13.326 7.82393C13.8621 7.82393 14.2966 7.3894 14.2966 6.85337C14.2966 6.31735 13.8621 5.88281 13.326 5.88281C12.79 5.88281 12.3555 6.31735 12.3555 6.85337C12.3555 7.3894 12.79 7.82393 13.326 7.82393Z" fill="#24282C"></path>
                                        <path d="M10.4159 7.82393C10.9519 7.82393 11.3864 7.3894 11.3864 6.85337C11.3864 6.31735 10.9519 5.88281 10.4159 5.88281C9.87985 5.88281 9.44531 6.31735 9.44531 6.85337C9.44531 7.3894 9.87985 7.82393 10.4159 7.82393Z" fill="#24282C"></path>
                                        </svg>