<svg xmlns="http://www.w3.org/2000/svg" width="30" height="30" viewBox="0 0 30 28" fill="none"><path d="M4.47461 21.0915L4.82085 20.4263L4.47461 21.0915ZM1.69359 18.2509L2.36473 17.9162L1.69359 18.2509ZM28.3064 18.2509L27.6353 17.9162L28.3064 18.2509ZM25.5254 21.0915L25.1791 20.4263L25.5254 21.0915ZM25.5254 1.70846L25.1791 2.37375L25.5254 1.70846ZM28.3064 4.54906L27.6353 4.88385L28.3064 4.54906ZM4.47461 1.70846L4.82085 2.37375L4.47461 1.70846ZM1.69359 4.54906L2.36473 4.88385L1.69359 4.54906ZM9.72353 26.2733C9.32219 26.3758 9.07993 26.7842 9.18241 27.1856C9.28489 27.5869 9.69332 27.8292 10.0947 27.7267L9.72353 26.2733ZM11.9132 26.4882L11.7276 25.7616L11.9132 26.4882ZM18.0868 26.4882L18.2724 25.7616H18.2724L18.0868 26.4882ZM19.9053 27.7267C20.3067 27.8292 20.7151 27.5869 20.8176 27.1856C20.9201 26.7842 20.6778 26.3758 20.2765 26.2733L19.9053 27.7267ZM15.75 21.8C15.75 21.3858 15.4142 21.05 15 21.05C14.5858 21.05 14.25 21.3858 14.25 21.8H15.75ZM15 17.15C14.5858 17.15 14.25 17.4858 14.25 17.9C14.25 18.3142 14.5858 18.65 15 18.65V17.15ZM22.6364 18.65C23.0506 18.65 23.3864 18.3142 23.3864 17.9C23.3864 17.4858 23.0506 17.15 22.6364 17.15V18.65ZM15 26.1001V26.8501V26.1001ZM11.1818 1.75H18.8182V0.25H11.1818V1.75ZM18.8182 21.05H11.1818V22.55H18.8182V21.05ZM11.1818 21.05C9.38719 21.05 8.0873 21.0494 7.06457 20.964C6.05108 20.8795 5.37674 20.7156 4.82085 20.4263L4.12836 21.7568C4.93373 22.176 5.83101 22.3663 6.93982 22.4588C8.03939 22.5506 9.41247 22.55 11.1818 22.55V21.05ZM0.25 11.4C0.25 13.2081 0.249441 14.6083 0.339087 15.729C0.429398 16.858 0.61484 17.7686 1.02246 18.5857L2.36473 17.9162C2.07875 17.3429 1.9174 16.6481 1.83431 15.6094C1.75056 14.5623 1.75 13.2323 1.75 11.4H0.25ZM4.82085 20.4263C3.76581 19.8772 2.9051 18.9994 2.36473 17.9162L1.02246 18.5857C1.7023 19.9486 2.78861 21.0596 4.12836 21.7568L4.82085 20.4263ZM28.25 11.4C28.25 13.2323 28.2494 14.5623 28.1657 15.6094C28.0826 16.6481 27.9212 17.3429 27.6353 17.9162L28.9775 18.5857C29.3852 17.7686 29.5706 16.858 29.6609 15.729C29.7506 14.6083 29.75 13.2081 29.75 11.4H28.25ZM18.8182 22.55C20.5875 22.55 21.9606 22.5506 23.0602 22.4588C24.169 22.3663 25.0663 22.176 25.8716 21.7568L25.1791 20.4263C24.6233 20.7156 23.9489 20.8795 22.9354 20.964C21.9127 21.0494 20.6128 21.05 18.8182 21.05V22.55ZM27.6353 17.9162C27.0949 18.9994 26.2342 19.8772 25.1791 20.4263L25.8716 21.7568C27.2114 21.0596 28.2977 19.9486 28.9775 18.5857L27.6353 17.9162ZM18.8182 1.75C20.6128 1.75 21.9127 1.75061 22.9354 1.83596C23.9489 1.92054 24.6233 2.08444 25.1791 2.37375L25.8716 1.04317C25.0663 0.624017 24.169 0.43369 23.0602 0.341155C21.9606 0.249392 20.5875 0.25 18.8182 0.25V1.75ZM29.75 11.4C29.75 9.59195 29.7506 8.19174 29.6609 7.07101C29.5706 5.94198 29.3852 5.03142 28.9775 4.21428L27.6353 4.88385C27.9212 5.45713 28.0826 6.15187 28.1657 7.19061C28.2494 8.23766 28.25 9.56771 28.25 11.4H29.75ZM25.1791 2.37375C26.2342 2.92284 27.0949 3.80059 27.6353 4.88385L28.9775 4.21428C28.2977 2.85143 27.2114 1.74043 25.8716 1.04317L25.1791 2.37375ZM11.1818 0.25C9.41247 0.25 8.03939 0.249392 6.93982 0.341155C5.83101 0.43369 4.93373 0.624017 4.12836 1.04317L4.82085 2.37375C5.37674 2.08444 6.05108 1.92054 7.06457 1.83596C8.0873 1.75061 9.38719 1.75 11.1818 1.75V0.25ZM1.75 11.4C1.75 9.56771 1.75056 8.23766 1.83431 7.19061C1.9174 6.15187 2.07875 5.45713 2.36473 4.88385L1.02246 4.21428C0.61484 5.03142 0.429398 5.94198 0.339087 7.07101C0.249441 8.19174 0.25 9.59195 0.25 11.4H1.75ZM4.12836 1.04317C2.78861 1.74043 1.7023 2.85143 1.02246 4.21428L2.36473 4.88385C2.9051 3.80059 3.76581 2.92284 4.82085 2.37375L4.12836 1.04317ZM10.0947 27.7267L12.0987 27.2149L11.7276 25.7616L9.72353 26.2733L10.0947 27.7267ZM17.9013 27.2149L19.9053 27.7267L20.2765 26.2733L18.2724 25.7616L17.9013 27.2149ZM15.75 25.7V21.8H14.25V25.7H15.75ZM15 18.65L22.6364 18.65V17.15L15 17.15V18.65ZM12.0987 27.2149C13.0513 26.9717 14.0257 26.8501 15 26.8501V25.3501C13.9008 25.3501 12.8018 25.4873 11.7276 25.7616L12.0987 27.2149ZM15 26.8501C15.9743 26.8501 16.9487 26.9717 17.9013 27.2149L18.2724 25.7616C17.1982 25.4873 16.0992 25.3501 15 25.3501V26.8501ZM14.25 25.7V26.1001H15.75V25.7H14.25Z" fill="white"></path><path d="M8.45428 14.9287C8.45428 15.5441 7.96586 16.043 7.36337 16.043C6.76088 16.043 6.27246 15.5441 6.27246 14.9287C6.27246 14.3133 6.76088 13.8145 7.36337 13.8145C7.96586 13.8145 8.45428 14.3133 8.45428 14.9287Z" fill="white"></path></svg>