<svg xmlns="http://www.w3.org/2000/svg" width="48" height="50" viewBox="0 0 48 50" fill="none"><path d="M18 40C16.5266 37.5874 16.8677 35.1525 15.511 33.8707C10.0006 28.6647 7 25.2016 7 18.4254C7 8.80164 14.6112 1 24 1C33.3888 1 41 8.80164 41 18.4254C41 25.2016 37.9993 28.6647 32.4889 33.8707C31.1323 35.1525 31.4733 37.5874 30 40" stroke="#24282C"></path><rect x="15" y="40" width="18" height="5" rx="2" stroke="#24282C"></rect><rect x="19" y="45" width="9.99999" height="4" rx="1" stroke="#24282C"></rect><path d="M24 40L24 30" stroke="#24282C"></path><path fill-rule="evenodd" clip-rule="evenodd" d="M31.7672 17.7317C31.7672 17.729 31.7664 17.7264 31.7651 17.7241L31.2073 16.7724C30.7336 15.9641 29.6839 15.6853 28.8606 16.149C28.4688 16.376 28.0012 16.4404 27.561 16.328C27.1208 16.2156 26.7441 15.9357 26.514 15.55C26.366 15.3048 26.2865 15.0256 26.2835 14.7405C26.2968 14.2834 26.1214 13.8405 25.7973 13.5126C25.4731 13.1847 25.0277 12.9998 24.5626 13H23.4346C22.979 13 22.5421 13.1785 22.2207 13.496C21.8993 13.8136 21.7198 14.2439 21.722 14.6919C21.7085 15.6168 20.942 16.3596 20.0011 16.3595C19.7112 16.3566 19.4271 16.2784 19.1778 16.1329C18.3545 15.6691 17.3048 15.9479 16.8311 16.7562L16.2301 17.7276C15.757 18.5349 16.0367 19.5663 16.8558 20.0348C17.3883 20.337 17.7163 20.8955 17.7163 21.5C17.7163 22.1045 17.3883 22.663 16.8558 22.9652C16.0378 23.4305 15.7577 24.4594 16.2301 25.2643L16.7982 26.2276C17.0201 26.6213 17.3925 26.9119 17.8329 27.0349C18.2733 27.158 18.7455 27.1034 19.1448 26.8833C19.5374 26.6581 20.0053 26.5964 20.4444 26.7119C20.8835 26.8274 21.2575 27.1106 21.4832 27.4986C21.6312 27.7437 21.7107 28.023 21.7138 28.3081C21.7138 29.2425 22.4842 30 23.4346 30H24.5626C25.5098 30 26.279 29.2474 26.2835 28.3162C26.2813 27.8668 26.4619 27.4352 26.7851 27.1174C27.1083 26.7997 27.5473 26.6221 28.0043 26.6243C28.2936 26.6319 28.5765 26.7098 28.8277 26.8509C29.6488 27.3161 30.6978 27.041 31.1743 26.2357L31.7672 25.2643C31.9966 24.877 32.0596 24.4158 31.9422 23.9828C31.8247 23.5498 31.5365 23.1806 31.1414 22.9571C30.7463 22.7336 30.4581 22.3645 30.3406 21.9315C30.2232 21.4984 30.2862 21.0372 30.5156 20.65C30.6649 20.3938 30.8809 20.1815 31.1414 20.0348C31.9544 19.5672 32.2339 18.5441 31.7692 17.7392C31.7679 17.7369 31.7672 17.7343 31.7672 17.7317V17.7317Z" stroke="#24282C"></path><circle cx="24" cy="21.5" r="2.5" stroke="#24282C"></circle></svg>