<svg xmlns="http://www.w3.org/2000/svg" width="28" height="30" viewBox="0 0 28 30" fill="none"><path d="M1.67004 20.8828C1.79804 21.2767 2.22116 21.4923 2.6151 21.3643C3.00904 21.2363 3.22462 20.8132 3.09663 20.4193L1.67004 20.8828ZM7.41189 4.5162L7.18013 3.80291L7.41189 4.5162ZM2.38333 9.54476L1.67004 9.313H1.67004L2.38333 9.54476ZM13.4954 23.4604C13.7883 23.1675 13.7883 22.6926 13.4954 22.3997C13.2025 22.1068 12.7276 22.1068 12.4347 22.3997L13.4954 23.4604ZM11.0451 24.85L11.5754 25.3804L11.0451 24.85ZM11.1499 27.161L10.6698 27.7372L11.1499 27.161ZM12.8765 29.5762C13.1947 29.8413 13.6676 29.7983 13.9328 29.4801C14.198 29.1619 14.155 28.689 13.8368 28.4238L12.8765 29.5762ZM15.4534 0.46967C15.1605 0.176777 14.6856 0.176777 14.3927 0.46967C14.0999 0.762563 14.0999 1.23744 14.3927 1.53033L15.4534 0.46967ZM16.843 2.91997L17.3734 2.38964L16.843 2.91997ZM16.7382 5.23097L16.2581 4.65481V4.65481L16.7382 5.23097ZM14.0513 6.49376C13.7331 6.75894 13.6901 7.23186 13.9553 7.55007C14.2205 7.86828 14.6934 7.91127 15.0116 7.6461L14.0513 6.49376ZM14.5315 26.0629V26.8129V26.0629ZM25.8292 8.60912C25.7061 8.21365 25.2856 7.99292 24.8901 8.1161C24.4947 8.23928 24.2739 8.65974 24.3971 9.05521L25.8292 8.60912ZM20.0846 25.6631L20.3254 26.3734H20.3254L20.0846 25.6631ZM25.1132 20.4176L25.8292 20.6406L25.1132 20.4176ZM12.965 4.88287H16.0979V3.38287H12.965V4.88287ZM1.25 15.0979C1.25 17.9551 1.24075 19.5616 1.67004 20.8828L3.09663 20.4193C2.75925 19.381 2.75 18.0718 2.75 15.0979H1.25ZM12.965 3.38287C10.1078 3.38287 8.50136 3.37361 7.18013 3.80291L7.64366 5.22949C8.68198 4.89212 9.99109 4.88287 12.965 4.88287V3.38287ZM2.75 15.0979C2.75 12.124 2.75925 10.8149 3.09663 9.77652L1.67004 9.313C1.24075 10.6342 1.25 12.2407 1.25 15.0979H2.75ZM7.18013 3.80291C4.56739 4.65184 2.51897 6.70026 1.67004 9.313L3.09663 9.77652C3.79718 7.62044 5.48758 5.93005 7.64366 5.22949L7.18013 3.80291ZM12.4347 22.3997L10.5147 24.3197L11.5754 25.3804L13.4954 23.4604L12.4347 22.3997ZM10.6698 27.7372L12.8765 29.5762L13.8368 28.4238L11.63 26.5849L10.6698 27.7372ZM14.3927 1.53033L16.3127 3.4503L17.3734 2.38964L15.4534 0.46967L14.3927 1.53033ZM16.2581 4.65481L14.0513 6.49376L15.0116 7.6461L17.2184 5.80714L16.2581 4.65481ZM14.5315 25.3129H11.3986V26.8129H14.5315V25.3129ZM26.2465 14.6249C26.2465 11.6398 26.2551 9.97625 25.8292 8.60912L24.3971 9.05521C24.7379 10.1494 24.7465 11.5273 24.7465 14.6249L26.2465 14.6249ZM14.5315 26.8129C17.3865 26.8129 18.999 26.8229 20.3254 26.3734L19.8439 24.9528C18.8106 25.303 17.5076 25.3129 14.5315 25.3129V26.8129ZM24.7465 14.6249C24.7465 17.7225 24.7379 19.1003 24.3971 20.1945L25.8292 20.6406C26.2551 19.2735 26.2465 17.61 26.2465 14.6249L24.7465 14.6249ZM20.3254 26.3734C22.9462 25.4851 24.9861 23.3476 25.8292 20.6406L24.3971 20.1945C23.6908 22.4621 21.9918 24.2247 19.8439 24.9528L20.3254 26.3734ZM10.5147 24.3197C10.0202 24.8142 9.79854 25.4739 9.84149 26.1132L11.3381 26.0127C11.3228 25.7849 11.401 25.5548 11.5754 25.3804L10.5147 24.3197ZM9.84149 26.1132C9.8822 26.7193 10.161 27.3133 10.6698 27.7372L11.63 26.5849C11.4503 26.4351 11.3526 26.228 11.3381 26.0127L9.84149 26.1132ZM11.3986 25.3129H10.5898V26.8129H11.3986V25.3129ZM16.3127 3.4503C16.4871 3.62472 16.5653 3.85485 16.55 4.0826L18.0466 4.18314C18.0896 3.54379 17.8679 2.88416 17.3734 2.38964L16.3127 3.4503ZM16.55 4.0826C16.5355 4.29796 16.4378 4.50503 16.2581 4.65481L17.2184 5.80714C17.7271 5.38319 18.0059 4.78918 18.0466 4.18314L16.55 4.0826ZM16.0979 4.88287H17.2983V3.38287H16.0979V4.88287Z" fill="white"></path></svg>