<svg width="64" height="64" viewBox="0 0 64 64" fill="none" xmlns="http://www.w3.org/2000/svg">
                                        <path opacity="0.06" fill-rule="evenodd" clip-rule="evenodd" d="M2 2H62V11.7056H32H2V2ZM6.8528 56.1766H57.1472V62H6.8528V56.1766Z" fill="#24282C"></path>
                                        <path d="M57.1472 62H6.8528M2 2H62V56.1766H2V2Z" stroke="#24282C"></path>
                                        <path fill-rule="evenodd" clip-rule="evenodd" d="M42.8214 27.6743L42.0465 26.3257C41.3909 25.1846 39.9382 24.791 38.7988 25.4457C38.2565 25.7661 37.6093 25.857 37.0001 25.6984C36.3909 25.5397 35.8696 25.1446 35.5512 24.6C35.3463 24.2539 35.2363 23.8596 35.2321 23.4571C35.2506 22.8119 35.0078 22.1865 34.5592 21.7237C34.1105 21.2608 33.4941 20.9997 32.8505 21H31.2893C30.6587 21 30.0541 21.252 29.6093 21.7003C29.1644 22.1486 28.9161 22.7561 28.9191 23.3886C28.9004 24.6943 27.8396 25.743 26.5375 25.7429C26.1362 25.7387 25.7431 25.6283 25.3979 25.4229C24.2586 24.7681 22.8058 25.1618 22.1503 26.3029L21.3184 27.6743C20.6637 28.814 21.0508 30.2701 22.1845 30.9314C22.9214 31.3581 23.3753 32.1466 23.3753 33C23.3753 33.8534 22.9214 34.6419 22.1845 35.0686C21.0523 35.7255 20.6647 37.1781 21.3184 38.3143L22.1047 39.6743C22.4119 40.2301 22.9272 40.6403 23.5367 40.814C24.1462 40.9878 24.7996 40.9107 25.3524 40.6C25.8957 40.282 26.5432 40.1949 27.151 40.358C27.7587 40.5211 28.2762 40.9209 28.5886 41.4686C28.7935 41.8147 28.9035 42.2089 28.9077 42.6114C28.9077 43.9306 29.974 45 31.2893 45H32.8505C34.1614 45 35.2258 43.9376 35.2321 42.6229C35.229 41.9884 35.479 41.3791 35.9263 40.9305C36.3736 40.4819 36.9811 40.2312 37.6137 40.2343C38.0141 40.245 38.4055 40.355 38.7532 40.5543C39.8896 41.211 41.3414 40.8227 42.0009 39.6857L42.8214 38.3143C43.1389 37.7676 43.2261 37.1165 43.0636 36.5051C42.901 35.8938 42.5021 35.3727 41.9553 35.0571C41.4085 34.7416 41.0096 34.2205 40.8471 33.6092C40.6845 32.9978 40.7717 32.3467 41.0893 31.8C41.2958 31.4384 41.5947 31.1386 41.9553 30.9314C43.0822 30.2704 43.4684 28.8228 42.8214 27.6857V27.6743Z" fill="#212B35" fill-opacity="0.05" stroke="#24282C" stroke-linecap="round" stroke-linejoin="round"></path>
                                        <ellipse cx="32.0734" cy="32.9997" rx="3.6906" ry="3.69231" fill="white" stroke="#24282C" stroke-linecap="round" stroke-linejoin="round"></ellipse>
                                        <path d="M7 8C7.55228 8 8 7.55228 8 7C8 6.44772 7.55228 6 7 6C6.44772 6 6 6.44772 6 7C6 7.55228 6.44772 8 7 8Z" fill="#24282C"></path>
                                        <path d="M13 8C13.5523 8 14 7.55228 14 7C14 6.44772 13.5523 6 13 6C12.4477 6 12 6.44772 12 7C12 7.55228 12.4477 8 13 8Z" fill="#24282C"></path>
                                        <path d="M10 8C10.5523 8 11 7.55228 11 7C11 6.44772 10.5523 6 10 6C9.44772 6 9 6.44772 9 7C9 7.55228 9.44772 8 10 8Z" fill="#24282C"></path>
                                        </svg>