<svg xmlns="http://www.w3.org/2000/svg" width="60" height="60" viewBox="0 0 60 60" fill="none"><rect width="60" height="60" rx="10" fill="#F5F5F5"></rect><path d="M17.4951 25.625H29.3701" stroke="#222222" stroke-width="1.5" stroke-miterlimit="10" stroke-linecap="round" stroke-linejoin="round"></path><path d="M22 35.625H24.5" stroke="#222222" stroke-width="1.5" stroke-miterlimit="10" stroke-linecap="round" stroke-linejoin="round"></path><path d="M28.1201 35.625H33.1201" stroke="#222222" stroke-width="1.5" stroke-miterlimit="10" stroke-linecap="round" stroke-linejoin="round"></path><path d="M22 32H29" stroke="#222222" stroke-width="1.5" stroke-miterlimit="10" stroke-linecap="round" stroke-linejoin="round"></path><path d="M42.4951 30.0375V35.1375C42.4951 39.525 41.3826 40.625 36.9451 40.625H23.0451C18.6076 40.625 17.4951 39.525 17.4951 35.1375V24.8625C17.4951 20.475 18.6076 19.375 23.0451 19.375H33.1201" stroke="#222222" stroke-width="1.5" stroke-linecap="round" stroke-linejoin="round"></path><path d="M38.8455 20.1629L34.208 24.8004C34.033 24.9754 33.858 25.3254 33.8205 25.5754L33.5705 27.3504C33.483 27.9879 33.933 28.4379 34.5705 28.3504L36.3455 28.1004C36.5955 28.0629 36.9455 27.8879 37.1205 27.7129L41.758 23.0754C42.558 22.2754 42.933 21.3504 41.758 20.1754C40.5705 18.9879 39.6455 19.3629 38.8455 20.1629Z" stroke="#222222" stroke-width="1.5" stroke-miterlimit="10" stroke-linecap="round" stroke-linejoin="round"></path><path d="M38.1836 20.8252C38.5836 22.2377 39.6836 23.3377 41.0836 23.7252" stroke="#222222" stroke-width="1.5" stroke-miterlimit="10" stroke-linecap="round" stroke-linejoin="round"></path></svg>