<svg xmlns="http://www.w3.org/2000/svg" width="40" height="40" viewBox="0 0 40 40" fill="none"><path d="M36.6666 19.8166V21.3C36.6666 27.2333 35.1833 28.7 29.2666 28.7H10.7333C4.81665 28.7 3.33331 27.2166 3.33331 21.3V10.7333C3.33331 4.81665 4.81665 3.33331 10.7333 3.33331H13.3333" stroke="white" stroke-width="1.5" stroke-linecap="round" stroke-linejoin="round"></path><path opacity="0.4" d="M20 28.7V36.6667" stroke="white" stroke-width="1.5" stroke-linecap="round" stroke-linejoin="round"></path><path opacity="0.4" d="M3.33331 21.6667H36.6666" stroke="white" stroke-width="1.5" stroke-linecap="round" stroke-linejoin="round"></path><path d="M12.5 36.6667H27.5" stroke="white" stroke-width="1.5" stroke-linecap="round" stroke-linejoin="round"></path><path d="M29.7667 15.6166H21.8333C19.5333 15.6166 18.7667 14.0833 18.7667 12.55V6.68331C18.7667 4.84998 20.2667 3.34998 22.1 3.34998H29.7667C31.4667 3.34998 32.8333 4.71664 32.8333 6.41664V12.55C32.8333 14.25 31.4667 15.6166 29.7667 15.6166Z" stroke="white" stroke-width="1.5" stroke-linecap="round" stroke-linejoin="round"></path><path d="M34.85 13.2L32.8333 11.7833V7.18331L34.85 5.76665C35.85 5.08331 36.6666 5.49998 36.6666 6.71665V12.2666C36.6666 13.4833 35.85 13.9 34.85 13.2Z" stroke="white" stroke-width="1.5" stroke-linecap="round" stroke-linejoin="round"></path></svg>