<svg xmlns="http://www.w3.org/2000/svg" width="60" height="60" viewBox="0 0 60 60" fill="none"><path d="M5 19.5C5 18.3954 5.89543 17.5 7 17.5H46.6716C47.202 17.5 47.7107 17.7107 48.0858 18.0858L56.9142 26.9142C57.2893 27.2893 57.5 27.798 57.5 28.3284V43C57.5 44.1046 56.6046 45 55.5 45H7C5.89543 45 5 44.1046 5 43V19.5Z" stroke="#24282C"></path><path d="M44.6055 50C47.3669 50 49.6055 47.7614 49.6055 45C49.6055 42.2386 47.3669 40 44.6055 40C41.844 40 39.6055 42.2386 39.6055 45C39.6055 47.7614 41.844 50 44.6055 50Z" fill="white" stroke="#24282C" stroke-miterlimit="10"></path><path d="M17.5 50C20.2614 50 22.5 47.7614 22.5 45C22.5 42.2386 20.2614 40 17.5 40C14.7386 40 12.5 42.2386 12.5 45C12.5 47.7614 14.7386 50 17.5 50Z" fill="white" stroke="#24282C" stroke-miterlimit="10"></path><mask id="path-4-inside-1_294_1212" fill="white"><path d="M2.5 14.5C2.5 13.3954 3.39543 12.5 4.5 12.5H38C39.1046 12.5 40 13.3954 40 14.5V32.5H2.5V14.5Z"></path></mask><path d="M2.5 14.5C2.5 13.3954 3.39543 12.5 4.5 12.5H38C39.1046 12.5 40 13.3954 40 14.5V32.5H2.5V14.5Z" fill="white"></path><path d="M40 32.5V33.5H41V32.5H40ZM2.5 32.5H1.5V33.5H2.5V32.5ZM4.5 13.5H38V11.5H4.5V13.5ZM39 14.5V32.5H41V14.5H39ZM40 31.5H2.5V33.5H40V31.5ZM3.5 32.5V14.5H1.5V32.5H3.5ZM38 13.5C38.5523 13.5 39 13.9477 39 14.5H41C41 12.8431 39.6569 11.5 38 11.5V13.5ZM4.5 11.5C2.84315 11.5 1.5 12.8431 1.5 14.5H3.5C3.5 13.9477 3.94772 13.5 4.5 13.5V11.5Z" fill="#24282C" mask="url(#path-4-inside-1_294_1212)"></path></svg>