<svg width="28" height="28" viewBox="0 0 28 28" fill="none" xmlns="http://www.w3.org/2000/svg">
<path d="M17.4999 9.62427H5.24988C4.76663 9.62427 4.37488 10.016 4.37488 10.4993V22.7493C4.37488 23.2325 4.76663 23.6243 5.24988 23.6243H17.4999C17.9831 23.6243 18.3749 23.2325 18.3749 22.7493V10.4993C18.3749 10.016 17.9831 9.62427 17.4999 9.62427Z" stroke="#222222" stroke-width="1.5" stroke-linecap="round" stroke-linejoin="round"/>
<path d="M17.5 4.375H15.75" stroke="#222222" stroke-width="1.5" stroke-linecap="round" stroke-linejoin="round"/>
<path d="M21.875 4.375H22.75C22.9821 4.375 23.2046 4.46719 23.3687 4.63128C23.5328 4.79538 23.625 5.01794 23.625 5.25V6.12496" stroke="#222222" stroke-width="1.5" stroke-linecap="round" stroke-linejoin="round"/>
<path d="M23.625 12.25V10.5" stroke="#222222" stroke-width="1.5" stroke-linecap="round" stroke-linejoin="round"/>
<path d="M21.875 18.375H22.75C22.9821 18.375 23.2046 18.2829 23.3687 18.1188C23.5328 17.9547 23.625 17.7321 23.625 17.5V16.625" stroke="#222222" stroke-width="1.5" stroke-linecap="round" stroke-linejoin="round"/>
<path d="M11.375 4.375H10.5C10.2679 4.375 10.0454 4.46719 9.88128 4.63128C9.71719 4.79538 9.625 5.01794 9.625 5.25V6.12496" stroke="#222222" stroke-width="1.5" stroke-linecap="round" stroke-linejoin="round"/>
</svg>
