<svg width="66" height="64" viewBox="0 0 66 64" fill="none" xmlns="http://www.w3.org/2000/svg">
                                            <rect x="6.53952" y="9.78906" width="9.06574" height="25.3841" rx="2" transform="rotate(12.605 6.53952 9.78906)" fill="#212B35" fill-opacity="0.06" stroke="#24282C" stroke-linecap="square"></rect>
                                            <circle cx="6.00046" cy="32" r="1" fill="#24282C"></circle>
                                            <circle cx="60.0005" cy="33" r="1" fill="#24282C"></circle>
                                            <rect width="9.06574" height="25.3841" rx="2" transform="matrix(-0.975898 0.218228 0.218228 0.975898 59.4614 10.6953)" fill="#212B35" fill-opacity="0.06" stroke="#24282C" stroke-linecap="square"></rect>
                                            <path d="M51.3007 15.6812C50.0919 16.4367 47.1305 17.6757 44.9547 16.5878C42.235 15.2279 38.1554 12.0549 34.5291 11.6017C31.3716 11.207 26.4958 19.4037 21.9964 23.0259C21.0361 23.799 20.6621 25.2431 21.6635 25.9622C23.4298 27.2307 26.2063 27.9635 29.5429 25.6536C35.4357 21.574 36.7955 22.9338 41.3284 27.4667C44.4453 30.5836 47.6738 33.8121 49.5747 35.7131C50.0822 36.2206 50.8215 36.4159 51.5139 36.2271L55.3803 35.1726" stroke="#24282C" stroke-linejoin="round"></path>
                                            <path d="M15.0356 14.3223L28.6342 15.2288" stroke="#24282C" stroke-linecap="round" stroke-linejoin="round"></path>
                                            <path d="M26.4529 40.6126L32.7211 46.8808C34.0045 48.1642 34.0045 50.245 32.7211 51.5284V51.5284C31.4377 52.8118 29.357 52.8118 28.0736 51.5284L10.5052 33.9601" stroke="#24282C" stroke-linejoin="round"></path>
                                            <path d="M32.2643 37.1274L40.2753 45.1384C41.5587 46.4218 41.5587 48.5026 40.2753 49.786V49.786C38.9919 51.0694 36.9111 51.0694 35.6277 49.786L26.4544 40.6127" stroke="#24282C" stroke-linecap="round" stroke-linejoin="round"></path>
                                            <path d="M36.7973 32.3672L46.664 42.2339C47.9474 43.5173 47.9474 45.598 46.664 46.8814V46.8814C45.3806 48.1648 43.2998 48.1648 42.0164 46.8814L32.2645 37.1295" stroke="#24282C" stroke-linecap="round" stroke-linejoin="round"></path>
                                            <path d="M36.7957 32.3636L45.496 41.064C46.7833 42.3512 48.8703 42.3512 50.1575 41.064V41.064C51.4393 39.7822 51.4456 37.7059 50.1715 36.4165L41.3286 27.4668" stroke="#24282C" stroke-linecap="round" stroke-linejoin="round"></path>
                                            </svg>