<svg xmlns="http://www.w3.org/2000/svg" width="42" height="44" viewBox="0 0 42 44" fill="none"><path d="M11.3165 11.2227C11.804 7.9818 15.6539 6.92507 17.9671 9.24263C19.6426 10.9213 22.3592 10.9213 24.0347 9.24263C26.3479 6.92507 30.1977 7.9818 30.6852 11.2227C30.9995 13.312 31.2381 15.6474 31.2381 17.9231C31.2381 19.6962 31.2381 21.6507 31.2381 23.5646C31.2381 29.229 26.6547 33.8206 21.0009 33.8206C15.347 33.8206 10.7637 29.229 10.7637 23.5646C10.7637 21.6507 10.7637 19.6962 10.7637 17.9231C10.7637 15.6474 11.0022 13.312 11.3165 11.2227Z" stroke="#24282C"></path><path d="M13.9989 30.7437C13.8909 31.3267 13.834 31.9323 13.834 32.5536C13.834 37.2185 15.3696 41.0001 21 41.0001C26.6305 41.0001 28.1661 37.2185 28.1661 32.5536C28.1661 31.9323 28.1092 31.3267 28.0012 30.7437" stroke="#24282C"></path><path d="M13.834 33.8206L1.71635 40.4382C0.600007 40.8898 0.853944 43 2.02463 43H39.9754C41.1461 43 41.4 40.8898 40.2836 40.4382L28.166 33.8206" stroke="#24282C" stroke-linejoin="round"></path><path d="M10.7629 14.3335H8.66797C7.5634 14.3335 6.66797 15.2289 6.66797 16.3335V21.5643C6.66797 22.6688 7.5634 23.5643 8.66797 23.5643H10.7629" stroke="#24282C"></path><path d="M31.2371 14.3335H33.332C34.4366 14.3335 35.332 15.2289 35.332 16.3335V21.5643C35.332 22.6688 34.4366 23.5643 33.332 23.5643H31.2371" stroke="#24282C"></path><path d="M33.2841 14.3333V12C33.2841 5.92487 28.3593 1 22.2841 1H19.7148C13.6397 1 8.71484 5.92487 8.71484 12V14.3333" stroke="#24282C"></path></svg>