<svg width="64" height="64" viewBox="0 0 64 64" fill="none" xmlns="http://www.w3.org/2000/svg">
                                            <path fill-rule="evenodd" clip-rule="evenodd" d="M44.7701 21.6825L43.8494 20.1117C43.0704 18.7825 41.3442 18.324 39.9905 19.0866V19.0866C39.3461 19.4599 38.5771 19.5658 37.8532 19.381C37.1293 19.1962 36.5099 18.7359 36.1316 18.1015C35.8882 17.6984 35.7574 17.2391 35.7525 16.7703V16.7703C35.7744 16.0187 35.486 15.2903 34.9529 14.7511C34.4198 14.212 33.6874 13.9079 32.9226 13.9082H31.0676C30.3184 13.9082 29.6 14.2017 29.0714 14.7239C28.5428 15.2461 28.2477 15.9538 28.2513 16.6905V16.6905C28.2291 18.2114 26.9686 19.4329 25.4215 19.4328C24.9446 19.4279 24.4775 19.2993 24.0675 19.06V19.06C22.7137 18.2974 20.9875 18.7559 20.2086 20.0851L19.2202 21.6825C18.4422 23.01 18.9022 24.7061 20.2492 25.4765V25.4765C21.1248 25.9735 21.6641 26.892 21.6641 27.886C21.6641 28.88 21.1248 29.7985 20.2492 30.2955V30.2955C18.9039 31.0607 18.4434 32.7527 19.2202 34.0762V34.0762L20.1544 35.6603C20.5194 36.3078 21.1317 36.7856 21.8559 36.9879C22.5802 37.1903 23.3566 37.1006 24.0133 36.7386V36.7386C24.6589 36.3682 25.4283 36.2668 26.1504 36.4567C26.8725 36.6467 27.4875 37.1124 27.8587 37.7503C28.102 38.1535 28.2328 38.6128 28.2378 39.0816V39.0816C28.2378 40.6182 29.5048 41.8638 31.0676 41.8638H32.9226C34.4802 41.8638 35.745 40.6263 35.7525 39.0949V39.0949C35.7488 38.3559 36.0458 37.6461 36.5773 37.1236C37.1088 36.6011 37.8307 36.3091 38.5823 36.3126C39.058 36.3251 39.5232 36.4532 39.9363 36.6854V36.6854C41.2865 37.4503 43.0117 36.998 43.7952 35.6736V35.6736L44.7701 34.0762C45.1474 33.4394 45.251 32.681 45.0579 31.9688C44.8647 31.2567 44.3908 30.6497 43.7411 30.2822V30.2822C43.0913 29.9147 42.6174 29.3077 42.4242 28.5956C42.2311 27.8835 42.3347 27.125 42.712 26.4882C42.9574 26.067 43.3126 25.7178 43.7411 25.4765V25.4765C45.08 24.7065 45.5389 23.0204 44.7701 21.6958V21.6958V21.6825Z" fill="#212B35" fill-opacity="0.06" stroke="#24282C" stroke-linecap="round" stroke-linejoin="round"></path>
                                            <ellipse cx="32.0284" cy="27.8847" rx="3.89951" ry="3.83391" stroke="#24282C" stroke-linecap="round" stroke-linejoin="round"></ellipse>
                                            <path d="M56.6655 27.0652C56.6655 13.4421 45.6218 2.39844 31.9987 2.39844C18.3757 2.39844 7.33203 13.4421 7.33203 27.0652" stroke="#24282C" stroke-linecap="round"></path>
                                            <path d="M2.39844 34.9579C2.39844 30.5985 5.93241 27.0646 10.2918 27.0646V27.0646C11.3816 27.0646 12.2651 27.9481 12.2651 29.0379V44.0024C12.2651 45.0922 11.3816 45.9757 10.2918 45.9757V45.9757C5.93241 45.9757 2.39844 42.4418 2.39844 38.0824V34.9579Z" stroke="#24282C" stroke-linecap="round"></path>
                                            <path d="M61.5996 34.9578C61.5996 30.5984 58.0656 27.0645 53.7063 27.0645V27.0645C52.6164 27.0645 51.7329 27.9479 51.7329 29.0378V44.0023C51.7329 45.0921 52.6164 45.9756 53.7063 45.9756V45.9756C58.0656 45.9756 61.5996 42.4416 61.5996 38.0823V34.9578Z" stroke="#24282C" stroke-linecap="round"></path>
                                            <path d="M56.6653 46.0254V48.1987C56.6653 53.81 52.1165 58.3587 46.5053 58.3587H41.8652" stroke="#24282C" stroke-linecap="round"></path>
                                            <rect x="30.3555" y="55.0195" width="11.5111" height="6.57779" rx="3.2889" stroke="#24282C" stroke-linecap="round"></rect>
                                            </svg>