<svg width="28" height="28" fill="none" xmlns="http://www.w3.org/2000/svg"><path d="M2.333 14.712h19.834" stroke="#222" stroke-width="1.5" stroke-miterlimit="10" stroke-linecap="round" stroke-linejoin="round"/><path d="M22.167 11.993v8.342c-.035 3.325-.945 4.165-4.41 4.165H6.743c-3.523 0-4.41-.875-4.41-4.352v-8.155c0-3.15.735-4.165 3.5-4.328.28-.012.584-.023.91-.023h11.014c3.523 0 4.41.875 4.41 4.351z" stroke="#222" stroke-width="1.5" stroke-linecap="round" stroke-linejoin="round"/><path d="M25.667 7.852v8.155c0 3.15-.735 4.165-3.5 4.328v-8.342c0-3.476-.887-4.351-4.41-4.351H6.743c-.326 0-.63.011-.91.023.035-3.325.945-4.165 4.41-4.165h11.014c3.523 0 4.41.875 4.41 4.352z" stroke="#222" stroke-width="1.5" stroke-linecap="round" stroke-linejoin="round"/><path d="M6.125 20.778h2.007M10.628 20.778h4.014" stroke="#222" stroke-width="1.5" stroke-miterlimit="10" stroke-linecap="round" stroke-linejoin="round"/></svg>