<svg xmlns="http://www.w3.org/2000/svg" width="60" height="60" viewBox="0 0 60 60" fill="none"><rect width="60" height="60" rx="10" fill="#F5F5F5"></rect><path d="M19.9876 33.3251L18.0876 31.425C17.3126 30.65 17.3126 29.375 18.0876 28.6L19.9876 26.7C20.3126 26.375 20.5751 25.7375 20.5751 25.2875V22.6C20.5751 21.5 21.4751 20.6 22.5751 20.6H25.2626C25.7126 20.6 26.3501 20.3375 26.6751 20.0125L28.5751 18.1125C29.3501 17.3375 30.6251 17.3375 31.4001 18.1125L33.3001 20.0125C33.6251 20.3375 34.2626 20.6 34.7126 20.6H37.4001C38.5001 20.6 39.4001 21.5 39.4001 22.6V25.2875C39.4001 25.7375 39.6626 26.375 39.9876 26.7L41.8876 28.6C42.6626 29.375 42.6626 30.65 41.8876 31.425L39.9876 33.3251C39.6626 33.6501 39.4001 34.2876 39.4001 34.7376V37.4249C39.4001 38.5249 38.5001 39.4251 37.4001 39.4251H34.7126C34.2626 39.4251 33.6251 39.6875 33.3001 40.0125L31.4001 41.9125C30.6251 42.6875 29.3501 42.6875 28.5751 41.9125L26.6751 40.0125C26.3501 39.6875 25.7126 39.4251 25.2626 39.4251H22.5751C21.4751 39.4251 20.5751 38.5249 20.5751 37.4249V34.7376C20.5751 34.2751 20.3126 33.6376 19.9876 33.3251Z" stroke="#222222" stroke-width="1.5" stroke-linecap="round" stroke-linejoin="round"></path><path d="M26.25 33.75L33.75 26.25" stroke="#222222" stroke-width="1.5" stroke-linecap="round" stroke-linejoin="round"></path><path d="M33.1181 33.125H33.1294" stroke="#222222" stroke-width="2" stroke-linecap="round" stroke-linejoin="round"></path><path d="M26.8681 26.875H26.8794" stroke="#222222" stroke-width="2" stroke-linecap="round" stroke-linejoin="round"></path></svg>