<svg width="28" height="28" fill="none" xmlns="http://www.w3.org/2000/svg"><path d="M4.655 17.103 2.882 15.33a1.873 1.873 0 0 1 0-2.637l1.773-1.773c.303-.303.548-.898.548-1.318V7.093c0-1.026.84-1.866 1.867-1.866h2.508c.42 0 1.015-.245 1.319-.549l1.773-1.773a1.873 1.873 0 0 1 2.637 0l1.773 1.773c.303.304.898.549 1.318.549h2.509c1.026 0 1.866.84 1.866 1.866v2.509c0 .42.245 1.015.549 1.318l1.773 1.773a1.873 1.873 0 0 1 0 2.637l-1.773 1.773c-.304.304-.549.899-.549 1.319v2.508c0 1.027-.84 1.867-1.866 1.867h-2.509c-.42 0-1.015.245-1.318.548l-1.773 1.773a1.873 1.873 0 0 1-2.637 0l-1.773-1.773c-.304-.303-.899-.548-1.319-.548H7.07a1.872 1.872 0 0 1-1.867-1.867v-2.508c0-.432-.245-1.027-.548-1.319zM10.5 17.5l7-7" stroke="#222" stroke-width="1.5" stroke-linecap="round" stroke-linejoin="round"/><path d="M16.91 16.917h.01M11.077 11.083h.01" stroke="#222" stroke-width="2" stroke-linecap="round" stroke-linejoin="round"/></svg>