<svg width="28" height="28" viewBox="0 0 28 28" fill="none" xmlns="http://www.w3.org/2000/svg">
<path d="M2.625 20.125V17.6235C2.625 11.3367 7.67305 6.14682 13.9598 6.12507C15.4569 6.11978 16.9404 6.41009 18.3251 6.97936C19.7099 7.54863 20.9686 8.38566 22.0291 9.44245C23.0896 10.4992 23.9311 11.755 24.5053 13.1377C25.0794 14.5204 25.375 16.0028 25.375 17.5V20.125C25.375 20.3571 25.2828 20.5796 25.1187 20.7437C24.9546 20.9078 24.7321 21 24.5 21H3.5C3.26794 21 3.04538 20.9078 2.88128 20.7437C2.71719 20.5796 2.625 20.3571 2.625 20.125Z" stroke="#222222" stroke-width="1.5" stroke-linecap="round" stroke-linejoin="round"/>
<path d="M14 6.125V9.625" stroke="#222222" stroke-width="1.5" stroke-linecap="round" stroke-linejoin="round"/>
<path d="M3.0127 14.5559L6.39344 15.4618" stroke="#222222" stroke-width="1.5" stroke-linecap="round" stroke-linejoin="round"/>
<path d="M24.9872 14.5559L21.6064 15.4618" stroke="#222222" stroke-width="1.5" stroke-linecap="round" stroke-linejoin="round"/>
<path d="M11.3145 21.0001L18.7941 11.2524" stroke="#222222" stroke-width="1.5" stroke-linecap="round" stroke-linejoin="round"/>
</svg>
