<svg width="28" height="28" viewBox="0 0 28 28" fill="none" xmlns="http://www.w3.org/2000/svg">
<path d="M14 19.25C16.8995 19.25 19.25 16.8995 19.25 14C19.25 11.1005 16.8995 8.75 14 8.75C11.1005 8.75 8.75 11.1005 8.75 14C8.75 16.8995 11.1005 19.25 14 19.25Z" stroke="#222222" stroke-width="1.5" stroke-linecap="round" stroke-linejoin="round"/>
<path d="M20.0878 7.11873C20.368 7.36683 20.6329 7.63172 20.881 7.91193L23.8694 8.33867C24.354 9.18254 24.7277 10.0855 24.9811 11.025L23.1704 13.4391C23.1704 13.4391 23.1932 14.1872 23.1705 14.5607L24.9818 16.9756C24.7278 17.915 24.3536 18.8176 23.8684 19.6612L20.881 20.0879C20.881 20.0879 20.3682 20.6329 20.088 20.881L19.6612 23.8694C18.8174 24.354 17.9145 24.7277 16.9749 24.9811L14.561 23.1705C14.1874 23.1932 13.8128 23.1932 13.4392 23.1705L11.0243 24.9818C10.085 24.7278 9.18229 24.3536 8.33875 23.8684L7.9121 20.8812C7.63189 20.6331 7.36699 20.3682 7.11889 20.088L4.13051 19.6612C3.64589 18.8174 3.27225 17.9145 3.01885 16.9749L4.8295 14.5608C4.8295 14.5608 4.80672 13.8127 4.82943 13.4392L3.01807 11.0243C3.2721 10.085 3.64635 9.18229 4.13154 8.33874L7.11873 7.9121C7.36683 7.63188 7.63172 7.36699 7.91193 7.11889L8.33867 4.13051C9.18254 3.64589 10.0855 3.27225 11.025 3.01885L13.439 4.82943C13.8125 4.80672 14.1871 4.80672 14.5607 4.82943L16.9756 3.01807C17.915 3.2721 18.8176 3.64635 19.6612 4.13154L20.0878 7.11873Z" stroke="#222222" stroke-width="1.5" stroke-linecap="round" stroke-linejoin="round"/>
</svg>
