<svg width="64" height="64" viewBox="0 0 64 64" fill="none" xmlns="http://www.w3.org/2000/svg">
                                            <path opacity="0.06" fill-rule="evenodd" clip-rule="evenodd" d="M33.9999 28H51.9999V15H11.9999V45.5H33.9999V28ZM6 56.8199H57.82V62.8199H6V56.8199Z" fill="#24282C"></path>
                                            <path d="M12 15H19" stroke="#24282C"></path>
                                            <path d="M12 25H19" stroke="#24282C"></path>
                                            <path d="M12 35H19" stroke="#24282C"></path>
                                            <path d="M12 45H19" stroke="#24282C"></path>
                                            <path d="M23 15H30" stroke="#24282C"></path>
                                            <path d="M23 25H30" stroke="#24282C"></path>
                                            <path d="M23 35H30" stroke="#24282C"></path>
                                            <path d="M23 45H30" stroke="#24282C"></path>
                                            <path d="M34 15H41" stroke="#24282C"></path>
                                            <path d="M34 25H41" stroke="#24282C"></path>
                                            <path d="M45 15H52" stroke="#24282C"></path>
                                            <path d="M45 25H52" stroke="#24282C"></path>
                                            <path d="M57.82 62.82H6.00004M31.21 1V8M11.21 1V8M51.21 1V8M0.5 5H62.32V56.82H0.5V5Z" stroke="#24282C"></path>
                                            <path fill-rule="evenodd" clip-rule="evenodd" d="M51.7672 34.854L51.2073 33.8732C50.7336 33.0434 49.6839 32.7571 48.8607 33.2332C48.4688 33.4663 48.0012 33.5324 47.561 33.417C47.1208 33.3016 46.7441 33.0142 46.514 32.6182C46.366 32.3664 46.2865 32.0797 46.2835 31.787C46.2968 31.3177 46.1215 30.8629 45.7973 30.5263C45.4731 30.1897 45.0277 29.9998 44.5626 30H43.4346C42.979 30 42.5421 30.1833 42.2207 30.5093C41.8993 30.8353 41.7198 31.2772 41.722 31.7371C41.7085 32.6868 40.942 33.4494 40.0011 33.4494C39.7112 33.4463 39.4271 33.366 39.1778 33.2166C38.3545 32.7404 37.3048 33.0267 36.8311 33.8566L36.2301 34.854C35.757 35.6829 36.0367 36.7419 36.8559 37.2229C37.3883 37.5332 37.7163 38.1066 37.7163 38.7273C37.7163 39.3479 37.3883 39.9214 36.8559 40.2317C36.0378 40.7094 35.7577 41.7659 36.2301 42.5922L36.7982 43.5813C37.0201 43.9855 37.3925 44.2839 37.8329 44.4102C38.2733 44.5366 38.7455 44.4805 39.1448 44.2545C39.5374 44.0233 40.0053 43.9599 40.4444 44.0785C40.8835 44.1972 41.2575 44.4879 41.4832 44.8862C41.6312 45.138 41.7108 45.4247 41.7138 45.7174C41.7138 46.6768 42.4842 47.4545 43.4346 47.4545H44.5626C45.5098 47.4546 46.279 46.6819 46.2835 45.7257C46.2813 45.2643 46.4619 44.8212 46.7851 44.4949C47.1083 44.1687 47.5473 43.9863 48.0043 43.9886C48.2936 43.9964 48.5765 44.0763 48.8277 44.2213C49.6488 44.6989 50.6979 44.4165 51.1743 43.5896L51.7672 42.5922C51.9966 42.1946 52.0596 41.7211 51.9422 41.2765C51.8247 40.8318 51.5365 40.4528 51.1414 40.2234C50.7463 39.9939 50.4581 39.6149 50.3406 39.1703C50.2232 38.7257 50.2862 38.2521 50.5156 37.8545C50.6649 37.5916 50.8809 37.3735 51.1414 37.2229C51.9556 36.7421 52.2347 35.6893 51.7672 34.8623V34.854Z" fill="#212B35" fill-opacity="0.06" stroke="#24282C" stroke-linecap="round" stroke-linejoin="round"></path>
                                            <ellipse cx="44.0007" cy="38.7283" rx="2.66667" ry="2.68531" fill="white" stroke="#24282C" stroke-linecap="round" stroke-linejoin="round"></ellipse>
                                            </svg>