<svg xmlns="http://www.w3.org/2000/svg" width="46" height="46" viewBox="0 0 46 46" fill="none"><path d="M19.1099 35.28V30.9865C19.1098 29.8945 19.9801 29.0072 21.0582 28.9998H25.0076C26.0909 28.9998 26.9691 29.8893 26.9691 30.9865V30.9865V35.2933C26.9689 36.2205 27.6995 36.9783 28.6147 37H31.2476C33.8723 37 36 34.8449 36 32.1866V32.1866V19.973C35.986 18.9272 35.5012 17.9451 34.6835 17.3062L25.679 9.95942C24.1015 8.68019 21.859 8.68019 20.2815 9.95942L11.3165 17.3196C10.4957 17.9558 10.0101 18.9395 10 19.9863V32.1866C10 34.8449 12.1277 37 14.7524 37H17.3853C18.3232 37 19.0835 36.2299 19.0835 35.28V35.28" stroke="#24282C" stroke-width="1.5" stroke-linecap="round"></path></svg>