<svg xmlns="http://www.w3.org/2000/svg" width="36" height="47" viewBox="0 0 36 47" fill="none"><mask id="path-1-inside-1_294_1580" fill="white"><path d="M18 0C8.05887 0 0 8.03703 0 17.9512C0 20.3821 0.783787 25.4646 6.75 31.4146C9.71699 34.3736 9.90179 36.3787 9.29164 39.5644C9.15492 40.2783 9.68977 40.9512 10.4166 40.9512H26.3073C26.9793 40.9512 27.4756 40.3753 27.3583 39.7136C27.0187 37.7972 26.7489 35.0309 30.375 31.4146C34.6031 27.198 36 23 36 17.9512C36 8.03703 27.9411 0 18 0Z"></path></mask><path d="M6.75 31.4146L7.45615 30.7066L6.75 31.4146ZM9.29164 39.5644L10.2738 39.7526L9.29164 39.5644ZM27.3583 39.7136L26.3737 39.8881L27.3583 39.7136ZM30.375 31.4146L29.6689 30.7066L30.375 31.4146ZM1 17.9512C1 8.59188 8.6086 1 18 1V-1C7.50915 -1 -1 7.48219 -1 17.9512H1ZM18 1C27.3914 1 35 8.59188 35 17.9512H37C37 7.48219 28.4909 -1 18 -1V1ZM-1 17.9512C-1 20.6369 -0.118098 25.9774 6.04385 32.1227L7.45615 30.7066C1.68567 24.9517 1 20.1274 1 17.9512H-1ZM6.04385 32.1227C7.45842 33.5334 8.118 34.6267 8.39645 35.6638C8.67729 36.7099 8.60652 37.8255 8.30949 39.3763L10.2738 39.7526C10.5869 38.1177 10.7288 36.6379 10.328 35.1452C9.92488 33.6436 9.00857 32.2548 7.45615 30.7066L6.04385 32.1227ZM10.4166 41.9512H26.3073V39.9512H10.4166V41.9512ZM28.343 39.5391C28.1807 38.6236 28.0578 37.6197 28.3501 36.4425C28.6413 35.2695 29.3706 33.8287 31.0811 32.1227L29.6689 30.7066C27.7534 32.6168 26.8045 34.3673 26.409 35.9606C26.0145 37.5497 26.1963 38.8872 26.3737 39.8881L28.343 39.5391ZM31.0811 32.1227C35.5124 27.7035 37 23.2437 37 17.9512H35C35 22.7563 33.6938 26.6925 29.6689 30.7066L31.0811 32.1227ZM26.3073 41.9512C27.5833 41.9512 28.5719 40.8311 28.343 39.5391L26.3737 39.8881C26.3771 39.9078 26.3748 39.9175 26.374 39.9204C26.3729 39.9243 26.3711 39.9279 26.368 39.9315C26.3649 39.9352 26.3599 39.9395 26.352 39.9431C26.3448 39.9464 26.331 39.9512 26.3073 39.9512V41.9512ZM8.30949 39.3763C8.05964 40.6809 9.03604 41.9512 10.4166 41.9512V39.9512C10.3743 39.9512 10.3386 39.9349 10.3089 39.8981C10.2779 39.8595 10.263 39.8087 10.2738 39.7526L8.30949 39.3763Z" fill="#24282C" mask="url(#path-1-inside-1_294_1580)"></path><path d="M12.3748 40.3901V44.8642C12.3748 45.4914 12.8832 45.9999 13.5104 45.9999H23.6141C24.2413 45.9999 24.7498 45.4914 24.7498 44.8642V40.3901" stroke="#24282C"></path><path d="M22.8612 14.2549L23.2148 13.9013L22.8612 14.2549ZM23.7451 15.1387L23.3916 15.4923L23.7451 15.1387ZM24.25 21.375C23.9739 21.375 23.75 21.5989 23.75 21.875C23.75 22.1511 23.9739 22.375 24.25 22.375V21.375ZM23.7705 24.8314L24.1259 25.1831L23.7705 24.8314ZM22.8913 25.7199L22.5359 25.3682L22.8913 25.7199ZM13.1385 25.7453L13.4921 25.3918H13.4921L13.1385 25.7453ZM12.2293 15.169L11.8738 14.8173H11.8738L12.2293 15.169ZM13.1085 14.2805L13.4639 14.6322L13.1085 14.2805ZM12.1097 22.133L11.6397 22.3036L12.1097 22.133ZM15.3555 25.671L15.1448 26.1244L15.3555 25.671ZM23.8534 17.8412L23.3842 18.0139L23.8534 17.8412ZM20.1498 25.8654L20.3228 26.3345L20.1498 25.8654ZM20.6236 14.3321L20.4124 14.7853L20.6236 14.3321ZM15.8579 25.8783L16.0282 25.4081L15.8579 25.8783ZM12.1097 17.867L11.6397 17.6964L12.1097 17.867ZM23.6789 22.5837L23.2237 22.3768L23.6789 22.5837ZM23.8534 22.1588L24.3226 22.3315L23.8534 22.1588ZM20.6527 25.6543L20.8663 26.1064L20.6527 25.6543ZM23.6653 17.3866L23.2112 17.5959L23.6653 17.3866ZM17.375 12C16.4085 12 15.625 12.7835 15.625 13.75H16.625C16.625 13.3358 16.9608 13 17.375 13V12ZM18.625 12H17.375V13H18.625V12ZM20.375 13.75C20.375 12.7835 19.5915 12 18.625 12V13C19.0392 13 19.375 13.3358 19.375 13.75H20.375ZM19.9767 14.6037C20.1249 14.6584 20.2702 14.719 20.4124 14.7853L20.8349 13.8789C20.6678 13.801 20.497 13.7298 20.3228 13.6655L19.9767 14.6037ZM23.2148 13.9013C22.5314 13.2179 21.4233 13.2179 20.7399 13.9013L21.447 14.6084C21.7399 14.3155 22.2148 14.3155 22.5077 14.6084L23.2148 13.9013ZM24.0987 14.7852L23.2148 13.9013L22.5077 14.6084L23.3916 15.4923L24.0987 14.7852ZM24.0987 17.2601C24.7821 16.5766 24.7821 15.4686 24.0987 14.7852L23.3916 15.4923C23.6845 15.7852 23.6845 16.2601 23.3916 16.553L24.0987 17.2601ZM23.2112 17.5959C23.2742 17.7324 23.3319 17.8719 23.3842 18.0139L24.3226 17.6685C24.2612 17.5015 24.1933 17.3377 24.1194 17.1773L23.2112 17.5959ZM26 19.375C26 18.4085 25.2165 17.625 24.25 17.625V18.625C24.6642 18.625 25 18.9608 25 19.375H26ZM26 20.625V19.375H25V20.625H26ZM24.25 22.375C25.2165 22.375 26 21.5915 26 20.625H25C25 21.0392 24.6642 21.375 24.25 21.375V22.375ZM23.3842 21.9861C23.3354 22.1187 23.2818 22.249 23.2237 22.3768L24.1341 22.7906C24.2023 22.6405 24.2653 22.4873 24.3226 22.3315L23.3842 21.9861ZM24.1259 25.1831C24.8058 24.4961 24.8 23.3881 24.113 22.7082L23.4096 23.419C23.704 23.7104 23.7065 24.1853 23.4151 24.4797L24.1259 25.1831ZM23.2467 26.0716L24.1259 25.1831L23.4151 24.4797L22.5359 25.3682L23.2467 26.0716ZM20.7719 26.0845C21.4589 26.7644 22.5669 26.7586 23.2467 26.0716L22.5359 25.3682C22.2445 25.6626 21.7697 25.6651 21.4753 25.3737L20.7719 26.0845ZM20.4391 25.2022C20.2884 25.2734 20.1342 25.3382 19.9767 25.3963L20.3228 26.3345C20.508 26.2662 20.6892 26.19 20.8663 26.1064L20.4391 25.2022ZM18.625 28C19.5915 28 20.375 27.2165 20.375 26.25H19.375C19.375 26.6642 19.0392 27 18.625 27V28ZM17.375 28H18.625V27H17.375V28ZM15.625 26.25C15.625 27.2165 16.4085 28 17.375 28V27C16.9608 27 16.625 26.6642 16.625 26.25H15.625ZM16.0282 25.4081C15.8709 25.3512 15.7168 25.2875 15.5662 25.2176L15.1448 26.1244C15.3217 26.2067 15.5028 26.2814 15.6877 26.3484L16.0282 25.4081ZM12.785 26.0989C13.4684 26.7823 14.5764 26.7823 15.2598 26.0989L14.5527 25.3918C14.2598 25.6847 13.785 25.6847 13.4921 25.3918L12.785 26.0989ZM11.9011 25.215L12.785 26.0989L13.4921 25.3918L12.6082 24.5079L11.9011 25.215ZM11.9011 22.7401C11.2177 23.4236 11.2177 24.5316 11.9011 25.215L12.6082 24.5079C12.3153 24.215 12.3153 23.7401 12.6082 23.4472L11.9011 22.7401ZM12.779 22.4421C12.7056 22.2859 12.639 22.1258 12.5797 21.9624L11.6397 22.3036C11.7095 22.4958 11.7877 22.6838 11.8739 22.8673L12.779 22.4421ZM10 20.625C10 21.5915 10.7835 22.375 11.75 22.375V21.375C11.3358 21.375 11 21.0392 11 20.625H10ZM10 19.375V20.625H11V19.375H10ZM11.75 17.625C10.7835 17.625 10 18.4085 10 19.375H11C11 18.9608 11.3358 18.625 11.75 18.625V17.625ZM12.5797 18.0376C12.6356 17.8837 12.6979 17.7328 12.7662 17.5853L11.8589 17.1648C11.7786 17.3381 11.7054 17.5154 11.6397 17.6964L12.5797 18.0376ZM11.8738 14.8173C11.194 15.5043 11.1998 16.6123 11.8868 17.2922L12.5902 16.5814C12.2958 16.29 12.2933 15.8151 12.5847 15.5207L11.8738 14.8173ZM12.7531 13.9288L11.8738 14.8173L12.5847 15.5207L13.4639 14.6322L12.7531 13.9288ZM15.2279 13.9158C14.5409 13.236 13.4329 13.2418 12.7531 13.9288L13.4639 14.6322C13.7552 14.3378 14.2301 14.3353 14.5245 14.6266L15.2279 13.9158ZM15.5384 14.7954C15.6978 14.7203 15.8612 14.6523 16.0282 14.5919L15.6877 13.6516C15.4914 13.7227 15.2994 13.8026 15.1122 13.8908L15.5384 14.7954ZM16.0282 14.5919C16.3712 14.4676 16.625 14.1412 16.625 13.75H15.625C15.625 13.6941 15.6599 13.6617 15.6877 13.6516L16.0282 14.5919ZM12.7662 17.5853C12.9179 17.2581 12.8647 16.853 12.5902 16.5814L11.8868 17.2922C11.8438 17.2496 11.8442 17.1966 11.8589 17.1648L12.7662 17.5853ZM12.5797 21.9624C12.457 21.6244 12.135 21.375 11.75 21.375V22.375C11.6892 22.375 11.6518 22.3369 11.6397 22.3036L12.5797 21.9624ZM15.5662 25.2176C15.2366 25.0644 14.8282 25.1164 14.5527 25.3918L15.2598 26.0989C15.2201 26.1386 15.1721 26.1371 15.1448 26.1244L15.5662 25.2176ZM23.3842 18.0139C23.5133 18.3647 23.8482 18.625 24.25 18.625V17.625C24.2949 17.625 24.3168 17.6526 24.3226 17.6685L23.3842 18.0139ZM12.6082 23.4472C12.8814 23.1741 12.9324 22.7686 12.779 22.4421L11.8739 22.8673C11.8591 22.8357 11.8584 22.7828 11.9011 22.7401L12.6082 23.4472ZM14.5245 14.6266C14.8013 14.9005 15.2098 14.9503 15.5384 14.7954L15.1122 13.8908C15.1396 13.8779 15.1879 13.8762 15.2279 13.9158L14.5245 14.6266ZM19.9767 25.3963C19.6309 25.5239 19.375 25.8543 19.375 26.25H20.375C20.375 26.2999 20.3442 26.3266 20.3228 26.3345L19.9767 25.3963ZM20.4124 14.7853C20.7484 14.9419 21.1656 14.8898 21.447 14.6084L20.7399 13.9013C20.7748 13.8664 20.8149 13.8696 20.8349 13.8789L20.4124 14.7853ZM16.625 26.25C16.625 25.8588 16.3712 25.5324 16.0282 25.4081L15.6877 26.3484C15.6599 26.3383 15.625 26.3059 15.625 26.25H16.625ZM11.75 18.625C12.135 18.625 12.457 18.3756 12.5797 18.0376L11.6397 17.6964C11.6518 17.6631 11.6892 17.625 11.75 17.625V18.625ZM23.2237 22.3768C23.0692 22.7168 23.1243 23.1368 23.4096 23.419L24.113 22.7082C24.1449 22.7399 24.1412 22.775 24.1341 22.7906L23.2237 22.3768ZM24.25 21.375C23.8482 21.375 23.5133 21.6353 23.3842 21.9861L24.3226 22.3315C24.3168 22.3474 24.2949 22.375 24.25 22.375V21.375ZM21.4753 25.3737C21.1922 25.0937 20.7745 25.0438 20.4391 25.2022L20.8663 26.1064C20.8466 26.1157 20.8068 26.1191 20.7719 26.0845L21.4753 25.3737ZM23.3916 16.553C23.1079 16.8366 23.0549 17.2568 23.2112 17.5959L24.1194 17.1773C24.1266 17.1929 24.1305 17.2282 24.0987 17.2601L23.3916 16.553ZM19.375 13.75C19.375 14.1457 19.6309 14.4761 19.9767 14.6037L20.3228 13.6655C20.3442 13.6734 20.375 13.7001 20.375 13.75H19.375Z" fill="#24282C"></path><circle cx="17.9863" cy="20" r="3.125" stroke="#24282C"></circle></svg>