<svg xmlns="http://www.w3.org/2000/svg" width="60" height="60" viewBox="0 0 60 60" fill="none"><rect width="60" height="60" rx="10" fill="#F5F5F5"></rect><path d="M17.6701 35.8828C17.7981 36.2767 18.2212 36.4923 18.6151 36.3643C19.0091 36.2363 19.2246 35.8132 19.0966 35.4193L17.6701 35.8828ZM23.4119 19.5162L23.1801 18.8029L23.4119 19.5162ZM18.3833 24.5448L17.6701 24.313L18.3833 24.5448ZM29.4954 38.4604C29.7883 38.1675 29.7883 37.6926 29.4954 37.3997C29.2025 37.1068 28.7276 37.1068 28.4347 37.3997L29.4954 38.4604ZM27.0451 39.85L27.5754 40.3804L27.0451 39.85ZM27.1499 42.161L26.6698 42.7372L27.1499 42.161ZM28.8765 44.5762C29.1947 44.8413 29.6676 44.7983 29.9328 44.4801C30.198 44.1619 30.155 43.689 29.8368 43.4238L28.8765 44.5762ZM31.4534 15.4697C31.1605 15.1768 30.6856 15.1768 30.3927 15.4697C30.0999 15.7626 30.0999 16.2374 30.3927 16.5303L31.4534 15.4697ZM32.843 17.92L33.3734 17.3896L32.843 17.92ZM32.7382 20.231L32.2581 19.6548L32.7382 20.231ZM30.0513 21.4938C29.7331 21.7589 29.6901 22.2319 29.9553 22.5501C30.2205 22.8683 30.6934 22.9113 31.0116 22.6461L30.0513 21.4938ZM30.5315 41.0629V41.8129V41.0629ZM41.8292 23.6091C41.7061 23.2137 41.2856 22.9929 40.8901 23.1161C40.4947 23.2393 40.2739 23.6597 40.3971 24.0552L41.8292 23.6091ZM36.0846 40.6631L36.3254 41.3734L36.0846 40.6631ZM41.1132 35.4176L41.8292 35.6406L41.1132 35.4176ZM28.965 19.8829H32.0979V18.3829H28.965V19.8829ZM17.25 30.0979C17.25 32.9551 17.2408 34.5616 17.6701 35.8828L19.0966 35.4193C18.7593 34.381 18.75 33.0718 18.75 30.0979H17.25ZM28.965 18.3829C26.1078 18.3829 24.5014 18.3736 23.1801 18.8029L23.6437 20.2295C24.682 19.8921 25.9911 19.8829 28.965 19.8829V18.3829ZM18.75 30.0979C18.75 27.124 18.7593 25.8149 19.0966 24.7765L17.6701 24.313C17.2408 25.6342 17.25 27.2407 17.25 30.0979H18.75ZM23.1801 18.8029C20.5674 19.6518 18.519 21.7003 17.6701 24.313L19.0966 24.7765C19.7972 22.6204 21.4876 20.93 23.6437 20.2295L23.1801 18.8029ZM28.4347 37.3997L26.5147 39.3197L27.5754 40.3804L29.4954 38.4604L28.4347 37.3997ZM26.6698 42.7372L28.8765 44.5762L29.8368 43.4238L27.63 41.5849L26.6698 42.7372ZM30.3927 16.5303L32.3127 18.4503L33.3734 17.3896L31.4534 15.4697L30.3927 16.5303ZM32.2581 19.6548L30.0513 21.4938L31.0116 22.6461L33.2184 20.8071L32.2581 19.6548ZM30.5315 40.3129H27.3986V41.8129H30.5315V40.3129ZM42.2465 29.6249C42.2465 26.6398 42.2551 24.9763 41.8292 23.6091L40.3971 24.0552C40.7379 25.1494 40.7465 26.5273 40.7465 29.6249H42.2465ZM30.5315 41.8129C33.3865 41.8129 34.999 41.8229 36.3254 41.3734L35.8439 39.9528C34.8106 40.303 33.5076 40.3129 30.5315 40.3129V41.8129ZM40.7465 29.6249C40.7465 32.7225 40.7379 34.1003 40.3971 35.1945L41.8292 35.6406C42.2551 34.2735 42.2465 32.61 42.2465 29.6249H40.7465ZM36.3254 41.3734C38.9462 40.4851 40.9861 38.3476 41.8292 35.6406L40.3971 35.1945C39.6908 37.4621 37.9918 39.2247 35.8439 39.9528L36.3254 41.3734ZM26.5147 39.3197C26.0202 39.8142 25.7986 40.4739 25.8415 41.1132L27.3381 41.0127C27.3228 40.7849 27.401 40.5548 27.5754 40.3804L26.5147 39.3197ZM25.8415 41.1132C25.8822 41.7193 26.161 42.3133 26.6698 42.7372L27.63 41.5849C27.4503 41.4351 27.3526 41.228 27.3381 41.0127L25.8415 41.1132ZM27.3986 40.3129H26.5898V41.8129H27.3986V40.3129ZM32.3127 18.4503C32.4871 18.6247 32.5653 18.8548 32.55 19.0826L34.0466 19.1831C34.0896 18.5438 33.8679 17.8842 33.3734 17.3896L32.3127 18.4503ZM32.55 19.0826C32.5355 19.298 32.4378 19.505 32.2581 19.6548L33.2184 20.8071C33.7271 20.3832 34.0059 19.7892 34.0466 19.1831L32.55 19.0826ZM32.0979 19.8829H33.2983V18.3829H32.0979V19.8829Z" fill="#222222"></path></svg>