<svg width="28" height="28" viewBox="0 0 28 28" fill="none" xmlns="http://www.w3.org/2000/svg">
<path d="M10.5 18.375C14.8492 18.375 18.375 14.8492 18.375 10.5C18.375 6.15076 14.8492 2.625 10.5 2.625C6.15076 2.625 2.625 6.15076 2.625 10.5C2.625 14.8492 6.15076 18.375 10.5 18.375Z" stroke="#222222" stroke-width="1.5" stroke-linecap="round" stroke-linejoin="round"/>
<path d="M17.5 25.375C21.8492 25.375 25.375 21.8492 25.375 17.5C25.375 13.1508 21.8492 9.625 17.5 9.625C13.1508 9.625 9.625 13.1508 9.625 17.5C9.625 21.8492 13.1508 25.375 17.5 25.375Z" stroke="#222222" stroke-width="1.5" stroke-linecap="round" stroke-linejoin="round"/>
<path d="M13.4004 10.7754L17.225 14.6" stroke="#222222" stroke-width="1.5" stroke-linecap="round" stroke-linejoin="round"/>
<path d="M10.7749 13.4001L14.5995 17.2247" stroke="#222222" stroke-width="1.5" stroke-linecap="round" stroke-linejoin="round"/>
</svg>
