<svg xmlns="http://www.w3.org/2000/svg" width="48" height="48" viewBox="0 0 48 48" fill="none"><rect x="0.5" y="0.5" width="47" height="47" stroke="#24282C"></rect><path d="M4.19305 8.05819C12.9754 7.64175 20.0303 3.78361 23.0463 1.47438C23.4022 1.20188 23.8933 1.17467 24.2697 1.41814C32.0934 6.47897 40.061 7.93623 43.9274 8.07933C44.4653 8.09925 44.9163 8.52316 44.9407 9.06094C46.0345 33.1322 31.7304 44.1849 24.0029 46.8768C23.7638 46.9601 23.5037 46.9386 23.2755 46.8288C4.55162 37.8196 2.08139 18.3554 3.24021 8.91558C3.29929 8.43432 3.70872 8.08116 4.19305 8.05819Z" stroke="#24282C" stroke-linecap="round"></path><path d="M17.1005 24.8995L21.6519 28.8334L30.9922 18.9922" stroke="#24282C" stroke-linecap="round" stroke-linejoin="round"></path></svg>