<svg xmlns="http://www.w3.org/2000/svg" width="30" height="30" viewBox="0 0 30 30" fill="none"><path d="M4.20611 27.5146L4.64695 26.9078L4.20611 27.5146ZM2.48542 25.7939L3.09219 25.353L2.48542 25.7939ZM27.5146 25.7939L26.9078 25.353L27.5146 25.7939ZM25.7939 27.5146L25.353 26.9078L25.7939 27.5146ZM25.7939 2.48542L25.353 3.09219L25.7939 2.48542ZM27.5146 4.20611L26.9078 4.64695L27.5146 4.20611ZM4.20611 2.48542L4.64695 3.09219L4.20611 2.48542ZM2.48542 4.20611L3.09219 4.64695L2.48542 4.20611ZM21.9722 13.4444C21.9722 13.0302 21.6364 12.6944 21.2222 12.6944C20.808 12.6944 20.4722 13.0302 20.4722 13.4444H21.9722ZM20.4722 22.7778C20.4722 23.192 20.808 23.5278 21.2222 23.5278C21.6364 23.5278 21.9722 23.192 21.9722 22.7778H20.4722ZM15.75 7.22222C15.75 6.80801 15.4142 6.47222 15 6.47222C14.5858 6.47222 14.25 6.80801 14.25 7.22222H15.75ZM14.25 22.7778C14.25 23.192 14.5858 23.5278 15 23.5278C15.4142 23.5278 15.75 23.192 15.75 22.7778H14.25ZM9.52778 16.5556C9.52778 16.1413 9.19199 15.8056 8.77778 15.8056C8.36356 15.8056 8.02778 16.1413 8.02778 16.5556H9.52778ZM8.02778 22.7778C8.02778 23.192 8.36356 23.5278 8.77778 23.5278C9.19199 23.5278 9.52778 23.192 9.52778 22.7778H8.02778ZM15 28.25C12.0668 28.25 9.92721 28.249 8.26319 28.0687C6.61321 27.8899 5.52005 27.5422 4.64695 26.9078L3.76528 28.1213C4.93669 28.9724 6.32401 29.3674 8.10162 29.56C9.86519 29.751 12.1002 29.75 15 29.75V28.25ZM0.25 15C0.25 17.8998 0.248971 20.1348 0.440041 21.8984C0.632633 23.676 1.02758 25.0633 1.87866 26.2347L3.09219 25.353C2.45785 24.4799 2.11008 23.3868 1.93131 21.7368C1.75103 20.0728 1.75 17.9332 1.75 15H0.25ZM4.64695 26.9078C4.05033 26.4743 3.52566 25.9497 3.09219 25.353L1.87866 26.2347C2.40465 26.9587 3.04131 27.5954 3.76528 28.1213L4.64695 26.9078ZM28.25 15C28.25 17.9332 28.249 20.0728 28.0687 21.7368C27.8899 23.3868 27.5422 24.48 26.9078 25.353L28.1213 26.2347C28.9724 25.0633 29.3674 23.676 29.56 21.8984C29.751 20.1348 29.75 17.8998 29.75 15H28.25ZM15 29.75C17.8998 29.75 20.1348 29.751 21.8984 29.56C23.676 29.3674 25.0633 28.9724 26.2347 28.1213L25.353 26.9078C24.48 27.5422 23.3868 27.8899 21.7368 28.0687C20.0728 28.249 17.9332 28.25 15 28.25V29.75ZM26.9078 25.353C26.4743 25.9497 25.9497 26.4743 25.353 26.9078L26.2347 28.1213C26.9587 27.5954 27.5954 26.9587 28.1213 26.2347L26.9078 25.353ZM15 1.75C17.9332 1.75 20.0728 1.75103 21.7368 1.93131C23.3868 2.11008 24.4799 2.45785 25.353 3.09219L26.2347 1.87866C25.0633 1.02758 23.676 0.632633 21.8984 0.440041C20.1348 0.248971 17.8998 0.25 15 0.25V1.75ZM29.75 15C29.75 12.1002 29.751 9.86519 29.56 8.10162C29.3674 6.32401 28.9724 4.93669 28.1213 3.76528L26.9078 4.64695C27.5422 5.52005 27.8899 6.61321 28.0687 8.26319C28.249 9.92721 28.25 12.0668 28.25 15H29.75ZM25.353 3.09219C25.9497 3.52566 26.4743 4.05033 26.9078 4.64695L28.1213 3.76528C27.5954 3.04131 26.9587 2.40465 26.2347 1.87866L25.353 3.09219ZM15 0.25C12.1002 0.25 9.86519 0.248971 8.10162 0.440041C6.32401 0.632633 4.93669 1.02758 3.76528 1.87866L4.64695 3.09219C5.52005 2.45785 6.61321 2.11008 8.26319 1.93131C9.92721 1.75103 12.0668 1.75 15 1.75V0.25ZM1.75 15C1.75 12.0668 1.75103 9.92721 1.93131 8.26319C2.11008 6.61321 2.45785 5.52005 3.09219 4.64695L1.87866 3.76528C1.02758 4.93669 0.632633 6.32401 0.440041 8.10162C0.248971 9.86519 0.25 12.1002 0.25 15H1.75ZM3.76528 1.87866C3.04131 2.40465 2.40465 3.04131 1.87866 3.76528L3.09219 4.64695C3.52566 4.05033 4.05033 3.52566 4.64695 3.09219L3.76528 1.87866ZM20.4722 13.4444V22.7778H21.9722V13.4444H20.4722ZM14.25 7.22222V22.7778H15.75V7.22222H14.25ZM8.02778 16.5556V22.7778H9.52778V16.5556H8.02778Z" fill="white"></path></svg>