<svg width="28" height="28" viewBox="0 0 28 28" fill="none" xmlns="http://www.w3.org/2000/svg">
<path d="M10.5 25.6666H17.5C23.3333 25.6666 25.6667 23.3333 25.6667 17.4999V10.4999C25.6667 4.66659 23.3333 2.33325 17.5 2.33325H10.5C4.66667 2.33325 2.33333 4.66659 2.33333 10.4999V17.4999C2.33333 23.3333 4.66667 25.6666 10.5 25.6666Z" stroke="#222222" stroke-width="1.5" stroke-linecap="round" stroke-linejoin="round"/>
<path d="M10.5 11.6667C11.7887 11.6667 12.8333 10.622 12.8333 9.33333C12.8333 8.04467 11.7887 7 10.5 7C9.21134 7 8.16667 8.04467 8.16667 9.33333C8.16667 10.622 9.21134 11.6667 10.5 11.6667Z" stroke="#222222" stroke-width="1.5" stroke-linecap="round" stroke-linejoin="round"/>
<path d="M3.115 22.1083L8.86667 18.2467C9.78833 17.6283 11.1183 17.6983 11.9467 18.41L12.3317 18.7483C13.2417 19.53 14.7117 19.53 15.6217 18.7483L20.475 14.5833C21.385 13.8017 22.855 13.8017 23.765 14.5833L25.6667 16.2167" stroke="#222222" stroke-width="1.5" stroke-linecap="round" stroke-linejoin="round"/>
</svg>
