<svg width="28" height="28" fill="none" xmlns="http://www.w3.org/2000/svg"><path d="M19.833 24.5H8.167c-4.667 0-5.834-1.167-5.834-5.833V9.333C2.333 4.667 3.5 3.5 8.167 3.5h11.666c4.667 0 5.834 1.167 5.834 5.833v9.334c0 4.666-1.167 5.833-5.834 5.833zM16.333 9.333h5.834M17.5 14h4.667M19.833 18.667h2.334" stroke="#222" stroke-width="1.5" stroke-linecap="round" stroke-linejoin="round"/><path d="M9.917 13.172a2.112 2.112 0 1 0 0-4.224 2.112 2.112 0 0 0 0 4.224zM14 19.051a3.524 3.524 0 0 0-3.197-3.173 9.012 9.012 0 0 0-1.773 0 3.534 3.534 0 0 0-3.197 3.173" stroke="#222" stroke-width="1.5" stroke-linecap="round" stroke-linejoin="round"/></svg>