<svg width="28" height="28" viewBox="0 0 28 28" fill="none" xmlns="http://www.w3.org/2000/svg">
<path d="M22.75 4.375H5.25C4.76675 4.375 4.375 4.76675 4.375 5.25V22.75C4.375 23.2332 4.76675 23.625 5.25 23.625H22.75C23.2332 23.625 23.625 23.2332 23.625 22.75V5.25C23.625 4.76675 23.2332 4.375 22.75 4.375Z" stroke="#222222" stroke-width="1.5" stroke-linecap="round" stroke-linejoin="round"/>
<path d="M10.2877 12.9126L14 16.6249L17.7123 12.9126" stroke="#222222" stroke-width="1.5" stroke-linecap="round" stroke-linejoin="round"/>
<path d="M14 7.875V16.625" stroke="#222222" stroke-width="1.5" stroke-linecap="round" stroke-linejoin="round"/>
<path d="M4.37439 17.5H8.38695C8.50186 17.5 8.61564 17.5226 8.7218 17.5666C8.82796 17.6106 8.92442 17.675 9.00567 17.7563L11.1181 19.8687C11.1994 19.95 11.2958 20.0144 11.402 20.0584C11.5081 20.1024 11.6219 20.125 11.7368 20.125H16.262C16.3769 20.125 16.4906 20.1024 16.5968 20.0584C16.703 20.0144 16.7994 19.95 16.8807 19.8687L18.9931 17.7563C19.0744 17.675 19.1708 17.6106 19.277 17.5666C19.3831 17.5226 19.4969 17.5 19.6118 17.5H23.6244" stroke="#222222" stroke-width="1.5" stroke-linecap="round" stroke-linejoin="round"/>
</svg>
