<svg xmlns="http://www.w3.org/2000/svg" width="60" height="60" viewBox="0 0 60 60" fill="none"><rect width="60" height="60" rx="10" fill="#F5F5F5"></rect><path d="M19.1876 17.5H30.3126C31.2376 17.5 32.0001 18.2625 32.0001 19.1875V21.0375C32.0001 21.7125 31.5751 22.55 31.1626 22.975L27.5376 26.175C27.0376 26.6 26.7001 27.4375 26.7001 28.1125V31.7375C26.7001 32.2375 26.3626 32.9125 25.9376 33.175L24.7626 33.9375C23.6626 34.6125 22.1501 33.85 22.1501 32.5V28.0375C22.1501 27.45 21.8126 26.6875 21.4751 26.2625L18.2751 22.8875C17.8501 22.4625 17.5126 21.7125 17.5126 21.2V19.2625C17.5001 18.2625 18.2626 17.5 19.1876 17.5Z" stroke="#222222" stroke-width="1.5" stroke-miterlimit="10" stroke-linecap="round" stroke-linejoin="round"></path><path d="M17.5 30.0001V33.7501C17.5 40.0001 20 42.5001 26.25 42.5001H33.75C40 42.5001 42.5 40.0001 42.5 33.7501V26.2501C42.5 22.3501 41.525 19.9001 39.2625 18.6251C38.625 18.2626 37.35 17.9875 36.1875 17.8" stroke="#222222" stroke-width="1.5" stroke-linecap="round" stroke-linejoin="round"></path><path d="M31.25 31.25H37.5" stroke="#222222" stroke-width="1.5" stroke-linecap="round" stroke-linejoin="round"></path><path d="M28.75 36.25H37.5" stroke="#222222" stroke-width="1.5" stroke-linecap="round" stroke-linejoin="round"></path></svg>