<svg xmlns="http://www.w3.org/2000/svg" width="30" height="30" viewBox="0 0 30 30" fill="none"><path d="M4.20611 27.5146L4.64695 26.9078L4.20611 27.5146ZM2.48542 25.7939L3.09219 25.353L2.48542 25.7939ZM27.5146 25.7939L26.9078 25.353L27.5146 25.7939ZM25.7939 27.5146L25.353 26.9078L25.7939 27.5146ZM25.7939 2.48542L26.2347 1.87866L25.7939 2.48542ZM27.5146 4.20611L26.9078 4.64695L27.5146 4.20611ZM4.20611 2.48542L4.64695 3.09219L4.20611 2.48542ZM2.48542 4.20611L3.09219 4.64695L2.48542 4.20611ZM21.9722 1C21.9722 0.585786 21.6364 0.25 21.2222 0.25C20.808 0.25 20.4722 0.585786 20.4722 1H21.9722ZM18.1111 15.8056C17.6969 15.8056 17.3611 16.1413 17.3611 16.5556C17.3611 16.9698 17.6969 17.3056 18.1111 17.3056V15.8056ZM24.3333 17.3056C24.7475 17.3056 25.0833 16.9698 25.0833 16.5556C25.0833 16.1413 24.7475 15.8056 24.3333 15.8056V17.3056ZM18.1111 20.4722C17.6969 20.4722 17.3611 20.808 17.3611 21.2222C17.3611 21.6364 17.6969 21.9722 18.1111 21.9722V20.4722ZM24.3333 21.9722C24.7475 21.9722 25.0833 21.6364 25.0833 21.2222C25.0833 20.808 24.7475 20.4722 24.3333 20.4722V21.9722ZM1.12991 8.77778L0.382311 8.71778L1.12991 8.77778ZM21.2222 1.12991L21.1622 1.8775L21.2222 1.12991ZM15 28.25C12.0668 28.25 9.92721 28.249 8.26319 28.0687C6.61321 27.8899 5.52005 27.5422 4.64695 26.9078L3.76528 28.1213C4.93669 28.9724 6.32401 29.3674 8.10162 29.56C9.86519 29.751 12.1002 29.75 15 29.75V28.25ZM0.25 15C0.25 17.8998 0.248971 20.1348 0.440041 21.8984C0.632633 23.676 1.02758 25.0633 1.87866 26.2347L3.09219 25.353C2.45785 24.48 2.11008 23.3868 1.93131 21.7368C1.75103 20.0728 1.75 17.9332 1.75 15H0.25ZM4.64695 26.9078C4.05033 26.4743 3.52566 25.9497 3.09219 25.353L1.87866 26.2347C2.40465 26.9587 3.04131 27.5954 3.76528 28.1213L4.64695 26.9078ZM28.25 15C28.25 17.9332 28.249 20.0728 28.0687 21.7368C27.8899 23.3868 27.5422 24.48 26.9078 25.353L28.1213 26.2347C28.9724 25.0633 29.3674 23.676 29.56 21.8984C29.751 20.1348 29.75 17.8998 29.75 15H28.25ZM15 29.75C17.8998 29.75 20.1348 29.751 21.8984 29.56C23.676 29.3674 25.0633 28.9724 26.2347 28.1213L25.353 26.9078C24.48 27.5422 23.3868 27.8899 21.7368 28.0687C20.0728 28.249 17.9332 28.25 15 28.25V29.75ZM26.9078 25.353C26.4743 25.9497 25.9497 26.4743 25.353 26.9078L26.2347 28.1213C26.9587 27.5954 27.5954 26.9587 28.1213 26.2347L26.9078 25.353ZM25.353 3.09219C25.9497 3.52566 26.4743 4.05033 26.9078 4.64695L28.1213 3.76528C27.5954 3.04131 26.9587 2.40465 26.2347 1.87866L25.353 3.09219ZM15 0.25C12.1002 0.25 9.86519 0.248971 8.10162 0.440041C6.32401 0.632633 4.93669 1.02758 3.76528 1.87866L4.64695 3.09219C5.52005 2.45785 6.61321 2.11008 8.26319 1.93131C9.92721 1.75103 12.0668 1.75 15 1.75V0.25ZM3.76528 1.87866C3.04131 2.40465 2.40465 3.04131 1.87866 3.76528L3.09219 4.64695C3.52566 4.05033 4.05033 3.52566 4.64695 3.09219L3.76528 1.87866ZM18.1111 17.3056H24.3333V15.8056H18.1111V17.3056ZM18.1111 21.9722H24.3333V20.4722H18.1111V21.9722ZM12.6944 18.8889C12.6944 20.6224 11.2891 22.0278 9.55556 22.0278V23.5278C12.1175 23.5278 14.1944 21.4509 14.1944 18.8889H12.6944ZM9.55556 22.0278C7.822 22.0278 6.41667 20.6224 6.41667 18.8889H4.91667C4.91667 21.4509 6.99357 23.5278 9.55556 23.5278V22.0278ZM6.41667 18.8889C6.41667 17.1553 7.822 15.75 9.55556 15.75V14.25C6.99357 14.25 4.91667 16.3269 4.91667 18.8889H6.41667ZM9.55556 15.75C11.2891 15.75 12.6944 17.1553 12.6944 18.8889H14.1944C14.1944 16.3269 12.1175 14.25 9.55556 14.25V15.75ZM1.75 15C1.75 12.3993 1.75055 10.4196 1.8775 8.83778L0.382311 8.71778C0.249447 10.3733 0.25 12.4225 0.25 15H1.75ZM1.8775 8.83778C2.03615 6.861 2.38625 5.61859 3.09219 4.64695L1.87866 3.76528C0.932436 5.06764 0.54918 6.63858 0.382311 8.71778L1.8775 8.83778ZM15 1.75C17.6007 1.75 19.5804 1.75055 21.1622 1.8775L21.2822 0.382311C19.6267 0.249448 17.5775 0.25 15 0.25V1.75ZM21.1622 1.8775C23.139 2.03615 24.3814 2.38625 25.353 3.09219L26.2347 1.87866C24.9324 0.932436 23.3614 0.54918 21.2822 0.382311L21.1622 1.8775ZM20.4722 1V1.12991H21.9722V1H20.4722ZM28.8701 8.02778H1.12991V9.52778H28.8701V8.02778ZM29.75 15C29.75 12.4225 29.7506 10.3733 29.6177 8.71778L28.1225 8.83778C28.2494 10.4196 28.25 12.3993 28.25 15H29.75ZM29.6177 8.71778C29.4508 6.63858 29.0676 5.06764 28.1213 3.76528L26.9078 4.64695C27.6138 5.61859 27.9639 6.861 28.1225 8.83778L29.6177 8.71778Z" fill="white"></path></svg>