<svg xmlns="http://www.w3.org/2000/svg" width="40" height="40" viewBox="0 0 40 40" fill="none"><path d="M12.1 3.33337H27.8833C28.9666 3.33337 29.9333 3.36675 30.8 3.48342C35.4166 4.00009 36.6666 6.16672 36.6666 12.1001V22.6334C36.6666 28.5667 35.4166 30.7334 30.8 31.25C29.9333 31.3667 28.9833 31.4001 27.8833 31.4001H12.1C11.0166 31.4001 10.05 31.3667 9.1833 31.25C4.56663 30.7334 3.31665 28.5667 3.31665 22.6334V12.1001C3.31665 6.16672 4.56663 4.00009 9.1833 3.48342C10.05 3.36675 11.0166 3.33337 12.1 3.33337Z" stroke="white" stroke-width="1.5" stroke-linecap="round" stroke-linejoin="round"></path><path opacity="0.4" d="M22.6334 13.8667H28.7667" stroke="white" stroke-width="1.5" stroke-linecap="round" stroke-linejoin="round"></path><path opacity="0.4" d="M11.2333 23.5166H11.2667H28.7833" stroke="white" stroke-width="1.5" stroke-linecap="round" stroke-linejoin="round"></path><path opacity="0.4" d="M11.6667 36.6666H28.3334" stroke="white" stroke-width="1.5" stroke-linecap="round" stroke-linejoin="round"></path><path opacity="0.4" d="M11.9912 13.8333H12.0061" stroke="white" stroke-width="2" stroke-linecap="round" stroke-linejoin="round"></path><path opacity="0.4" d="M17.4909 13.8333H17.5058" stroke="white" stroke-width="2" stroke-linecap="round" stroke-linejoin="round"></path></svg>