<svg xmlns="http://www.w3.org/2000/svg" width="30" height="30" viewBox="0 0 30 30" fill="none"><path d="M3.77227 19.7624L3.88959 19.0217H3.88959L3.77227 19.7624ZM10.2376 26.2277L10.9783 26.1104L10.2376 26.2277ZM4.20611 27.5146L3.76528 28.1213L4.20611 27.5146ZM2.48542 25.7939L3.09219 25.353L2.48542 25.7939ZM27.5146 25.7939L26.9078 25.353L27.5146 25.7939ZM25.7939 27.5146L25.353 26.9078L25.7939 27.5146ZM25.7939 2.48542L25.353 3.09219L25.7939 2.48542ZM27.5146 4.20611L26.9078 4.64695L27.5146 4.20611ZM4.20611 2.48542L4.64695 3.09219L4.20611 2.48542ZM2.48542 4.20611L3.09219 4.64695L2.48542 4.20611ZM1.045 19.6667L0.29544 19.6923L1.045 19.6667ZM10.3333 28.955L10.3077 29.7046L10.3333 28.955ZM8.77778 14.25C8.36356 14.25 8.02778 14.5858 8.02778 15C8.02778 15.4142 8.36356 15.75 8.77778 15.75L8.77778 14.25ZM21.2222 15.75C21.6364 15.75 21.9722 15.4142 21.9722 15C21.9722 14.5858 21.6364 14.25 21.2222 14.25V15.75ZM8.77778 8.02778C8.36356 8.02778 8.02778 8.36357 8.02778 8.77778C8.02778 9.192 8.36356 9.52778 8.77778 9.52778L8.77778 8.02778ZM13.4444 9.52778C13.8587 9.52778 14.1944 9.19199 14.1944 8.77778C14.1944 8.36357 13.8587 8.02778 13.4444 8.02778V9.52778ZM3.65494 20.5032C6.66208 20.9795 9.02053 23.3379 9.49681 26.3451L10.9783 26.1104C10.4004 22.4614 7.53857 19.5996 3.88959 19.0217L3.65494 20.5032ZM4.64695 26.9078C4.05033 26.4743 3.52566 25.9497 3.09219 25.353L1.87866 26.2347C2.40465 26.9587 3.04131 27.5954 3.76528 28.1213L4.64695 26.9078ZM28.25 15C28.25 17.9332 28.249 20.0728 28.0687 21.7368C27.8899 23.3868 27.5422 24.48 26.9078 25.353L28.1213 26.2347C28.9724 25.0633 29.3674 23.676 29.56 21.8984C29.751 20.1348 29.75 17.8998 29.75 15H28.25ZM15 29.75C17.8998 29.75 20.1348 29.751 21.8984 29.56C23.676 29.3674 25.0633 28.9724 26.2347 28.1213L25.353 26.9078C24.48 27.5422 23.3868 27.8899 21.7368 28.0687C20.0728 28.249 17.9332 28.25 15 28.25V29.75ZM26.9078 25.353C26.4743 25.9497 25.9497 26.4743 25.353 26.9078L26.2347 28.1213C26.9587 27.5954 27.5954 26.9587 28.1213 26.2347L26.9078 25.353ZM15 1.75C17.9332 1.75 20.0728 1.75103 21.7368 1.93131C23.3868 2.11008 24.4799 2.45785 25.353 3.09219L26.2347 1.87866C25.0633 1.02758 23.676 0.632633 21.8984 0.440041C20.1348 0.248971 17.8998 0.25 15 0.25V1.75ZM29.75 15C29.75 12.1002 29.751 9.86519 29.56 8.10162C29.3674 6.32401 28.9724 4.93669 28.1213 3.76528L26.9078 4.64695C27.5422 5.52005 27.8899 6.61321 28.0687 8.26319C28.249 9.92721 28.25 12.0668 28.25 15H29.75ZM25.353 3.09219C25.9497 3.52566 26.4743 4.05033 26.9078 4.64695L28.1213 3.76528C27.5954 3.04131 26.9587 2.40465 26.2347 1.87866L25.353 3.09219ZM15 0.25C12.1002 0.25 9.86519 0.248971 8.10162 0.440041C6.32401 0.632633 4.93669 1.02758 3.76528 1.87866L4.64695 3.09219C5.52005 2.45785 6.61321 2.11008 8.26319 1.93131C9.92721 1.75103 12.0668 1.75 15 1.75V0.25ZM1.75 15C1.75 12.0668 1.75103 9.92721 1.93131 8.26319C2.11008 6.61321 2.45785 5.52005 3.09219 4.64695L1.87866 3.76528C1.02758 4.93669 0.632633 6.32401 0.440041 8.10162C0.248971 9.86519 0.25 12.1002 0.25 15H1.75ZM3.76528 1.87866C3.04131 2.40465 2.40465 3.04131 1.87866 3.76528L3.09219 4.64695C3.52566 4.05033 4.05033 3.52566 4.64695 3.09219L3.76528 1.87866ZM0.25 15C0.25 16.8142 0.249906 18.3633 0.29544 19.6923L1.79456 19.641C1.75009 18.3431 1.75 16.8225 1.75 15H0.25ZM0.29544 19.6923C0.395109 22.6015 0.711675 24.6285 1.87866 26.2347L3.09219 25.353C2.21444 24.1449 1.8936 22.5316 1.79456 19.641L0.29544 19.6923ZM1.04499 20.4167C2.48767 20.4167 3.12941 20.42 3.65494 20.5032L3.88959 19.0217C3.21857 18.9154 2.4327 18.9167 1.04501 18.9167L1.04499 20.4167ZM15 28.25C13.1775 28.25 11.6569 28.2499 10.359 28.2054L10.3077 29.7046C11.6367 29.7501 13.1858 29.75 15 29.75V28.25ZM10.359 28.2054C7.46843 28.1064 5.85506 27.7856 4.64695 26.9078L3.76528 28.1213C5.37149 29.2883 7.39855 29.6049 10.3077 29.7046L10.359 28.2054ZM11.0833 28.955C11.0833 27.5673 11.0846 26.7814 10.9783 26.1104L9.49681 26.3451C9.58005 26.8706 9.58332 27.5123 9.58333 28.955L11.0833 28.955ZM8.77778 15.75L21.2222 15.75V14.25L8.77778 14.25L8.77778 15.75ZM8.77778 9.52778L13.4444 9.52778V8.02778L8.77778 8.02778L8.77778 9.52778Z" fill="white"></path></svg>