<svg xmlns="http://www.w3.org/2000/svg" width="50" height="34" viewBox="0 0 50 34" fill="none"><path d="M25.0001 14.1941C17.4989 14.1941 11.418 20.275 11.418 27.7762C11.418 28.1932 11.4305 28.6157 11.4577 29.0382C11.6154 31.486 13.8798 33.0001 16.3327 33.0001H33.4391C35.892 33.0001 38.2312 31.5152 38.5063 29.0777C38.5555 28.6421 38.5821 28.2062 38.5821 27.7762C38.5821 20.275 32.5012 14.1941 25.0001 14.1941Z" stroke="#24282C"></path><path d="M38.5 28.5523H47C48.1046 28.5523 49.0157 27.6514 48.8548 26.5586C48.0162 20.8635 43.6453 16.5225 38.3792 16.5225C36.7887 16.5225 35.2799 16.9185 33.9254 17.6282" stroke="#24282C"></path><path d="M11.5 28.5523H3C1.89543 28.5523 0.984267 27.6514 1.14518 26.5586C1.98379 20.8635 6.3547 16.5225 11.6208 16.5225C13.2113 16.5225 14.7201 16.9185 16.0746 17.6282" stroke="#24282C"></path><circle cx="24.9994" cy="7.59702" r="6.59702" stroke="#24282C"></circle><circle r="5.04478" transform="matrix(-1 0 0 1 38.9708 11.4776)" stroke="#24282C"></circle><circle cx="11.0292" cy="11.4776" r="5.04478" stroke="#24282C"></circle></svg>