<svg width="64" height="64" viewBox="0 0 64 64" fill="none" xmlns="http://www.w3.org/2000/svg">
                                        <path opacity="0.06" fill-rule="evenodd" clip-rule="evenodd" d="M2 2H62V11.7056H32H2V2ZM6.8528 56.1766H57.1472V62H6.8528V56.1766Z" fill="#24282C"></path>
                                        <path d="M57.1472 62H6.8528M2 2H62V56.1766H2V2Z" stroke="#24282C"></path>
                                        <path d="M24.0625 44.8234C20.9762 42.3225 19 38.4795 19 34.17C19 26.6332 25.0442 20.5234 32.5 20.5234C39.9558 20.5234 46 26.6332 46 34.17C46 38.4795 44.0238 42.3225 40.9375 44.8234" stroke="#24282C" stroke-linecap="round" stroke-linejoin="round"></path>
                                        <path d="M33 23.2236L33 20.5236L32 20.5236L32 23.2236L33 23.2236Z" fill="#24282C"></path>
                                        <path d="M41.6983 28.4436L43.7667 26.708L43.1239 25.942L41.0556 27.6775L41.6983 28.4436Z" fill="#24282C"></path>
                                        <path d="M23.4462 28.4436L21.3779 26.708L22.0207 25.942L24.089 27.6775L23.4462 28.4436Z" fill="#24282C"></path>
                                        <path d="M32.6035 42.7858C32.1434 43.4479 31.2374 43.61 30.5798 43.1478C29.9222 42.6855 29.7621 41.7741 30.2222 41.1119C30.6823 40.4498 38.0774 32.3574 38.0774 32.3574C38.0774 32.3574 33.0636 42.1236 32.6035 42.7858Z" stroke="#24282C" stroke-linecap="round" stroke-linejoin="round"></path>
                                        <path d="M7 8C7.55228 8 8 7.55228 8 7C8 6.44772 7.55228 6 7 6C6.44772 6 6 6.44772 6 7C6 7.55228 6.44772 8 7 8Z" fill="#24282C"></path>
                                        <path d="M13 8C13.5523 8 14 7.55228 14 7C14 6.44772 13.5523 6 13 6C12.4477 6 12 6.44772 12 7C12 7.55228 12.4477 8 13 8Z" fill="#24282C"></path>
                                        <path d="M10 8C10.5523 8 11 7.55228 11 7C11 6.44772 10.5523 6 10 6C9.44772 6 9 6.44772 9 7C9 7.55228 9.44772 8 10 8Z" fill="#24282C"></path>
                                    </svg>