<svg xmlns="http://www.w3.org/2000/svg" width="60" height="60" viewBox="0 0 60 60" fill="none"><path d="M28.895 2.58496C12.935 2.58496 0 15.525 0 31.48C0 34.625 0.5025 37.655 1.435 40.4725L1.44 40.455C1.7691 38.9347 2.21201 37.4413 2.765 35.9875L2.7925 35.9125C3.005 35.3575 3.24 34.8075 3.485 34.2625L3.695 33.81C3.895 33.3825 4.1075 32.96 4.3275 32.5425C4.4175 32.3725 4.5025 32.2025 4.5975 32.035C4.6475 31.94 4.7075 31.8525 4.7575 31.76C4.9925 31.345 5.2325 30.93 5.4825 30.5275L5.67 30.2425C5.9825 29.755 6.31 29.2775 6.6525 28.81L6.74 28.685C7.1 28.2025 7.4775 27.735 7.8675 27.2775L8.1175 26.9825C8.505 26.54 8.905 26.1075 9.32 25.69L9.5675 25.4475C10.0073 25.0121 10.4626 24.5926 10.9325 24.19C12.7825 17.99 18.445 13.4775 25.1475 13.4775C27.845 13.4775 30.5275 14.2525 32.825 15.66C35.1874 17.1174 37.1005 19.2001 38.3525 21.6775L38.37 21.715L38.47 21.9V21.9075L38.48 21.9125C39.882 22.7782 41.1944 23.7815 42.3975 24.9075C42.4975 25 42.6 25.085 42.6975 25.18C42.7025 25.18 42.7125 25.1925 42.715 25.195L42.71 25.18L42.7075 25.17V25.1625L42.8125 24.9525C43.755 18.9925 46.3875 14.6975 49.4875 14.6975C51.8225 14.6975 53.8925 17.135 55.1775 20.8875L55.19 20.9275L55.1925 20.9325C55.555 21.3275 55.91 21.76 56.2525 22.235L56.27 22.26L56.3225 22.4275L56.2725 22.2325C52.4175 10.81 41.615 2.58996 28.8925 2.58996L28.895 2.58496ZM24.8175 13.6925C18.965 13.8 13.35 17.83 11.435 23.4125L11.405 23.4975C12.4406 22.6667 13.5398 21.9186 14.6925 21.26C21.7075 17.12 30.89 17.145 37.8875 21.3C35.65 17.1675 31.31 14.2525 26.6375 13.79C26.0339 13.7144 25.4257 13.6818 24.8175 13.6925V13.6925ZM49.4025 14.9425C49.0711 14.9505 48.7426 15.0069 48.4275 15.11C45.265 16.515 44.13 20.2925 43.35 23.3675L43.31 23.5475C44.2225 21.9975 45.33 20.51 46.8 19.4425C48.8875 17.725 52.0625 17.805 54.09 19.575C54.86 20.39 54.4425 19.595 54.1675 19.025C53.3125 17.15 51.605 14.8925 49.4025 14.94V14.9425ZM30.875 20.7875L28.2 28.9625L28.195 28.975L28.18 28.98L16.935 31.76H16.9125L28.0525 34.4775C28.315 34.7525 28.62 34.99 28.9525 35.1775H28.9575C29.0625 35.2375 29.17 35.29 29.28 35.34L29.305 35.3525C29.4075 35.3975 29.5125 35.435 29.62 35.47L29.6725 35.49C29.7725 35.5225 29.8725 35.5475 29.9725 35.57L30.055 35.59C30.3168 35.6427 30.583 35.6703 30.85 35.6725C31.6133 35.6746 32.3602 35.4507 32.9964 35.0289C33.6327 34.6071 34.1297 34.0064 34.425 33.3025C34.625 32.8375 34.7325 32.3275 34.7325 31.7925V31.765L34.73 31.735C34.7275 31.6 34.72 31.4675 34.705 31.335L34.7025 31.33C34.6874 31.2014 34.6657 31.0738 34.6375 30.9475L34.635 30.9375C34.5794 30.69 34.499 30.4488 34.395 30.2175V30.21C34.1894 29.7478 33.8936 29.3314 33.525 28.985V28.9775L30.875 20.7875ZM38.745 22.3525C38.865 24.8725 38.835 27.4675 38.495 29.995C38.07 35.04 35.52 39.49 33.565 44.035L33.49 44.235L33.4025 44.45C37.1775 40.645 41.3275 36.85 43.325 31.745C44.2825 30.155 43.62 28.39 43.0375 26.805C42.6125 24.6125 40.365 23.61 38.745 22.3525V22.3525ZM54.175 23.7825L52.705 30.5025C52.6562 30.6667 52.6169 30.8337 52.5875 31.0025C52.5825 31.0525 52.57 31.1025 52.5625 31.1525C52.5375 31.3364 52.5241 31.5218 52.5225 31.7075L52.5175 31.785H52.525C52.525 33.355 53.2675 34.625 54.1825 34.6275C54.3408 34.6256 54.4966 34.5871 54.6375 34.515L54.705 34.4775C54.7663 34.4429 54.8248 34.4037 54.88 34.36C54.9125 34.335 54.94 34.305 54.97 34.2775C55.1039 34.1547 55.2192 34.0133 55.3125 33.8575L55.3875 33.7225C55.4352 33.6346 55.4786 33.5445 55.5175 33.4525L55.56 33.3525C55.61 33.22 55.655 33.0825 55.6925 32.9375L55.6975 32.9325L55.7 32.925L56.71 31.7975L55.6925 30.6575V30.66L55.6425 30.5025L54.175 23.7825ZM43.2225 25.9225C44.9475 30.2125 45.3475 35.19 43.45 39.4975C42.225 42.9175 39.4825 45.655 38.765 49.26C40.59 49.5475 42.435 49.7 44.29 49.725C49.705 49.7975 55.12 48.675 60 46.3125C54.9 39.14 49.6975 31.925 43.2225 25.9225V25.9225ZM30.8525 28.365C31.2391 28.365 31.6098 28.5185 31.8831 28.7919C32.1564 29.0652 32.31 29.4359 32.31 29.8225C32.31 30.209 32.1564 30.5797 31.8831 30.8531C31.6098 31.1264 31.2391 31.28 30.8525 31.28C30.4659 31.28 30.0952 31.1264 29.8219 30.8531C29.5486 30.5797 29.395 30.209 29.395 29.8225C29.395 29.4359 29.5486 29.0652 29.8219 28.7919C30.0952 28.5185 30.4659 28.365 30.8525 28.365V28.365ZM54.2325 29.29C54.5775 29.29 54.855 29.765 54.855 30.355C54.855 30.945 54.5775 31.42 54.2325 31.42C53.89 31.42 53.6125 30.945 53.6125 30.355C53.6125 29.7675 53.8875 29.29 54.2325 29.29ZM44.1225 29.75C44.0825 30.03 44.04 30.2725 43.9975 30.475L43.9825 30.5325C43.9575 30.6575 43.9275 30.7675 43.9 30.8525C42.7 34.395 40.7125 37.1525 38 40.095C37.6325 40.495 37.2475 40.895 36.8525 41.305C35.8704 42.3234 34.8736 43.3277 33.8625 44.3175C33.5825 44.5925 33.215 44.97 32.8 45.4075C32.5425 46.125 32.25 46.9325 32.005 47.7825C31.895 47.7425 31.79 47.705 31.6775 47.66C26.4075 45.6225 22.88 42.9 22.88 42.9C22.88 42.9 25.595 46.435 30.1675 49.75C30.61 50.0725 31.045 50.35 31.4725 50.5975C31.285 53.5825 32.6025 56.4475 38.5475 57.3025C39.5658 57.4403 40.5975 57.447 41.6175 57.3225L41.5925 57.25C41.5899 57.2414 41.5866 57.233 41.5825 57.225C41.5825 57.225 41.165 56.8925 40.635 56.2825C40.0461 55.6068 39.5546 54.8519 39.175 54.04C38.8581 53.3545 38.6344 52.6298 38.51 51.885C38.3803 51.0805 38.3753 50.2609 38.495 49.455C38.5375 49.155 38.595 48.8525 38.675 48.54C38.9075 47.605 39.3125 46.61 39.9425 45.56L39.9475 45.5525L40.55 44.5425C43.3075 39.8925 45.0425 36.355 44.315 30.94C44.2607 30.5416 44.1957 30.1448 44.12 29.75H44.1225ZM55.7925 31.19L55.795 31.21L55.7925 31.19ZM55.825 31.6975L55.8325 31.7875V31.8125C55.8325 31.845 55.825 31.875 55.825 31.9075C55.825 31.8725 55.8325 31.8375 55.8325 31.8C55.8325 31.765 55.8275 31.735 55.825 31.7V31.6975ZM55.795 32.385V32.3875L55.79 32.4125L55.785 32.4475L55.795 32.385V32.385ZM59.1775 47.205C52.795 50.05 45.5775 50.805 38.6975 49.7225C38.3475 52.4925 39.6575 55.2675 41.7325 57.0475L41.7625 57.0725C48.52 55.99 54.2 51.6525 59.1775 47.2075V47.205Z" fill="white"></path></svg>