<svg xmlns="http://www.w3.org/2000/svg" width="40" height="40" viewBox="0 0 40 40" fill="none"><g opacity="0.4"><path d="M13.3333 19.0004C13.3333 20.2837 14.3333 21.3337 15.55 21.3337H18.05C19.1167 21.3337 19.9833 20.417 19.9833 19.3004C19.9833 18.0837 19.45 17.6504 18.6667 17.367L14.6667 15.967C13.8667 15.6837 13.3333 15.2504 13.3333 14.0337C13.3333 12.917 14.2 12.0004 15.2667 12.0004H17.7667C19 12.017 20 13.0504 20 14.3337" stroke="white" stroke-width="1.5" stroke-linecap="round" stroke-linejoin="round"></path><path d="M16.6667 21.416V22.6493" stroke="white" stroke-width="1.5" stroke-linecap="round" stroke-linejoin="round"></path><path d="M16.6667 10.6836V11.9836" stroke="white" stroke-width="1.5" stroke-linecap="round" stroke-linejoin="round"></path></g><path d="M16.65 29.9667C24.0046 29.9667 29.9667 24.0046 29.9667 16.65C29.9667 9.29545 24.0046 3.33337 16.65 3.33337C9.29542 3.33337 3.33334 9.29545 3.33334 16.65C3.33334 24.0046 9.29542 29.9667 16.65 29.9667Z" stroke="white" stroke-width="1.5" stroke-linecap="round" stroke-linejoin="round"></path><path opacity="0.4" d="M21.6333 33.1333C23.1333 35.25 25.5833 36.6333 28.3833 36.6333C32.9333 36.6333 36.6333 32.9333 36.6333 28.3833C36.6333 25.6166 35.2667 23.1666 33.1833 21.6666" stroke="white" stroke-width="1.5" stroke-linecap="round" stroke-linejoin="round"></path></svg>