<svg xmlns="http://www.w3.org/2000/svg" width="60" height="60" viewBox="0 0 60 60" fill="none"><rect width="60" height="60" rx="10" fill="#F5F5F5"></rect><path d="M19.2061 42.5146L19.6469 41.9078L19.2061 42.5146ZM17.4854 40.7939L18.0922 40.353L17.4854 40.7939ZM42.5146 40.7939L41.9078 40.353L42.5146 40.7939ZM40.7939 42.5146L40.353 41.9078L40.7939 42.5146ZM40.7939 17.4854L41.2347 16.8787L40.7939 17.4854ZM42.5146 19.2061L41.9078 19.6469L42.5146 19.2061ZM19.2061 17.4854L19.6469 18.0922L19.2061 17.4854ZM17.4854 19.2061L18.0922 19.6469L17.4854 19.2061ZM36.9722 16C36.9722 15.5858 36.6364 15.25 36.2222 15.25C35.808 15.25 35.4722 15.5858 35.4722 16H36.9722ZM33.1111 30.8056C32.6969 30.8056 32.3611 31.1413 32.3611 31.5556C32.3611 31.9698 32.6969 32.3056 33.1111 32.3056V30.8056ZM39.3333 32.3056C39.7475 32.3056 40.0833 31.9698 40.0833 31.5556C40.0833 31.1413 39.7475 30.8056 39.3333 30.8056V32.3056ZM33.1111 35.4722C32.6969 35.4722 32.3611 35.808 32.3611 36.2222C32.3611 36.6364 32.6969 36.9722 33.1111 36.9722V35.4722ZM39.3333 36.9722C39.7475 36.9722 40.0833 36.6364 40.0833 36.2222C40.0833 35.808 39.7475 35.4722 39.3333 35.4722V36.9722ZM16.1299 23.7778L15.3823 23.7178L16.1299 23.7778ZM36.2222 16.1299L36.1622 16.8775L36.2222 16.1299ZM30 43.25C27.0668 43.25 24.9272 43.249 23.2632 43.0687C21.6132 42.8899 20.52 42.5422 19.6469 41.9078L18.7653 43.1213C19.9367 43.9724 21.324 44.3674 23.1016 44.56C24.8652 44.751 27.1002 44.75 30 44.75V43.25ZM15.25 30C15.25 32.8998 15.249 35.1348 15.44 36.8984C15.6326 38.676 16.0276 40.0633 16.8787 41.2347L18.0922 40.353C17.4579 39.48 17.1101 38.3868 16.9313 36.7368C16.751 35.0728 16.75 32.9332 16.75 30H15.25ZM19.6469 41.9078C19.0503 41.4743 18.5257 40.9497 18.0922 40.353L16.8787 41.2347C17.4047 41.9587 18.0413 42.5954 18.7653 43.1213L19.6469 41.9078ZM43.25 30C43.25 32.9332 43.249 35.0728 43.0687 36.7368C42.8899 38.3868 42.5422 39.48 41.9078 40.353L43.1213 41.2347C43.9724 40.0633 44.3674 38.676 44.56 36.8984C44.751 35.1348 44.75 32.8998 44.75 30H43.25ZM30 44.75C32.8998 44.75 35.1348 44.751 36.8984 44.56C38.676 44.3674 40.0633 43.9724 41.2347 43.1213L40.353 41.9078C39.48 42.5422 38.3868 42.8899 36.7368 43.0687C35.0728 43.249 32.9332 43.25 30 43.25V44.75ZM41.9078 40.353C41.4743 40.9497 40.9497 41.4743 40.353 41.9078L41.2347 43.1213C41.9587 42.5954 42.5954 41.9587 43.1213 41.2347L41.9078 40.353ZM40.353 18.0922C40.9497 18.5257 41.4743 19.0503 41.9078 19.6469L43.1213 18.7653C42.5954 18.0413 41.9587 17.4047 41.2347 16.8787L40.353 18.0922ZM30 15.25C27.1002 15.25 24.8652 15.249 23.1016 15.44C21.324 15.6326 19.9367 16.0276 18.7653 16.8787L19.6469 18.0922C20.52 17.4579 21.6132 17.1101 23.2632 16.9313C24.9272 16.751 27.0668 16.75 30 16.75V15.25ZM18.7653 16.8787C18.0413 17.4047 17.4047 18.0413 16.8787 18.7653L18.0922 19.6469C18.5257 19.0503 19.0503 18.5257 19.6469 18.0922L18.7653 16.8787ZM33.1111 32.3056H39.3333V30.8056H33.1111V32.3056ZM33.1111 36.9722H39.3333V35.4722H33.1111V36.9722ZM27.6944 33.8889C27.6944 35.6224 26.2891 37.0278 24.5556 37.0278V38.5278C27.1175 38.5278 29.1944 36.4509 29.1944 33.8889H27.6944ZM24.5556 37.0278C22.822 37.0278 21.4167 35.6224 21.4167 33.8889H19.9167C19.9167 36.4509 21.9936 38.5278 24.5556 38.5278V37.0278ZM21.4167 33.8889C21.4167 32.1553 22.822 30.75 24.5556 30.75V29.25C21.9936 29.25 19.9167 31.3269 19.9167 33.8889H21.4167ZM24.5556 30.75C26.2891 30.75 27.6944 32.1553 27.6944 33.8889H29.1944C29.1944 31.3269 27.1175 29.25 24.5556 29.25V30.75ZM16.75 30C16.75 27.3993 16.7506 25.4196 16.8775 23.8378L15.3823 23.7178C15.2494 25.3733 15.25 27.4225 15.25 30H16.75ZM16.8775 23.8378C17.0362 21.861 17.3863 20.6186 18.0922 19.6469L16.8787 18.7653C15.9324 20.0676 15.5492 21.6386 15.3823 23.7178L16.8775 23.8378ZM30 16.75C32.6007 16.75 34.5804 16.7506 36.1622 16.8775L36.2822 15.3823C34.6267 15.2494 32.5775 15.25 30 15.25V16.75ZM36.1622 16.8775C38.139 17.0362 39.3814 17.3863 40.353 18.0922L41.2347 16.8787C39.9324 15.9324 38.3614 15.5492 36.2822 15.3823L36.1622 16.8775ZM35.4722 16V16.1299H36.9722V16H35.4722ZM43.8701 23.0278H16.1299V24.5278H43.8701V23.0278ZM44.75 30C44.75 27.4225 44.7506 25.3733 44.6177 23.7178L43.1225 23.8378C43.2494 25.4196 43.25 27.3993 43.25 30H44.75ZM44.6177 23.7178C44.4508 21.6386 44.0676 20.0676 43.1213 18.7653L41.9078 19.6469C42.6138 20.6186 42.9639 21.861 43.1225 23.8378L44.6177 23.7178Z" fill="#222222"></path></svg>