<svg xmlns="http://www.w3.org/2000/svg" width="60" height="60" viewBox="0 0 60 60" fill="none"><rect width="60" height="60" rx="10" fill="#F5F5F5"></rect><path d="M26.1746 36.1626L22.6371 32.625C21.4621 31.45 21.4621 30.2625 22.6371 29.0875L28.5371 23.1875L35.0246 29.675C35.3496 30 35.3496 30.5251 35.0246 30.8501L29.7121 36.1626C28.5371 37.3376 27.3496 37.3376 26.1746 36.1626Z" stroke="#222222" stroke-width="1.5" stroke-miterlimit="10" stroke-linecap="round" stroke-linejoin="round"></path><path d="M27.3496 22L28.5371 23.175" stroke="#222222" stroke-width="1.5" stroke-miterlimit="10" stroke-linecap="round" stroke-linejoin="round"></path><path d="M21.7998 30.8001L35.1623 30.2126" stroke="#222222" stroke-width="1.5" stroke-miterlimit="10" stroke-linecap="round" stroke-linejoin="round"></path><path d="M36.6253 33.5127C36.6253 33.5127 34.9878 35.2876 34.9878 36.3751C34.9878 37.2751 35.7253 38.0127 36.6253 38.0127C37.5253 38.0127 38.2628 37.2751 38.2628 36.3751C38.2503 35.2876 36.6253 33.5127 36.6253 33.5127Z" stroke="#222222" stroke-width="1.5" stroke-linecap="round" stroke-linejoin="round"></path><path d="M42.5 33.75V26.25C42.5 20 40 17.5 33.75 17.5H26.25C20 17.5 17.5 20 17.5 26.25V33.75C17.5 40 20 42.5 26.25 42.5H33.75C40 42.5 42.5 40 42.5 33.75Z" stroke="#222222" stroke-width="1.5" stroke-linecap="round" stroke-linejoin="round"></path></svg>