<svg xmlns="http://www.w3.org/2000/svg" width="60" height="60" viewBox="0 0 60 60" fill="none"><rect x="5" y="5" width="50" height="50" rx="4" stroke="#24282C"></rect><path d="M21.25 5V4.5C20.9739 4.5 20.75 4.72386 20.75 5H21.25ZM38.75 5H39.25C39.25 4.72386 39.0261 4.5 38.75 4.5V5ZM38.75 30L38.482 30.4221C38.636 30.5199 38.831 30.526 38.9908 30.4382C39.1507 30.3503 39.25 30.1824 39.25 30H38.75ZM30 24.4444L30.268 24.0223C30.1044 23.9185 29.8956 23.9185 29.732 24.0223L30 24.4444ZM21.25 30H20.75C20.75 30.1824 20.8493 30.3503 21.0092 30.4382C21.169 30.526 21.364 30.5199 21.518 30.4221L21.25 30ZM21.25 5.5H38.75V4.5H21.25V5.5ZM38.25 5V30H39.25V5H38.25ZM39.018 29.5779L30.268 24.0223L29.732 24.8666L38.482 30.4221L39.018 29.5779ZM29.732 24.0223L20.982 29.5779L21.518 30.4221L30.268 24.8666L29.732 24.0223ZM21.75 30V5H20.75V30H21.75Z" fill="#24282C"></path></svg>