<svg width="77" height="64" viewBox="0 0 77 64" fill="none" xmlns="http://www.w3.org/2000/svg">
<path d="M42.7264 43.7109C42.7264 30.9294 46.9485 19.2027 55.3927 8.53081C60.7325 2.07802 65.0167 -0.714056 68.2453 0.154589C71.2256 1.27142 72.7158 2.94666 72.7158 5.18032C72.7158 7.28989 71.7224 9.52355 69.7355 11.8813C67.8728 14.239 66.3826 16.1625 65.265 17.6516C64.1474 19.1407 63.2161 20.7539 62.471 22.4912C60.7325 25.9658 59.8632 30.1849 59.8632 35.1486C62.8435 34.2799 65.8238 34.6522 68.8041 36.2654C74.2681 39.3677 77 43.3387 77 48.1783C77 52.8938 75.5098 56.7406 72.5295 59.7188C69.6734 62.5729 65.6996 64 60.6083 64C55.5169 64 51.2327 62.0766 47.7557 58.2297C44.4028 54.2588 42.7264 49.4192 42.7264 43.7109ZM0 43.7109C0 30.4331 4.16002 18.7064 12.4801 8.53081C18.8132 0.961188 24.0909 -1.33452 28.313 1.6437C29.1822 2.26416 29.6169 3.25689 29.6169 4.62191C29.6169 7.10375 28.6855 9.52355 26.8228 11.8813C25.0843 14.239 23.6562 16.1625 22.5386 17.6516C21.421 19.1407 20.4897 20.7539 19.7446 22.4912C18.0061 25.9658 17.1368 30.1849 17.1368 35.1486C20.1171 34.2799 23.0353 34.6522 25.8915 36.2654C31.2312 39.3677 33.9011 43.3387 33.9011 48.1783C33.9011 52.8938 32.473 56.7406 29.6169 59.7188C26.7607 62.5729 22.787 64 17.6956 64C12.6042 64 8.38213 62.0766 5.02928 58.2297C1.67643 54.2588 0 49.4192 0 43.7109Z" fill="#EFEFEF"/>
</svg>
