<svg width="28" height="28" viewBox="0 0 28 28" fill="none" xmlns="http://www.w3.org/2000/svg">
<path d="M10.0133 10.8882L17.4379 18.3128" stroke="#222222" stroke-width="1.5" stroke-linecap="round" stroke-linejoin="round"/>
<path d="M23.625 23.6068H7.88264L3.8261 19.5503C3.6636 19.3878 3.53469 19.1949 3.44675 18.9825C3.3588 18.7702 3.31354 18.5427 3.31354 18.3128C3.31354 18.083 3.3588 17.8555 3.44675 17.6431C3.53469 17.4308 3.6636 17.2379 3.8261 17.0754L16.2005 4.70104C16.5287 4.37285 16.9738 4.18848 17.4379 4.18848C17.902 4.18848 18.3472 4.37285 18.6753 4.70104L23.6251 9.65079C23.7876 9.81329 23.9165 10.0062 24.0044 10.2185C24.0924 10.4308 24.1377 10.6584 24.1377 10.8882C24.1377 11.118 24.0924 11.3456 24.0044 11.5579C23.9165 11.7702 23.7876 11.9632 23.6251 12.1257L12.1439 23.6068" stroke="#222222" stroke-width="1.5" stroke-linecap="round" stroke-linejoin="round"/>
</svg>
