<svg xmlns="http://www.w3.org/2000/svg" width="46" height="46" viewBox="0 0 46 46" fill="none"><path d="M10.6732 29.9494C10.7922 30.3462 11.2104 30.5713 11.6071 30.4522C12.0038 30.3332 12.229 29.915 12.1099 29.5183L10.6732 29.9494ZM16.5279 11.8889L16.279 11.1814L16.5279 11.8889ZM11.3915 17.4504L10.6732 17.2349L11.3915 17.4504ZM22.751 31.7956C23.032 31.4913 23.0131 31.0168 22.7088 30.7357C22.4046 30.4547 21.9301 30.4736 21.649 30.7779L22.751 31.7956ZM20.2389 33.4102L20.7899 33.919L20.7899 33.919L20.2389 33.4102ZM20.346 35.9661L19.8435 36.523L20.346 35.9661ZM22.0976 38.5568C22.4051 38.8343 22.8793 38.81 23.1568 38.5024C23.4343 38.1949 23.41 37.7207 23.1024 37.4432L22.0976 38.5568ZM24.751 7.49115C24.4699 7.18686 23.9954 7.168 23.6912 7.44903C23.3869 7.73005 23.368 8.20455 23.649 8.50885L24.751 7.49115ZM26.1611 10.1235L26.7121 9.61462L26.1611 10.1235ZM26.054 12.6794L25.5516 12.1226L25.5516 12.1226L26.054 12.6794ZM23.2976 14.1565C22.99 14.4339 22.9657 14.9082 23.2432 15.2157C23.5207 15.5233 23.9949 15.5476 24.3024 15.2701L23.2976 14.1565ZM23.8 34.7516V35.5016V34.7516ZM35.3292 15.4872C35.2147 15.0892 34.7992 14.8593 34.4011 14.9738C34.003 15.0883 33.7732 15.5038 33.8877 15.9019L35.3292 15.4872ZM29.4721 34.3094L29.7305 35.0135L29.4721 34.3094ZM34.6085 28.5079L35.3292 28.7153L34.6085 28.5079ZM22.2 12.2149H25.4V10.7149H22.2V12.2149ZM10.25 23.5921C10.25 26.7623 10.242 28.5125 10.6732 29.9494L12.1099 29.5183C11.758 28.3456 11.75 26.8712 11.75 23.5921H10.25ZM22.2 10.7149C19.2845 10.7149 17.6352 10.7042 16.279 11.1814L16.7768 12.5964C17.8307 12.2256 19.1594 12.2149 22.2 12.2149V10.7149ZM11.75 23.5921C11.75 20.3131 11.758 18.8387 12.1099 17.666L10.6732 17.2349C10.242 18.6718 10.25 20.422 10.25 23.5921H11.75ZM16.279 11.1814C13.6003 12.1238 11.5281 14.386 10.6732 17.2349L12.1099 17.666C12.8377 15.2406 14.5844 13.3677 16.7768 12.5964L16.279 11.1814ZM21.649 30.7779L19.6879 32.9013L20.7899 33.919L22.751 31.7956L21.649 30.7779ZM19.8435 36.523L22.0976 38.5568L23.1024 37.4432L20.8484 35.4093L19.8435 36.523ZM23.649 8.50885L25.6101 10.6323L26.7121 9.61462L24.751 7.49115L23.649 8.50885ZM25.5516 12.1226L23.2976 14.1565L24.3024 15.2701L26.5565 13.2362L25.5516 12.1226ZM23.8 34.0016H20.6V35.5016H23.8V34.0016ZM35.75 22.1012C35.75 18.7899 35.7574 16.9757 35.3292 15.4872L33.8877 15.9019C34.2426 17.1357 34.25 18.6851 34.25 22.1012H35.75ZM23.8 35.5016C26.7133 35.5016 28.369 35.5131 29.7305 35.0135L29.2137 33.6053C28.1651 33.9901 26.8428 34.0016 23.8 34.0016V35.5016ZM34.25 22.1012C34.25 25.5173 34.2426 27.0668 33.8877 28.3006L35.3292 28.7153C35.7574 27.2268 35.75 25.4125 35.75 22.1012H34.25ZM29.7305 35.0135C32.4161 34.0279 34.4797 31.6685 35.3292 28.7153L33.8877 28.3006C33.1545 30.8492 31.3992 32.8033 29.2137 33.6053L29.7305 35.0135ZM19.6879 32.9013C19.1953 33.4347 18.984 34.1327 19.0253 34.7981L20.5224 34.7052C20.5042 34.4115 20.5992 34.1255 20.7899 33.919L19.6879 32.9013ZM19.0253 34.7981C19.0645 35.4291 19.3328 36.0621 19.8435 36.523L20.8484 35.4093C20.6559 35.2356 20.5396 34.9826 20.5224 34.7052L19.0253 34.7981ZM20.6 34.0016H19.7739V35.5016H20.6V34.0016ZM25.6101 10.6323C25.8008 10.8388 25.8958 11.1248 25.8776 11.4185L27.3747 11.5114C27.416 10.846 27.2047 10.148 26.7121 9.61462L25.6101 10.6323ZM25.8776 11.4185C25.8604 11.6959 25.7441 11.9489 25.5516 12.1226L26.5565 13.2362C27.0672 12.7754 27.3355 12.1424 27.3747 11.5114L25.8776 11.4185ZM25.4 12.2149H26.6261V10.7149H25.4V12.2149Z" fill="#24282C"></path></svg>