<svg width="64" height="64" viewBox="0 0 64 64" fill="none" xmlns="http://www.w3.org/2000/svg">
                                            <path d="M59.857 31.6582C59.8156 36.4203 58.7331 41.1157 56.6855 45.4153" stroke="#24282C" stroke-linecap="round" stroke-linejoin="round"></path>
                                            <path d="M31.9997 59.5153C28.3415 59.5153 24.719 58.7948 21.3393 57.3948C17.9595 55.9949 14.8885 53.943 12.3017 51.3562C7.07752 46.132 4.14258 39.0464 4.14258 31.6582" stroke="#24282C" stroke-linecap="round" stroke-linejoin="round"></path>
                                            <path d="M40.5711 40.2299L31.9997 29.5156H19.1426" stroke="#24282C" stroke-linecap="round" stroke-linejoin="round"></path>
                                            <path d="M53.4286 57.3728C56.979 57.3728 59.8571 54.4946 59.8571 50.9442C59.8571 47.3938 56.979 44.5156 53.4286 44.5156C49.8782 44.5156 47 47.3938 47 50.9442C47 54.4946 49.8782 57.3728 53.4286 57.3728Z" fill="#212B35" fill-opacity="0.06" stroke="#24282C" stroke-linecap="round" stroke-linejoin="round"></path>
                                            <path d="M5.94141 21.3717C6.87541 19.0375 8.13035 16.845 9.66998 14.8574" stroke="#24282C" stroke-linecap="round" stroke-linejoin="round"></path>
                                            <path d="M17.9434 7.48633C20.3586 6.09169 22.9754 5.07969 25.7005 4.48633" stroke="#24282C" stroke-linecap="round" stroke-linejoin="round"></path>
                                            <path d="M58.0567 21.3717C57.1227 19.0375 55.8677 16.845 54.3281 14.8574" stroke="#24282C" stroke-linecap="round" stroke-linejoin="round"></path>
                                            <path d="M46.056 7.48633C43.6407 6.09169 41.024 5.07969 38.2988 4.48633" stroke="#24282C" stroke-linecap="round" stroke-linejoin="round"></path>
                                            </svg>