<svg xmlns="http://www.w3.org/2000/svg" width="60" height="60" viewBox="0 0 60 60" fill="none"><rect width="60" height="60" rx="10" fill="#F5F5F5"></rect><path d="M19.4746 43.2734L19.1214 43.935L19.4746 43.2734ZM16.6936 40.3599L16.0191 40.688L16.6936 40.3599ZM43.3064 40.3599L43.9809 40.688L43.3064 40.3599ZM40.5254 43.2734L40.8786 43.935L40.5254 43.2734ZM40.5254 16.7266L40.8786 16.065L40.5254 16.7266ZM43.3064 19.6401L43.9809 19.312L43.3064 19.6401ZM19.4746 16.7266L19.1214 16.065L19.4746 16.7266ZM16.6936 19.6401L16.0191 19.312L16.6936 19.6401ZM21.0909 35.0076C20.6767 35.0076 20.3409 35.3434 20.3409 35.7576C20.3409 36.1718 20.6767 36.5076 21.0909 36.5076V35.0076ZM31.2727 36.5076C31.6869 36.5076 32.0227 36.1718 32.0227 35.7576C32.0227 35.3434 31.6869 35.0076 31.2727 35.0076V36.5076ZM21.0909 29.553C20.6767 29.553 20.3409 29.8888 20.3409 30.303C20.3409 30.7172 20.6767 31.053 21.0909 31.053V29.553ZM26.1818 31.053C26.596 31.053 26.9318 30.7172 26.9318 30.303C26.9318 29.8888 26.596 29.553 26.1818 29.553V31.053ZM26.1818 16.75H33.8182V15.25H26.1818V16.75ZM33.8182 43.25H26.1818V44.75H33.8182V43.25ZM26.1818 43.25C24.3869 43.25 23.0879 43.2494 22.0662 43.1619C21.0542 43.0753 20.382 42.9076 19.8278 42.6117L19.1214 43.935C19.9284 44.3658 20.8278 44.5614 21.9382 44.6564C23.0388 44.7506 24.4128 44.75 26.1818 44.75V43.25ZM15.25 26.6667C15.25 28.5319 15.2499 31.6102 15.3371 34.402C15.3806 35.797 15.4462 37.1315 15.5458 38.2126C15.5955 38.7526 15.6547 39.24 15.726 39.6453C15.794 40.0313 15.8836 40.4092 16.0191 40.688L17.3681 40.0319C17.3302 39.9541 17.2681 39.7534 17.2033 39.3852C17.1419 39.0363 17.0873 38.5939 17.0395 38.075C16.944 37.0383 16.8795 35.7387 16.8363 34.3553C16.7501 31.5904 16.75 28.5351 16.75 26.6667H15.25ZM19.8278 42.6117C18.7741 42.0493 17.911 41.1482 17.3681 40.0319L16.0191 40.688C16.6964 42.0805 17.7803 43.2192 19.1214 43.935L19.8278 42.6117ZM43.25 26.6667C43.25 28.5351 43.2499 31.5904 43.1637 34.3553C43.1205 35.7387 43.056 37.0383 42.9606 38.075C42.9128 38.5939 42.8581 39.0363 42.7967 39.3852C42.7319 39.7534 42.6698 39.9541 42.6319 40.0319L43.9809 40.688C44.1164 40.4092 44.206 40.0313 44.274 39.6453C44.3453 39.24 44.4045 38.7526 44.4542 38.2126C44.5538 37.1315 44.6194 35.797 44.6629 34.402C44.7501 31.6102 44.75 28.5319 44.75 26.6667H43.25ZM33.8182 44.75C35.5872 44.75 36.9612 44.7506 38.0618 44.6564C39.1722 44.5614 40.0716 44.3658 40.8786 43.935L40.1722 42.6117C39.618 42.9076 38.9458 43.0753 37.9338 43.1619C36.9121 43.2494 35.6131 43.25 33.8182 43.25V44.75ZM42.6319 40.0319C42.089 41.1482 41.2259 42.0493 40.1722 42.6117L40.8786 43.935C42.2197 43.2192 43.3036 42.0805 43.9809 40.688L42.6319 40.0319ZM33.8182 16.75C35.6131 16.75 36.9121 16.7506 37.9338 16.8381C38.9458 16.9247 39.618 17.0924 40.1722 17.3883L40.8786 16.065C40.0716 15.6342 39.1722 15.4386 38.0618 15.3436C36.9612 15.2494 35.5872 15.25 33.8182 15.25V16.75ZM44.75 26.6667C44.75 24.8116 44.7505 23.3773 44.661 22.2297C44.5709 21.0743 44.3861 20.1453 43.9809 19.312L42.6319 19.9681C42.9203 20.5609 43.0823 21.2784 43.1656 22.3463C43.2495 23.4221 43.25 24.788 43.25 26.6667H44.75ZM40.1722 17.3883C41.2259 17.9507 42.089 18.8518 42.6319 19.9681L43.9809 19.312C43.3036 17.9195 42.2197 16.7808 40.8786 16.065L40.1722 17.3883ZM26.1818 15.25C24.4128 15.25 23.0388 15.2494 21.9382 15.3436C20.8278 15.4386 19.9284 15.6342 19.1214 16.065L19.8278 17.3883C20.382 17.0924 21.0542 16.9247 22.0662 16.8381C23.0879 16.7506 24.3869 16.75 26.1818 16.75V15.25ZM16.75 26.6667C16.75 24.788 16.7505 23.4221 16.8344 22.3463C16.9177 21.2784 17.0797 20.5609 17.3681 19.9681L16.0191 19.312C15.6139 20.1453 15.4291 21.0743 15.339 22.2297C15.2495 23.3773 15.25 24.8116 15.25 26.6667H16.75ZM19.1214 16.065C17.7803 16.7808 16.6964 17.9195 16.0191 19.312L17.3681 19.9681C17.911 18.8518 18.7741 17.9507 19.8278 17.3883L19.1214 16.065ZM21.0909 36.5076H31.2727V35.0076H21.0909V36.5076ZM21.0909 31.053H26.1818V29.553H21.0909V31.053Z" fill="#222222"></path><path d="M20.5 21C20.7761 21 21 20.7761 21 20.5C21 20.2239 20.7761 20 20.5 20C20.2239 20 20 20.2239 20 20.5C20 20.7761 20.2239 21 20.5 21Z" fill="#222222"></path><path d="M22.5 21C22.7761 21 23 20.7761 23 20.5C23 20.2239 22.7761 20 22.5 20C22.2239 20 22 20.2239 22 20.5C22 20.7761 22.2239 21 22.5 21Z" fill="#222222"></path><path d="M24.5 21C24.7761 21 25 20.7761 25 20.5C25 20.2239 24.7761 20 24.5 20C24.2239 20 24 20.2239 24 20.5C24 20.7761 24.2239 21 24.5 21Z" fill="#222222"></path></svg>