<svg width="58" height="53" viewBox="0 0 58 53" fill="none" xmlns="http://www.w3.org/2000/svg">
<path fill-rule="evenodd" clip-rule="evenodd" d="M7.75226 0.883301C6.69194 0.883819 5.74199 1.5422 5.36452 2.53819L1.32273 13.1973C0.889458 14.3415 0.876766 15.6036 1.28694 16.7563C2.44222 19.9888 5.74183 21.9188 9.10854 21.3313C12.4752 20.7439 14.9347 17.8089 14.9385 14.3742C14.9385 18.277 18.0861 21.4409 21.9688 21.4409C25.8515 21.4409 28.9991 18.277 28.9991 14.3742C28.9991 18.277 32.1467 21.4409 36.0294 21.4409C39.9121 21.4409 43.0597 18.277 43.0597 14.3742C43.0636 17.8089 45.523 20.7439 48.8897 21.3313C52.2564 21.9188 55.556 19.9888 56.7113 16.7563C57.122 15.6035 57.1084 14.3409 56.6729 13.1973L52.6337 2.53819C52.2562 1.5422 51.3063 0.883819 50.246 0.883301H7.75226Z" stroke="#24282C" stroke-width="1.325" stroke-linecap="round" stroke-linejoin="round"/>
<path d="M28.4481 29.1499H11.4316C11.1889 29.1499 10.9922 29.3476 10.9922 29.5916V44.1264C10.9922 44.3703 11.1889 44.5681 11.4316 44.5681H28.4481C28.6908 44.5681 28.8875 44.3703 28.8875 44.1264V29.5916C28.8875 29.3476 28.6908 29.1499 28.4481 29.1499Z" stroke="#24282C" stroke-width="1.325" stroke-linecap="round" stroke-linejoin="round"/>
<path d="M34.0039 52.2772V30.4347C34.0039 29.7251 34.5762 29.1499 35.2821 29.1499H45.508C46.214 29.1499 46.7863 29.7251 46.7863 30.4347V52.2772" stroke="#24282C" stroke-width="1.325" stroke-linecap="round" stroke-linejoin="round"/>
<path d="M51.8993 21.2045V49.7076C51.8993 51.1268 50.7548 52.2773 49.3429 52.2773H8.43929C7.02738 52.2773 5.88281 51.1268 5.88281 49.7076V21.1428" stroke="#24282C" stroke-width="1.325" stroke-linecap="round" stroke-linejoin="round"/>
</svg>
