<svg xmlns="http://www.w3.org/2000/svg" width="60" height="60" viewBox="0 0 60 60" fill="none"><rect width="60" height="60" rx="10" fill="#F5F5F5"></rect><path d="M19.4746 37.0915L19.8208 36.4263L19.4746 37.0915ZM16.6936 34.2509L17.3647 33.9162L16.6936 34.2509ZM43.3064 34.2509L42.6353 33.9162L43.3064 34.2509ZM40.5254 37.0915L40.1791 36.4263L40.5254 37.0915ZM40.5254 17.7085L40.1791 18.3737L40.5254 17.7085ZM43.3064 20.5491L42.6353 20.8839L43.3064 20.5491ZM19.4746 17.7085L19.8208 18.3737L19.4746 17.7085ZM16.6936 20.5491L17.3647 20.8839L16.6936 20.5491ZM24.7235 42.2733C24.3222 42.3758 24.0799 42.7842 24.1824 43.1856C24.2849 43.5869 24.6933 43.8292 25.0947 43.7267L24.7235 42.2733ZM26.9132 42.4882L26.7276 41.7616L26.9132 42.4882ZM33.0868 42.4882L33.2724 41.7616L33.0868 42.4882ZM34.9053 43.7267C35.3067 43.8292 35.7151 43.5869 35.8176 43.1856C35.9201 42.7842 35.6778 42.3758 35.2765 42.2733L34.9053 43.7267ZM30.75 37.8C30.75 37.3858 30.4142 37.05 30 37.05C29.5858 37.05 29.25 37.3858 29.25 37.8H30.75ZM30 33.15C29.5858 33.15 29.25 33.4858 29.25 33.9C29.25 34.3142 29.5858 34.65 30 34.65V33.15ZM37.6364 34.65C38.0506 34.65 38.3864 34.3142 38.3864 33.9C38.3864 33.4858 38.0506 33.15 37.6364 33.15V34.65ZM30 42.1001V42.8501V42.1001ZM26.1818 17.75H33.8182V16.25H26.1818V17.75ZM33.8182 37.05H26.1818V38.55H33.8182V37.05ZM26.1818 37.05C24.3872 37.05 23.0873 37.0494 22.0646 36.964C21.0511 36.8795 20.3767 36.7156 19.8208 36.4263L19.1284 37.7568C19.9337 38.176 20.831 38.3663 21.9398 38.4588C23.0394 38.5506 24.4125 38.55 26.1818 38.55V37.05ZM15.25 27.4C15.25 29.2081 15.2494 30.6083 15.3391 31.729C15.4294 32.858 15.6148 33.7686 16.0225 34.5857L17.3647 33.9162C17.0787 33.3429 16.9174 32.6481 16.8343 31.6094C16.7506 30.5623 16.75 29.2323 16.75 27.4H15.25ZM19.8208 36.4263C18.7658 35.8772 17.9051 34.9994 17.3647 33.9162L16.0225 34.5857C16.7023 35.9486 17.7886 37.0596 19.1284 37.7568L19.8208 36.4263ZM43.25 27.4C43.25 29.2323 43.2494 30.5623 43.1657 31.6094C43.0826 32.6481 42.9212 33.3429 42.6353 33.9162L43.9775 34.5857C44.3852 33.7686 44.5706 32.858 44.6609 31.729C44.7506 30.6083 44.75 29.2081 44.75 27.4H43.25ZM33.8182 38.55C35.5875 38.55 36.9606 38.5506 38.0602 38.4588C39.169 38.3663 40.0663 38.176 40.8716 37.7568L40.1791 36.4263C39.6233 36.7156 38.9489 36.8795 37.9354 36.964C36.9127 37.0494 35.6128 37.05 33.8182 37.05V38.55ZM42.6353 33.9162C42.0949 34.9994 41.2342 35.8772 40.1791 36.4263L40.8716 37.7568C42.2114 37.0596 43.2977 35.9486 43.9775 34.5857L42.6353 33.9162ZM33.8182 17.75C35.6128 17.75 36.9127 17.7506 37.9354 17.836C38.9489 17.9205 39.6233 18.0844 40.1791 18.3737L40.8716 17.0432C40.0663 16.624 39.169 16.4337 38.0602 16.3412C36.9606 16.2494 35.5875 16.25 33.8182 16.25V17.75ZM44.75 27.4C44.75 25.5919 44.7506 24.1917 44.6609 23.071C44.5706 21.942 44.3852 21.0314 43.9775 20.2143L42.6353 20.8839C42.9212 21.4571 43.0826 22.1519 43.1657 23.1906C43.2494 24.2377 43.25 25.5677 43.25 27.4H44.75ZM40.1791 18.3737C41.2342 18.9228 42.0949 19.8006 42.6353 20.8839L43.9775 20.2143C43.2977 18.8514 42.2114 17.7404 40.8716 17.0432L40.1791 18.3737ZM26.1818 16.25C24.4125 16.25 23.0394 16.2494 21.9398 16.3412C20.831 16.4337 19.9337 16.624 19.1284 17.0432L19.8208 18.3737C20.3767 18.0844 21.0511 17.9205 22.0646 17.836C23.0873 17.7506 24.3872 17.75 26.1818 17.75V16.25ZM16.75 27.4C16.75 25.5677 16.7506 24.2377 16.8343 23.1906C16.9174 22.1519 17.0787 21.4571 17.3647 20.8839L16.0225 20.2143C15.6148 21.0314 15.4294 21.942 15.3391 23.071C15.2494 24.1917 15.25 25.5919 15.25 27.4H16.75ZM19.1284 17.0432C17.7886 17.7404 16.7023 18.8514 16.0225 20.2143L17.3647 20.8839C17.9051 19.8006 18.7658 18.9228 19.8208 18.3737L19.1284 17.0432ZM25.0947 43.7267L27.0987 43.2149L26.7276 41.7616L24.7235 42.2733L25.0947 43.7267ZM32.9013 43.2149L34.9053 43.7267L35.2765 42.2733L33.2724 41.7616L32.9013 43.2149ZM30.75 41.7V37.8H29.25V41.7H30.75ZM30 34.65H37.6364V33.15H30V34.65ZM27.0987 43.2149C28.0513 42.9717 29.0257 42.8501 30 42.8501V41.3501C28.9008 41.3501 27.8018 41.4873 26.7276 41.7616L27.0987 43.2149ZM30 42.8501C30.9743 42.8501 31.9487 42.9717 32.9013 43.2149L33.2724 41.7616C32.1982 41.4873 31.0992 41.3501 30 41.3501V42.8501ZM29.25 41.7V42.1001H30.75V41.7H29.25Z" fill="#222222"></path><path d="M23.4543 30.9287C23.4543 31.5441 22.9659 32.043 22.3634 32.043C21.7609 32.043 21.2725 31.5441 21.2725 30.9287C21.2725 30.3133 21.7609 29.8145 22.3634 29.8145C22.9659 29.8145 23.4543 30.3133 23.4543 30.9287Z" fill="#222222"></path></svg>