<svg width="60" height="61" viewBox="0 0 60 61" fill="none" xmlns="http://www.w3.org/2000/svg">
                                            <circle cx="30.0291" cy="45.3279" r="14.9861" stroke="#24282C"></circle>
                                            <path d="M42.2773 35.832H41.7773V36.832H42.2773V35.832ZM42.4949 54L41.9949 54.0056L42.0061 55.0056L42.5061 55L42.4949 54ZM58.5203 53.746L58.9087 53.4311L58.5203 53.746ZM58.2491 54.3236L58.2547 54.8235L58.2491 54.3236ZM51.8699 45.1005L51.4816 44.7855L51.8699 45.1005ZM51.8699 45.5469L51.4816 45.8619L51.8699 45.5469ZM58.5137 36.9096L58.1253 36.5946L58.5137 36.9096ZM42.2773 36.832H58.2385V35.832H42.2773V36.832ZM58.1253 36.5946L51.4816 44.7855L52.2582 45.4155L58.902 37.2245L58.1253 36.5946ZM51.4816 45.8619L58.132 54.061L58.9087 53.4311L52.2582 45.2319L51.4816 45.8619ZM58.2435 53.8236L42.4949 54L42.5061 55L58.2547 54.8235L58.2435 53.8236ZM58.132 54.061C58.0553 53.9664 58.1217 53.8249 58.2435 53.8236L58.2547 54.8235C58.9693 54.8155 59.3588 53.986 58.9087 53.4311L58.132 54.061ZM51.4816 44.7855C51.2272 45.0992 51.2272 45.5482 51.4816 45.8619L52.2582 45.2319C52.3016 45.2854 52.3016 45.362 52.2582 45.4155L51.4816 44.7855ZM58.2385 36.832C58.1159 36.832 58.0481 36.6898 58.1253 36.5946L58.902 37.2245C59.3549 36.6661 58.9575 35.832 58.2385 35.832V36.832Z" fill="#24282C"></path>
                                            <path d="M17.5 36.332H1.78803C1.48981 36.332 1.32498 36.678 1.51284 36.9096L8.15658 45.1005C8.26211 45.2306 8.26211 45.4168 8.15658 45.5469L1.51284 53.7378C1.32498 53.9694 1.48981 54.3153 1.78803 54.3153H17.5" stroke="#24282C" stroke-linecap="square"></path>
                                            <path d="M14.5536 35.39L14.4509 35.8793L15.4295 36.0848L15.5323 35.5955L14.5536 35.39ZM44.5258 35.5955L44.6286 36.0848L45.6072 35.8793L45.5045 35.39L44.5258 35.5955ZM42.7903 25.7622L42.4464 26.1252L42.7903 25.7622ZM43.0812 26.2826L43.5705 26.1799L43.0812 26.2826ZM35.337 20.1103L35.7078 20.4458L35.337 20.1103ZM36.7663 20.0553L37.1102 19.6923L36.7663 20.0553ZM29.2875 25.1574L28.9168 25.4929L29.2875 25.1574ZM30.7706 25.1574L31.1414 25.4929L30.7706 25.1574ZM23.2918 20.0553L22.948 19.6923L23.2918 20.0553ZM17.2678 25.7622L16.924 25.3992L17.2678 25.7622ZM15.5323 35.5955L17.4663 26.3854L16.4876 26.1799L14.5536 35.39L15.5323 35.5955ZM17.6117 26.1252L23.6357 20.4182L22.948 19.6923L16.924 25.3992L17.6117 26.1252ZM24.3503 20.4458L28.9168 25.4929L29.6583 24.8219L25.0919 19.7748L24.3503 20.4458ZM31.1414 25.4929L35.7078 20.4458L34.9662 19.7748L30.3998 24.8219L31.1414 25.4929ZM36.4224 20.4182L42.4464 26.1252L43.1341 25.3992L37.1102 19.6923L36.4224 20.4182ZM42.5919 26.3854L44.5258 35.5955L45.5045 35.39L43.5705 26.1799L42.5919 26.3854ZM42.4464 26.1252C42.5202 26.1951 42.571 26.2859 42.5919 26.3854L43.5705 26.1799C43.5078 25.8814 43.3556 25.609 43.1341 25.3992L42.4464 26.1252ZM35.7078 20.4458C35.8961 20.2377 36.2187 20.2252 36.4224 20.4182L37.1102 19.6923C36.499 19.1133 35.5311 19.1506 34.9662 19.7748L35.7078 20.4458ZM28.9168 25.4929C29.5122 26.151 30.5459 26.151 31.1414 25.4929L30.3998 24.8219C30.2013 25.0413 29.8568 25.0413 29.6583 24.8219L28.9168 25.4929ZM23.6357 20.4182C23.8394 20.2252 24.1621 20.2377 24.3503 20.4458L25.0919 19.7748C24.527 19.1506 23.5591 19.1133 22.948 19.6923L23.6357 20.4182ZM17.4663 26.3854C17.4872 26.2859 17.5379 26.1951 17.6117 26.1252L16.924 25.3992C16.7025 25.609 16.5503 25.8814 16.4876 26.1799L17.4663 26.3854Z" fill="#24282C"></path>
                                            <path d="M37.0046 8.3607C37.0046 12.2231 33.8735 17.3523 30.0111 17.3523C26.1487 17.3523 23.0176 12.2231 23.0176 8.3607C23.0176 4.49829 26.1487 1.36719 30.0111 1.36719C33.8735 1.36719 37.0046 4.49829 37.0046 8.3607Z" stroke="#24282C"></path>
                                            <path d="M29.5143 37.8752C29.6745 37.4143 30.3264 37.4143 30.4866 37.8752L32.1248 42.5881C32.1955 42.7914 32.3853 42.9293 32.6005 42.9337L37.5889 43.0353C38.0768 43.0453 38.2783 43.6653 37.8894 43.9601L33.9134 46.9744C33.7419 47.1045 33.6694 47.3276 33.7317 47.5336L35.1765 52.3093C35.3179 52.7764 34.7905 53.1596 34.3899 52.8809L30.2944 50.031C30.1177 49.908 29.8832 49.908 29.7065 50.031L25.611 52.8809C25.2104 53.1596 24.683 52.7764 24.8243 52.3093L26.2692 47.5336C26.3315 47.3276 26.259 47.1045 26.0875 46.9744L22.1115 43.9601C21.7226 43.6653 21.9241 43.0453 22.412 43.0353L27.4004 42.9337C27.6156 42.9293 27.8054 42.7914 27.8761 42.5881L29.5143 37.8752Z" fill="#212B35" fill-opacity="0.06" stroke="#24282C"></path>
                                            </svg>