<svg width="106" height="30" viewBox="0 0 106 30" fill="none" xmlns="http://www.w3.org/2000/svg">
<g clip-path="url(#clip0_38_1790)">
<path d="M22.7316 5.682C22.7112 5.53298 22.5815 5.45031 22.4738 5.44131C22.3669 5.43231 20.2733 5.40039 20.2733 5.40039C20.2733 5.40039 18.5223 3.6943 18.3493 3.52075C18.1763 3.34719 17.8385 3.39959 17.7072 3.43888C17.7055 3.4397 17.3784 3.54121 16.8276 3.71231C16.7354 3.41269 16.5999 3.04429 16.4066 2.67425C15.7832 1.48065 14.8702 0.849467 13.7671 0.847834C13.7654 0.847834 13.7646 0.847834 13.763 0.847834C13.6863 0.847834 13.6104 0.855202 13.5337 0.861748C13.5011 0.822452 13.4684 0.783979 13.4342 0.746316C12.9536 0.230565 12.3376 -0.020763 11.5992 0.00134071C10.1746 0.0422736 8.7557 1.0746 7.60524 2.90839C6.79584 4.19859 6.1798 5.81956 6.00521 7.07454C4.36927 7.58292 3.22534 7.9382 3.20005 7.94641C2.37434 8.20672 2.34823 8.2321 2.24053 9.01313C2.16057 9.60334 0 26.3662 0 26.3662L18.1062 29.5082L25.9537 27.5508C25.9537 27.5508 22.752 5.83102 22.7316 5.682ZM15.9211 3.99393C15.5042 4.12328 15.0301 4.27064 14.5161 4.43028C14.5055 3.70658 14.4198 2.69964 14.0836 1.8294C15.1647 2.03489 15.6967 3.26205 15.9211 3.99393ZM13.5688 4.72499C12.6199 5.01969 11.5845 5.34143 10.5458 5.664C10.8379 4.54161 11.3919 3.42415 12.0724 2.69145C12.3253 2.41884 12.6794 2.11511 13.0988 1.94156C13.4929 2.76676 13.5786 3.93499 13.5688 4.72499ZM11.6277 0.952618C11.9622 0.945251 12.2437 1.01893 12.4845 1.17775C12.0993 1.37832 11.7272 1.66649 11.3781 2.04225C10.4732 3.01646 9.77964 4.52851 9.50305 5.98736C8.64061 6.25505 7.79694 6.51787 7.02018 6.75856C7.51059 4.4622 9.42879 1.01647 11.6277 0.952618Z" fill="#95BF47"/>
<path d="M22.4731 5.44288C22.3662 5.43388 20.2726 5.40196 20.2726 5.40196C20.2726 5.40196 18.5216 3.69586 18.3486 3.52231C18.2842 3.45764 18.1969 3.42407 18.1055 3.41016L18.1063 29.5081L25.953 27.5515C25.953 27.5515 22.7514 5.83258 22.731 5.68357C22.7105 5.53455 22.58 5.45188 22.4731 5.44288Z" fill="#5E8E3E"/>
<path d="M13.7578 9.4896L12.8464 12.9107C12.8464 12.9107 11.8298 12.4466 10.6246 12.5227C8.85732 12.6349 8.83854 13.7531 8.85653 14.034C8.9528 15.564 12.9647 15.898 13.1899 19.4821C13.3669 22.3016 11.6992 24.2303 9.29631 24.3826C6.412 24.5651 4.82422 22.8582 4.82422 22.8582L5.43536 20.25C5.43536 20.25 7.03372 21.46 8.31309 21.3789C9.14862 21.3257 9.44723 20.6438 9.41703 20.1616C9.2914 18.1657 6.02443 18.2836 5.81802 15.004C5.64421 12.2444 7.4507 9.44784 11.4364 9.1957C12.972 9.09665 13.7578 9.4896 13.7578 9.4896Z" fill="white"/>
<path d="M36.2872 16.6543C35.3848 16.163 34.9211 15.7489 34.9211 15.1797C34.9211 14.4554 35.5653 13.9901 36.5712 13.9901C37.7422 13.9901 38.7878 14.4814 38.7878 14.4814L39.6124 11.9464C39.6124 11.9464 38.8541 11.3512 36.6222 11.3512C33.5162 11.3512 31.3635 13.1359 31.3635 15.6449C31.3635 17.0675 32.3687 18.154 33.7096 18.9294C34.7924 19.5498 35.1792 19.9899 35.1792 20.6362C35.1792 21.3085 34.6379 21.8517 33.6327 21.8517C32.1348 21.8517 30.7202 21.0755 30.7202 21.0755L29.8438 23.6105C29.8438 23.6105 31.1507 24.4899 33.3495 24.4899C36.5461 24.4899 38.8404 22.9122 38.8404 20.067C38.8396 18.5421 37.6799 17.4557 36.2872 16.6543Z" fill="white"/>
<path d="M49.023 11.326C47.4505 11.326 46.2131 12.0763 45.2598 13.2139L45.208 13.1879L46.574 6.0238H43.0165L39.5625 24.2577H43.12L44.3056 18.0249C44.7693 15.671 45.9808 14.2232 47.1154 14.2232C47.9142 14.2232 48.2241 14.7664 48.2241 15.5427C48.2241 16.0339 48.1723 16.6291 48.0695 17.1204L46.7294 24.2585H50.2871L51.6787 16.8873C51.8336 16.111 51.937 15.1805 51.937 14.5593C51.9355 12.5416 50.8788 11.326 49.023 11.326Z" fill="white"/>
<path d="M59.9775 11.3242C55.6979 11.3242 52.8633 15.2039 52.8633 19.5228C52.8633 22.2901 54.5641 24.5141 57.761 24.5141C61.9626 24.5141 64.7982 20.7384 64.7982 16.3155C64.7982 13.7553 63.3027 11.3242 59.9775 11.3242ZM58.2247 21.7736C57.013 21.7736 56.4973 20.7392 56.4973 19.4457C56.4973 17.4027 57.5546 14.0663 59.4878 14.0663C60.7509 14.0663 61.1627 15.1527 61.1627 16.2132C61.1627 18.4112 60.1069 21.7736 58.2247 21.7736Z" fill="white"/>
<path d="M73.8951 11.3281C71.4938 11.3281 70.1311 13.449 70.1311 13.449H70.0802L70.2865 11.5352H67.1416C66.9872 12.8287 66.703 14.7937 66.4201 16.2682L63.9453 29.329H67.5029L68.4818 24.0527H68.5597C68.5597 24.0527 69.2895 24.518 70.6478 24.518C74.8235 24.518 77.5556 20.225 77.5556 15.8793C77.5556 13.475 76.4983 11.3281 73.8951 11.3281ZM70.4924 21.8287C69.5689 21.8287 69.0224 21.3114 69.0224 21.3114L69.6155 17.975C70.0282 15.751 71.1879 14.2764 72.4256 14.2764C73.5084 14.2764 73.8431 15.2849 73.8431 16.2423C73.8431 18.5442 72.4771 21.8287 70.4924 21.8287Z" fill="white"/>
<path d="M82.6338 6.20312C81.5 6.20312 80.5977 7.10849 80.5977 8.27204C80.5977 9.33252 81.2677 10.0568 82.273 10.0568H82.3245C83.4332 10.0568 84.3866 9.3065 84.4126 7.98788C84.4126 6.95337 83.7165 6.20312 82.6338 6.20312Z" fill="white"/>
<path d="M77.6602 24.256H81.2168L83.6406 11.6094H80.057L77.6602 24.256Z" fill="white"/>
<path d="M92.6903 11.5851H90.2155L90.3439 10.9899C90.5503 9.77436 91.2723 8.68792 92.458 8.68792C93.0908 8.68792 93.5917 8.869 93.5917 8.869L94.2878 6.07581C94.2878 6.07581 93.6692 5.76562 92.3541 5.76562C91.0909 5.76562 89.8288 6.12774 88.8744 6.95515C87.6627 7.98966 87.0956 9.48936 86.8123 10.9899L86.7099 11.5851H85.0595L84.5439 14.2752H86.1942L84.3125 24.2585H87.8701L89.7518 14.2752H92.2007L92.6903 11.5851Z" fill="white"/>
<path d="M101.246 11.6112C101.246 11.6112 99.0221 17.2325 98.0236 20.301H97.9717C97.9041 19.3128 97.0953 11.6112 97.0953 11.6112H93.3573L95.4978 23.2233C95.5498 23.4815 95.5238 23.6374 95.4204 23.8185C95.0072 24.6199 94.3117 25.3962 93.4867 25.9654C92.8167 26.4566 92.0692 26.7668 91.4766 26.9738L92.4559 30.0001C93.1779 29.845 94.6724 29.2499 95.9356 28.0603C97.56 26.5346 99.0545 24.1806 100.601 20.9733L104.957 11.6104H101.246V11.6112Z" fill="white"/>
</g>
<defs>
<clipPath id="clip0_38_1790">
<rect width="105.385" height="30" fill="white"/>
</clipPath>
</defs>
</svg>
