<svg width="131" height="27" viewBox="0 0 131 27" fill="none" xmlns="http://www.w3.org/2000/svg">
<path d="M101.705 10.183C100.042 10.183 98.6783 10.7641 97.7088 11.8739L97.8968 10.8955C97.9562 10.586 97.7457 10.3243 97.4373 10.3243C97.1286 10.3243 96.8173 10.586 96.7586 10.8955L93.887 25.8607C93.8273 26.1702 94.0375 26.4322 94.3462 26.4322C94.6549 26.4322 94.9662 26.1705 95.0256 25.8607L96.0916 20.3024C96.4842 21.0132 97.3949 21.9874 99.4396 21.9874C101.039 21.9874 102.38 21.4942 103.428 20.5197C104.508 19.5146 105.245 18.0189 105.619 16.0729C105.992 14.1281 105.828 12.6358 105.131 11.6376C104.459 10.6729 103.305 10.183 101.705 10.183ZM99.6409 20.9405C97.2086 20.9405 96.246 19.2575 96.8571 16.0745C97.4739 12.8606 99.0134 11.2316 101.434 11.2316C104.078 11.2316 105.059 12.8152 104.434 16.0745C103.796 19.3941 102.273 20.9405 99.6409 20.9405ZM126.485 15.4417C125.043 14.9048 123.679 14.3974 123.939 13.0476C124.069 12.3694 124.618 11.2306 126.827 11.2306C128.069 11.2306 128.853 11.5753 129.532 12.4208C129.66 12.5785 129.804 12.5785 129.867 12.5785C130.149 12.5785 130.434 12.3385 130.489 12.0544C130.519 11.9 130.49 11.8091 130.422 11.6876C130.419 11.6826 130.416 11.6778 130.413 11.6731C129.724 10.6838 128.585 10.1824 127.029 10.1824C124.76 10.1824 123.14 11.28 122.8 13.047C122.395 15.1629 124.261 15.8707 125.907 16.4956C127.33 17.0355 128.675 17.5455 128.425 18.8397C128.075 20.6669 126.166 20.9398 125.058 20.9398C123.532 20.9398 122.59 20.523 121.907 19.5462L121.9 19.5373C121.86 19.4866 121.809 19.4458 121.751 19.4184C121.693 19.391 121.63 19.3776 121.566 19.3793C121.314 19.3793 121.003 19.5906 120.943 19.9037C120.913 20.0571 120.943 20.1477 121.01 20.2695C121.465 21.1242 122.832 21.988 124.858 21.988C127.427 21.988 129.186 20.8111 129.564 18.8397C129.968 16.7376 128.118 16.0485 126.485 15.4417ZM123.043 7.22793H121.842L122.073 6.02198C122.133 5.71218 121.922 5.45045 121.614 5.45045C121.305 5.45045 120.994 5.71218 120.934 6.02198L120.703 7.22793H119.502C119.193 7.22793 118.882 7.48966 118.823 7.79913C118.764 8.10893 118.974 8.37067 119.282 8.37067H120.484L120.252 9.57661C120.193 9.88608 120.404 10.1481 120.712 10.1481C121.021 10.1481 121.332 9.88641 121.391 9.57661L121.622 8.37067H122.823C123.131 8.37067 123.443 8.10893 123.502 7.79913C123.563 7.49032 123.352 7.22793 123.043 7.22793ZM27.6501 18.8423C28.2336 19.1472 29.2843 19.5686 30.2884 19.5455C31.1991 19.5455 31.6892 19.0527 31.6892 18.4443C31.6892 17.8583 31.3391 17.4602 30.3579 16.8979C29.1443 16.1947 28.2336 15.2103 28.2336 13.9214C28.2336 11.6478 30.1719 10.0309 32.9967 10.0309C34.2345 10.0309 35.1915 10.2654 35.7048 10.5702L34.9579 12.8669C34.5141 12.6559 33.7907 12.4214 32.9501 12.4214C32.0397 12.4214 31.4556 12.8435 31.4556 13.4993C31.4556 14.0146 31.8765 14.3902 32.6936 14.8353C33.9545 15.5616 35.0049 16.5463 35.0049 17.929C35.0049 20.5069 32.9269 21.9601 30.0319 21.9367C28.7005 21.9136 27.4628 21.5614 26.8568 21.14L27.6501 18.8423ZM35.6591 21.8728L38.7878 5.46328H42.0098L40.7721 11.8246L40.8185 11.7827C41.6822 10.7516 42.8031 10.0398 44.2271 10.0398C45.9086 10.0398 46.8657 11.1253 46.8657 12.9535C46.8657 13.5158 46.772 14.4251 46.6321 15.1287L45.3712 21.8738H42.1492L43.3631 15.3308C43.4557 14.8854 43.5034 14.3092 43.5034 13.8644C43.5034 13.1615 43.2237 12.6509 42.4993 12.6509C41.4717 12.6509 40.374 14.0284 39.9541 16.1611L38.8798 21.8738L35.6591 21.8728ZM58.518 14.5305C58.518 18.5381 55.9493 21.9601 52.1432 21.9601C49.2481 21.9601 47.7073 19.9442 47.7073 17.4365C47.7073 13.5227 50.2763 10.0069 54.1519 10.0069C57.1641 10.0076 58.518 12.2104 58.518 14.5305ZM50.9998 17.3664C50.9998 18.5384 51.4667 19.4754 52.5644 19.4754C54.2684 19.4754 55.2262 16.4284 55.2262 14.4366C55.2262 13.4759 54.8522 12.4922 53.7088 12.4922C51.9568 12.4912 50.9998 15.5145 50.9998 17.3664ZM57.7479 26.4306L59.989 14.6045C60.2465 13.2685 60.5026 11.5404 60.643 10.3243H63.4917L63.3047 12.1475H63.3513C64.2148 10.932 65.4763 10.1159 66.7597 10.1159C69.1176 10.1159 70.0753 12.0063 70.0753 14.1858C70.0753 18.1236 67.6009 22.0015 63.8183 22.0015C63.0244 22.0015 62.3006 21.8722 61.9267 21.5686H61.8562L60.9686 26.4309L57.7479 26.4306ZM62.3483 19.0533C62.6987 19.3345 63.0955 19.5222 63.6796 19.5222C65.4776 19.5222 66.7153 16.5456 66.7153 14.46C66.7153 13.5932 66.4118 12.6789 65.4313 12.6789C64.3104 12.6789 63.2597 14.0155 62.8864 16.0304L62.3483 19.0533ZM70.1703 21.8728L72.3419 10.3256H75.5874L73.3926 21.8728H70.1703ZM74.3504 9.11011C73.4396 9.11011 72.833 8.32819 72.833 7.36752C72.833 6.31301 73.6498 5.4297 74.6773 5.4297C75.6576 5.4297 76.2883 6.20404 76.2883 7.14167C76.2652 8.33643 75.4008 9.11043 74.3974 9.11043L74.3504 9.11011ZM76.194 21.8728L77.8987 12.7566H76.4042L76.8715 10.3256H78.366L78.4593 9.74452C78.7168 8.38482 79.2294 7.00438 80.3271 6.06708C81.1905 5.31744 82.3346 4.97834 83.4793 4.97834C84.2735 4.97834 84.8573 5.0906 85.2306 5.25456L84.6005 7.783C84.2693 7.67135 83.9221 7.61551 83.5729 7.61773C82.4984 7.61773 81.8445 8.64326 81.6581 9.74517L81.5413 10.3256H83.7828L83.339 12.7566H81.121L79.4164 21.8728H76.194ZM87.7762 10.3256L88.2895 15.4944C88.4301 16.6431 88.5231 17.6186 88.5695 18.2263H88.6158C88.8733 17.6186 89.1069 16.7129 89.5735 15.4714L91.5347 10.3263H94.897L90.9512 18.7801C89.5504 21.6858 88.1961 23.804 86.7248 25.1868C85.5807 26.2643 84.2262 26.796 83.5726 26.9366L82.6851 24.1902C83.2222 24.0026 83.8989 23.7194 84.5062 23.275C85.2532 22.7597 85.8839 22.0552 86.2572 21.3289C86.3502 21.1653 86.374 21.054 86.3277 20.82L84.3894 10.3269L87.7762 10.3256ZM120.407 11.4114C120.099 11.4114 119.787 11.6731 119.728 11.9829L118.64 17.6555C118.05 20.5451 116.282 20.9398 114.624 20.9398C111.639 20.9398 111.564 19.2331 111.884 17.5633L113.163 10.8965C113.222 10.5867 113.012 10.3249 112.704 10.3249C112.395 10.3249 112.084 10.5867 112.024 10.8961L110.745 17.5629C110.488 18.9068 110.579 19.91 111.027 20.6287C111.588 21.5304 112.731 21.9874 114.423 21.9874C116.114 21.9874 117.432 21.5298 118.34 20.6287C119.063 19.91 119.54 18.9068 119.798 17.5633L120.868 11.9829C120.926 11.6734 120.716 11.4114 120.407 11.4114ZM110.121 5.48205C109.812 5.48205 109.501 5.74378 109.442 6.05326L106.522 21.2749C106.462 21.5844 106.672 21.8461 106.981 21.8461C107.289 21.8461 107.601 21.5844 107.66 21.2749L110.581 6.05326C110.64 5.74378 110.43 5.48205 110.121 5.48205ZM15.8304 3.07542L15.044 3.32003C14.9469 2.99962 14.821 2.68885 14.6678 2.39162C14.1107 1.32493 13.2943 0.759655 12.3085 0.758339H12.3053C12.2367 0.758339 12.1685 0.764263 12.1003 0.770518C12.0718 0.735161 12.042 0.700899 12.0109 0.667801C11.5815 0.206887 11.03 -0.0179736 10.3705 0.00112143C9.09662 0.0379946 7.82824 0.961139 6.80003 2.60068C6.07562 3.75461 5.52643 5.20451 5.3698 6.32618L2.86241 7.10578C2.12462 7.33822 2.10145 7.36126 2.00421 8.05955C1.93144 8.58795 0 23.5792 0 23.5792L16.0252 26.3611V3.0425C15.9593 3.04679 15.8941 3.05782 15.8304 3.07542ZM12.1304 4.22606L9.42783 5.06591C9.68888 4.06211 10.1842 3.06258 10.7925 2.40742C11.0183 2.16413 11.3351 1.89219 11.7097 1.73679C12.0628 2.47393 12.1385 3.51987 12.1304 4.22606ZM10.395 0.852166C10.6939 0.845911 10.9458 0.911426 11.1609 1.05365C10.8169 1.23308 10.4838 1.49053 10.1718 1.82634C9.36257 2.69747 8.7429 4.04992 8.49588 5.35431C7.72447 5.59432 6.97004 5.82839 6.27663 6.04437C6.71389 3.99099 8.42899 0.909122 10.395 0.852166ZM7.917 12.5512C8.00282 13.9194 11.5897 14.218 11.791 17.4237C11.9496 19.9449 10.4587 21.6694 8.31021 21.8057C5.73169 21.969 4.31255 20.4423 4.31255 20.4423L4.8588 18.1091C4.8588 18.1091 6.28739 19.1913 7.43079 19.1185C8.17805 19.0711 8.44465 18.4614 8.41789 18.0298C8.30597 16.2447 5.38579 16.3497 5.20045 13.4173C5.04577 10.9492 6.66004 8.44803 10.2237 8.22218C11.5965 8.13494 12.2997 8.48655 12.2997 8.48655L11.4846 11.5457C11.4846 11.5457 10.5758 11.1309 9.49799 11.1984C7.91765 11.2998 7.90069 12.3003 7.917 12.5512ZM12.9768 3.96202C12.967 3.31476 12.89 2.41434 12.5898 1.63605C13.5563 1.81943 14.0321 2.91739 14.2331 3.57189C13.8611 3.68811 13.4369 3.8198 12.9768 3.96202ZM16.5548 26.2973L23.2025 24.6383C23.2025 24.6383 20.3401 5.21472 20.3224 5.08105C20.3038 4.94805 20.188 4.8743 20.0924 4.86607C19.9968 4.85784 18.1247 4.82986 18.1247 4.82986C18.1247 4.82986 16.9833 3.71741 16.5548 3.29633V26.2973Z" fill="white"/>
</svg>
