<svg xmlns="http://www.w3.org/2000/svg" width="42" height="42" viewBox="0 0 42 42" fill="none"><path d="M11.6666 11.6667V2C11.6666 1.44772 12.1143 1 12.6666 1H40C40.5523 1 41 1.44772 41 2V29.3333C41 29.8856 40.5523 30.3333 40 30.3333H30.3333" stroke="black"></path><path d="M12.0962 11.6666H2C1.44772 11.6666 1 12.1143 1 12.6666V40C1 40.5523 1.44771 41 2 41H29.3333C29.8856 41 30.3333 40.5523 30.3333 40V29.9048" stroke="black"></path><path d="M19.6666 11.6666H29.3333C29.8856 11.6666 30.3333 12.1143 30.3333 12.6666V22.3333" stroke="#24282C" stroke-linecap="round"></path><path d="M22.3334 31.6666H12.6667C12.1144 31.6666 11.6667 31.2189 11.6667 30.6666V21" stroke="#24282C" stroke-linecap="round"></path></svg>