<svg width="60" height="60" viewBox="0 0 60 60" fill="none" xmlns="http://www.w3.org/2000/svg">
<path d="M30.0906 58.7732C45.9843 58.7732 58.8687 45.8889 58.8687 29.9951C58.8687 14.1014 45.9843 1.21704 30.0906 1.21704C14.1969 1.21704 1.3125 14.1014 1.3125 29.9951C1.3125 45.8889 14.1969 58.7732 30.0906 58.7732Z" stroke="#24282C" stroke-width="1.5" stroke-linecap="round" stroke-linejoin="round"/>
<path d="M21.9586 24.9902C25.0683 24.9902 27.5891 22.4694 27.5891 19.3597C27.5891 16.2501 25.0683 13.7292 21.9586 13.7292C18.849 13.7292 16.3281 16.2501 16.3281 19.3597C16.3281 22.4694 18.849 24.9902 21.9586 24.9902Z" stroke="#24282C" stroke-width="1.5" stroke-linecap="round" stroke-linejoin="round"/>
<path d="M35.7218 47.5122C37.4494 47.5122 38.8499 46.1117 38.8499 44.3842C38.8499 42.6566 37.4494 41.2561 35.7218 41.2561C33.9942 41.2561 32.5938 42.6566 32.5938 44.3842C32.5938 46.1117 33.9942 47.5122 35.7218 47.5122Z" stroke="#24282C" stroke-width="1.5" stroke-linecap="round" stroke-linejoin="round"/>
<path d="M46.9808 29.9951C49.3994 29.9951 51.3601 28.0345 51.3601 25.6158C51.3601 23.1972 49.3994 21.2366 46.9808 21.2366C44.5622 21.2366 42.6016 23.1972 42.6016 25.6158C42.6016 28.0345 44.5622 29.9951 46.9808 29.9951Z" stroke="#24282C" stroke-width="1.5" stroke-linecap="round" stroke-linejoin="round"/>
<path d="M27.5898 18.7393C33.184 18.9524 38.5141 21.1733 42.6045 24.9954" stroke="#24282C" stroke-width="1.5" stroke-linecap="round" stroke-linejoin="round"/>
<path d="M47.8555 29.9102L48.8564 31.2465C48.8564 31.2465 52.6101 36.2514 52.6101 47.5123" stroke="#24282C" stroke-width="1.5" stroke-linecap="round" stroke-linejoin="round"/>
<path d="M42.1602 3.86206L42.6031 4.97565C44.4145 10.3415 45.2617 15.9857 45.1055 21.6469" stroke="#24282C" stroke-width="1.5" stroke-linecap="round" stroke-linejoin="round"/>
<path d="M43.853 28.749C43.5396 33.9171 41.677 38.871 38.5078 42.9654" stroke="#24282C" stroke-width="1.5" stroke-linecap="round" stroke-linejoin="round"/>
<path d="M34.2241 47.1318L33.8438 47.5172C33.8438 47.5172 27.5877 53.7733 13.8242 53.7733" stroke="#24282C" stroke-width="1.5" stroke-linecap="round" stroke-linejoin="round"/>
<path d="M30.09 1.22217C26.6664 4.88387 23.9135 9.11911 21.957 13.7344" stroke="#24282C" stroke-width="1.5" stroke-linecap="round" stroke-linejoin="round"/>
<path d="M19.034 24.1746L18.8288 24.9954C17.4654 31.7632 18.3438 38.791 21.3313 45.0149C25.5854 53.5382 36.3459 57.5271 36.3459 57.5271L37.2793 57.875" stroke="#24282C" stroke-width="1.5" stroke-linecap="round" stroke-linejoin="round"/>
<path d="M16.3266 19.3599C16.3266 19.3599 6.72724 20.048 1.875 24.2972" stroke="#24282C" stroke-width="1.5" stroke-linecap="round" stroke-linejoin="round"/>
<path d="M2.01172 36.3364L2.56226 36.2513C2.56226 36.2513 19.7816 33.6037 33.7777 41.9319" stroke="#24282C" stroke-width="1.5" stroke-linecap="round" stroke-linejoin="round"/>
</svg>
