<svg xmlns="http://www.w3.org/2000/svg" width="28" height="28" viewBox="0 0 28 28" fill="none"><path d="M10.9734 25.0304L10.7038 24.3306L10.9734 25.0304ZM4.39259 26.2766L4.0215 26.9284H4.0215L4.39259 26.2766ZM2.19657 20.0331L1.45536 20.1476L2.19657 20.0331ZM2.992 15.8697L3.63923 16.2487L2.992 15.8697ZM2.04431 17.8492L1.30763 17.7085L2.04431 17.8492ZM14.2319 22.2694L14.8791 22.6483L14.2319 22.2694ZM12.9674 24.0685L13.4522 24.6407L12.9674 24.0685ZM9.15433 5.3438L8.50709 4.96487L9.15433 5.3438ZM27 27.75C27.4142 27.75 27.75 27.4142 27.75 27C27.75 26.5858 27.4142 26.25 27 26.25V27.75ZM17.266 26.25C16.8518 26.25 16.516 26.5858 16.516 27C16.516 27.4142 16.8518 27.75 17.266 27.75V26.25ZM19.7469 11.3645L13.5846 21.8904L14.8791 22.6483L21.0414 12.1224L19.7469 11.3645ZM3.63923 16.2487L9.80157 5.72272L8.50709 4.96487L2.34476 15.4908L3.63923 16.2487ZM10.7038 24.3306C8.93877 25.0106 7.68983 25.4899 6.71349 25.7148C5.7561 25.9354 5.20385 25.8755 4.76368 25.6249L4.0215 26.9284C4.93187 27.4467 5.9266 27.4354 7.05028 27.1765C8.15501 26.922 9.52122 26.3937 11.2431 25.7303L10.7038 24.3306ZM1.45536 20.1476C1.73357 21.949 1.953 23.3823 2.28255 24.4553C2.61848 25.5492 3.10891 26.4088 4.0215 26.9284L4.76368 25.6249C4.32573 25.3755 3.99998 24.9382 3.71645 24.015C3.42653 23.0709 3.22323 21.7669 2.93778 19.9187L1.45536 20.1476ZM2.34476 15.4908C1.80744 16.4086 1.43978 17.0168 1.30763 17.7085L2.78099 17.99C2.85347 17.6106 3.04939 17.2562 3.63923 16.2487L2.34476 15.4908ZM2.93778 19.9187C2.76015 18.7685 2.70859 18.3689 2.78099 17.99L1.30763 17.7085C1.1754 18.4006 1.29356 19.1 1.45536 20.1476L2.93778 19.9187ZM13.5846 21.8904C12.9953 22.897 12.7814 23.243 12.4825 23.4963L13.4522 24.6407C13.9915 24.1837 14.3412 23.567 14.8791 22.6483L13.5846 21.8904ZM11.2431 25.7303C12.2452 25.3441 12.9139 25.0969 13.4522 24.6407L12.4825 23.4963C12.1826 23.7504 11.8014 23.9077 10.7038 24.3306L11.2431 25.7303ZM17.6478 3.65313C18.9908 4.41779 19.932 4.95549 20.5886 5.45518C21.2286 5.94226 21.5039 6.32481 21.6169 6.74088L23.0644 6.34758C22.8296 5.48339 22.2686 4.84873 21.497 4.26153C20.742 3.68696 19.6963 3.09335 18.39 2.34961L17.6478 3.65313ZM21.0414 12.1224C21.7954 10.8345 22.4007 9.80375 22.7637 8.9327C23.1352 8.0414 23.2995 7.21277 23.0644 6.34758L21.6169 6.74088C21.7297 7.15593 21.6855 7.62058 21.3792 8.35566C21.0644 9.11099 20.5226 10.0397 19.7469 11.3645L21.0414 12.1224ZM18.39 2.34961C17.0836 1.60578 16.0396 1.00958 15.158 0.652214C14.2563 0.286739 13.4235 0.12726 12.5552 0.356685L12.9385 1.80691C13.3684 1.69329 13.847 1.7394 14.5945 2.04236C15.362 2.35345 16.305 2.88855 17.6478 3.65313L18.39 2.34961ZM9.80157 5.72272C10.5771 4.39805 11.1218 3.47075 11.628 2.82389C12.1202 2.19489 12.5094 1.92027 12.9385 1.80691L12.5552 0.356685C11.6861 0.586363 11.0438 1.13642 10.4467 1.8995C9.86354 2.64473 9.26113 3.6769 8.50709 4.96487L9.80157 5.72272ZM20.7653 11.0917L9.52542 4.69204L8.78324 5.99556L20.0231 12.3952L20.7653 11.0917ZM27 26.25H17.266V27.75H27V26.25Z" fill="white"></path></svg>