<svg xmlns="http://www.w3.org/2000/svg" width="60" height="60" viewBox="0 0 60 60" fill="none"><path d="M22.6427 39.1953C21.6268 40.2114 21.6268 41.858 22.6427 42.8737C23.6588 43.8898 25.3054 43.8898 26.3215 42.8737L42.8699 26.3255C44.9009 24.2945 48.1943 24.2945 50.225 26.3255C52.256 28.3564 52.256 31.6496 50.225 33.6807L33.9956 49.9089C36.0243 51.94 39.3157 51.9421 41.3465 49.9134L41.3508 49.9089L53.9059 37.3549C57.9688 33.292 57.9688 26.7064 53.9059 22.6447C49.8429 18.5817 43.2565 18.5817 39.1956 22.6447L22.6427 39.1953ZM48.3877 28.1616C47.3717 27.1457 45.7251 27.1457 44.71 28.1616L28.1595 44.71C26.1308 46.7411 22.8397 46.7432 20.8087 44.715L20.8033 44.71C19.7885 43.6949 18.1429 43.6939 17.1269 44.709L17.1259 44.71C16.1097 45.725 16.1088 47.3714 17.1236 48.3874L17.1259 48.3895C21.1877 52.4505 27.7742 52.4505 31.8358 48.3895L48.3866 31.839C49.4026 30.8232 49.4026 29.1765 48.3877 28.1616ZM20.8045 37.356L37.3529 20.8073C38.368 19.7914 38.368 18.1447 37.3529 17.1288C36.3381 16.1137 34.6923 16.1137 33.6775 17.1288L17.126 33.6773C15.0961 35.7082 11.8027 35.7094 9.77177 33.6783L9.77071 33.6773C7.73985 31.6474 7.73763 28.3562 9.76755 26.3243L9.77071 26.3211L26.0024 10.0896C23.9727 8.05862 20.6803 8.05757 18.6483 10.0874L18.6461 10.0896L6.09325 22.6446C2.03142 26.7074 2.03142 33.2928 6.09325 37.3548C10.1572 41.418 16.7406 41.418 20.8045 37.356ZM11.6101 31.839C12.6249 32.8541 14.2705 32.8541 15.2856 31.839L31.837 15.2896C33.8668 13.2586 37.1592 13.2575 39.19 15.2872L39.1922 15.2896C40.2083 16.3055 41.8548 16.3055 42.8697 15.2896C43.8858 14.2735 43.8858 12.6269 42.8697 11.6119C38.807 7.54897 32.2224 7.54897 28.1595 11.6119L11.6101 28.1616C10.594 29.1766 10.594 30.8234 11.6088 31.8391H11.6101V31.839Z" fill="white"></path></svg>