<svg xmlns="http://www.w3.org/2000/svg" width="46" height="46" viewBox="0 0 46 46" fill="none"><path fill-rule="evenodd" clip-rule="evenodd" d="M24.1252 8.73472L27.7816 16.4998C27.9647 16.8914 28.3183 17.1648 28.7288 17.2281L36.9144 18.4765C37.246 18.5231 37.5444 18.7065 37.748 18.9865C38.1301 19.5115 38.0716 20.2548 37.6138 20.7065L31.681 26.7632C31.3795 27.0632 31.2453 27.5032 31.3242 27.9315L32.745 36.4782C32.8445 37.1866 32.3867 37.8499 31.7157 37.9649C31.4379 38.0099 31.1537 37.9633 30.9011 37.8316L23.6106 33.7966C23.2443 33.5866 22.8054 33.5866 22.4392 33.7966L15.095 37.8533C14.4808 38.1833 13.7294 37.9383 13.3947 37.3032C13.2668 37.0466 13.2226 36.7549 13.2668 36.4699L14.6877 27.9232C14.7587 27.4965 14.6245 27.0582 14.3309 26.7565L8.36647 20.7015C7.88022 20.1915 7.87706 19.3615 8.36173 18.8481C8.36331 18.8465 8.36489 18.8431 8.36647 18.8415C8.56696 18.6498 8.81324 18.5215 9.08005 18.4715L17.2673 17.2231C17.6762 17.1548 18.0282 16.8848 18.2145 16.4931L21.8677 8.73472C22.0145 8.41972 22.275 8.17805 22.5907 8.06805C22.908 7.95638 23.2554 7.98305 23.5537 8.14138C23.7984 8.26972 23.9989 8.47805 24.1252 8.73472Z" stroke="#24282C" stroke-width="1.5" stroke-linecap="round"></path></svg>