<svg xmlns="http://www.w3.org/2000/svg" width="40" height="40" viewBox="0 0 40 40" fill="none"><path opacity="0.4" d="M35.0167 18.7V26.1833C35.0167 33.6666 32.0333 36.6667 24.5333 36.6667H15.55C14.5834 36.6667 13.7 36.6167 12.8833 36.5" stroke="white" stroke-width="1.5" stroke-linecap="round" stroke-linejoin="round"></path><path opacity="0.4" d="M5.06665 25.8667V18.7" stroke="white" stroke-width="1.5" stroke-linecap="round" stroke-linejoin="round"></path><path d="M20.0501 20C23.1001 20 25.3501 17.5167 25.0501 14.4667L23.9333 3.33331H16.15L15.0334 14.4667C14.7334 17.5167 17.0001 20 20.0501 20Z" stroke="white" stroke-width="1.5" stroke-linecap="round" stroke-linejoin="round"></path><path d="M30.55 20C33.9167 20 36.3834 17.2666 36.05 13.9166L35.5833 9.33327C34.9833 4.99994 33.3167 3.33331 28.95 3.33331H23.8667L25.0334 15.0167C25.3334 17.7667 27.8 20 30.55 20Z" stroke="white" stroke-width="1.5" stroke-linecap="round" stroke-linejoin="round"></path><path d="M9.44998 20C12.2 20 14.6833 17.7667 14.95 15.0167L15.3167 11.3334L16.1166 3.33331H11.0333C6.66667 3.33331 5.00003 4.99994 4.40003 9.33327L3.93332 13.9166C3.59999 17.2666 6.08332 20 9.44998 20Z" stroke="white" stroke-width="1.5" stroke-linecap="round" stroke-linejoin="round"></path><path d="M15 31.6667C15 32.9167 14.65 34.1001 14.0333 35.1001C13.7167 35.6334 13.3333 36.1167 12.8833 36.5C12.8333 36.5667 12.7834 36.6167 12.7167 36.6667C11.55 37.7167 10.0167 38.3333 8.33335 38.3333C6.30002 38.3333 4.4833 37.4166 3.2833 35.9833C3.24997 35.9333 3.20006 35.9 3.16673 35.85C2.96673 35.6167 2.78338 35.3668 2.63338 35.1001C2.01672 34.1001 1.66669 32.9167 1.66669 31.6667C1.66669 29.5667 2.63335 27.6833 4.16669 26.4667C4.45002 26.2333 4.74998 26.0334 5.06665 25.8667C6.03332 25.3167 7.15002 25 8.33335 25C10 25 11.5 25.6 12.6666 26.6166C12.8666 26.7666 13.05 26.95 13.2167 27.1334C14.3167 28.3334 15 29.9167 15 31.6667Z" stroke="white" stroke-width="1.5" stroke-miterlimit="10" stroke-linecap="round" stroke-linejoin="round"></path><g opacity="0.4"><path d="M10.8167 31.6333H5.85004" stroke="white" stroke-width="1.5" stroke-miterlimit="10" stroke-linecap="round" stroke-linejoin="round"></path><path d="M8.33374 29.2V34.1833" stroke="white" stroke-width="1.5" stroke-miterlimit="10" stroke-linecap="round" stroke-linejoin="round"></path></g></svg>