<svg width="64" height="64" viewBox="0 0 64 64" fill="none" xmlns="http://www.w3.org/2000/svg">
                                            <path d="M56.6655 27.0652C56.6655 13.4421 45.6218 2.39844 31.9987 2.39844C18.3757 2.39844 7.33203 13.4421 7.33203 27.0652" stroke="#24282C" stroke-linecap="round"></path>
                                            <path d="M2.39844 34.9579C2.39844 30.5985 5.93241 27.0646 10.2918 27.0646C11.3816 27.0646 12.2651 27.9481 12.2651 29.0379V44.0024C12.2651 45.0922 11.3816 45.9757 10.2918 45.9757C5.93241 45.9757 2.39844 42.4418 2.39844 38.0824V34.9579Z" fill="#212B35" fill-opacity="0.06" stroke="#24282C" stroke-linecap="round"></path>
                                            <path d="M61.5996 34.9578C61.5996 30.5984 58.0656 27.0645 53.7063 27.0645C52.6164 27.0645 51.7329 27.9479 51.7329 29.0378V44.0023C51.7329 45.0921 52.6164 45.9756 53.7063 45.9756C58.0656 45.9756 61.5996 42.4416 61.5996 38.0823V34.9578Z" fill="#212B35" fill-opacity="0.06" stroke="#24282C" stroke-linecap="round"></path>
                                            <path d="M56.6653 46.0254V48.1987C56.6653 53.81 52.1165 58.3587 46.5053 58.3587H41.8652" stroke="#24282C" stroke-linecap="round"></path>
                                            <rect x="30.3555" y="55.0195" width="11.5111" height="6.57779" rx="3.2889" fill="#212B35" fill-opacity="0.06" stroke="#24282C" stroke-linecap="round"></rect>
                                        </svg>