<svg width="28" height="28" fill="none" xmlns="http://www.w3.org/2000/svg"><path d="m14.595 9.4 1.024 2.147c.099.206.297.36.512.395l2.279.344c.561.085.793.807.38 1.22l-1.652 1.666c-.165.154-.231.395-.198.635l.396 2.354c.1.584-.495 1.03-.99.756L14.313 17.8a.71.71 0 0 0-.644 0l-2.032 1.117c-.512.275-1.09-.172-.99-.756l.396-2.354a.744.744 0 0 0-.199-.635L9.21 13.505c-.413-.412-.181-1.134.38-1.22l2.28-.343a.649.649 0 0 0 .511-.395l1.008-2.148c.231-.532.958-.532 1.206 0z" stroke="#222" stroke-width="1.5" stroke-linecap="round" stroke-linejoin="round"/><path d="M17.167 25.333h-7C4.333 25.333 2 23 2 17.167v-7C2 4.333 4.333 2 10.167 2h7c5.833 0 8.166 2.333 8.166 8.167v7c0 5.833-2.333 8.166-8.166 8.166z" stroke="#292D32" stroke-width="1.5" stroke-linecap="round" stroke-linejoin="round"/></svg>