<svg xmlns="http://www.w3.org/2000/svg" width="60" height="60" viewBox="0 0 60 60" fill="none"><rect width="60" height="60" rx="10" fill="#F5F5F5"></rect><path d="M18.7723 34.7624L18.8896 34.0217L18.7723 34.7624ZM25.2376 41.2277L25.9783 41.1104L25.2376 41.2277ZM19.2061 42.5146L18.7653 43.1213L19.2061 42.5146ZM17.4854 40.7939L18.0922 40.353L17.4854 40.7939ZM42.5146 40.7939L41.9078 40.353L42.5146 40.7939ZM40.7939 42.5146L40.353 41.9078L40.7939 42.5146ZM40.7939 17.4854L40.353 18.0922L40.7939 17.4854ZM42.5146 19.2061L41.9078 19.6469L42.5146 19.2061ZM19.2061 17.4854L19.6469 18.0922L19.2061 17.4854ZM17.4854 19.2061L18.0922 19.6469L17.4854 19.2061ZM16.045 34.6667L15.2954 34.6923L16.045 34.6667ZM25.3333 43.955L25.3077 44.7046L25.3333 43.955ZM23.7778 29.25C23.3636 29.25 23.0278 29.5858 23.0278 30C23.0278 30.4142 23.3636 30.75 23.7778 30.75V29.25ZM36.2222 30.75C36.6364 30.75 36.9722 30.4142 36.9722 30C36.9722 29.5858 36.6364 29.25 36.2222 29.25V30.75ZM23.7778 23.0278C23.3636 23.0278 23.0278 23.3636 23.0278 23.7778C23.0278 24.192 23.3636 24.5278 23.7778 24.5278V23.0278ZM28.4444 24.5278C28.8587 24.5278 29.1944 24.192 29.1944 23.7778C29.1944 23.3636 28.8587 23.0278 28.4444 23.0278V24.5278ZM18.6549 35.5032C21.6621 35.9795 24.0205 38.3379 24.4968 41.3451L25.9783 41.1104C25.4004 37.4614 22.5386 34.5996 18.8896 34.0217L18.6549 35.5032ZM19.6469 41.9078C19.0503 41.4743 18.5257 40.9497 18.0922 40.353L16.8787 41.2347C17.4047 41.9587 18.0413 42.5954 18.7653 43.1213L19.6469 41.9078ZM43.25 30C43.25 32.9332 43.249 35.0728 43.0687 36.7368C42.8899 38.3868 42.5422 39.48 41.9078 40.353L43.1213 41.2347C43.9724 40.0633 44.3674 38.676 44.56 36.8984C44.751 35.1348 44.75 32.8998 44.75 30H43.25ZM30 44.75C32.8998 44.75 35.1348 44.751 36.8984 44.56C38.676 44.3674 40.0633 43.9724 41.2347 43.1213L40.353 41.9078C39.48 42.5422 38.3868 42.8899 36.7368 43.0687C35.0728 43.249 32.9332 43.25 30 43.25V44.75ZM41.9078 40.353C41.4743 40.9497 40.9497 41.4743 40.353 41.9078L41.2347 43.1213C41.9587 42.5954 42.5954 41.9587 43.1213 41.2347L41.9078 40.353ZM30 16.75C32.9332 16.75 35.0728 16.751 36.7368 16.9313C38.3868 17.1101 39.4799 17.4579 40.353 18.0922L41.2347 16.8787C40.0633 16.0276 38.676 15.6326 36.8984 15.44C35.1348 15.249 32.8998 15.25 30 15.25V16.75ZM44.75 30C44.75 27.1002 44.751 24.8652 44.56 23.1016C44.3674 21.324 43.9724 19.9367 43.1213 18.7653L41.9078 19.6469C42.5422 20.52 42.8899 21.6132 43.0687 23.2632C43.249 24.9272 43.25 27.0668 43.25 30H44.75ZM40.353 18.0922C40.9497 18.5257 41.4743 19.0503 41.9078 19.6469L43.1213 18.7653C42.5954 18.0413 41.9587 17.4047 41.2347 16.8787L40.353 18.0922ZM30 15.25C27.1002 15.25 24.8652 15.249 23.1016 15.44C21.324 15.6326 19.9367 16.0276 18.7653 16.8787L19.6469 18.0922C20.52 17.4579 21.6132 17.1101 23.2632 16.9313C24.9272 16.751 27.0668 16.75 30 16.75V15.25ZM16.75 30C16.75 27.0668 16.751 24.9272 16.9313 23.2632C17.1101 21.6132 17.4579 20.52 18.0922 19.6469L16.8787 18.7653C16.0276 19.9367 15.6326 21.324 15.44 23.1016C15.249 24.8652 15.25 27.1002 15.25 30H16.75ZM18.7653 16.8787C18.0413 17.4047 17.4047 18.0413 16.8787 18.7653L18.0922 19.6469C18.5257 19.0503 19.0503 18.5257 19.6469 18.0922L18.7653 16.8787ZM15.25 30C15.25 31.8142 15.2499 33.3633 15.2954 34.6923L16.7946 34.641C16.7501 33.3431 16.75 31.8225 16.75 30H15.25ZM15.2954 34.6923C15.3951 37.6015 15.7117 39.6285 16.8787 41.2347L18.0922 40.353C17.2144 39.1449 16.8936 37.5316 16.7946 34.641L15.2954 34.6923ZM16.045 35.4167C17.4877 35.4167 18.1294 35.42 18.6549 35.5032L18.8896 34.0217C18.2186 33.9154 17.4327 33.9167 16.045 33.9167L16.045 35.4167ZM30 43.25C28.1775 43.25 26.6569 43.2499 25.359 43.2054L25.3077 44.7046C26.6367 44.7501 28.1858 44.75 30 44.75V43.25ZM25.359 43.2054C22.4684 43.1064 20.8551 42.7856 19.6469 41.9078L18.7653 43.1213C20.3715 44.2883 22.3986 44.6049 25.3077 44.7046L25.359 43.2054ZM26.0833 43.955C26.0833 42.5673 26.0846 41.7814 25.9783 41.1104L24.4968 41.3451C24.58 41.8706 24.5833 42.5123 24.5833 43.955H26.0833ZM23.7778 30.75H36.2222V29.25H23.7778V30.75ZM23.7778 24.5278H28.4444V23.0278H23.7778V24.5278Z" fill="#222222"></path></svg>