<svg width="64" height="64" viewBox="0 0 64 64" fill="none" xmlns="http://www.w3.org/2000/svg">
                                        <path opacity="0.06" fill-rule="evenodd" clip-rule="evenodd" d="M37.91 31.4099H51.91V15.4099H11.91V45.4099H37.91V31.4099ZM6 56.8199H57.82V62.8199H6V56.8199Z" fill="#24282C"></path>
                                        <path d="M11.91 45.41H32.91M1 5H62.82V56.82H1V5ZM57.82 62.82H6H57.82ZM31.21 1V8V1ZM11.21 1V8V1ZM51.21 1V8V1ZM11.91 15.41H51.91H11.91ZM11.91 25.41H51.91H11.91ZM11.91 35.41H32.91H11.91Z" stroke="#24282C"></path>
                                        <path fill-rule="evenodd" clip-rule="evenodd" d="M37.91 31.4099H55.91V49.4099H37.91V31.4099Z" stroke="#24282C"></path>
                                        <path d="M51.1397 37.46L45.4997 43.35L42.6797 40.41" stroke="#24282C"></path>
                                    </svg>