<svg xmlns="http://www.w3.org/2000/svg" width="60" height="60" viewBox="0 0 60 60" fill="none"><path d="M26.427 22.523L23.543 33.6968L21.1443 24.5522C20.4964 21.8578 19.3916 20.4647 17.065 20.4647C14.7596 20.4647 13.6403 21.8275 12.9858 24.5522L10.587 33.6968L7.70297 22.523C7.23551 20.2725 5.05652 19.2998 3.04688 19.5524L8.5698 40.4351C8.5698 40.4351 10.3916 40.5665 11.3038 40.1015C12.5016 39.4909 13.0709 39.0199 13.7961 36.179C14.4422 33.6462 16.2479 26.2055 16.4174 25.6758C16.8183 24.4174 17.3514 24.5125 17.7143 25.6758C17.8802 26.2063 19.6894 33.6462 20.3355 36.179C21.0599 39.0199 21.6301 39.4909 22.8279 40.1015C23.7393 40.5665 25.5619 40.4351 25.5619 40.4351L31.0848 19.5525C29.0279 19.2939 26.8884 20.3046 26.427 22.523ZM36.1789 22.962C36.1789 22.962 35.8337 23.4959 35.0453 23.9365C34.539 24.2194 34.0529 24.4114 33.5316 24.6617C32.2563 25.2733 32.4216 25.8366 32.4216 27.6265V40.4351C32.4216 40.4351 33.8155 40.6112 34.7268 40.1461C35.9 39.548 36.1697 38.9713 36.1806 36.3743V23.7176L36.1788 23.7184V22.962H36.1789ZM49.945 30.0438L56.9529 19.6214C56.9529 19.6214 53.9957 19.1178 52.531 20.4511C51.4109 21.4702 50.4749 22.9399 47.9677 26.5552C47.928 26.6165 47.4412 27.4429 46.8667 26.5552C44.3995 22.9981 43.43 21.477 42.3033 20.4511C40.8384 19.1178 37.8812 19.6214 37.8812 19.6214L44.889 30.0438L37.9007 40.434C37.9007 40.434 40.9807 40.8233 42.4446 39.49C43.4125 38.6088 43.9254 37.7742 46.8674 33.5335C47.4411 32.6474 47.9262 33.4685 47.9684 33.5335C50.4448 37.1029 51.2727 38.4237 52.4442 39.49C53.9089 40.8233 56.9353 40.434 56.9353 40.434L49.945 30.0438Z" fill="white"></path><path d="M36.1809 19.5296C36.1809 20.627 36.356 22.283 33.7652 23.2212C32.9633 23.5118 32.4219 24.035 32.4219 24.035C32.4219 21.4238 32.8193 20.4787 33.8873 19.9195C34.7087 19.4893 36.1809 19.5296 36.1809 19.5296Z" fill="white"></path></svg>