<svg xmlns="http://www.w3.org/2000/svg" width="60" height="60" viewBox="0 0 60 60" fill="none"><path d="M7.5 10C3.365 10 0 13.365 0 17.5V37.5C0 41.635 3.365 45 7.5 45H26.5625L42.5 50L41.3232 45H52.5C56.635 45 60 41.635 60 37.5V17.5C60 13.365 56.635 10 52.5 10H7.5ZM7.5 15H52.5C53.8775 15 55 16.1225 55 17.5V37.5C55 38.8775 53.8775 40 52.5 40H41.3232H35.0146L35.625 42.6025L28.0615 40.2295L27.3291 40H26.5625H7.5C6.1225 40 5 38.8775 5 37.5V17.5C5 16.1225 6.1225 15 7.5 15ZM25.6201 17.5C24.8917 17.5032 24.1897 17.9372 23.8916 18.6572C22.7941 21.2947 22.0239 24.6238 21.6064 28.4863C20.3514 24.9588 19.6609 21.5638 19.6484 21.5088C19.4859 20.6963 18.8107 20.0873 17.9932 20.0098C17.1582 19.9173 16.3941 20.4045 16.0791 21.167L12.6562 29.5361C12.0312 26.5411 11.3975 22.7644 11.25 19.2969C11.21 18.2619 10.2993 17.4199 9.30176 17.5049C8.26676 17.5449 7.45988 18.4181 7.50488 19.4531C7.82238 27.0881 10.2807 35.7727 10.3857 36.1377C10.6032 36.9077 11.2923 37.4501 12.0898 37.4951C12.8748 37.5426 13.6233 37.073 13.9258 36.333L17.4268 27.7783C18.3743 30.8058 19.7879 34.4122 21.6504 36.7822C22.0154 37.2422 22.56 37.5 23.125 37.5C23.33 37.5 23.5354 37.465 23.7354 37.3975C24.4904 37.135 25 36.4225 25 35.625C25 29.2575 25.8385 23.7403 27.3535 20.0928C27.751 19.1403 27.3003 18.044 26.3428 17.6465C26.1071 17.5471 25.8629 17.4989 25.6201 17.5ZM34.375 20C31.64 20.01 29.0975 22.6585 28.335 26.416C27.8525 28.806 28.2165 31.2114 29.3115 32.8564C30.054 33.9689 31.0685 34.682 32.251 34.917C32.531 34.972 32.8133 35 33.0908 35C35.8283 35 38.4 32.3614 39.165 28.5889C39.6475 26.1989 39.2835 23.7934 38.1885 22.1484C37.446 21.0359 36.4291 20.3229 35.2441 20.0879C34.9516 20.0279 34.6625 20 34.375 20ZM47.5 20C44.7675 20.01 42.225 22.6585 41.46 26.416C40.9775 28.806 41.3415 31.2114 42.4365 32.8564C43.179 33.9689 44.1935 34.682 45.376 34.917C45.656 34.972 45.9383 35 46.2158 35C48.9533 35 51.525 32.3614 52.29 28.5889C52.7725 26.1989 52.4085 23.7934 51.3135 22.1484C50.571 21.0359 49.5541 20.3229 48.3691 20.0879C48.0766 20.0279 47.7875 20 47.5 20ZM34.4189 23.7549C34.4489 23.7549 34.4817 23.7596 34.5117 23.7646C34.7467 23.8121 34.9459 24.0411 35.0684 24.2236C35.4759 24.8386 35.8333 26.1542 35.4883 27.8467C35.0208 30.1667 33.6408 31.3552 32.9883 31.2402C32.7533 31.1927 32.559 30.9637 32.4365 30.7812C32.029 30.1662 31.6716 28.8507 32.0166 27.1582C32.4641 24.9407 33.7664 23.7549 34.4189 23.7549ZM47.5439 23.7549C47.5739 23.7549 47.6067 23.7596 47.6367 23.7646C47.8717 23.8121 48.0709 24.0411 48.1934 24.2236C48.6009 24.8386 48.9583 26.1542 48.6133 27.8467C48.1458 30.1667 46.7483 31.3552 46.1133 31.2402C45.8783 31.1927 45.684 30.9637 45.5615 30.7812C45.154 30.1662 44.7966 28.8507 45.1416 27.1582C45.5891 24.9407 46.8914 23.7549 47.5439 23.7549Z" fill="white"></path></svg>